<?xml version="1.0" encoding="UTF-8" standalone="no"?>
<!-- Created with matplotlib (http://matplotlib.sourceforge.net/) -->

<svg
   xmlns:dc="http://purl.org/dc/elements/1.1/"
   xmlns:cc="http://creativecommons.org/ns#"
   xmlns:rdf="http://www.w3.org/1999/02/22-rdf-syntax-ns#"
   xmlns:svg="http://www.w3.org/2000/svg"
   xmlns="http://www.w3.org/2000/svg"
   xmlns:xlink="http://www.w3.org/1999/xlink"
   xmlns:sodipodi="http://sodipodi.sourceforge.net/DTD/sodipodi-0.dtd"
   xmlns:inkscape="http://www.inkscape.org/namespaces/inkscape"
   height="300"
   version="1.1"
   viewBox="0 0 576 240"
   width="720"
   id="svg2"
   inkscape:version="0.48.3.1 r9886"
   sodipodi:docname="accuracy.svg">
  <metadata
     id="metadata221">
    <rdf:RDF>
      <cc:Work
         rdf:about="">
        <dc:format>image/svg+xml</dc:format>
        <dc:type
           rdf:resource="http://purl.org/dc/dcmitype/StillImage" />
      </cc:Work>
    </rdf:RDF>
  </metadata>
  <sodipodi:namedview
     pagecolor="#ffffff"
     bordercolor="#666666"
     borderopacity="1"
     objecttolerance="10"
     gridtolerance="10"
     guidetolerance="10"
     inkscape:pageopacity="0"
     inkscape:pageshadow="2"
     inkscape:window-width="1680"
     inkscape:window-height="1003"
     id="namedview219"
     showgrid="false"
     inkscape:zoom="1.0685169"
     inkscape:cx="425.49867"
     inkscape:cy="295.34153"
     inkscape:window-x="0"
     inkscape:window-y="0"
     inkscape:window-maximized="1"
     inkscape:current-layer="svg2" />
  <defs
     id="defs4"
     style="stroke-linecap:square;stroke-linejoin:round">
    <style
       type="text/css"
       id="style6">
*{stroke-linecap:square;stroke-linejoin:round;}
  </style>
  </defs>
  <g
     style="stroke-linecap:square;stroke-linejoin:round"
     id="patch_1"
     transform="translate(0,-192)">
    <path
       inkscape:connector-curvature="0"
       id="path10"
       style="opacity:0;fill:none;stroke-linecap:square;stroke-linejoin:round"
       d="M 0,432 576,432 576,0 0,0 z" />
  </g>
  <g
     id="patch_5"
     style="stroke-linecap:square;stroke-linejoin:round"
     transform="translate(0,-192)">
    <path
       d="m 72.0383,378.164 475.4217,0 0,-171.246 -475.4217,0 z"
       style="opacity:0;fill:none;stroke-linecap:square;stroke-linejoin:round"
       id="path100"
       inkscape:connector-curvature="0" />
  </g>
  <g
     id="g3421"
     style="stroke-linecap:square;stroke-linejoin:round"
     transform="translate(0,-8)">
    <g
       id="axes_1"
       style="stroke-linecap:square;stroke-linejoin:round">
      <g
         id="patch_2"
         style="stroke-linecap:square;stroke-linejoin:round">
        <path
           d="m 72.0383,206.918 475.4217,0 0,-171.246 -475.4217,0 z"
           style="opacity:0;fill:none;stroke-linecap:square;stroke-linejoin:round"
           id="path14"
           inkscape:connector-curvature="0" />
      </g>
      <g
         id="PolyCollection_1"
         style="stroke-linecap:square;stroke-linejoin:round">
        <defs
           id="defs17">
          <path
             d="m 72.0383,-225.082 0,0 0.595,-168.37 0.595,-0.315 0.595,0.253 0.595,0.384 0.5951,-0.166 0.595,-0.256 0.595,0.917 0.595,-0.042 0.595,-0.791 0.5951,0.28 0.595,-0.066 0.595,0.919 0.595,-1.109 0.595,0.433 0.5951,0.012 0.595,0.497 0.595,-0.455 0.595,-0.292 0.595,0.84 0.5951,-0.499 0.595,0.702 0.595,-0.757 0.595,1.413 0.595,-1.172 0.5951,0.419 0.595,-0.298 0.595,0.77 0.595,-0.257 0.5951,-0.218 0.595,-0.37 0.595,0.58 0.595,0.361 0.595,-0.402 0.5951,-0.48 0.595,0.587 0.595,0.719 0.595,-0.672 0.595,0.034 0.5951,0.436 0.595,0.379 0.595,-0.242 0.595,-0.867 0.595,0.833 0.5951,-0.132 0.595,0.434 0.595,-1.16 0.5948,0.227 0.595,0.887 0.595,0.791 0.595,-1.395 0.595,0.259 0.595,0.668 0.595,-0.54 0.595,-1.043 0.595,1.463 0.595,0.011 0.595,0.268 0.595,-1.238 0.595,0.682 0.595,0.996 0.596,-1.04 0.595,-0.656 0.595,0.5 0.595,0.691 0.595,0.396 0.595,-1.662 0.595,0.691 0.595,1.041 0.595,-0.294 0.595,-0.889 0.595,0.264 0.595,0.962 0.595,-0.673 0.595,-0.384 0.595,-0.23 0.595,1.823 0.595,-0.967 0.595,-0.778 0.595,0.143 0.595,1.425 0.595,-0.191 0.595,-1.565 0.595,1.058 0.595,1.429 0.595,-0.234 0.595,-2.24 0.595,0.541 0.595,0.202 0.595,1.218 0.595,-1.321 0.595,-0.088 0.595,1.78 0.595,-0.284 0.595,-1.001 0.595,0.764 0.595,0.406 0.595,-0.228 0.595,-1.527 0.595,1.075 0.595,0.34 0.595,-1.138 0.595,-0.434 0.595,0.992 0.595,0.268 0.595,0.478 0.595,-1.218 0.595,0.927 0.595,0.42 0.596,0.054 0.595,-1.674 0.595,0.871 0.595,-0.015 0.595,0.3 0.595,-0.334 0.595,1.336 0.595,-0.257 0.595,0.593 0.595,-2.154 0.595,1.014 0.595,0.421 0.595,0.396 0.595,-1.431 0.595,0.753 0.595,0.364 0.595,0.96 0.595,-2.585 0.595,1.714 0.595,-0.475 0.595,0.397 0.595,-1.723 0.595,1.744 0.595,1.338 0.595,-0.918 0.595,-1.91 0.595,1.031 0.595,0.143 0.595,1.093 0.595,-1.496 0.595,1.448 0.595,-0.679 0.595,1.12 0.595,-1.423 0.595,1.44 0.595,0.11 0.595,0.677 0.595,-2.679 0.595,1.793 0.595,-1.083 0.595,1.528 0.595,-2.481 0.595,2.204 0.595,1.331 0.595,-0.03 0.595,-2.115 0.595,0.971 0.595,0.461 0.596,0.838 0.595,-2.383 0.595,1.321 0.595,0.016 0.595,1.077 0.595,-2.556 0.595,2.784 0.595,-0.57 0.595,0.019 0.595,-0.571 0.595,2.096 0.595,-1.176 0.595,0.123 0.595,-1.317 0.595,0.899 0.595,0.878 0.595,0.418 0.595,-1.356 0.595,1.426 0.595,-1.035 0.595,1.275 0.595,-2.541 0.595,2.451 0.595,0.131 0.595,1.509 0.595,-4.187 0.595,2.724 0.595,0.002 0.595,0.8 0.595,-2.375 0.595,2.177 0.595,-1.481 0.595,2.815 0.595,-2.336 0.595,2.233 0.595,-0.146 0.595,1.383 0.595,-3.467 0.595,2.355 0.595,-0.586 0.595,2.226 0.595,-5.19 0.595,3.152 0.595,1.699 0.595,-0.434 0.595,-2.371 0.595,1.348 0.595,1.622 0.596,1.863 0.595,-5.195 0.595,3.02 0.595,0.01 0.595,1.496 0.595,-4.027 0.595,2.873 0.595,-1.539 0.595,3.656 0.595,-5.085 0.595,4.353 0.595,-0.48 0.595,1.073 0.595,-2.843 0.595,0.353 0.595,2.155 0.595,0.067 0.595,-3.623 0.595,2.814 0.595,1.149 0.595,0.885 0.595,-5.142 0.595,3.805 0.595,0.645 0.595,0.818 0.595,-4.049 0.595,2.465 0.595,0.65 0.595,0.943 0.595,-5.54 0.595,7.719 0.595,-3.902 0.595,4.588 0.595,-6.074 0.595,3.888 0.595,-0.143 0.595,3.831 0.595,-7.949 0.595,3.68 0.595,1.411 0.595,1.221 0.595,-6.052 0.595,5.55 0.595,-1.224 0.595,2.153 0.595,-6.01 0.595,4.45 0.595,0.999 0.596,2.434 0.595,-7.466 0.595,4.011 0.595,2.68 0.595,1.857 0.595,-7.902 0.595,6.925 0.595,-0.769 0.595,-0.588 0.595,-4.323 0.595,4.819 0.595,1.975 0.595,0.507 0.595,-5.426 0.595,3.691 0.595,1.961 0.595,-0.173 0.595,-5.489 0.595,3.943 0.595,1.222 0.595,2.83 0.595,-6.173 0.595,1.892 0.595,2.831 0.595,-0.071 0.595,-4.529 0.595,2.982 0.595,0.462 0.595,2.544 0.595,-6.322 0.595,4.349 0.595,1.977 0.595,-1.105 0.595,-5.647 0.595,4.239 0.595,2.879 0.595,2.705 0.595,-7.409 0.595,4.23 0.595,0.409 0.595,2.247 0.595,-8.666 0.595,6.65 0.595,-0.298 0.595,1.227 0.595,-3.677 0.595,2.527 0.595,1.345 0.596,2.475 0.595,-7.208 0.595,2.45 0.595,2.516 0.595,2.834 0.595,-8.17 0.595,2.09 0.595,2.598 0.595,6.117 0.595,-11.736 0.595,4.812 0.595,3.698 0.595,2.162 0.595,-8.745 0.595,2.369 0.595,3.324 0.595,2.712 0.595,-7.455 0.595,5.727 0.595,-2.299 0.595,3.884 0.595,-9.341 0.595,5.163 0.595,1.882 0.595,5.267 0.595,-12.63 0.595,4.407 0.595,2.41 0.595,7.233 0.595,-12.185 0.595,5.2 0.595,1.277 0.595,3.808 0.595,-11.159 0.595,8.272 0.595,-0.972 0.595,6.154 0.595,-11.219 0.595,3.994 0.595,0.736 0.595,8.782 0.595,-10.937 0.595,1.693 0.595,0.834 0.595,6.319 0.595,-11.184 0.595,3.961 0.595,1.662 0.596,6.321 0.595,-10.329 0.595,5.686 0.595,0.26 0.595,4.386 0.595,-11.059 0.595,6.667 0.595,-3.138 0.595,10.068 0.595,-13.677 0.595,8.698 0.595,-0.206 0.595,3.358 0.595,-11.444 0.595,6.706 0.595,-0.02 0.595,3.249 0.595,-11.991 0.595,8.73 0.595,-0.458 0.595,4.033 0.595,-10.607 0.595,7.693 0.595,-0.871 0.595,4.506 0.595,-9.136 0.595,4.731 0.595,-0.913 0.595,7.559 0.595,-12.606 0.595,7.076 0.595,-1.621 0.595,7.323 0.595,-12.637 0.595,7.068 0.595,0.535 0.595,10.331 0.595,-16.179 0.595,6.82 0.595,-1.657 0.595,7.435 0.595,-11.963 0.595,3.962 0.595,0.917 0.595,8.298 0.595,-12.41 0.595,4.629 0.595,1.166 0.596,7.649 0.595,-15.154 0.595,6.583 0.595,0.669 0.595,6.65 0.595,-12.251 0.595,1.798 0.595,2.559 0.595,8.336 0.595,-12.18 0.595,5.665 0.595,-1.451 0.595,11.255 0.595,-17.829 0.595,6.728 0.595,6.053 0.595,3.721 0.595,-13.465 0.595,7.123 0.595,-1.434 0.595,7.68 0.595,-13.866 0.595,7.46 0.595,-0.587 0.595,6.258 0.595,-12.822 0.595,5.207 0.595,2.672 0.595,2.732 0.595,-10.294 0.595,2.787 0.595,5.228 0.595,7.484 0.595,-15.691 0.595,6.74 0.595,1.596 0.595,4.429 0.595,-11.862 0.595,3.065 0.595,6.979 0.595,1.433 0.595,-11.082 0.595,2.928 0.595,5.975 0.595,5.258 0.595,-13.706 0.595,3.176 0.595,4.2 0.596,2.03 0.595,-10.6 0.595,5.308 0.595,4.408 0.595,2.52 0.595,-14.221 0.595,8.751 0.595,0.751 0.595,5.853 0.595,-13.576 0.595,5.386 0.595,3.314 0.595,4.095 0.595,-13.202 0.595,8.338 0.595,0.264 0.595,5.421 0.595,-11.795 0.595,4.102 0.595,5.397 0.595,3.957 0.595,-14.634 0.595,6.892 0.595,1.982 0.595,7.948 0.595,-15.125 0.595,4.832 0.595,5.619 0.595,0.415 0.595,-14.194 0.595,7.179 0.595,5.018 0.595,4.987 0.595,-16.416 0.595,6.507 0.595,5.721 0.595,2.945 0.595,-14.358 0.595,8.163 0.595,3.425 0.595,3.403 0.595,-11.319 0.595,5.183 0.595,2.329 0.595,3.391 0.595,-13.199 0.595,4.16 0.595,5.555 0.596,1.63 0.595,-9.978 0.595,0.527 0.595,10.507 0.595,1.013 0.595,-11.556 0.595,2.86 0.595,4.31 0.595,3.731 0.595,-12.736 0.595,6.101 0.595,6.177 0.595,-2.765 0.595,-10.939 0.595,6.814 0.595,6.786 0.595,-0.378 0.595,-11.272 0.595,4.091 0.595,6.824 0.595,3.577 0.595,-16.465 0.595,4.465 0.595,7.957 0.595,5.446 0.595,-17.211 0.595,8.203 0.595,2.099 0.595,4.83 0.595,-14.61 0.595,6.638 0.595,4.2 0.595,7.493 0.595,-17.283 0.595,3.633 0.595,9.655 0.595,1.326 0.595,-15.681 0.595,4.64 0.595,12.129 0.595,-4.735 0.595,-11.461 0.595,4.916 0.595,7.139 0.595,0.929 0.595,-11.983 0.595,6.292 0.595,5.366 0.596,2.878 0.595,-15.225 0.595,8.033 0.595,6.193 0.595,5.207 0.595,-18.667 0.595,5.908 0.595,5.694 0.595,5.121 0.595,-14.934 0.595,4.59 0.595,4.553 0.595,5.384 0.595,-14.689 0.595,4.659 0.595,1.774 0.595,6.356 0.595,-12.796 0.595,7.931 0.595,0.641 0.595,2.443 0.595,-11.149 0.595,1.101 0.595,6.055 0.595,5.692 0.595,-14.176 0.595,7.01 0.595,4.047 0.595,7.138 0.595,-14.665 0.595,-0.088 0.595,9.825 0.595,2.309 0.595,-13.261 0.595,2.041 0.595,7.066 0.595,5.934 0.595,-16.184 0.595,2.715 0.595,8.944 0.595,1.953 0.595,-12.783 0.595,5.336 0.595,7.879 0.595,-3.292 0.595,-8.938 0.595,6 0.595,4.331 0.596,-0.812 0.595,-9.339 0.595,4.32 0.595,4.555 0.595,3.684 0.595,-12.585 0.595,4.003 0.595,5.607 0.595,4.679 0.595,-15.171 0.595,3.996 0.595,5.793 0.595,6.488 0.595,-17.912 0.595,7.031 0.595,3.741 0.595,5.926 0.595,-14.345 0.595,5.009 0.595,3.114 0.595,5.953 0.595,-15.51 0.595,7.712 0.595,3.923 0.595,0.688 0.595,-14.531 0.595,8.53 0.595,5.119 0.595,0.683 0.595,-11.75 0.595,8.307 0.595,1.615 0.595,5.736 0.595,-14.503 0.595,4.506 0.595,4.438 0.595,3.242 0.595,-13.975 0.595,6.292 0.595,2.461 0.595,9.645 0.595,-17.652 0.595,2.116 0.595,10.743 0.595,2.104 0.595,-12.398 0.595,1.659 0.595,9.48 0.596,3.933 0.595,-18.251 0.595,10.105 0.595,0.583 0.595,6.646 0.595,-15.205 0.595,8.642 0.595,1.202 0.595,3.186 0.595,-17.354 0.595,7.798 0.595,7.768 0.595,2.123 0.595,-12.481 0.595,5.237 0.595,6.052 0.595,0.453 0.595,-13.222 0.595,4.58 0.595,7.055 0.595,3.911 0.595,-15.245 0.595,6.948 0.595,2.507 0.595,2.997 0.595,-14.797 0.595,8.119 0.595,8.419 0.595,1.685 0.595,-16.849 0.595,8.263 0.595,4.704 0.595,1.808 0.595,-12.048 0.595,3.783 0.595,3.541 0.595,5.848 0.595,-16.35 0.595,8.908 0.595,3.458 0.595,3.543 0.595,-12.996 0.595,3.811 0.595,7.763 0.595,3.334 0.595,-15.09 0.595,5.316 0.595,6.341 0.596,2.108 0.595,-12.324 0.595,4.21 0.595,5.086 0.595,5.858 0.595,-15.838 0.595,5.946 0.595,3.704 0.595,4.774 0.595,-15.283 0.595,4.588 0.595,7.703 0.595,7.422 0.595,-19.231 0.595,7.235 0.595,2.495 0.595,5.899 0.595,-12.268 0.595,4.104 0.595,3.266 0.595,3.878 0.595,-12.423 0.595,6.432 0.595,2.297 0.595,5.155 0.595,-16.122 0.595,7.428 0.595,6.249 0.595,0.068 0.595,-10.409 0.595,2.578 0.595,6.037 0.595,1.296 0.595,-12.591 0.595,7.144 0.595,2.802 0.595,3.233 0.595,-14.276 0.595,12.676 0.595,-1.109 0.595,4.272 0.595,-14.522 0.595,6.622 0.595,8.587 0.595,-0.078 0.595,-13.648 0.595,8.075 0.595,0.816 0.596,5.627 0.595,-15.554 0.595,6.981 0.595,3.877 0.595,4.05 0.595,-13.543 0.595,7.357 0.595,1.962 0.595,3.883 0.595,-14.995 0.595,9.496 0.595,-1.175 0.595,4.74 0.595,-13.271 0.595,8.261 0.595,2.186 0.595,3.807 0.595,-13.177 0.595,9.099 0.595,0.126 0.595,4.524 0.595,-13.262 0.595,6.455 0.595,1.815 0.595,4.689 0.595,-14.026 0.595,6.973 0.595,1.853 0.595,5.23 0.595,-12.156 0.595,3.285 0.595,6.086 0.595,5.161 0.595,-16.329 0.595,5.913 0.595,6.952 0.595,3.279 0.595,-16.565 0.595,6.021 0.595,6.077 0.595,4.513 0.595,-15.521 0.595,5.613 0.595,3.753 0.595,5.858 0.595,-16.693 0.595,10.901 0.595,0.732 0.596,7.301 0.595,-17.709 0.595,6.084 0.595,6.823 0.595,1.684 0.595,-18.153 0.595,10.876 0.595,1.758 0.595,7.19 0.595,-19.414 0.595,10.039 0.595,2.786 0.595,7.956 0.595,-19.853 0.595,6.626 0.595,7.361 0.595,8.631 0.595,-20.516 0.595,7.316 0,23.229 0,0 -0.595,-9.564 -0.595,28.328 -0.595,-9.204 -0.595,-16.122 -0.595,-9.156 -0.595,29.656 -0.595,-10.423 -0.595,-6.416 -0.595,-12.016 -0.595,26.924 -0.595,-9.145 -0.595,-4.141 -0.595,-12.527 -0.595,23.703 -0.595,-0.195 -0.595,-6.455 -0.595,-14.948 -0.595,27.97 -0.596,-11.103 -0.595,-2.119 -0.595,-13.494 -0.595,22.469 -0.595,-7.548 -0.595,-6.175 -0.595,-6.657 -0.595,18.496 -0.595,-0.202 -0.595,-14.502 -0.595,-7.549 -0.595,27.757 -0.595,-5.513 -0.595,-11.883 -0.595,-9.132 -0.595,23.771 -0.595,-4.549 -0.595,-13.11 -0.595,-3.892 -0.595,19.246 -0.595,-5.263 -0.595,-6.24 -0.595,-8.627 -0.595,16.785 -0.595,-1.442 -0.595,-6.011 -0.595,-9.765 -0.595,17.531 -0.595,-3.157 -0.595,-1.739 -0.595,-12.457 -0.595,18.501 -0.595,-4.762 -0.595,-3.96 -0.595,-12.92 -0.595,20.555 -0.595,-6.283 -0.595,-0.275 -0.595,-13.222 -0.595,22.056 -0.595,-3.859 -0.595,-4.617 -0.595,-10.555 -0.595,19.858 -0.595,-4.714 -0.595,-5.588 -0.595,-11.176 -0.595,18.823 -0.596,-0.795 -0.595,-4.991 -0.595,-13.546 -0.595,23.848 -0.595,-3.615 -0.595,-10.929 -0.595,-9.346 -0.595,18.724 -0.595,-2.842 -0.595,-1.344 -0.595,-18.472 -0.595,22.727 -0.595,-1.225 -0.595,-9.791 -0.595,-7.69 -0.595,18.446 -0.595,-0.857 -0.595,-10.08 -0.595,-6.226 -0.595,14.9 -0.595,3.762 -0.595,-12.995 -0.595,-8.324 -0.595,21.63 -0.595,-1.15 -0.595,-10.371 -0.595,-6.645 -0.595,15.624 -0.595,-1.846 -0.595,-7.497 -0.595,-6.155 -0.595,17.174 -0.595,-4.707 -0.595,-7.195 -0.595,-6.562 -0.595,26.749 -0.595,-10.037 -0.595,-15.209 -0.595,-3.008 -0.595,19.872 -0.595,-3.468 -0.595,-10.864 -0.595,-5.318 -0.595,20.758 -0.595,-6.305 -0.595,-6.942 -0.595,-8.043 -0.595,19.28 -0.596,-2.447 -0.595,-10.089 -0.595,-6.146 -0.595,18.861 -0.595,-3.29 -0.595,-13.124 -0.595,-3.759 -0.595,16.073 -0.595,-0.902 -0.595,-10.316 -0.595,-7.994 -0.595,20.393 -0.595,-2.155 -0.595,-9.304 -0.595,-2.625 -0.595,12.838 -0.595,1.033 -0.595,-9.882 -0.595,-10.241 -0.595,20.648 -0.595,4.674 -0.595,-17.413 -0.595,-8.366 -0.595,16.844 -0.595,0.436 -0.595,-7.392 -0.595,-7.486 -0.595,18.982 -0.595,-2.266 -0.595,-14.378 -0.595,-4.942 -0.595,17.326 -0.595,4.908 -0.595,-14.311 -0.595,-3.38 -0.595,16.315 -0.595,0.555 -0.595,-18.773 -0.595,-6.338 -0.595,23.204 -0.595,3.825 -0.595,-12.059 -0.595,-9.927 -0.595,21.02 -0.595,-7.882 -0.595,-5.958 -0.595,-10.496 -0.595,25.656 -0.596,-1.724 -0.595,-18.599 -0.595,-0.84 -0.595,20.701 -0.595,-5.039 -0.595,-16.332 -0.595,-3.887 -0.595,26.978 -0.595,-11.166 -0.595,-9.618 -0.595,-6.485 -0.595,25.562 -0.595,-7.358 -0.595,-8.489 -0.595,-6.226 -0.595,21.71 -0.595,-8.747 -0.595,-5.704 -0.595,-8.413 -0.595,17.141 -0.595,0.072 -0.595,-10.729 -0.595,-10.751 -0.595,23.105 -0.595,-0.581 -0.595,-10.944 -0.595,-8.254 -0.595,21.827 -0.595,-7.641 -0.595,-6.035 -0.595,-5.583 -0.595,21.421 -0.595,-6.576 -0.595,-10.304 -0.595,-7.953 -0.595,27.799 -0.595,-10.054 -0.595,-12.805 -0.595,-2.356 -0.595,18.817 -0.595,-4.16 -0.595,-10.937 -0.595,-4.631 -0.595,20.482 -0.595,-6.863 -0.595,-7.895 -0.595,-4.981 -0.595,17.011 -0.596,-1.383 -0.595,-8.557 -0.595,-7.282 -0.595,16.595 -0.595,3.004 -0.595,-14.259 -0.595,-6.662 -0.595,21.257 -0.595,-5.088 -0.595,-16.174 -0.595,0.753 -0.595,22.629 -0.595,-8.157 -0.595,-13.228 -0.595,0.456 -0.595,22.042 -0.595,-5.262 -0.595,-20.696 -0.595,3.858 -0.595,23.123 -0.595,-11.408 -0.595,-8.767 -0.595,-6.862 -0.595,25.53 -0.595,-14.025 -0.595,-9.592 -0.595,-1.5 -0.595,21.361 -0.595,-7.878 -0.595,-4.525 -0.595,-8.632 -0.595,22.403 -0.595,-13.935 -0.595,-1.863 -0.595,-7.489 -0.595,27.099 -0.595,-13.28 -0.595,-8.193 -0.595,-6.552 -0.595,26.022 -0.595,-9.621 -0.595,-11.687 -0.595,-4.793 -0.595,27.406 -0.595,-10.17 -0.595,-8.478 -0.595,-10.667 -0.595,27.077 -0.596,-10.816 -0.595,-7.683 -0.595,-7.979 -0.595,22.649 -0.595,-6.762 -0.595,-10.242 -0.595,-4.826 -0.595,21.901 -0.595,-0.434 -0.595,-17.429 -0.595,-4.813 -0.595,21.866 -0.595,-3.592 -0.595,-14.528 -0.595,-3.262 -0.595,28.717 -0.595,-17.441 -0.595,-6.872 -0.595,-5.169 -0.595,24.555 -0.595,-11.6 -0.595,-5.12 -0.595,-8.893 -0.595,25.222 -0.595,-10.151 -0.595,-11.861 -0.595,-5.071 -0.595,26.584 -0.595,-8.529 -0.595,-9.84 -0.595,-5.932 -0.595,21.464 -0.595,-4.316 -0.595,-11.122 -0.595,-8.078 -0.595,19.832 -0.595,1.166 -0.595,-11.046 -0.595,-7.37 -0.595,19.809 -0.595,-7.513 -0.595,-8.094 -0.595,-2.496 -0.595,19.483 -0.595,-4.535 -0.595,-14.452 -0.595,-0.025 -0.595,16.643 -0.596,-7.095 -0.595,-8.551 -0.595,-2.308 -0.595,18.081 -0.595,-7.547 -0.595,-2.239 -0.595,-5.258 -0.595,19.534 -0.595,-10.751 -0.595,-4.818 -0.595,-7.104 -0.595,19.051 -0.595,-6.569 -0.595,-8.054 -0.595,-7.664 -0.595,23.842 -0.595,-9.015 -0.595,-6.3 -0.595,-10.024 -0.595,24.596 -0.595,-6.966 -0.595,-4.676 -0.595,-7.469 -0.595,23.542 -0.595,-13.906 -0.595,-2.762 -0.595,-8.522 -0.595,22.047 -0.595,-11.374 -0.595,-5.09 -0.595,-6.245 -0.595,20.569 -0.595,-10.636 -0.595,-3.019 -0.595,-9.132 -0.595,19.489 -0.595,-9.627 -0.595,-3.116 -0.595,-6.254 -0.595,19.144 -0.595,-7.63 -0.595,-2.897 -0.595,-10.549 -0.595,21.827 -0.595,-7.533 -0.595,-5.757 -0.595,-4.906 -0.595,14.785 -0.596,-4.91 -0.595,-4.783 -0.595,-6.652 -0.595,20.96 -0.595,-8.141 -0.595,-9.193 -0.595,-0.829 -0.595,13.879 -0.595,-5.163 -0.595,-7.227 -0.595,-5.216 -0.595,17.189 -0.595,-6.525 -0.595,-1.655 -0.595,-7.533 -0.595,20.812 -0.595,-11.18 -0.595,-5.507 -0.595,-5.835 -0.595,17.479 -0.595,-6.444 -0.595,-5.516 -0.595,-3.311 -0.595,17.736 -0.595,-12.223 -0.595,2.634 -0.595,-10.826 -0.595,19.447 -0.595,-9.449 -0.595,-0.48 -0.595,-8.748 -0.595,18.312 -0.595,-6.71 -0.595,-6.489 -0.595,-7.567 -0.595,24.236 -0.595,-16.534 -0.595,0.123 -0.595,-5.863 -0.595,16.807 -0.595,-14.536 -0.595,-0.459 -0.595,-0.67 -0.595,15.253 -0.595,-9.341 -0.595,-1.586 -0.595,-4.9 -0.595,17.018 -0.596,-11.683 -0.595,-1.354 -0.595,-3.524 -0.595,18.529 -0.595,-15.588 -0.595,-0.763 -0.595,-1.502 -0.595,14.034 -0.595,-12.893 -0.595,1.552 -0.595,-5.688 -0.595,21.822 -0.595,-15.922 -0.595,0.145 -0.595,-8.02 -0.595,16.915 -0.595,-13.242 -0.595,2.721 -0.595,-7.212 -0.595,18.051 -0.595,-12.377 -0.595,0.588 -0.595,-3.106 -0.595,11.87 -0.595,-8.233 -0.595,-1.062 -0.595,-5.44 -0.595,11.33 -0.595,-4.543 -0.595,-0.55 -0.595,-8.871 -0.595,15.979 -0.595,-6.443 -0.595,0.427 -0.595,-9.166 -0.595,17.075 -0.595,-6.901 -0.595,-0.295 -0.595,-7.577 -0.595,16.372 -0.595,-15.719 -0.595,5.419 -0.595,-7.887 -0.595,13.918 -0.595,-5.949 -0.595,0.504 -0.595,-7.506 -0.595,14.288 -0.596,-10.42 -0.595,-2.401 -0.595,-2.732 -0.595,15.151 -0.595,-9.184 -0.595,-2.603 -0.595,-0.539 -0.595,13.122 -0.595,-10.593 -0.595,-2.227 -0.595,-3.495 -0.595,13.871 -0.595,-9.226 -0.595,1.671 -0.595,-8.209 -0.595,13.676 -0.595,-6.822 -0.595,-0.432 -0.595,-7.357 -0.595,16.274 -0.595,-10.201 -0.595,-4.809 -0.595,-2.393 -0.595,15.516 -0.595,-10.374 -0.595,0.243 -0.595,-4.831 -0.595,12.063 -0.595,-8.624 -0.595,4.415 -0.595,-5.749 -0.595,9.707 -0.595,-6.265 -0.595,-2.355 -0.595,-3.121 -0.595,10.379 -0.595,-1.875 -0.595,-5.328 -0.595,-5.767 -0.595,14.121 -0.595,-7.756 -0.595,-1.789 -0.595,-3.65 -0.595,12.957 -0.595,-6.855 -0.595,-1.405 -0.595,-3.953 -0.595,10.426 -0.596,-5.264 -0.595,-0.804 -0.595,-3.039 -0.595,4.093 -0.595,-3.261 -0.595,1.156 -0.595,-8.235 -0.595,12.087 -0.595,-3.314 -0.595,-1.185 -0.595,-4.199 -0.595,9.486 -0.595,-4.439 -0.595,-4.23 -0.595,-4.06 -0.595,7.538 -0.595,0.043 -0.595,-2.757 -0.595,-3.24 -0.595,6.191 -0.595,-3.98 -0.595,-1.004 -0.595,-2.207 -0.595,4.646 -0.595,0.201 -0.595,-3.803 -0.595,-0.446 -0.595,6.511 -0.595,-3.928 -0.595,-0.74 -0.595,-6.413 -0.595,9.406 -0.595,-1.171 -0.595,-3.139 -0.595,-3.394 -0.595,5.75 -0.595,-1.615 -0.595,-1.935 -0.595,-6.551 -0.595,6.978 -0.595,0.69 -0.595,0.041 -0.595,-8.215 -0.595,9.803 -0.595,-3.923 -0.595,-3.024 -0.595,-3.33 -0.595,9.917 -0.596,-4.845 -0.595,-0.295 -0.595,-6.776 -0.595,8.729 -0.595,-3.089 -0.595,1.585 -0.595,-6.646 -0.595,8.013 -0.595,-2.697 -0.595,-3.073 -0.595,-2.822 -0.595,9.951 -0.595,-6.136 -0.595,-0.687 -0.595,-3.368 -0.595,8.103 -0.595,-6.991 -0.595,5.78 -0.595,-7.193 -0.595,2.626 -0.595,1.112 -0.595,-1.992 -0.595,-3.608 -0.595,6.404 -0.595,-0.502 -0.595,-1.905 -0.595,-5.03 -0.595,5.399 -0.595,0.269 -0.595,-3.705 -0.595,0.153 -0.595,1.571 -0.595,2.214 -0.595,-4.358 -0.595,2.911 -0.595,0.554 -0.595,-1.112 -0.595,-0.875 -0.595,-3.311 -0.595,5.361 -0.595,-4.454 -0.595,0.371 -0.595,0.515 -0.595,2.513 -0.595,-2.436 -0.595,0.264 -0.595,-1.424 -0.595,4.024 -0.596,-1.813 -0.595,-2.049 -0.595,-0.574 -0.595,1.47 -0.595,-0.451 -0.595,-1.358 -0.595,-1.514 -0.595,4.043 -0.595,-2.818 -0.595,0.24 -0.595,-0.607 -0.595,2.191 -0.595,-2.825 -0.595,2.561 -0.595,-2.222 -0.595,1.354 -0.595,-3.818 -0.595,2.2 -0.595,-0.592 -0.595,0.336 -0.595,-0.608 -0.595,1.304 -0.595,-1.732 -0.595,1.968 -0.595,-2.071 -0.595,1.295 -0.595,-2.182 -0.595,0.987 -0.595,-2.821 -0.595,3.747 -0.595,-2.269 -0.595,0.839 -0.595,-1.295 -0.595,1.736 -0.595,-2.415 -0.595,0.713 -0.595,-0.703 -0.595,2.369 -0.595,-1.853 -0.595,-0.486 -0.595,-0.54 -0.595,2.578 -0.595,-3.897 -0.595,2.599 -0.595,-2.715 -0.595,1.989 -0.595,-1.535 -0.595,1.717 -0.596,-1.784 -0.595,0.748 -0.595,-1.04 -0.595,1.938 -0.595,-1.328 -0.595,-0.075 -0.595,-1.552 -0.595,2.183 -0.595,-3.338 -0.595,1.988 -0.595,-0.938 -0.595,2.127 -0.595,-1.456 -0.595,0.618 -0.595,-0.769 -0.595,1.256 -0.595,-2.899 -0.595,0.856 -0.595,-0.312 -0.595,2.327 -0.595,-2.704 -0.595,-0.817 -0.595,-0.45 -0.595,2.846 -0.595,0.695 -0.595,-2.727 -0.595,-0.736 -0.595,1.17 -0.595,-0.289 -0.595,-0.314 -0.595,-0.463 -0.595,3.826 -0.595,-2.657 -0.595,-1.02 -0.595,0.687 -0.595,0.668 -0.595,-1.257 -0.595,-0.522 -0.595,-0.1 -0.595,3.116 -0.595,-1.634 -0.595,-0.503 -0.595,-0.175 -0.595,0.445 -0.595,-1.165 -0.595,-0.649 -0.595,0.347 -0.595,2.361 -0.596,-1.65 -0.595,-1.457 -0.595,0.581 -0.595,1.89 -0.595,-1.67 -0.595,-1.243 -0.595,0.054 -0.595,1.321 -0.595,0.491 -0.595,-1.997 -0.595,-0.228 -0.595,4.115 -0.595,-0.684 -0.595,-2.352 -0.595,-0.047 -0.595,2.014 -0.595,-0.185 -0.595,-3.501 -0.595,0.446 -0.595,3.984 -0.595,-3.631 -0.595,-0.749 -0.595,-0.18 -0.595,5.066 -0.595,-1.424 -0.595,-2.622 -0.595,-0.468 -0.595,4.156 -0.595,-2.202 -0.595,-2.907 -0.595,0.111 -0.595,2.627 -0.595,0.272 -0.595,-3.37 -0.595,1.013 -0.595,2.465 -0.595,0.634 -0.595,-3.425 -0.595,0.225 -0.595,1.297 -0.595,0.455 -0.595,-2.091 -0.595,-0.672 -0.595,3.293 -0.595,-0.135 -0.595,-2.741 -0.595,-0.275 -0.595,3.621 -0.596,0.214 -0.595,-2.716 -0.595,-0.461 -0.595,1.88 -0.595,-0.452 -0.595,-1.243 -0.595,-1.107 -0.595,1.534 -0.595,1.264 -0.595,-2.141 -0.595,-0.491 -0.595,3.29 -0.595,-1.603 -0.595,-1.397 -0.5948,-0.782 -0.595,1.997 -0.595,0.861 -0.5951,-1.433 -0.595,-1.626 -0.595,1.725 -0.595,1.288 -0.595,-1.953 -0.5951,-0.503 -0.595,0.616 -0.595,0.572 -0.595,-1.467 -0.595,-0.574 -0.5951,0.753 -0.595,1.677 -0.595,-1.454 -0.595,-1.184 -0.595,0.66 -0.5951,0.432 -0.595,-0.268 -0.595,-0.771 -0.595,1.26 -0.5951,-0.984 -0.595,0.893 -0.595,-1.592 -0.595,1.332 -0.595,0.114 -0.5951,-0.853 -0.595,-1.298 -0.595,1.195 -0.595,0.77 -0.595,-1.336 -0.5951,-0.117 -0.595,-0.617 -0.595,2.841 -0.595,-2.455 -0.595,0.078 -0.5951,-0.679 -0.595,1.547 -0.595,-0.086 -0.595,-1.484 -0.595,1.176 -0.5951,0.497 -0.595,-1.587 -0.595,-0.514 -0.595,0.907 -0.595,166.459 z"
             id="C0_0_99823673ce"
             inkscape:connector-curvature="0"
             style="stroke-linecap:square;stroke-linejoin:round" />
        </defs>
        <g
           clip-path="url(#pa838098189)"
           id="g20"
           style="stroke-linecap:square;stroke-linejoin:round">
          <use
             style="fill:#b3b3b3;stroke:#b3b3b3;stroke-linecap:butt;stroke-linejoin:round"
             x="0"
             xlink:href="#C0_0_99823673ce"
             y="432"
             id="use22"
             width="576"
             height="432" />
        </g>
      </g>
      <g
         id="line2d_1"
         style="stroke-linecap:square;stroke-linejoin:round">
        <path
           clip-path="url(#pa838098189)"
           d="m 72.0383,206.918 0.595,-167.4806 0.595,-0.5719 0.595,0.3729 0.595,0.9373 0.5951,-0.3848 0.595,-0.6014 0.595,1.1573 0.595,0.0149 0.595,-1.13 0.5951,0.478 0.595,-0.0556 0.595,1.5335 0.595,-1.8588 0.595,0.5617 0.5951,0.0392 0.595,0.8723 1.19,-1.3 0.595,1.0724 0.5951,-0.0674 0.595,0.4764 0.595,-0.9972 0.595,1.5246 0.595,-1.081 0.5951,0.6133 0.595,-0.6686 0.595,0.7821 0.595,-0.0295 0.5951,-0.3195 0.595,-0.5021 1.19,1.6362 0.595,-0.9639 0.5951,-0.5583 0.595,0.6075 0.595,0.9608 0.595,-0.5645 0.595,-0.28 0.5951,0.5468 0.595,0.9641 0.595,-0.6277 0.595,-1.2416 0.595,1.2015 0.5951,0.4738 0.595,-0.0323 0.595,-1.5637 0.5948,0.4607 1.19,2.2679 0.595,-2.2216 0.595,0.3654 0.595,1.2507 0.595,-0.7761 0.595,-1.3221 0.595,1.3654 0.595,0.5069 0.595,0.3452 0.595,-1.4989 0.595,0.587 0.595,1.7334 0.596,-0.7676 0.595,-1.8587 0.595,0.4273 0.595,1.4286 0.595,0.4553 0.595,-2.4241 0.595,0.7063 0.595,1.4595 0.595,-0.3004 0.595,-1.0848 0.595,0.0385 0.595,1.9712 0.595,-0.6254 0.595,-1.2461 0.595,-0.5887 0.595,2.5333 0.595,-0.6517 0.595,-1.6276 0.595,0.0627 0.595,2.0461 0.595,0.8263 0.595,-2.6654 0.595,0.8154 0.595,1.8952 0.595,0.5577 0.595,-3.4918 1.19,0.8047 0.595,2.322 0.595,-2.5286 0.595,-0.2124 0.595,2.5601 0.595,-0.1051 0.595,-1.4718 0.595,0.5025 0.595,1.1411 0.595,0.3331 0.595,-2.7363 0.595,0.7087 0.595,0.9894 1.19,-1.6531 1.19,1.2512 0.595,1.0439 0.595,-1.6232 0.595,0.3588 1.191,1.6612 0.595,-2.1502 0.595,0.4955 0.595,0.2294 0.595,0.7412 0.595,-0.5503 0.595,0.998 0.595,0.0376 0.595,1.1567 0.595,-2.7311 0.595,0.6807 0.595,0.4529 0.595,0.7851 0.595,-1.2709 0.595,0.2966 0.595,0.6068 0.595,1.7443 0.595,-3.2551 0.595,1.3074 0.595,-0.1483 0.595,0.34 0.595,-1.6149 0.595,1.4614 0.595,1.9694 0.595,-0.8847 0.595,-2.376 0.595,0.8683 0.595,0.4103 0.595,1.8382 0.595,-1.9814 0.595,1.0789 0.595,-0.8111 0.595,1.9147 0.595,-1.4904 0.595,1.2846 0.595,-0.2339 0.595,1.1066 0.595,-2.5882 0.595,1.5462 0.595,-1.4534 0.595,2.3438 0.595,-2.6505 0.595,2.2231 0.595,0.7888 0.595,0.5359 0.595,-2.1864 0.595,1.1352 0.595,-0.1028 0.596,1.3342 0.595,-2.2729 0.595,1.5393 0.595,-0.8693 0.595,1.9068 0.595,-2.8082 0.595,3.3722 0.595,-1.4074 0.595,0.2623 0.595,-0.2455 0.595,2.106 0.595,-1.6924 0.595,0.4374 0.595,-1.1692 0.595,1.6221 0.595,-0.28 0.595,0.8624 0.595,-1.2121 0.595,1.7387 0.595,-2.0833 0.595,2.0389 0.595,-2.1393 0.595,2.3622 0.595,-0.3129 0.595,1.8264 0.595,-3.5113 0.595,2.4063 0.595,-0.5186 0.595,0.7859 0.595,-1.6381 0.595,1.5348 0.595,-1.8244 0.595,3.4358 0.595,-2.0389 0.595,2.3 0.595,-1.1952 0.595,2.1561 0.595,-3.082 0.595,1.6057 0.595,-0.4494 0.595,2.6917 0.595,-5.0236 0.595,2.6583 0.595,1.5223 0.595,0.0143 0.595,-2.1189 0.595,1.1128 1.191,3.8152 0.595,-4.8901 0.595,2.3375 0.595,-0.1028 0.595,2.1278 0.595,-3.6692 0.595,1.5565 0.595,-1.0844 0.595,4.1333 0.595,-5.5178 0.595,4.1374 0.595,0.0818 0.595,1.2208 0.595,-2.0753 0.595,-1.0407 0.595,3.2336 0.595,-0.8648 0.595,-2.8946 0.595,1.5613 0.595,2.3351 0.595,0.5334 0.595,-5.5284 0.595,4.48 0.595,1.1169 0.595,0.7775 0.595,-5.2898 0.595,3.1265 0.595,1.3538 0.595,-0.0093 0.595,-4.6036 0.595,7.7399 0.595,-4.7537 0.595,5.9531 0.595,-7.2963 0.595,3.7234 0.595,0.1367 0.595,5.2142 0.595,-9.1678 0.595,3.4071 1.19,4.0853 0.595,-7.1206 0.595,6.1657 0.595,-1.355 0.595,2.7461 0.595,-7.5262 0.595,5.5834 0.595,0.7381 0.596,3.7426 0.595,-8.8794 0.595,3.764 1.19,5.8361 0.595,-9.1033 0.595,7.5941 1.19,-0.7516 0.595,-5.8501 0.595,5.7345 0.595,2.0217 0.595,1.0276 0.595,-5.8628 0.595,3.6953 0.595,2.5731 0.595,0.4792 0.595,-7.5031 0.595,5.226 0.595,1.1227 0.595,3.3338 0.595,-6.5665 0.595,1.3462 0.595,3.2116 0.595,0.1061 0.595,-4.9017 0.595,2.8019 0.595,0.6443 0.595,3.3807 0.595,-6.537 0.595,4.0054 0.595,2.3708 0.595,-0.5909 0.595,-6.798 1.19,8.0185 0.595,3.3957 0.595,-8.5456 0.595,4.3687 0.595,0.7764 0.595,2.7486 0.595,-10.3585 0.595,7.5156 0.595,-0.5709 0.595,2.049 0.595,-4.0957 0.595,2.8665 0.595,1.3088 0.596,3.7481 0.595,-9.2089 0.595,3.5879 0.595,2.0232 0.595,4.7478 0.595,-10.646 1.19,5.2673 0.595,6.6358 0.595,-12.9359 0.595,5.6346 0.595,4.4164 0.595,2.0416 0.595,-9.7548 1.19,5.8899 0.595,4.4073 0.595,-8.9977 0.595,6.0579 0.595,-3.1231 0.595,6.0655 0.595,-10.9666 0.595,5.2491 0.595,0.8918 0.595,7.7524 0.595,-14.3497 1.19,7.2901 0.595,8.6575 0.595,-14.3841 0.595,6.3477 0.595,0.9475 0.595,5.0076 0.595,-12.5058 0.595,8.5077 0.595,-1.0532 0.595,7.3874 0.595,-12.7775 0.595,4.1199 0.595,1.5007 0.595,9.6325 0.595,-12.1978 0.595,1.2925 0.595,1.8449 0.595,7.5319 0.595,-13.2807 0.595,3.5457 0.595,2.2351 0.596,8.0565 0.595,-12.2252 0.595,6.6094 0.595,0.1237 0.595,4.8644 0.595,-12.4589 0.595,7.3804 0.595,-4.017 0.595,12.582 0.595,-15.1063 0.595,8.3624 0.595,0.1377 0.595,4.6608 0.595,-14.0794 0.595,7.967 0.595,0.0494 0.595,4.3953 0.595,-13.9233 0.595,9.004 0.595,0.0588 0.595,3.9676 0.595,-10.9772 0.595,7.0635 0.595,-0.048 0.595,6.2281 0.595,-10.6737 0.595,4.2737 0.595,-0.5664 0.595,9.5776 0.595,-15.2485 0.595,7.2965 0.595,-2.0942 0.595,9.7879 0.595,-14.5197 0.595,7.51 0.595,0.3574 0.595,12.9966 0.595,-18.9619 0.595,6.2742 0.595,-1.6564 0.595,10.1663 0.595,-13.1369 0.595,2.8715 0.595,0.8768 0.595,11.8865 0.595,-15.6321 0.595,4.318 0.595,1.3231 0.596,9.7659 0.595,-16.5343 0.595,6.0982 0.595,1.0195 0.595,7.8424 0.595,-13.731 1.19,3.113 0.595,11.0187 0.595,-14.1462 0.595,5.6312 0.595,-0.7118 0.595,13.601 0.595,-20.821 1.19,13.4145 0.595,5.1389 0.595,-15.7021 0.595,7.8747 0.595,-0.4993 0.595,8.4749 0.595,-16.5949 0.595,9.0269 0.595,-1.4035 0.595,8.9828 0.595,-14.9366 1.785,12.4681 0.595,-13.4577 0.595,4.096 0.595,5.6816 0.595,9.129 0.595,-18.3303 0.595,7.246 0.595,1.6474 0.595,5.4275 0.595,-14.4662 0.595,4.2379 0.595,6.9814 0.595,2.9819 0.595,-12.1476 0.595,1.9741 1.19,14.0689 0.595,-17.1097 1.19,9.0255 0.596,3.5121 0.595,-12.71 1.785,15.2124 0.595,-17.8449 0.595,9.6548 0.595,1.7871 0.595,6.7691 0.595,-16.3178 0.595,5.881 0.595,3.2089 0.595,6.3608 0.595,-15.9092 0.595,8.6854 0.595,1.653 0.595,7.6291 0.595,-15.5888 1.19,10.128 0.595,7.3484 0.595,-18.115 0.595,7.8268 0.595,2.2188 0.595,10.9753 0.595,-19.1894 1.19,11.363 0.595,3.1314 0.595,-18.8142 0.595,8.4101 0.595,5.6638 0.595,7.0455 0.595,-19.9856 1.19,13.9574 0.595,4.3056 0.595,-16.5029 0.595,7.9367 0.595,4.0567 0.595,6.4052 0.595,-14.6738 0.595,5.2519 0.595,2.2372 0.595,5.1655 0.595,-15.5839 0.595,3.5165 0.595,6.9984 0.596,3.9156 0.595,-12.8945 0.595,0.2929 0.595,12.2909 0.595,2.3404 0.595,-14.8372 0.595,2.6257 1.19,11.4947 0.595,-15.9897 0.595,6.8351 0.595,8.2236 0.595,-2.182 0.595,-14.7989 1.19,16.0187 0.595,1.7115 0.595,-15.7211 0.595,4.9622 0.595,8.2473 0.595,5.5991 0.595,-21.0251 0.595,4.8261 0.595,9.8578 0.595,7.3793 0.595,-20.8469 0.595,8.5787 0.595,3.4898 0.595,7.5366 0.595,-18.8003 1.19,11.4841 0.595,11.4002 0.595,-21.9047 0.595,3.6236 0.595,11.7808 0.595,1.96 0.595,-18.233 0.595,4.7958 0.595,14.5792 0.595,-3.114 0.595,-15.9136 0.595,5.3594 0.595,8.6093 0.595,2.8398 0.595,-16.3418 1.19,13.6751 0.596,5.9071 0.595,-20.1092 0.595,9.2788 1.19,14.4934 0.595,-22.4714 0.595,5.2692 0.595,8.7259 0.595,6.6683 0.595,-19.8496 1.19,12.1138 0.595,8.6348 0.595,-20.2976 0.595,5.9907 0.595,1.8475 0.595,9.5934 0.595,-17.057 0.595,8.3925 0.595,2.3938 0.595,4.4014 0.595,-15.3388 0.595,1.095 1.19,17.0621 0.595,-19.1724 1.785,21.9524 0.595,-18.2862 0.595,-1.6856 0.595,14.9346 0.595,3.2592 0.595,-17.1367 0.595,0.9208 0.595,10.1654 0.595,6.3055 0.595,-18.8647 0.595,1.3788 0.595,12.4486 0.595,3.0792 0.595,-16.4314 0.595,5.8055 0.595,10.9741 0.595,-3.5389 0.595,-12.3842 1.19,13.2341 0.596,-0.3711 0.595,-12.6871 0.595,4.7947 0.595,6.3371 0.595,4.6856 0.595,-16.1054 0.595,4.3726 0.595,8.2251 0.595,4.3884 0.595,-17.1398 0.595,3.3857 1.19,17.1941 0.595,-22.544 1.19,14.3925 0.595,6.1745 0.595,-17.7154 1.785,16.7074 0.595,-18.889 1.19,15.5348 0.595,0.363 0.595,-18.3344 1.19,17.3674 0.595,0.2113 0.595,-14.3051 0.595,8.4475 0.595,3.5559 0.595,6.8416 0.595,-17.7244 0.595,5.358 0.595,6.5649 0.595,4.7795 0.595,-19.0662 1.19,11.9223 0.595,10.3369 0.595,-21.9583 0.595,2.916 0.595,13.4884 0.595,3.3279 0.595,-16.2486 0.595,1.5391 0.595,13.7435 0.596,2.79 0.595,-21.6105 0.595,10.1136 0.595,3.3157 0.595,6.8642 0.595,-17.6704 0.595,9.3423 0.595,6.1711 0.595,-0.11 0.595,-20.0218 0.595,7.1967 0.595,12.8441 0.595,0.757 0.595,-14.3184 0.595,4.4686 0.595,9.9078 0.595,-2.0034 0.595,-15.1987 0.595,4.6437 0.595,10.6939 0.595,3.1415 0.595,-17.0747 0.595,7.2956 0.595,4.8361 0.595,1.151 0.595,-15.6056 0.595,8.2314 0.595,12.6072 0.595,-1.313 0.595,-18.5839 0.595,9.1715 0.595,7.3284 0.595,0.418 0.595,-12.6462 0.595,3.2043 0.595,6.3388 0.595,4.0691 0.595,-18.2794 0.595,8.5871 0.595,6.72 0.595,2.3623 0.595,-14.4903 0.595,3.7664 0.595,10.3519 0.595,3.374 0.595,-17.083 0.595,5.6997 0.595,8.0863 0.596,2.343 0.595,-15.6774 1.785,18.1974 0.595,-18.2681 0.595,5.6641 0.595,7.176 0.595,4.191 0.595,-17.7231 0.595,4.0647 0.595,11.0314 0.595,8.886 0.595,-22.9926 0.595,7.0099 1.19,10.2047 0.595,-14.7675 1.19,10.5805 0.595,2.833 0.595,-14.1664 1.19,12.9284 0.595,3.24 0.595,-18.7812 0.595,7.8416 0.595,9.3576 0.595,-1.463 0.595,-12.6033 0.595,4.2758 0.595,7.8545 0.595,1.045 0.595,-15.3606 1.19,13.6556 0.595,2.153 0.595,-18.1475 0.595,15.3635 0.595,0.083 0.595,3.72 0.595,-16.7394 0.595,8.0549 0.595,9.7895 0.595,1.423 0.595,-18.4696 0.595,10.7824 0.595,2.5942 0.596,3.467 0.595,-17.0958 0.595,8.9751 1.19,9.1267 0.595,-16.954 0.595,9.0975 1.19,6.9605 0.595,-18.0743 0.595,11.2786 0.595,-0.386 0.595,5.2337 0.595,-16.6529 0.595,10.5536 0.595,3.1513 0.595,3.995 0.595,-15.5837 0.595,10.7748 0.595,0.8809 0.595,3.765 0.595,-15.1908 0.595,7.8775 0.595,3.9903 0.595,2.979 0.595,-15.4524 0.595,7.8109 1.19,9.0385 0.595,-15.2962 0.595,3.3948 0.595,9.7414 0.595,4.423 0.595,-19.7129 0.595,7.5734 0.595,9.3395 0.595,4.23 0.595,-21.8107 0.595,6.7671 0.595,10.1546 0.595,2.426 0.595,-17.1336 1.785,17.7166 0.595,-19.3068 0.595,12.1048 0.595,1.484 0.596,8.834 0.595,-22.403 0.595,9.9633 0.595,6.8897 0.595,0.77 0.595,-20.7407 0.595,11.9842 0.595,3.0515 0.595,7.916 0.595,-23.1353 0.595,11.1525 0.595,4.6718 0.595,8.943 0.595,-24.559 0.595,7.8412 0.595,11.6858 0.595,8.802 0.595,-24.5122 0.595,8.4694 0,0"
           style="fill:none;stroke:#000000;stroke-linecap:square;stroke-linejoin:round"
           id="path25"
           inkscape:connector-curvature="0" />
      </g>
      <g
         id="matplotlib.axis_1"
         style="stroke-linecap:square;stroke-linejoin:round" />
      <g
         id="matplotlib.axis_2"
         style="stroke-linecap:square;stroke-linejoin:round">
        <g
           id="ytick_1"
           style="stroke-linecap:square;stroke-linejoin:round">
          <g
             id="line2d_2"
             style="stroke-linecap:square;stroke-linejoin:round">
            <defs
               id="defs31">
              <path
                 d="M 0,0 4,0"
                 id="me8a85f7bf6"
                 style="stroke:#000000;stroke-width:0.5;stroke-linecap:butt;stroke-linejoin:round"
                 inkscape:connector-curvature="0" />
            </defs>
            <g
               id="g34"
               style="stroke-linecap:square;stroke-linejoin:round">
              <use
                 style="stroke:#000000;stroke-width:0.5;stroke-linecap:butt;stroke-linejoin:round"
                 x="72.038254"
                 xlink:href="#me8a85f7bf6"
                 y="206.91812"
                 id="use36"
                 width="576"
                 height="432" />
            </g>
          </g>
          <g
             id="text_1"
             style="stroke-linecap:square;stroke-linejoin:round">
            <text
               style="font-size:18px;font-style:normal;stroke-linecap:square;stroke-linejoin:round;font-family:Times New Roman"
               transform="translate(46.829188,212.87391)"
               id="text39">0.0</text>
          </g>
        </g>
        <g
           id="ytick_2"
           style="stroke-linecap:square;stroke-linejoin:round">
          <g
             id="line2d_3"
             style="stroke-linecap:square;stroke-linejoin:round">
            <g
               id="g43"
               style="stroke-linecap:square;stroke-linejoin:round">
              <use
                 style="stroke:#000000;stroke-width:0.5;stroke-linecap:butt;stroke-linejoin:round"
                 x="72.038254"
                 xlink:href="#me8a85f7bf6"
                 y="172.6689"
                 id="use45"
                 width="576"
                 height="432" />
            </g>
          </g>
          <g
             id="text_2"
             style="stroke-linecap:square;stroke-linejoin:round">
            <text
               style="font-size:18px;font-style:normal;stroke-linecap:square;stroke-linejoin:round;font-family:Times New Roman"
               transform="translate(46.936062,178.62468)"
               id="text48">0.2</text>
          </g>
        </g>
        <g
           id="ytick_3"
           style="stroke-linecap:square;stroke-linejoin:round">
          <g
             id="line2d_4"
             style="stroke-linecap:square;stroke-linejoin:round">
            <g
               id="g52"
               style="stroke-linecap:square;stroke-linejoin:round">
              <use
                 style="stroke:#000000;stroke-width:0.5;stroke-linecap:butt;stroke-linejoin:round"
                 x="72.038254"
                 xlink:href="#me8a85f7bf6"
                 y="138.41968"
                 id="use54"
                 width="576"
                 height="432" />
            </g>
          </g>
          <g
             id="text_3"
             style="stroke-linecap:square;stroke-linejoin:round">
            <text
               style="font-size:18px;font-style:normal;stroke-linecap:square;stroke-linejoin:round;font-family:Times New Roman"
               transform="translate(46.812312,144.37546)"
               id="text57">0.4</text>
          </g>
        </g>
        <g
           id="ytick_4"
           style="stroke-linecap:square;stroke-linejoin:round">
          <g
             id="line2d_5"
             style="stroke-linecap:square;stroke-linejoin:round">
            <g
               id="g61"
               style="stroke-linecap:square;stroke-linejoin:round">
              <use
                 style="stroke:#000000;stroke-width:0.5;stroke-linecap:butt;stroke-linejoin:round"
                 x="72.038254"
                 xlink:href="#me8a85f7bf6"
                 y="104.17045"
                 id="use63"
                 width="576"
                 height="432" />
            </g>
          </g>
          <g
             id="text_4"
             style="stroke-linecap:square;stroke-linejoin:round">
            <text
               style="font-size:18px;font-style:normal;stroke-linecap:square;stroke-linejoin:round;font-family:Times New Roman"
               transform="translate(46.882625,110.12623)"
               id="text66">0.6</text>
          </g>
        </g>
        <g
           id="ytick_5"
           style="stroke-linecap:square;stroke-linejoin:round">
          <g
             id="line2d_6"
             style="stroke-linecap:square;stroke-linejoin:round">
            <g
               id="g70"
               style="stroke-linecap:square;stroke-linejoin:round">
              <use
                 style="stroke:#000000;stroke-width:0.5;stroke-linecap:butt;stroke-linejoin:round"
                 x="72.038254"
                 xlink:href="#me8a85f7bf6"
                 y="69.921227"
                 id="use72"
                 width="576"
                 height="432" />
            </g>
          </g>
          <g
             id="text_5"
             style="stroke-linecap:square;stroke-linejoin:round">
            <text
               style="font-size:18px;font-style:normal;stroke-linecap:square;stroke-linejoin:round;font-family:Times New Roman"
               transform="translate(47.22575,75.877006)"
               id="text75">0.8</text>
          </g>
        </g>
        <g
           id="ytick_6"
           style="stroke-linecap:square;stroke-linejoin:round">
          <g
             id="line2d_7"
             style="stroke-linecap:square;stroke-linejoin:round">
            <g
               id="g79"
               style="stroke-linecap:square;stroke-linejoin:round">
              <use
                 style="stroke:#000000;stroke-width:0.5;stroke-linecap:butt;stroke-linejoin:round"
                 x="72.038254"
                 xlink:href="#me8a85f7bf6"
                 y="35.672001"
                 id="use81"
                 width="576"
                 height="432" />
            </g>
          </g>
          <g
             id="text_6"
             style="stroke-linecap:square;stroke-linejoin:round">
            <text
               style="font-size:18px;font-style:normal;stroke-linecap:square;stroke-linejoin:round;font-family:Times New Roman"
               transform="translate(48.288875,41.627781)"
               id="text84">1.0</text>
          </g>
        </g>
        <g
           id="text_7"
           style="stroke-linecap:square;stroke-linejoin:round">
          <text
             style="font-size:18px;font-style:normal;stroke-linecap:square;stroke-linejoin:round;font-family:Times New Roman"
             transform="matrix(0,-1,1,0,41.812312,199.75866)"
             id="text87">Transmission accuracy</text>
        </g>
      </g>
      <g
         id="patch_3"
         style="stroke-linecap:square;stroke-linejoin:round" />
      <g
         id="patch_4"
         style="stroke-linecap:square;stroke-linejoin:round">
        <path
           d="m 72.0383,206.918 0,-171.246"
           style="fill:none;stroke:#000000;stroke-linecap:square;stroke-linejoin:round"
           id="path93"
           inkscape:connector-curvature="0" />
      </g>
      <g
         id="text_8"
         style="stroke-linecap:square;stroke-linejoin:round">
        <text
           style="font-size:21.60000038px;font-style:normal;stroke-linecap:square;stroke-linejoin:round;font-family:Times New Roman"
           transform="translate(129.72656,30.582875)"
           id="text96">Unsupervised learning in control network</text>
      </g>
    </g>
    <g
       transform="translate(0,-171.2)"
       style="stroke-linecap:square;stroke-linejoin:round"
       id="matplotlib.axis_3">
      <g
         style="stroke-linecap:square;stroke-linejoin:round"
         id="xtick_1">
        <g
           style="stroke-linecap:square;stroke-linejoin:round"
           id="line2d_9">
          <defs
             id="defs116">
            <path
               inkscape:connector-curvature="0"
               style="stroke:#000000;stroke-width:0.5;stroke-linecap:butt;stroke-linejoin:round"
               id="m0012dd4eef"
               d="M 0,0 0,-4" />
          </defs>
          <g
             style="stroke-linecap:square;stroke-linejoin:round"
             id="g119">
            <use
               height="432"
               width="576"
               id="use121"
               y="378.16425"
               xlink:href="#m0012dd4eef"
               x="72.038254"
               style="stroke:#000000;stroke-width:0.5;stroke-linecap:butt;stroke-linejoin:round" />
          </g>
        </g>
        <g
           style="stroke-linecap:square;stroke-linejoin:round"
           id="text_9">
          <text
             id="text124"
             transform="translate(68.183719,394.3205)"
             style="font-size:18px;font-style:normal;stroke-linecap:square;stroke-linejoin:round;font-family:Times New Roman">0</text>
        </g>
      </g>
      <g
         style="stroke-linecap:square;stroke-linejoin:round"
         id="xtick_2">
        <g
           style="stroke-linecap:square;stroke-linejoin:round"
           id="line2d_10">
          <g
             style="stroke-linecap:square;stroke-linejoin:round"
             id="g128">
            <use
               height="432"
               width="576"
               id="use130"
               y="378.16425"
               xlink:href="#m0012dd4eef"
               x="190.89366"
               style="stroke:#000000;stroke-width:0.5;stroke-linecap:butt;stroke-linejoin:round" />
          </g>
        </g>
        <g
           style="stroke-linecap:square;stroke-linejoin:round"
           id="text_10">
          <text
             id="text133"
             transform="translate(182.64459,394.3205)"
             style="font-size:18px;font-style:normal;stroke-linecap:square;stroke-linejoin:round;font-family:Times New Roman">50</text>
        </g>
      </g>
      <g
         style="stroke-linecap:square;stroke-linejoin:round"
         id="xtick_3">
        <g
           style="stroke-linecap:square;stroke-linejoin:round"
           id="line2d_11">
          <g
             style="stroke-linecap:square;stroke-linejoin:round"
             id="g137">
            <use
               height="432"
               width="576"
               id="use139"
               y="378.16425"
               xlink:href="#m0012dd4eef"
               x="309.74905"
               style="stroke:#000000;stroke-width:0.5;stroke-linecap:butt;stroke-linejoin:round" />
          </g>
        </g>
        <g
           style="stroke-linecap:square;stroke-linejoin:round"
           id="text_11">
          <text
             id="text142"
             transform="translate(297.62437,394.3205)"
             style="font-size:18px;font-style:normal;stroke-linecap:square;stroke-linejoin:round;font-family:Times New Roman">100</text>
        </g>
      </g>
      <g
         style="stroke-linecap:square;stroke-linejoin:round"
         id="xtick_4">
        <g
           style="stroke-linecap:square;stroke-linejoin:round"
           id="line2d_12">
          <g
             style="stroke-linecap:square;stroke-linejoin:round"
             id="g146">
            <use
               height="432"
               width="576"
               id="use148"
               y="378.16425"
               xlink:href="#m0012dd4eef"
               x="428.60446"
               style="stroke:#000000;stroke-width:0.5;stroke-linecap:butt;stroke-linejoin:round" />
          </g>
        </g>
        <g
           style="stroke-linecap:square;stroke-linejoin:round"
           id="text_12">
          <text
             id="text151"
             transform="translate(416.47978,394.3205)"
             style="font-size:18px;font-style:normal;stroke-linecap:square;stroke-linejoin:round;font-family:Times New Roman">150</text>
        </g>
      </g>
      <g
         style="stroke-linecap:square;stroke-linejoin:round"
         id="xtick_5">
        <g
           style="stroke-linecap:square;stroke-linejoin:round"
           id="line2d_13">
          <g
             style="stroke-linecap:square;stroke-linejoin:round"
             id="g155">
            <use
               height="432"
               width="576"
               id="use157"
               y="378.16425"
               xlink:href="#m0012dd4eef"
               x="547.4599"
               style="stroke:#000000;stroke-width:0.5;stroke-linecap:butt;stroke-linejoin:round" />
          </g>
        </g>
        <g
           style="stroke-linecap:square;stroke-linejoin:round"
           id="text_13">
          <text
             id="text160"
             transform="translate(534.47456,394.3205)"
             style="font-size:18px;font-style:normal;stroke-linecap:square;stroke-linejoin:round;font-family:Times New Roman">200</text>
        </g>
      </g>
      <g
         style="stroke-linecap:square;stroke-linejoin:round"
         id="text_14">
        <text
           id="text163"
           transform="translate(215.63016,412.04456)"
           style="font-size:18px;font-style:normal;stroke-linecap:square;stroke-linejoin:round;font-family:Times New Roman">Simulation time (seconds)</text>
      </g>
    </g>
    <g
       transform="translate(0,-171.2)"
       style="stroke-linecap:square;stroke-linejoin:round"
       id="patch_6">
      <path
         inkscape:connector-curvature="0"
         id="path206"
         style="fill:none;stroke:#000000;stroke-linecap:square;stroke-linejoin:round"
         d="m 72.0383,378.164 475.4217,0" />
    </g>
  </g>
  <defs
     id="defs211">
    <clipPath
       id="p9f2f1507a5">
      <rect
         height="171.24612"
         width="475.42163"
         x="72.038254"
         y="206.91812"
         id="rect214"
         style="stroke-linecap:square;stroke-linejoin:round" />
    </clipPath>
    <clipPath
       id="pa838098189">
      <rect
         height="171.24612"
         width="475.42163"
         x="72.038254"
         y="35.672001"
         id="rect217"
         style="stroke-linecap:square;stroke-linejoin:round" />
    </clipPath>
  </defs>
</svg>
