<?xml version="1.0" encoding="utf-8" standalone="no"?>
<!DOCTYPE svg PUBLIC "-//W3C//DTD SVG 1.1//EN"
  "http://www.w3.org/Graphics/SVG/1.1/DTD/svg11.dtd">
<!-- Created with matplotlib (http://matplotlib.sourceforge.net/) -->
<svg height="216pt" version="1.1" viewBox="0 0 576 216" width="576pt" xmlns="http://www.w3.org/2000/svg" xmlns:xlink="http://www.w3.org/1999/xlink">
 <defs>
  <style type="text/css">
*{stroke-linecap:square;stroke-linejoin:round;}
  </style>
 </defs>
 <g id="figure_1">
  <g id="patch_1">
   <path d="
M0 216
L576 216
L576 0
L0 0
z
" style="fill:none;opacity:0.0;"/>
  </g>
  <g id="axes_1">
   <g id="patch_2">
    <path d="
M72 194.4
L518.4 194.4
L518.4 21.6
L72 21.6
z
" style="fill:none;opacity:0.0;"/>
   </g>
   <g id="PolyCollection_1">
    <defs>
     <path d="
M72 -72.4235
L72 -72.4235
L80.928 -66.528
L89.856 -61.0391
L98.784 -55.9567
L107.712 -51.2809
L116.64 -47.0118
L125.568 -43.1492
L134.496 -39.6932
L143.424 -36.6438
L152.352 -34.0009
L161.28 -31.7647
L170.208 -29.9351
L179.136 -28.512
L188.064 -27.4955
L196.992 -26.8856
L205.92 -26.6824
L214.848 -26.8856
L223.776 -27.4955
L232.704 -28.512
L241.632 -29.9351
L250.56 -31.7647
L259.488 -34.0009
L268.416 -36.6438
L277.344 -39.6932
L286.272 -43.1492
L295.2 -47.0118
L304.128 -51.2809
L313.056 -55.9567
L321.984 -61.0391
L330.912 -66.528
L339.84 -72.4235
L339.84 -72.4235
L339.84 -72.4235
L330.912 -72.4235
L321.984 -72.4235
L313.056 -72.4235
L304.128 -72.4235
L295.2 -72.4235
L286.272 -72.4235
L277.344 -72.4235
L268.416 -72.4235
L259.488 -72.4235
L250.56 -72.4235
L241.632 -72.4235
L232.704 -72.4235
L223.776 -72.4235
L214.848 -72.4235
L205.92 -72.4235
L196.992 -72.4235
L188.064 -72.4235
L179.136 -72.4235
L170.208 -72.4235
L161.28 -72.4235
L152.352 -72.4235
L143.424 -72.4235
L134.496 -72.4235
L125.568 -72.4235
L116.64 -72.4235
L107.712 -72.4235
L98.784 -72.4235
L89.856 -72.4235
L80.928 -72.4235
L72 -72.4235
z
" id="C0_0_c74c533bb8"/>
    </defs>
    <g clip-path="url(#p0667ba6033)">
     <use style="fill:#ff0000;stroke:#ff0000;stroke-linecap:butt;" x="0" xlink:href="#C0_0_c74c533bb8" y="216.0"/>
    </g>
   </g>
   <g id="PolyCollection_2">
    <defs>
     <path d="
M339.84 -72.4235
L339.84 -72.4235
L348.768 -78.7256
L357.696 -85.4344
L366.624 -92.5496
L375.552 -100.072
L384.48 -108
L393.408 -116.335
L402.336 -125.077
L411.264 -134.225
L420.192 -143.78
L429.12 -153.741
L438.048 -164.109
L446.976 -174.884
L455.904 -186.065
L464.832 -197.653
L473.76 -209.647
L482.688 -222.048
L491.616 -234.856
L500.544 -248.07
L509.472 -261.69
L518.4 -275.718
L518.4 -72.4235
L518.4 -72.4235
L509.472 -72.4235
L500.544 -72.4235
L491.616 -72.4235
L482.688 -72.4235
L473.76 -72.4235
L464.832 -72.4235
L455.904 -72.4235
L446.976 -72.4235
L438.048 -72.4235
L429.12 -72.4235
L420.192 -72.4235
L411.264 -72.4235
L402.336 -72.4235
L393.408 -72.4235
L384.48 -72.4235
L375.552 -72.4235
L366.624 -72.4235
L357.696 -72.4235
L348.768 -72.4235
L339.84 -72.4235
z
" id="C1_0_cf7ff06272"/>
    </defs>
    <g clip-path="url(#p0667ba6033)">
     <use style="fill:#008000;stroke:#008000;stroke-linecap:butt;" x="0" xlink:href="#C1_0_cf7ff06272" y="216.0"/>
    </g>
   </g>
   <g id="line2d_1">
    <path clip-path="url(#p0667ba6033)" d="
M72 143.576
L80.928 149.472
L89.856 154.961
L98.784 160.043
L107.712 164.719
L116.64 168.988
L125.568 172.851
L134.496 176.307
L143.424 179.356
L152.352 181.999
L161.28 184.235
L170.208 186.065
L179.136 187.488
L188.064 188.504
L196.992 189.114
L205.92 189.318
L214.848 189.114
L223.776 188.504
L232.704 187.488
L241.632 186.065
L250.56 184.235
L259.488 181.999
L268.416 179.356
L277.344 176.307
L286.272 172.851
L295.2 168.988
L304.128 164.719
L313.056 160.043
L321.984 154.961
L330.912 149.472
L339.84 143.576
L348.768 137.274
L357.696 130.566
L366.624 123.45
L375.552 115.928
L384.48 108
L393.408 99.6649
L402.336 90.9233
L411.264 81.7751
L420.192 72.2202
L429.12 62.2588
L438.048 51.8908
L446.976 41.1162
L455.904 29.9351
L464.832 18.3473
L473.76 6.35294
L479.054 -1" style="fill:none;stroke:#000000;stroke-width:2;"/>
   </g>
   <g id="line2d_2">
    <path clip-path="url(#p0667ba6033)" d="
M72 143.576
L518.4 143.576" style="fill:none;stroke:#000000;stroke-dasharray:6.000000,6.000000;stroke-dashoffset:0.0;stroke-linecap:butt;"/>
   </g>
   <g id="matplotlib.axis_1">
    <g id="xtick_1">
     <g id="line2d_3">
      <defs>
       <path d="
M0 0
L0 -4" id="m0012dd4eef" style="stroke:#000000;stroke-linecap:butt;stroke-width:0.5;"/>
      </defs>
      <g>
       <use style="stroke:#000000;stroke-linecap:butt;stroke-width:0.5;" x="339.84" xlink:href="#m0012dd4eef" y="194.4"/>
      </g>
     </g>
     <g id="text_1">
      <!-- $\theta$ -->
      <g transform="translate(335.61 211.54)">
       <text>
        <tspan style="font-family:cmmi10;font-size:18.0px;font-style:regular;" x="0.0" y="-1.3125">µ</tspan>
       </text>
      </g>
     </g>
    </g>
   </g>
   <g id="matplotlib.axis_2">
    <g id="ytick_1">
     <g id="line2d_4">
      <defs>
       <path d="
M0 0
L4 0" id="me8a85f7bf6" style="stroke:#000000;stroke-linecap:butt;stroke-width:0.5;"/>
      </defs>
      <g>
       <use style="stroke:#000000;stroke-linecap:butt;stroke-width:0.5;" x="72.0" xlink:href="#me8a85f7bf6" y="143.576470588"/>
      </g>
     </g>
     <g id="text_2">
      <text style="font-family:Times New Roman;font-size:18.0px;font-style:normal;" transform="translate(60.2909375 149.545220588)">0</text>
     </g>
    </g>
   </g>
   <g id="patch_3">
    <path d="
M72 194.4
L518.4 194.4" style="fill:none;stroke:#000000;"/>
   </g>
   <g id="patch_4">
    <path d="
M72 194.4
L72 21.6" style="fill:none;stroke:#000000;"/>
   </g>
  </g>
 </g>
 <defs>
  <clipPath id="p0667ba6033">
   <rect height="172.8" width="446.4" x="72.0" y="21.6"/>
  </clipPath>
 </defs>
</svg>
