<?xml version="1.0" encoding="utf-8" standalone="no"?>
<!DOCTYPE svg PUBLIC "-//W3C//DTD SVG 1.1//EN"
  "http://www.w3.org/Graphics/SVG/1.1/DTD/svg11.dtd">
<!-- Created with matplotlib (http://matplotlib.org/) -->
<svg height="216pt" version="1.1" viewBox="0 0 576 216" width="576pt" xmlns="http://www.w3.org/2000/svg" xmlns:xlink="http://www.w3.org/1999/xlink">
 <defs>
  <style type="text/css">
*{stroke-linecap:square;stroke-linejoin:round;}
  </style>
 </defs>
 <g id="figure_1">
  <g id="patch_1">
   <path d="
M0 216
L576 216
L576 0
L0 0
z
" style="fill:none;opacity:0.0;"/>
  </g>
  <g id="axes_1">
   <g id="patch_2">
    <path d="
M72 194.4
L518.4 194.4
L518.4 21.6
L72 21.6
z
" style="fill:none;opacity:0.0;"/>
   </g>
   <g id="PolyCollection_1">
    <defs>
     <path d="
M72 -72.4235
L72 -72.4235
L82.2621 -66.528
L92.5241 -61.0391
L102.786 -55.9567
L113.048 -51.2809
L123.31 -47.0118
L133.572 -43.1492
L143.834 -39.6932
L154.097 -36.6438
L164.359 -34.0009
L174.621 -31.7647
L184.883 -29.9351
L195.145 -28.512
L205.407 -27.4955
L215.669 -26.8856
L225.931 -26.6824
L236.193 -26.8856
L246.455 -27.4955
L256.717 -28.512
L266.979 -29.9351
L277.241 -31.7647
L287.503 -34.0009
L297.766 -36.6438
L308.028 -39.6932
L318.29 -43.1492
L328.552 -47.0118
L338.814 -51.2809
L349.076 -55.9567
L359.338 -61.0391
L369.6 -66.528
L379.862 -72.4235
L379.862 -72.4235
L379.862 -72.4235
L369.6 -72.4235
L359.338 -72.4235
L349.076 -72.4235
L338.814 -72.4235
L328.552 -72.4235
L318.29 -72.4235
L308.028 -72.4235
L297.766 -72.4235
L287.503 -72.4235
L277.241 -72.4235
L266.979 -72.4235
L256.717 -72.4235
L246.455 -72.4235
L236.193 -72.4235
L225.931 -72.4235
L215.669 -72.4235
L205.407 -72.4235
L195.145 -72.4235
L184.883 -72.4235
L174.621 -72.4235
L164.359 -72.4235
L154.097 -72.4235
L143.834 -72.4235
L133.572 -72.4235
L123.31 -72.4235
L113.048 -72.4235
L102.786 -72.4235
L92.5241 -72.4235
L82.2621 -72.4235
L72 -72.4235
z
" id="C0_0_720b7bd41b"/>
    </defs>
    <g clip-path="url(#p0667ba6033)">
     <use style="fill:#ff0000;stroke:#ff0000;stroke-linecap:butt;" x="0" xlink:href="#C0_0_720b7bd41b" y="216.0"/>
    </g>
   </g>
   <g id="PolyCollection_2">
    <defs>
     <path d="
M379.862 -72.4235
L379.862 -72.4235
L390.124 -78.7256
L400.386 -85.4344
L410.648 -92.5496
L420.91 -100.072
L431.172 -108
L441.434 -116.335
L451.697 -125.077
L461.959 -134.225
L472.221 -143.78
L482.483 -153.741
L492.745 -164.109
L503.007 -174.884
L513.269 -186.065
L523.531 -197.653
L533.793 -209.647
L544.055 -222.048
L554.317 -234.856
L564.579 -248.07
L574.841 -261.69
L585.103 -275.718
L585.103 -72.4235
L585.103 -72.4235
L574.841 -72.4235
L564.579 -72.4235
L554.317 -72.4235
L544.055 -72.4235
L533.793 -72.4235
L523.531 -72.4235
L513.269 -72.4235
L503.007 -72.4235
L492.745 -72.4235
L482.483 -72.4235
L472.221 -72.4235
L461.959 -72.4235
L451.697 -72.4235
L441.434 -72.4235
L431.172 -72.4235
L420.91 -72.4235
L410.648 -72.4235
L400.386 -72.4235
L390.124 -72.4235
L379.862 -72.4235
z
" id="C1_0_cbb4aef191"/>
    </defs>
    <g clip-path="url(#p0667ba6033)">
     <use style="fill:#008000;stroke:#008000;stroke-linecap:butt;" x="0" xlink:href="#C1_0_cbb4aef191" y="216.0"/>
    </g>
   </g>
   <g id="line2d_1">
    <path clip-path="url(#p0667ba6033)" d="
M72 143.576
L82.2621 149.472
L92.5241 154.961
L102.786 160.043
L113.048 164.719
L123.31 168.988
L133.572 172.851
L143.834 176.307
L154.097 179.356
L164.359 181.999
L174.621 184.235
L184.883 186.065
L195.145 187.488
L205.407 188.504
L215.669 189.114
L225.931 189.318
L236.193 189.114
L246.455 188.504
L256.717 187.488
L266.979 186.065
L277.241 184.235
L287.503 181.999
L297.766 179.356
L308.028 176.307
L318.29 172.851
L328.552 168.988
L338.814 164.719
L349.076 160.043
L359.338 154.961
L369.6 149.472
L379.862 143.576
L390.124 137.274
L400.386 130.566
L410.648 123.45
L420.91 115.928
L431.172 108
L441.434 99.6649
L451.697 90.9233
L461.959 81.7751
L472.221 72.2202
L482.483 62.2588
L492.745 51.8908
L503.007 41.1162
L513.269 29.9351
L523.531 18.3473
L533.793 6.35294
L539.878 -1" style="fill:none;stroke:#000000;stroke-width:2;"/>
   </g>
   <g id="line2d_2">
    <path clip-path="url(#p0667ba6033)" d="
M72 143.576
L518.4 143.576" style="fill:none;stroke:#000000;stroke-dasharray:6.000000,6.000000;stroke-dashoffset:0.0;stroke-linecap:butt;"/>
   </g>
   <g id="matplotlib.axis_1">
    <g id="text_1">
     <!-- $a_j$ -->
     <g transform="translate(287.4 214.0)">
      <text>
       <tspan style="font-family:STIXGeneral;font-size:20.0px;font-style:italic;" x="0.0" y="-6.1875">a</tspan>
       <tspan style="font-family:STIXGeneral;font-size:14.0px;font-style:italic;" x="10.0200042725" y="-3.54375">j</tspan>
      </text>
     </g>
    </g>
   </g>
   <g id="matplotlib.axis_2">
    <g id="ytick_1">
     <g id="text_2">
      <text style="font-family:Palatino Linotype;font-size:20.0px;font-style:normal;" transform="translate(59.328125 150.256158088)">0</text>
     </g>
    </g>
    <g id="text_3">
     <!-- $\Delta \omega_{ij}$ -->
     <g transform="translate(54.328125 126.0)rotate(-90.0)">
      <text>
       <tspan style="font-family:STIXGeneral;font-size:20.0px;font-style:italic;" x="14.4400024414" y="-6.515625">ω</tspan>
       <tspan style="font-family:STIXGeneral;font-size:20.0px;font-style:regular;" x="0.0" y="-6.515625">Δ</tspan>
       <tspan style="font-family:STIXGeneral;font-size:14.0px;font-style:italic;" x="28.1600036621 32.0520019531" y="-3.871875">ij</tspan>
      </text>
     </g>
    </g>
   </g>
   <g id="patch_3">
    <path d="
M352.875 116.867
Q368.158 126.109 378.142 140.979" style="fill:none;stroke:#000000;stroke-linecap:round;"/>
    <path d="
M377.004 132.107
L378.142 140.979
L370.362 136.567" style="fill:none;stroke:#000000;stroke-linecap:round;"/>
   </g>
   <g id="text_4">
    <!-- $E[a_j]$ -->
    <g transform="translate(307.951724138 116.483529412)">
     <text>
      <tspan style="font-family:STIXGeneral;font-size:20.0px;font-style:italic;" x="0.0 18.8800048828" y="-6.765625">Ea</tspan>
      <tspan style="font-family:STIXGeneral;font-size:20.0px;font-style:regular;" x="12.2200012207 34.4600067139" y="-6.765625">[]</tspan>
      <tspan style="font-family:STIXGeneral;font-size:14.0px;font-style:italic;" x="28.9000091553" y="-4.121875">j</tspan>
     </text>
    </g>
   </g>
  </g>
 </g>
 <defs>
  <clipPath id="p0667ba6033">
   <rect height="172.8" width="446.4" x="72.0" y="21.6"/>
  </clipPath>
 </defs>
</svg>
