<?xml version="1.0" encoding="UTF-8" standalone="no"?>
<!-- Created with Inkscape (http://www.inkscape.org/) -->

<svg
   xmlns:dc="http://purl.org/dc/elements/1.1/"
   xmlns:cc="http://creativecommons.org/ns#"
   xmlns:rdf="http://www.w3.org/1999/02/22-rdf-syntax-ns#"
   xmlns:svg="http://www.w3.org/2000/svg"
   xmlns="http://www.w3.org/2000/svg"
   xmlns:sodipodi="http://sodipodi.sourceforge.net/DTD/sodipodi-0.dtd"
   xmlns:inkscape="http://www.inkscape.org/namespaces/inkscape"
   sodipodi:docname="d_i.svg"
   inkscape:version="0.48.3.1 r9886"
   version="1.1"
   id="svg2"
   height="437"
   width="164">
  <sodipodi:namedview
     id="base"
     pagecolor="#ffffff"
     bordercolor="#666666"
     borderopacity="1.0"
     inkscape:pageopacity="0.0"
     inkscape:pageshadow="2"
     inkscape:zoom="1"
     inkscape:cx="129.43306"
     inkscape:cy="91.9934"
     inkscape:document-units="px"
     inkscape:current-layer="layer1"
     showgrid="false"
     inkscape:window-width="1680"
     inkscape:window-height="1003"
     inkscape:window-x="0"
     inkscape:window-y="0"
     inkscape:window-maximized="1"
     fit-margin-top="2"
     fit-margin-left="2"
     fit-margin-right="2"
     fit-margin-bottom="2" />
  <defs
     id="defs4">
    <marker
       inkscape:stockid="Arrow1Send"
       orient="auto"
       refY="0"
       refX="0"
       id="Arrow1Send"
       style="overflow:visible">
      <path
         inkscape:connector-curvature="0"
         id="path4126"
         d="M 0,0 5,-5 -12.5,0 5,5 0,0 z"
         style="fill-rule:evenodd;stroke:#000000;stroke-width:1pt"
         transform="matrix(-0.2,0,0,-0.2,-1.2,0)" />
    </marker>
    <marker
       style="overflow:visible"
       id="Arrow1Mend"
       refX="0"
       refY="0"
       orient="auto"
       inkscape:stockid="Arrow1Mend">
      <path
         transform="matrix(-0.4,0,0,-0.4,-4,0)"
         style="fill-rule:evenodd;stroke:#000000;stroke-width:1pt"
         d="M 0,0 5,-5 -12.5,0 5,5 0,0 z"
         id="path4120"
         inkscape:connector-curvature="0" />
    </marker>
    <marker
       style="overflow:visible"
       id="Arrow1MendA"
       refX="0"
       refY="0"
       orient="auto"
       inkscape:stockid="Arrow1MendA">
      <path
         transform="matrix(-0.4,0,0,-0.4,-4,0)"
         style="fill:#6e6e6e;fill-rule:evenodd;stroke:#6e6e6e;stroke-width:1pt"
         d="M 0,0 5,-5 -12.5,0 5,5 0,0 z"
         id="path4740"
         inkscape:connector-curvature="0" />
    </marker>
    <marker
       inkscape:stockid="Arrow1Sendt"
       orient="auto"
       refY="0"
       refX="0"
       id="Arrow1Sendt"
       style="overflow:visible">
      <path
         inkscape:connector-curvature="0"
         id="path5404"
         d="M 0,0 5,-5 -12.5,0 5,5 0,0 z"
         style="fill:#6e6e6e;fill-rule:evenodd;stroke:#6e6e6e;stroke-width:1pt"
         transform="matrix(-0.2,0,0,-0.2,-1.2,0)" />
    </marker>
    <marker
       inkscape:stockid="Arrow1Sendx"
       orient="auto"
       refY="0"
       refX="0"
       id="Arrow1Sendx"
       style="overflow:visible">
      <path
         inkscape:connector-curvature="0"
         id="path5407"
         d="M 0,0 5,-5 -12.5,0 5,5 0,0 z"
         style="fill:#6e6e6e;fill-rule:evenodd;stroke:#6e6e6e;stroke-width:1pt"
         transform="matrix(-0.2,0,0,-0.2,-1.2,0)" />
    </marker>
    <marker
       inkscape:stockid="Arrow1Sendn"
       orient="auto"
       refY="0"
       refX="0"
       id="Arrow1Sendn"
       style="overflow:visible">
      <path
         inkscape:connector-curvature="0"
         id="path5410"
         d="M 0,0 5,-5 -12.5,0 5,5 0,0 z"
         style="fill:#6e6e6e;fill-rule:evenodd;stroke:#6e6e6e;stroke-width:1pt"
         transform="matrix(-0.2,0,0,-0.2,-1.2,0)" />
    </marker>
    <marker
       inkscape:stockid="Arrow1Sendd"
       orient="auto"
       refY="0"
       refX="0"
       id="Arrow1Sendd"
       style="overflow:visible">
      <path
         inkscape:connector-curvature="0"
         id="path5413"
         d="M 0,0 5,-5 -12.5,0 5,5 0,0 z"
         style="fill:#6e6e6e;fill-rule:evenodd;stroke:#6e6e6e;stroke-width:1pt"
         transform="matrix(-0.2,0,0,-0.2,-1.2,0)" />
    </marker>
    <marker
       inkscape:stockid="Arrow1Sende"
       orient="auto"
       refY="0"
       refX="0"
       id="Arrow1Sende"
       style="overflow:visible">
      <path
         inkscape:connector-curvature="0"
         id="path5416"
         d="M 0,0 5,-5 -12.5,0 5,5 0,0 z"
         style="fill:#6e6e6e;fill-rule:evenodd;stroke:#6e6e6e;stroke-width:1pt"
         transform="matrix(-0.2,0,0,-0.2,-1.2,0)" />
    </marker>
    <marker
       inkscape:stockid="Arrow1Sendk"
       orient="auto"
       refY="0"
       refX="0"
       id="Arrow1Sendk"
       style="overflow:visible">
      <path
         inkscape:connector-curvature="0"
         id="path5419"
         d="M 0,0 5,-5 -12.5,0 5,5 0,0 z"
         style="fill:#6e6e6e;fill-rule:evenodd;stroke:#6e6e6e;stroke-width:1pt"
         transform="matrix(-0.2,0,0,-0.2,-1.2,0)" />
    </marker>
    <marker
       inkscape:stockid="Arrow1SendE"
       orient="auto"
       refY="0"
       refX="0"
       id="Arrow1SendE"
       style="overflow:visible">
      <path
         inkscape:connector-curvature="0"
         id="path5422"
         d="M 0,0 5,-5 -12.5,0 5,5 0,0 z"
         style="fill:#6e6e6e;fill-rule:evenodd;stroke:#6e6e6e;stroke-width:1pt"
         transform="matrix(-0.2,0,0,-0.2,-1.2,0)" />
    </marker>
    <marker
       inkscape:stockid="Arrow1SendI"
       orient="auto"
       refY="0"
       refX="0"
       id="Arrow1SendI"
       style="overflow:visible">
      <path
         inkscape:connector-curvature="0"
         id="path5425"
         d="M 0,0 5,-5 -12.5,0 5,5 0,0 z"
         style="fill:#6e6e6e;fill-rule:evenodd;stroke:#6e6e6e;stroke-width:1pt"
         transform="matrix(-0.2,0,0,-0.2,-1.2,0)" />
    </marker>
    <marker
       inkscape:stockid="Arrow1SendT"
       orient="auto"
       refY="0"
       refX="0"
       id="Arrow1SendT"
       style="overflow:visible">
      <path
         inkscape:connector-curvature="0"
         id="path5428"
         d="M 0,0 5,-5 -12.5,0 5,5 0,0 z"
         style="fill:#6e6e6e;fill-rule:evenodd;stroke:#6e6e6e;stroke-width:1pt"
         transform="matrix(-0.2,0,0,-0.2,-1.2,0)" />
    </marker>
    <marker
       inkscape:stockid="Arrow1SendZ"
       orient="auto"
       refY="0"
       refX="0"
       id="Arrow1SendZ"
       style="overflow:visible">
      <path
         inkscape:connector-curvature="0"
         id="path5431"
         d="M 0,0 5,-5 -12.5,0 5,5 0,0 z"
         style="fill:#6e6e6e;fill-rule:evenodd;stroke:#6e6e6e;stroke-width:1pt"
         transform="matrix(-0.2,0,0,-0.2,-1.2,0)" />
    </marker>
    <marker
       inkscape:stockid="Arrow1SendS"
       orient="auto"
       refY="0"
       refX="0"
       id="Arrow1SendS"
       style="overflow:visible">
      <path
         inkscape:connector-curvature="0"
         id="path5434"
         d="M 0,0 5,-5 -12.5,0 5,5 0,0 z"
         style="fill:#6e6e6e;fill-rule:evenodd;stroke:#6e6e6e;stroke-width:1pt"
         transform="matrix(-0.2,0,0,-0.2,-1.2,0)" />
    </marker>
    <marker
       inkscape:stockid="Arrow1Sendv"
       orient="auto"
       refY="0"
       refX="0"
       id="Arrow1Sendv"
       style="overflow:visible">
      <path
         inkscape:connector-curvature="0"
         id="path5437"
         d="M 0,0 5,-5 -12.5,0 5,5 0,0 z"
         style="fill:#6e6e6e;fill-rule:evenodd;stroke:#6e6e6e;stroke-width:1pt"
         transform="matrix(-0.2,0,0,-0.2,-1.2,0)" />
    </marker>
    <marker
       inkscape:stockid="Arrow1Sendd0"
       orient="auto"
       refY="0"
       refX="0"
       id="Arrow1Sendd0"
       style="overflow:visible">
      <path
         inkscape:connector-curvature="0"
         id="path5440"
         d="M 0,0 5,-5 -12.5,0 5,5 0,0 z"
         style="fill:#6e6e6e;fill-rule:evenodd;stroke:#6e6e6e;stroke-width:1pt"
         transform="matrix(-0.2,0,0,-0.2,-1.2,0)" />
    </marker>
    <marker
       inkscape:stockid="Arrow1Sendf"
       orient="auto"
       refY="0"
       refX="0"
       id="Arrow1Sendf"
       style="overflow:visible">
      <path
         inkscape:connector-curvature="0"
         id="path5443"
         d="M 0,0 5,-5 -12.5,0 5,5 0,0 z"
         style="fill:#6e6e6e;fill-rule:evenodd;stroke:#6e6e6e;stroke-width:1pt"
         transform="matrix(-0.2,0,0,-0.2,-1.2,0)" />
    </marker>
    <marker
       inkscape:stockid="Arrow1SendZV"
       orient="auto"
       refY="0"
       refX="0"
       id="Arrow1SendZV"
       style="overflow:visible">
      <path
         inkscape:connector-curvature="0"
         id="path5446"
         d="M 0,0 5,-5 -12.5,0 5,5 0,0 z"
         style="fill:#6e6e6e;fill-rule:evenodd;stroke:#6e6e6e;stroke-width:1pt"
         transform="matrix(-0.2,0,0,-0.2,-1.2,0)" />
    </marker>
    <marker
       inkscape:stockid="Arrow1Sendi"
       orient="auto"
       refY="0"
       refX="0"
       id="Arrow1Sendi"
       style="overflow:visible">
      <path
         inkscape:connector-curvature="0"
         id="path5449"
         d="M 0,0 5,-5 -12.5,0 5,5 0,0 z"
         style="fill:#6e6e6e;fill-rule:evenodd;stroke:#6e6e6e;stroke-width:1pt"
         transform="matrix(-0.2,0,0,-0.2,-1.2,0)" />
    </marker>
    <marker
       style="overflow:visible"
       id="Arrow1Mendq"
       refX="0"
       refY="0"
       orient="auto"
       inkscape:stockid="Arrow1Mendq">
      <path
         transform="matrix(-0.4,0,0,-0.4,-4,0)"
         style="fill:#6e6e6e;fill-rule:evenodd;stroke:#6e6e6e;stroke-width:1pt"
         d="M 0,0 5,-5 -12.5,0 5,5 0,0 z"
         id="path4867"
         inkscape:connector-curvature="0" />
    </marker>
    <marker
       style="overflow:visible"
       id="Arrow1Mendh"
       refX="0"
       refY="0"
       orient="auto"
       inkscape:stockid="Arrow1Mendh">
      <path
         transform="matrix(-0.4,0,0,-0.4,-4,0)"
         style="fill:#6e6e6e;fill-rule:evenodd;stroke:#6e6e6e;stroke-width:1pt"
         d="M 0,0 5,-5 -12.5,0 5,5 0,0 z"
         id="path4870"
         inkscape:connector-curvature="0" />
    </marker>
    <marker
       style="overflow:visible"
       id="Arrow1Mendb"
       refX="0"
       refY="0"
       orient="auto"
       inkscape:stockid="Arrow1Mendb">
      <path
         transform="matrix(-0.4,0,0,-0.4,-4,0)"
         style="fill:#6e6e6e;fill-rule:evenodd;stroke:#6e6e6e;stroke-width:1pt"
         d="M 0,0 5,-5 -12.5,0 5,5 0,0 z"
         id="path4873"
         inkscape:connector-curvature="0" />
    </marker>
    <marker
       style="overflow:visible"
       id="Arrow1MendN"
       refX="0"
       refY="0"
       orient="auto"
       inkscape:stockid="Arrow1MendN">
      <path
         transform="matrix(-0.4,0,0,-0.4,-4,0)"
         style="fill:#6e6e6e;fill-rule:evenodd;stroke:#6e6e6e;stroke-width:1pt"
         d="M 0,0 5,-5 -12.5,0 5,5 0,0 z"
         id="path4876"
         inkscape:connector-curvature="0" />
    </marker>
    <marker
       style="overflow:visible"
       id="Arrow1MendQ"
       refX="0"
       refY="0"
       orient="auto"
       inkscape:stockid="Arrow1MendQ">
      <path
         transform="matrix(-0.4,0,0,-0.4,-4,0)"
         style="fill:#6e6e6e;fill-rule:evenodd;stroke:#6e6e6e;stroke-width:1pt"
         d="M 0,0 5,-5 -12.5,0 5,5 0,0 z"
         id="path4879"
         inkscape:connector-curvature="0" />
    </marker>
    <marker
       style="overflow:visible"
       id="Arrow1MendO"
       refX="0"
       refY="0"
       orient="auto"
       inkscape:stockid="Arrow1MendO">
      <path
         transform="matrix(-0.4,0,0,-0.4,-4,0)"
         style="fill:#6e6e6e;fill-rule:evenodd;stroke:#6e6e6e;stroke-width:1pt"
         d="M 0,0 5,-5 -12.5,0 5,5 0,0 z"
         id="path4882"
         inkscape:connector-curvature="0" />
    </marker>
    <marker
       style="overflow:visible"
       id="Arrow1MendK"
       refX="0"
       refY="0"
       orient="auto"
       inkscape:stockid="Arrow1MendK">
      <path
         transform="matrix(-0.4,0,0,-0.4,-4,0)"
         style="fill:#6e6e6e;fill-rule:evenodd;stroke:#6e6e6e;stroke-width:1pt"
         d="M 0,0 5,-5 -12.5,0 5,5 0,0 z"
         id="path4885"
         inkscape:connector-curvature="0" />
    </marker>
    <marker
       style="overflow:visible"
       id="Arrow1Mendd"
       refX="0"
       refY="0"
       orient="auto"
       inkscape:stockid="Arrow1Mendd">
      <path
         transform="matrix(-0.4,0,0,-0.4,-4,0)"
         style="fill:#6e6e6e;fill-rule:evenodd;stroke:#6e6e6e;stroke-width:1pt"
         d="M 0,0 5,-5 -12.5,0 5,5 0,0 z"
         id="path4888"
         inkscape:connector-curvature="0" />
    </marker>
  </defs>
  <metadata
     id="metadata7">
    <rdf:RDF>
      <cc:Work
         rdf:about="">
        <dc:format>image/svg+xml</dc:format>
        <dc:type
           rdf:resource="http://purl.org/dc/dcmitype/StillImage" />
        <dc:title />
      </cc:Work>
    </rdf:RDF>
  </metadata>
  <g
     transform="translate(2,-617.36223)"
     id="layer1"
     inkscape:groupmode="layer"
     inkscape:label="Layer 1">
    <path
       transform="matrix(0.98245611,0,0,0.98245611,-9.4736834,1031.0289)"
       d="m 30,13.571428 a 10.178572,10.178572 0 1 1 -20.3571434,0 10.178572,10.178572 0 1 1 20.3571434,0 z"
       sodipodi:ry="10.178572"
       sodipodi:rx="10.178572"
       sodipodi:cy="13.571428"
       sodipodi:cx="19.821428"
       id="path2985"
       style="fill:#6e6e6e;fill-opacity:1;stroke-width:2.0999999;stroke-miterlimit:4;stroke-dasharray:none"
       sodipodi:type="arc" />
    <path
       transform="matrix(0.98245611,0,0,0.98245611,-9.4736834,975.0289)"
       d="m 30,13.571428 a 10.178572,10.178572 0 1 1 -20.3571434,0 10.178572,10.178572 0 1 1 20.3571434,0 z"
       sodipodi:ry="10.178572"
       sodipodi:rx="10.178572"
       sodipodi:cy="13.571428"
       sodipodi:cx="19.821428"
       id="path2985-3"
       style="fill:#6e6e6e;fill-opacity:1;stroke-width:2.0999999;stroke-miterlimit:4;stroke-dasharray:none"
       sodipodi:type="arc" />
    <path
       transform="matrix(0.98245611,0,0,0.98245611,-9.4736834,919.0289)"
       d="m 30,13.571428 a 10.178572,10.178572 0 1 1 -20.3571434,0 10.178572,10.178572 0 1 1 20.3571434,0 z"
       sodipodi:ry="10.178572"
       sodipodi:rx="10.178572"
       sodipodi:cy="13.571428"
       sodipodi:cx="19.821428"
       id="path2985-5"
       style="fill:#6e6e6e;fill-opacity:1;stroke-width:2.0999999;stroke-miterlimit:4;stroke-dasharray:none"
       sodipodi:type="arc" />
    <path
       transform="matrix(0.98245611,0,0,0.98245611,-9.4736834,863.02889)"
       d="m 30,13.571428 a 10.178572,10.178572 0 1 1 -20.3571434,0 10.178572,10.178572 0 1 1 20.3571434,0 z"
       sodipodi:ry="10.178572"
       sodipodi:rx="10.178572"
       sodipodi:cy="13.571428"
       sodipodi:cx="19.821428"
       id="path2985-9"
       style="fill:#6e6e6e;fill-opacity:1;stroke-width:2.0999999;stroke-miterlimit:4;stroke-dasharray:none"
       sodipodi:type="arc" />
    <path
       transform="matrix(0.98245611,0,0,0.98245611,-9.4736834,807.0289)"
       d="m 30,13.571428 a 10.178572,10.178572 0 1 1 -20.3571434,0 10.178572,10.178572 0 1 1 20.3571434,0 z"
       sodipodi:ry="10.178572"
       sodipodi:rx="10.178572"
       sodipodi:cy="13.571428"
       sodipodi:cx="19.821428"
       id="path2985-84"
       style="fill:#6e6e6e;fill-opacity:1;stroke-width:2.0999999;stroke-miterlimit:4;stroke-dasharray:none"
       sodipodi:type="arc" />
    <path
       transform="matrix(0.98245611,0,0,0.98245611,-9.4736834,751.0289)"
       d="m 30,13.571428 a 10.178572,10.178572 0 1 1 -20.3571434,0 10.178572,10.178572 0 1 1 20.3571434,0 z"
       sodipodi:ry="10.178572"
       sodipodi:rx="10.178572"
       sodipodi:cy="13.571428"
       sodipodi:cx="19.821428"
       id="path2985-3-5"
       style="fill:#6e6e6e;fill-opacity:1;stroke-width:2.0999999;stroke-miterlimit:4;stroke-dasharray:none"
       sodipodi:type="arc" />
    <path
       transform="matrix(0.98245611,0,0,0.98245611,-9.4736834,695.02889)"
       d="m 30,13.571428 a 10.178572,10.178572 0 1 1 -20.3571434,0 10.178572,10.178572 0 1 1 20.3571434,0 z"
       sodipodi:ry="10.178572"
       sodipodi:rx="10.178572"
       sodipodi:cy="13.571428"
       sodipodi:cx="19.821428"
       id="path2985-5-8"
       style="fill:#6e6e6e;fill-opacity:1;stroke-width:2.0999999;stroke-miterlimit:4;stroke-dasharray:none"
       sodipodi:type="arc" />
    <path
       transform="matrix(0.98245611,0,0,0.98245611,-9.4736834,639.0289)"
       d="m 30,13.571428 a 10.178572,10.178572 0 1 1 -20.3571434,0 10.178572,10.178572 0 1 1 20.3571434,0 z"
       sodipodi:ry="10.178572"
       sodipodi:rx="10.178572"
       sodipodi:cy="13.571428"
       sodipodi:cx="19.821428"
       id="path2985-9-9"
       style="fill:#6e6e6e;fill-opacity:1;stroke-width:2.0999999;stroke-miterlimit:4;stroke-dasharray:none"
       sodipodi:type="arc" />
    <path
       style="fill:none;stroke:#6e6e6e;stroke-width:2;stroke-linecap:butt;stroke-linejoin:miter;stroke-opacity:1;stroke-miterlimit:4;stroke-dasharray:none;marker-end:url(#Arrow1MendA)"
       d="M 19.152205,41.988998 164.04878,183.57911"
       id="path3081"
       inkscape:connector-type="polyline"
       inkscape:connector-curvature="0"
       inkscape:connection-start="#path2985-9-9"
       inkscape:connection-start-point="d4"
       transform="translate(-2,617.36223)" />
    <path
       style="fill:none;stroke:#6e6e6e;stroke-width:2;stroke-linecap:butt;stroke-linejoin:miter;stroke-opacity:1;stroke-miterlimit:4;stroke-dasharray:none;marker-end:url(#Arrow1MendA)"
       d="M 20.193731,96.734091 164.04878,197.40605"
       id="path3083"
       inkscape:connector-type="polyline"
       inkscape:connector-curvature="0"
       inkscape:connection-start="#path2985-5-8"
       inkscape:connection-start-point="d4"
       transform="translate(-2,617.36223)" />
    <path
       style="fill:none;stroke:#6e6e6e;stroke-width:2;stroke-linecap:butt;stroke-linejoin:miter;stroke-opacity:1;stroke-miterlimit:4;stroke-dasharray:none;marker-end:url(#Arrow1MendA)"
       d="M 21.214127,150.89251 164.04878,211.233"
       id="path3085"
       inkscape:connector-type="polyline"
       inkscape:connector-curvature="0"
       inkscape:connection-start="#path2985-3-5"
       inkscape:connection-start-point="d4"
       transform="translate(-2,617.36223)" />
    <path
       style="fill:none;stroke:#6e6e6e;stroke-width:2;stroke-linecap:butt;stroke-linejoin:miter;stroke-opacity:1;stroke-miterlimit:4;stroke-dasharray:none;marker-end:url(#Arrow1MendA)"
       d="M 21.897665,204.436 164.04878,225.05995"
       id="path3087"
       inkscape:connector-type="polyline"
       inkscape:connector-curvature="0"
       inkscape:connection-start="#path2985-84"
       inkscape:connection-start-point="d4"
       transform="translate(-2,617.36223)" />
    <path
       style="fill:none;stroke:#6e6e6e;stroke-width:2;stroke-linecap:butt;stroke-linejoin:miter;stroke-opacity:1;stroke-miterlimit:4;stroke-dasharray:none;marker-end:url(#Arrow1MendA)"
       d="M 21.914766,257.68846 164.04878,238.88689"
       id="path3089"
       inkscape:connector-type="polyline"
       inkscape:connector-curvature="0"
       inkscape:connection-start="#path2985-9"
       inkscape:connection-start-point="d4"
       transform="translate(-2,617.36223)" />
    <path
       style="fill:none;stroke:#6e6e6e;stroke-width:2;stroke-linecap:butt;stroke-linejoin:miter;stroke-opacity:1;stroke-miterlimit:4;stroke-dasharray:none;marker-end:url(#Arrow1MendA)"
       d="M 21.256103,311.20828 164.04878,252.71384"
       id="path3091"
       inkscape:connector-type="polyline"
       inkscape:connector-curvature="0"
       inkscape:connection-start="#path2985-5"
       inkscape:connection-start-point="d4"
       transform="translate(-2,617.36223)" />
    <path
       style="fill:none;stroke:#6e6e6e;stroke-width:2;stroke-linecap:butt;stroke-linejoin:miter;stroke-opacity:1;stroke-miterlimit:4;stroke-dasharray:none;marker-end:url(#Arrow1MendA)"
       d="M 20.243068,365.33692 164.04878,266.54078"
       id="path3093"
       inkscape:connector-type="polyline"
       inkscape:connector-curvature="0"
       inkscape:connection-start="#path2985-3"
       inkscape:connection-start-point="d4"
       transform="translate(-2,617.36223)" />
    <path
       style="fill:none;stroke:#6e6e6e;stroke-width:2;stroke-linecap:butt;stroke-linejoin:miter;stroke-opacity:1;stroke-miterlimit:4;stroke-dasharray:none;marker-end:url(#Arrow1MendA)"
       d="M 19.198124,420.0583 164.04878,280.36773"
       id="path3095"
       inkscape:connector-type="polyline"
       inkscape:connector-curvature="0"
       inkscape:connection-start="#path2985"
       inkscape:connection-start-point="d4"
       transform="translate(-2,617.36223)" />
  </g>
</svg>
