<?xml version="1.0" encoding="utf-8" standalone="no"?>
<!DOCTYPE svg PUBLIC "-//W3C//DTD SVG 1.1//EN"
  "http://www.w3.org/Graphics/SVG/1.1/DTD/svg11.dtd">
<!-- Created with matplotlib (http://matplotlib.org/) -->
<svg height="252pt" version="1.1" viewBox="0 0 324 252" width="324pt" xmlns="http://www.w3.org/2000/svg" xmlns:xlink="http://www.w3.org/1999/xlink">
 <defs>
  <style type="text/css">
*{stroke-linecap:square;stroke-linejoin:round;}
  </style>
 </defs>
 <g id="figure_1">
  <g id="patch_1">
   <path d="
M0 252
L324 252
L324 0
L0 0
z
" style="fill:#ffffff;"/>
  </g>
  <g id="axes_1">
   <g id="patch_2">
    <path d="
M48.5888 209.835
L311.04 209.835
L311.04 28.04
L48.5888 28.04
z
" style="fill:#ffffff;"/>
   </g>
   <g id="LineCollection_1">
    <defs>
     <path d="
M66.0295 -105.885
L66.0295 -115.947" id="C0_0_c53624acef"/>
     <path d="
M99.9231 -111.736
L99.9231 -120.564" id="C0_1_2b7a0ed557"/>
     <path d="
M178.622 -164.789
L178.622 -173.593" id="C0_2_5100910a66"/>
     <path d="
M212.515 -178.625
L212.515 -186.954" id="C0_3_2c797dd245"/>
     <path d="
M291.214 -200.773
L291.214 -208.669" id="C0_4_e3af6f9ddf"/>
    </defs>
    <g clip-path="url(#p9c04236569)">
     <use style="fill:none;stroke:#999999;stroke-linecap:butt;stroke-width:1.5;" x="0" xlink:href="#C0_0_c53624acef" y="252.0"/>
    </g>
    <g clip-path="url(#p9c04236569)">
     <use style="fill:none;stroke:#999999;stroke-linecap:butt;stroke-width:1.5;" x="0" xlink:href="#C0_1_2b7a0ed557" y="252.0"/>
    </g>
    <g clip-path="url(#p9c04236569)">
     <use style="fill:none;stroke:#999999;stroke-linecap:butt;stroke-width:1.5;" x="0" xlink:href="#C0_2_5100910a66" y="252.0"/>
    </g>
    <g clip-path="url(#p9c04236569)">
     <use style="fill:none;stroke:#999999;stroke-linecap:butt;stroke-width:1.5;" x="0" xlink:href="#C0_3_2c797dd245" y="252.0"/>
    </g>
    <g clip-path="url(#p9c04236569)">
     <use style="fill:none;stroke:#999999;stroke-linecap:butt;stroke-width:1.5;" x="0" xlink:href="#C0_4_e3af6f9ddf" y="252.0"/>
    </g>
   </g>
   <g id="LineCollection_2">
    <defs>
     <path d="
M66.0295 -95.1563
L66.0295 -112.949" id="C1_0_60bf83deb9"/>
     <path d="
M99.9231 -98.6375
L99.9231 -133.449" id="C1_1_db17256526"/>
     <path d="
M178.622 -165.94
L178.622 -208.488" id="C1_2_caa7b52b6e"/>
     <path d="
M212.515 -184.12
L212.515 -207.328" id="C1_3_d8897098e4"/>
     <path d="
M291.214 -203.847
L291.214 -203.847" id="C1_4_4ed58d3f8d"/>
    </defs>
    <g clip-path="url(#p9c04236569)">
     <use style="fill:none;stroke:#999999;stroke-linecap:butt;stroke-width:1.5;" x="0" xlink:href="#C1_0_60bf83deb9" y="252.0"/>
    </g>
    <g clip-path="url(#p9c04236569)">
     <use style="fill:none;stroke:#999999;stroke-linecap:butt;stroke-width:1.5;" x="0" xlink:href="#C1_1_db17256526" y="252.0"/>
    </g>
    <g clip-path="url(#p9c04236569)">
     <use style="fill:none;stroke:#999999;stroke-linecap:butt;stroke-width:1.5;" x="0" xlink:href="#C1_2_caa7b52b6e" y="252.0"/>
    </g>
    <g clip-path="url(#p9c04236569)">
     <use style="fill:none;stroke:#999999;stroke-linecap:butt;stroke-width:1.5;" x="0" xlink:href="#C1_3_d8897098e4" y="252.0"/>
    </g>
    <g clip-path="url(#p9c04236569)">
     <use style="fill:none;stroke:#999999;stroke-linecap:butt;stroke-width:1.5;" x="0" xlink:href="#C1_4_4ed58d3f8d" y="252.0"/>
    </g>
   </g>
   <g id="LineCollection_3">
    <defs>
     <path d="
M66.0295 -58.3779
L66.0295 -72.4162" id="C2_0_38b9f5eb5f"/>
     <path d="
M99.9231 -80.8787
L99.9231 -98.4436" id="C2_1_9c4c218d13"/>
     <path d="
M178.622 -129.759
L178.622 -151.841" id="C2_2_ab3c771eef"/>
     <path d="
M212.515 -156.441
L212.515 -171.538" id="C2_3_50853a2acf"/>
     <path d="
M291.214 -193.702
L291.214 -215.731" id="C2_4_a0c0ca2f0f"/>
    </defs>
    <g clip-path="url(#p9c04236569)">
     <use style="fill:none;stroke:#000000;stroke-linecap:butt;stroke-width:1.5;" x="0" xlink:href="#C2_0_38b9f5eb5f" y="252.0"/>
    </g>
    <g clip-path="url(#p9c04236569)">
     <use style="fill:none;stroke:#000000;stroke-linecap:butt;stroke-width:1.5;" x="0" xlink:href="#C2_1_9c4c218d13" y="252.0"/>
    </g>
    <g clip-path="url(#p9c04236569)">
     <use style="fill:none;stroke:#000000;stroke-linecap:butt;stroke-width:1.5;" x="0" xlink:href="#C2_2_ab3c771eef" y="252.0"/>
    </g>
    <g clip-path="url(#p9c04236569)">
     <use style="fill:none;stroke:#000000;stroke-linecap:butt;stroke-width:1.5;" x="0" xlink:href="#C2_3_50853a2acf" y="252.0"/>
    </g>
    <g clip-path="url(#p9c04236569)">
     <use style="fill:none;stroke:#000000;stroke-linecap:butt;stroke-width:1.5;" x="0" xlink:href="#C2_4_a0c0ca2f0f" y="252.0"/>
    </g>
   </g>
   <g id="LineCollection_4">
    <defs>
     <path d="
M66.0295 -52.6085
L66.0295 -78.9108" id="C3_0_95aefb0263"/>
     <path d="
M178.622 -131.515
L178.622 -160.912" id="C3_1_bbec505003"/>
     <path d="
M212.515 -149.695
L212.515 -169.035" id="C3_2_c4d09e5d47"/>
     <path d="
M291.214 -199.979
L291.214 -216.224" id="C3_3_c5b2ad7798"/>
    </defs>
    <g clip-path="url(#p9c04236569)">
     <use style="fill:none;stroke:#000000;stroke-linecap:butt;stroke-width:1.5;" x="0" xlink:href="#C3_0_95aefb0263" y="252.0"/>
    </g>
    <g clip-path="url(#p9c04236569)">
     <use style="fill:none;stroke:#000000;stroke-linecap:butt;stroke-width:1.5;" x="0" xlink:href="#C3_1_bbec505003" y="252.0"/>
    </g>
    <g clip-path="url(#p9c04236569)">
     <use style="fill:none;stroke:#000000;stroke-linecap:butt;stroke-width:1.5;" x="0" xlink:href="#C3_2_c4d09e5d47" y="252.0"/>
    </g>
    <g clip-path="url(#p9c04236569)">
     <use style="fill:none;stroke:#000000;stroke-linecap:butt;stroke-width:1.5;" x="0" xlink:href="#C3_3_c5b2ad7798" y="252.0"/>
    </g>
   </g>
   <g id="line2d_1">
    <defs>
     <path d="
M3 1.83697e-16
L-3 -1.83697e-16" id="m80ec3c0ca7" style="stroke:#999999;stroke-linecap:butt;stroke-width:0.5;"/>
    </defs>
    <g clip-path="url(#p9c04236569)">
     <use style="fill:#999999;stroke:#999999;stroke-linecap:butt;stroke-width:0.5;" x="66.0294755644" xlink:href="#m80ec3c0ca7" y="146.114528925"/>
     <use style="fill:#999999;stroke:#999999;stroke-linecap:butt;stroke-width:0.5;" x="99.9230527761" xlink:href="#m80ec3c0ca7" y="140.264105342"/>
     <use style="fill:#999999;stroke:#999999;stroke-linecap:butt;stroke-width:0.5;" x="178.62150194" xlink:href="#m80ec3c0ca7" y="87.2113338306"/>
     <use style="fill:#999999;stroke:#999999;stroke-linecap:butt;stroke-width:0.5;" x="212.515079152" xlink:href="#m80ec3c0ca7" y="73.3753214743"/>
     <use style="fill:#999999;stroke:#999999;stroke-linecap:butt;stroke-width:0.5;" x="291.213528316" xlink:href="#m80ec3c0ca7" y="51.2272436722"/>
    </g>
   </g>
   <g id="line2d_2">
    <g clip-path="url(#p9c04236569)">
     <use style="fill:#999999;stroke:#999999;stroke-linecap:butt;stroke-width:0.5;" x="66.0294755644" xlink:href="#m80ec3c0ca7" y="136.05327549"/>
     <use style="fill:#999999;stroke:#999999;stroke-linecap:butt;stroke-width:0.5;" x="99.9230527761" xlink:href="#m80ec3c0ca7" y="131.435807639"/>
     <use style="fill:#999999;stroke:#999999;stroke-linecap:butt;stroke-width:0.5;" x="178.62150194" xlink:href="#m80ec3c0ca7" y="78.4067978792"/>
     <use style="fill:#999999;stroke:#999999;stroke-linecap:butt;stroke-width:0.5;" x="212.515079152" xlink:href="#m80ec3c0ca7" y="65.0460263653"/>
     <use style="fill:#999999;stroke:#999999;stroke-linecap:butt;stroke-width:0.5;" x="291.213528316" xlink:href="#m80ec3c0ca7" y="43.330884228"/>
    </g>
   </g>
   <g id="line2d_3">
    <path clip-path="url(#p9c04236569)" d="
M66.0295 141.004
L99.9231 135.892
L178.622 82.7639
L212.515 69.1331
L291.214 47.3799" style="fill:none;stroke:#999999;stroke-width:1.5;"/>
    <defs>
     <path d="
M0 3
C0.795609 3 1.55874 2.6839 2.12132 2.12132
C2.6839 1.55874 3 0.795609 3 0
C3 -0.795609 2.6839 -1.55874 2.12132 -2.12132
C1.55874 -2.6839 0.795609 -3 0 -3
C-0.795609 -3 -1.55874 -2.6839 -2.12132 -2.12132
C-2.6839 -1.55874 -3 -0.795609 -3 0
C-3 0.795609 -2.6839 1.55874 -2.12132 2.12132
C-1.55874 2.6839 -0.795609 3 0 3
z
" id="mbd6121ecc1" style="stroke:#000000;stroke-linecap:butt;stroke-width:0.5;"/>
    </defs>
    <g clip-path="url(#p9c04236569)">
     <use style="fill:#999999;stroke:#000000;stroke-linecap:butt;stroke-width:0.5;" x="66.0294755644" xlink:href="#mbd6121ecc1" y="141.004036492"/>
     <use style="fill:#999999;stroke:#000000;stroke-linecap:butt;stroke-width:0.5;" x="99.9230527761" xlink:href="#mbd6121ecc1" y="135.892216262"/>
     <use style="fill:#999999;stroke:#000000;stroke-linecap:butt;stroke-width:0.5;" x="178.62150194" xlink:href="#mbd6121ecc1" y="82.7639332155"/>
     <use style="fill:#999999;stroke:#000000;stroke-linecap:butt;stroke-width:0.5;" x="212.515079152" xlink:href="#mbd6121ecc1" y="69.1331305813"/>
     <use style="fill:#999999;stroke:#000000;stroke-linecap:butt;stroke-width:0.5;" x="291.213528316" xlink:href="#mbd6121ecc1" y="47.379893617"/>
    </g>
   </g>
   <g id="line2d_4">
    <g clip-path="url(#p9c04236569)">
     <use style="fill:#999999;stroke:#999999;stroke-linecap:butt;stroke-width:0.5;" x="66.0294755644" xlink:href="#m80ec3c0ca7" y="156.843691489"/>
     <use style="fill:#999999;stroke:#999999;stroke-linecap:butt;stroke-width:0.5;" x="99.9230527761" xlink:href="#m80ec3c0ca7" y="153.362510638"/>
     <use style="fill:#999999;stroke:#999999;stroke-linecap:butt;stroke-width:0.5;" x="178.62150194" xlink:href="#m80ec3c0ca7" y="86.0596808511"/>
     <use style="fill:#999999;stroke:#999999;stroke-linecap:butt;stroke-width:0.5;" x="212.515079152" xlink:href="#m80ec3c0ca7" y="67.8801808511"/>
     <use style="fill:#999999;stroke:#999999;stroke-linecap:butt;stroke-width:0.5;" x="291.213528316" xlink:href="#m80ec3c0ca7" y="48.1534893617"/>
    </g>
   </g>
   <g id="line2d_5">
    <g clip-path="url(#p9c04236569)">
     <use style="fill:#999999;stroke:#999999;stroke-linecap:butt;stroke-width:0.5;" x="66.0294755644" xlink:href="#m80ec3c0ca7" y="139.050989362"/>
     <use style="fill:#999999;stroke:#999999;stroke-linecap:butt;stroke-width:0.5;" x="99.9230527761" xlink:href="#m80ec3c0ca7" y="118.550702128"/>
     <use style="fill:#999999;stroke:#999999;stroke-linecap:butt;stroke-width:0.5;" x="178.62150194" xlink:href="#m80ec3c0ca7" y="43.5119148936"/>
     <use style="fill:#999999;stroke:#999999;stroke-linecap:butt;stroke-width:0.5;" x="212.515079152" xlink:href="#m80ec3c0ca7" y="44.6723085106"/>
     <use style="fill:#999999;stroke:#999999;stroke-linecap:butt;stroke-width:0.5;" x="291.213528316" xlink:href="#m80ec3c0ca7" y="48.1534893617"/>
    </g>
   </g>
   <g id="line2d_6">
    <path clip-path="url(#p9c04236569)" d="
M66.0295 147.947
L99.9231 135.957
L178.622 64.7858
L212.515 56.2762
L291.214 48.1535" style="fill:none;stroke:#999999;stroke-dasharray:6.000000,6.000000;stroke-dashoffset:0.0;stroke-linecap:butt;stroke-width:1.5;"/>
    <defs>
     <path d="
M0 3
C0.795609 3 1.55874 2.6839 2.12132 2.12132
C2.6839 1.55874 3 0.795609 3 0
C3 -0.795609 2.6839 -1.55874 2.12132 -2.12132
C1.55874 -2.6839 0.795609 -3 0 -3
C-0.795609 -3 -1.55874 -2.6839 -2.12132 -2.12132
C-2.6839 -1.55874 -3 -0.795609 -3 0
C-3 0.795609 -2.6839 1.55874 -2.12132 2.12132
C-1.55874 2.6839 -0.795609 3 0 3
z
" id="mff3b5aa225" style="stroke:#000000;stroke-linecap:butt;stroke-width:0.5;"/>
    </defs>
    <g clip-path="url(#p9c04236569)">
     <use style="fill:#ffffff;stroke:#000000;stroke-linecap:butt;stroke-width:0.5;" x="66.0294755644" xlink:href="#mff3b5aa225" y="147.947340426"/>
     <use style="fill:#ffffff;stroke:#000000;stroke-linecap:butt;stroke-width:0.5;" x="99.9230527761" xlink:href="#mff3b5aa225" y="135.956606383"/>
     <use style="fill:#ffffff;stroke:#000000;stroke-linecap:butt;stroke-width:0.5;" x="178.62150194" xlink:href="#mff3b5aa225" y="64.7857978723"/>
     <use style="fill:#ffffff;stroke:#000000;stroke-linecap:butt;stroke-width:0.5;" x="212.515079152" xlink:href="#mff3b5aa225" y="56.2762446809"/>
     <use style="fill:#ffffff;stroke:#000000;stroke-linecap:butt;stroke-width:0.5;" x="291.213528316" xlink:href="#mff3b5aa225" y="48.1534893617"/>
    </g>
   </g>
   <g id="line2d_7">
    <defs>
     <path d="
M3 1.83697e-16
L-3 -1.83697e-16" id="m057d09ee0a" style="stroke:#000000;stroke-linecap:butt;stroke-width:0.5;"/>
    </defs>
    <g clip-path="url(#p9c04236569)">
     <use style="stroke:#000000;stroke-linecap:butt;stroke-width:0.5;" x="66.0294755644" xlink:href="#m057d09ee0a" y="193.622107157"/>
     <use style="stroke:#000000;stroke-linecap:butt;stroke-width:0.5;" x="99.9230527761" xlink:href="#m057d09ee0a" y="171.121324251"/>
     <use style="stroke:#000000;stroke-linecap:butt;stroke-width:0.5;" x="178.62150194" xlink:href="#m057d09ee0a" y="122.240925537"/>
     <use style="stroke:#000000;stroke-linecap:butt;stroke-width:0.5;" x="212.515079152" xlink:href="#m057d09ee0a" y="95.5590948354"/>
     <use style="stroke:#000000;stroke-linecap:butt;stroke-width:0.5;" x="291.213528316" xlink:href="#m057d09ee0a" y="58.2983803299"/>
    </g>
   </g>
   <g id="line2d_8">
    <g clip-path="url(#p9c04236569)">
     <use style="stroke:#000000;stroke-linecap:butt;stroke-width:0.5;" x="66.0294755644" xlink:href="#m057d09ee0a" y="179.58375485"/>
     <use style="stroke:#000000;stroke-linecap:butt;stroke-width:0.5;" x="99.9230527761" xlink:href="#m057d09ee0a" y="153.556419058"/>
     <use style="stroke:#000000;stroke-linecap:butt;stroke-width:0.5;" x="178.62150194" xlink:href="#m057d09ee0a" y="100.158603692"/>
     <use style="stroke:#000000;stroke-linecap:butt;stroke-width:0.5;" x="212.515079152" xlink:href="#m057d09ee0a" y="80.4620156599"/>
     <use style="stroke:#000000;stroke-linecap:butt;stroke-width:0.5;" x="291.213528316" xlink:href="#m057d09ee0a" y="36.2693015447"/>
    </g>
   </g>
   <g id="line2d_9">
    <path clip-path="url(#p9c04236569)" d="
M66.0295 186.45
L99.9231 162.417
L178.622 111.261
L212.515 88.0293
L291.214 47.3799" style="fill:none;stroke:#000000;stroke-width:1.5;"/>
    <defs>
     <path d="
M0 3
C0.795609 3 1.55874 2.6839 2.12132 2.12132
C2.6839 1.55874 3 0.795609 3 0
C3 -0.795609 2.6839 -1.55874 2.12132 -2.12132
C1.55874 -2.6839 0.795609 -3 0 -3
C-0.795609 -3 -1.55874 -2.6839 -2.12132 -2.12132
C-2.6839 -1.55874 -3 -0.795609 -3 0
C-3 0.795609 -2.6839 1.55874 -2.12132 2.12132
C-1.55874 2.6839 -0.795609 3 0 3
z
" id="m5e07fe0cb8" style="stroke:#000000;stroke-linecap:butt;stroke-width:0.5;"/>
    </defs>
    <g clip-path="url(#p9c04236569)">
     <use style="stroke:#000000;stroke-linecap:butt;stroke-width:0.5;" x="66.0294755644" xlink:href="#m5e07fe0cb8" y="186.450424215"/>
     <use style="stroke:#000000;stroke-linecap:butt;stroke-width:0.5;" x="99.9230527761" xlink:href="#m5e07fe0cb8" y="162.416655176"/>
     <use style="stroke:#000000;stroke-linecap:butt;stroke-width:0.5;" x="178.62150194" xlink:href="#m5e07fe0cb8" y="111.26094079"/>
     <use style="stroke:#000000;stroke-linecap:butt;stroke-width:0.5;" x="212.515079152" xlink:href="#m5e07fe0cb8" y="88.0292659209"/>
     <use style="stroke:#000000;stroke-linecap:butt;stroke-width:0.5;" x="291.213528316" xlink:href="#m5e07fe0cb8" y="47.379893617"/>
    </g>
   </g>
   <g id="line2d_10">
    <g clip-path="url(#p9c04236569)">
     <use style="stroke:#000000;stroke-linecap:butt;stroke-width:0.5;" x="66.0294755644" xlink:href="#m057d09ee0a" y="199.391457447"/>
     <use style="stroke:#000000;stroke-linecap:butt;stroke-width:0.5;" x="178.62150194" xlink:href="#m057d09ee0a" y="120.484691489"/>
     <use style="stroke:#000000;stroke-linecap:butt;stroke-width:0.5;" x="212.515079152" xlink:href="#m057d09ee0a" y="102.305191489"/>
     <use style="stroke:#000000;stroke-linecap:butt;stroke-width:0.5;" x="291.213528316" xlink:href="#m057d09ee0a" y="52.0214680851"/>
    </g>
   </g>
   <g id="line2d_11">
    <g clip-path="url(#p9c04236569)">
     <use style="stroke:#000000;stroke-linecap:butt;stroke-width:0.5;" x="66.0294755644" xlink:href="#m057d09ee0a" y="173.089202128"/>
     <use style="stroke:#000000;stroke-linecap:butt;stroke-width:0.5;" x="178.62150194" xlink:href="#m057d09ee0a" y="91.0880531915"/>
     <use style="stroke:#000000;stroke-linecap:butt;stroke-width:0.5;" x="212.515079152" xlink:href="#m057d09ee0a" y="82.9652978723"/>
     <use style="stroke:#000000;stroke-linecap:butt;stroke-width:0.5;" x="291.213528316" xlink:href="#m057d09ee0a" y="35.7759574468"/>
    </g>
   </g>
   <g id="line2d_12">
    <path clip-path="url(#p9c04236569)" d="
M66.0295 186.24
L178.622 105.786
L212.515 92.6352
L291.214 43.8987" style="fill:none;stroke:#000000;stroke-dasharray:6.000000,6.000000;stroke-dashoffset:0.0;stroke-linecap:butt;stroke-width:1.5;"/>
    <g clip-path="url(#p9c04236569)">
     <use style="fill:#ffffff;stroke:#000000;stroke-linecap:butt;stroke-width:0.5;" x="66.0294755644" xlink:href="#mff3b5aa225" y="186.240329787"/>
     <use style="fill:#ffffff;stroke:#000000;stroke-linecap:butt;stroke-width:0.5;" x="178.62150194" xlink:href="#mff3b5aa225" y="105.78637234"/>
     <use style="fill:#ffffff;stroke:#000000;stroke-linecap:butt;stroke-width:0.5;" x="212.515079152" xlink:href="#mff3b5aa225" y="92.6352446809"/>
     <use style="fill:#ffffff;stroke:#000000;stroke-linecap:butt;stroke-width:0.5;" x="291.213528316" xlink:href="#mff3b5aa225" y="43.898712766"/>
    </g>
   </g>
   <g id="line2d_13">
    <path clip-path="url(#p9c04236569)" d="
M48.5888 124.739
L311.04 124.739" style="fill:none;stroke:#000000;stroke-dasharray:6.000000,6.000000;stroke-dashoffset:0.0;stroke-linecap:butt;"/>
   </g>
   <g id="matplotlib.axis_1">
    <g id="xtick_1">
     <g id="line2d_14">
      <defs>
       <path d="
M0 0
L0 -4" id="mcb557df647" style="stroke:#000000;stroke-linecap:butt;stroke-width:0.5;"/>
      </defs>
      <g>
       <use style="stroke:#000000;stroke-linecap:butt;stroke-width:0.5;" x="66.0294755644" xlink:href="#mcb557df647" y="209.835"/>
      </g>
     </g>
     <g id="line2d_15">
      <defs>
       <path d="
M0 0
L0 4" id="mdad270ee8e" style="stroke:#000000;stroke-linecap:butt;stroke-width:0.5;"/>
      </defs>
      <g>
       <use style="stroke:#000000;stroke-linecap:butt;stroke-width:0.5;" x="66.0294755644" xlink:href="#mdad270ee8e" y="28.04"/>
      </g>
     </g>
     <g id="text_1">
      <!-- 1 -->
      <defs>
       <path d="
M11.7188 59.7188
L27.8281 67.5781
L29.4375 67.5781
L29.4375 11.6719
Q29.4375 6.10938 29.9062 4.73438
Q30.375 3.375 31.8281 2.64062
Q33.2969 1.90625 37.7969 1.8125
L37.7969 0
L12.8906 0
L12.8906 1.8125
Q17.5781 1.90625 18.9375 2.60938
Q20.3125 3.32812 20.8438 4.51562
Q21.3906 5.71875 21.3906 11.6719
L21.3906 47.4062
Q21.3906 54.6406 20.9062 56.6875
Q20.5625 58.25 19.6562 58.9844
Q18.75 59.7188 17.4844 59.7188
Q15.6719 59.7188 12.4531 58.2031
z
" id="TimesNewRomanPSMT-31"/>
      </defs>
      <g transform="translate(64.4647880644 221.944375)scale(0.12 -0.12)">
       <use xlink:href="#TimesNewRomanPSMT-31"/>
      </g>
     </g>
    </g>
    <g id="xtick_2">
     <g id="line2d_16">
      <g>
       <use style="stroke:#000000;stroke-linecap:butt;stroke-width:0.5;" x="144.727924728" xlink:href="#mcb557df647" y="209.835"/>
      </g>
     </g>
     <g id="line2d_17">
      <g>
       <use style="stroke:#000000;stroke-linecap:butt;stroke-width:0.5;" x="144.727924728" xlink:href="#mdad270ee8e" y="28.04"/>
      </g>
     </g>
     <g id="text_2">
      <!-- 5 -->
      <defs>
       <path d="
M43.4062 66.2188
L39.5938 57.9062
L19.6719 57.9062
L15.3281 49.0312
Q28.2656 47.125 35.8438 39.4062
Q42.3281 32.7656 42.3281 23.7812
Q42.3281 18.5625 40.2031 14.1094
Q38.0938 9.67188 34.8594 6.54688
Q31.6406 3.42188 27.6875 1.51562
Q22.0781 -1.17188 16.1562 -1.17188
Q10.2031 -1.17188 7.48438 0.84375
Q4.78125 2.875 4.78125 5.32812
Q4.78125 6.6875 5.90625 7.73438
Q7.03125 8.79688 8.73438 8.79688
Q10.0156 8.79688 10.9688 8.40625
Q11.9219 8.01562 14.2031 6.39062
Q17.875 3.85938 21.625 3.85938
Q27.3438 3.85938 31.6562 8.17188
Q35.9844 12.5 35.9844 18.7031
Q35.9844 24.7031 32.125 29.9062
Q28.2656 35.1094 21.4844 37.9375
Q16.1562 40.1406 6.98438 40.4844
L19.6719 66.2188
z
" id="TimesNewRomanPSMT-35"/>
      </defs>
      <g transform="translate(142.410424728 221.78125)scale(0.12 -0.12)">
       <use xlink:href="#TimesNewRomanPSMT-35"/>
      </g>
     </g>
    </g>
    <g id="xtick_3">
     <g id="line2d_18">
      <g>
       <use style="stroke:#000000;stroke-linecap:butt;stroke-width:0.5;" x="178.62150194" xlink:href="#mcb557df647" y="209.835"/>
      </g>
     </g>
     <g id="line2d_19">
      <g>
       <use style="stroke:#000000;stroke-linecap:butt;stroke-width:0.5;" x="178.62150194" xlink:href="#mdad270ee8e" y="28.04"/>
      </g>
     </g>
     <g id="text_3">
      <!-- 10 -->
      <defs>
       <path d="
M3.60938 32.7188
Q3.60938 44.0469 7.03125 52.2188
Q10.4531 60.4062 16.1094 64.4062
Q20.5156 67.5781 25.2031 67.5781
Q32.8125 67.5781 38.875 59.8125
Q46.4375 50.2031 46.4375 33.7344
Q46.4375 22.2188 43.1094 14.1562
Q39.7969 6.10938 34.6406 2.46875
Q29.5 -1.17188 24.7031 -1.17188
Q15.2344 -1.17188 8.9375 10.0156
Q3.60938 19.4375 3.60938 32.7188
M13.1875 31.5
Q13.1875 17.8281 16.5469 9.1875
Q19.3438 1.90625 24.8594 1.90625
Q27.4844 1.90625 30.3125 4.26562
Q33.1562 6.64062 34.625 12.2031
Q36.8594 20.6094 36.8594 35.8906
Q36.8594 47.2188 34.5156 54.7812
Q32.7656 60.4062 29.9844 62.75
Q27.9844 64.3594 25.1406 64.3594
Q21.8281 64.3594 19.2344 61.375
Q15.7188 57.3281 14.4531 48.625
Q13.1875 39.9375 13.1875 31.5" id="TimesNewRomanPSMT-30"/>
      </defs>
      <g transform="translate(173.53837694 221.944375)scale(0.12 -0.12)">
       <use xlink:href="#TimesNewRomanPSMT-31"/>
       <use x="50.0" xlink:href="#TimesNewRomanPSMT-30"/>
      </g>
     </g>
    </g>
    <g id="xtick_4">
     <g id="line2d_20">
      <g>
       <use style="stroke:#000000;stroke-linecap:butt;stroke-width:0.5;" x="212.515079152" xlink:href="#mcb557df647" y="209.835"/>
      </g>
     </g>
     <g id="line2d_21">
      <g>
       <use style="stroke:#000000;stroke-linecap:butt;stroke-width:0.5;" x="212.515079152" xlink:href="#mdad270ee8e" y="28.04"/>
      </g>
     </g>
     <g id="text_4">
      <!-- 20 -->
      <defs>
       <path d="
M45.8438 12.75
L41.2188 0
L2.15625 0
L2.15625 1.8125
Q19.3906 17.5312 26.4219 27.4844
Q33.4531 37.4531 33.4531 45.7031
Q33.4531 52 29.5938 56.0469
Q25.7344 60.1094 20.3594 60.1094
Q15.4844 60.1094 11.5938 57.25
Q7.71875 54.3906 5.85938 48.875
L4.04688 48.875
Q5.28125 57.9062 10.3281 62.7344
Q15.375 67.5781 22.9531 67.5781
Q31 67.5781 36.3906 62.4062
Q41.7969 57.2344 41.7969 50.2031
Q41.7969 45.1719 39.4531 40.1406
Q35.8438 32.2344 27.7344 23.3906
Q15.5781 10.1094 12.5469 7.375
L29.8281 7.375
Q35.1094 7.375 37.2344 7.76562
Q39.3594 8.15625 41.0625 9.34375
Q42.7812 10.5469 44.0469 12.75
z
" id="TimesNewRomanPSMT-32"/>
      </defs>
      <g transform="translate(206.858204152 221.944375)scale(0.12 -0.12)">
       <use xlink:href="#TimesNewRomanPSMT-32"/>
       <use x="50.0" xlink:href="#TimesNewRomanPSMT-30"/>
      </g>
     </g>
    </g>
    <g id="xtick_5">
     <g id="line2d_22">
      <g>
       <use style="stroke:#000000;stroke-linecap:butt;stroke-width:0.5;" x="257.319951104" xlink:href="#mcb557df647" y="209.835"/>
      </g>
     </g>
     <g id="line2d_23">
      <g>
       <use style="stroke:#000000;stroke-linecap:butt;stroke-width:0.5;" x="257.319951104" xlink:href="#mdad270ee8e" y="28.04"/>
      </g>
     </g>
     <g id="text_5">
      <!-- 50 -->
      <g transform="translate(251.820576104 221.944375)scale(0.12 -0.12)">
       <use xlink:href="#TimesNewRomanPSMT-35"/>
       <use x="50.0" xlink:href="#TimesNewRomanPSMT-30"/>
      </g>
     </g>
    </g>
    <g id="xtick_6">
     <g id="line2d_24">
      <g>
       <use style="stroke:#000000;stroke-linecap:butt;stroke-width:0.5;" x="291.213528316" xlink:href="#mcb557df647" y="209.835"/>
      </g>
     </g>
     <g id="line2d_25">
      <g>
       <use style="stroke:#000000;stroke-linecap:butt;stroke-width:0.5;" x="291.213528316" xlink:href="#mdad270ee8e" y="28.04"/>
      </g>
     </g>
     <g id="text_6">
      <!-- 100 -->
      <g transform="translate(283.130403316 221.944375)scale(0.12 -0.12)">
       <use xlink:href="#TimesNewRomanPSMT-31"/>
       <use x="50.0" xlink:href="#TimesNewRomanPSMT-30"/>
       <use x="100.0" xlink:href="#TimesNewRomanPSMT-30"/>
      </g>
     </g>
    </g>
    <g id="xtick_7">
     <g id="line2d_26">
      <defs>
       <path d="
M0 0
L0 -2" id="m6f8f3139b3" style="stroke:#000000;stroke-linecap:butt;stroke-width:0.5;"/>
      </defs>
      <g>
       <use style="stroke:#000000;stroke-linecap:butt;stroke-width:0.5;" x="48.58875" xlink:href="#m6f8f3139b3" y="209.835"/>
      </g>
     </g>
     <g id="line2d_27">
      <defs>
       <path d="
M0 0
L0 2" id="md27378e979" style="stroke:#000000;stroke-linecap:butt;stroke-width:0.5;"/>
      </defs>
      <g>
       <use style="stroke:#000000;stroke-linecap:butt;stroke-width:0.5;" x="48.58875" xlink:href="#md27378e979" y="28.04"/>
      </g>
     </g>
    </g>
    <g id="xtick_8">
     <g id="line2d_28">
      <g>
       <use style="stroke:#000000;stroke-linecap:butt;stroke-width:0.5;" x="55.1181808237" xlink:href="#m6f8f3139b3" y="209.835"/>
      </g>
     </g>
     <g id="line2d_29">
      <g>
       <use style="stroke:#000000;stroke-linecap:butt;stroke-width:0.5;" x="55.1181808237" xlink:href="#md27378e979" y="28.04"/>
      </g>
     </g>
    </g>
    <g id="xtick_9">
     <g id="line2d_30">
      <g>
       <use style="stroke:#000000;stroke-linecap:butt;stroke-width:0.5;" x="60.8775469803" xlink:href="#m6f8f3139b3" y="209.835"/>
      </g>
     </g>
     <g id="line2d_31">
      <g>
       <use style="stroke:#000000;stroke-linecap:butt;stroke-width:0.5;" x="60.8775469803" xlink:href="#md27378e979" y="28.04"/>
      </g>
     </g>
    </g>
    <g id="xtick_10">
     <g id="line2d_32">
      <g>
       <use style="stroke:#000000;stroke-linecap:butt;stroke-width:0.5;" x="99.9230527761" xlink:href="#m6f8f3139b3" y="209.835"/>
      </g>
     </g>
     <g id="line2d_33">
      <g>
       <use style="stroke:#000000;stroke-linecap:butt;stroke-width:0.5;" x="99.9230527761" xlink:href="#md27378e979" y="28.04"/>
      </g>
     </g>
    </g>
    <g id="xtick_11">
     <g id="line2d_34">
      <g>
       <use style="stroke:#000000;stroke-linecap:butt;stroke-width:0.5;" x="119.74952446" xlink:href="#m6f8f3139b3" y="209.835"/>
      </g>
     </g>
     <g id="line2d_35">
      <g>
       <use style="stroke:#000000;stroke-linecap:butt;stroke-width:0.5;" x="119.74952446" xlink:href="#md27378e979" y="28.04"/>
      </g>
     </g>
    </g>
    <g id="xtick_12">
     <g id="line2d_36">
      <g>
       <use style="stroke:#000000;stroke-linecap:butt;stroke-width:0.5;" x="133.816629988" xlink:href="#m6f8f3139b3" y="209.835"/>
      </g>
     </g>
     <g id="line2d_37">
      <g>
       <use style="stroke:#000000;stroke-linecap:butt;stroke-width:0.5;" x="133.816629988" xlink:href="#md27378e979" y="28.04"/>
      </g>
     </g>
    </g>
    <g id="xtick_13">
     <g id="line2d_38">
      <g>
       <use style="stroke:#000000;stroke-linecap:butt;stroke-width:0.5;" x="144.727924728" xlink:href="#m6f8f3139b3" y="209.835"/>
      </g>
     </g>
     <g id="line2d_39">
      <g>
       <use style="stroke:#000000;stroke-linecap:butt;stroke-width:0.5;" x="144.727924728" xlink:href="#md27378e979" y="28.04"/>
      </g>
     </g>
    </g>
    <g id="xtick_14">
     <g id="line2d_40">
      <g>
       <use style="stroke:#000000;stroke-linecap:butt;stroke-width:0.5;" x="153.643101672" xlink:href="#m6f8f3139b3" y="209.835"/>
      </g>
     </g>
     <g id="line2d_41">
      <g>
       <use style="stroke:#000000;stroke-linecap:butt;stroke-width:0.5;" x="153.643101672" xlink:href="#md27378e979" y="28.04"/>
      </g>
     </g>
    </g>
    <g id="xtick_15">
     <g id="line2d_42">
      <g>
       <use style="stroke:#000000;stroke-linecap:butt;stroke-width:0.5;" x="161.180776376" xlink:href="#m6f8f3139b3" y="209.835"/>
      </g>
     </g>
     <g id="line2d_43">
      <g>
       <use style="stroke:#000000;stroke-linecap:butt;stroke-width:0.5;" x="161.180776376" xlink:href="#md27378e979" y="28.04"/>
      </g>
     </g>
    </g>
    <g id="xtick_16">
     <g id="line2d_44">
      <g>
       <use style="stroke:#000000;stroke-linecap:butt;stroke-width:0.5;" x="167.710207199" xlink:href="#m6f8f3139b3" y="209.835"/>
      </g>
     </g>
     <g id="line2d_45">
      <g>
       <use style="stroke:#000000;stroke-linecap:butt;stroke-width:0.5;" x="167.710207199" xlink:href="#md27378e979" y="28.04"/>
      </g>
     </g>
    </g>
    <g id="xtick_17">
     <g id="line2d_46">
      <g>
       <use style="stroke:#000000;stroke-linecap:butt;stroke-width:0.5;" x="173.469573356" xlink:href="#m6f8f3139b3" y="209.835"/>
      </g>
     </g>
     <g id="line2d_47">
      <g>
       <use style="stroke:#000000;stroke-linecap:butt;stroke-width:0.5;" x="173.469573356" xlink:href="#md27378e979" y="28.04"/>
      </g>
     </g>
    </g>
    <g id="xtick_18">
     <g id="line2d_48">
      <g>
       <use style="stroke:#000000;stroke-linecap:butt;stroke-width:0.5;" x="212.515079152" xlink:href="#m6f8f3139b3" y="209.835"/>
      </g>
     </g>
     <g id="line2d_49">
      <g>
       <use style="stroke:#000000;stroke-linecap:butt;stroke-width:0.5;" x="212.515079152" xlink:href="#md27378e979" y="28.04"/>
      </g>
     </g>
    </g>
    <g id="xtick_19">
     <g id="line2d_50">
      <g>
       <use style="stroke:#000000;stroke-linecap:butt;stroke-width:0.5;" x="232.341550836" xlink:href="#m6f8f3139b3" y="209.835"/>
      </g>
     </g>
     <g id="line2d_51">
      <g>
       <use style="stroke:#000000;stroke-linecap:butt;stroke-width:0.5;" x="232.341550836" xlink:href="#md27378e979" y="28.04"/>
      </g>
     </g>
    </g>
    <g id="xtick_20">
     <g id="line2d_52">
      <g>
       <use style="stroke:#000000;stroke-linecap:butt;stroke-width:0.5;" x="246.408656363" xlink:href="#m6f8f3139b3" y="209.835"/>
      </g>
     </g>
     <g id="line2d_53">
      <g>
       <use style="stroke:#000000;stroke-linecap:butt;stroke-width:0.5;" x="246.408656363" xlink:href="#md27378e979" y="28.04"/>
      </g>
     </g>
    </g>
    <g id="xtick_21">
     <g id="line2d_54">
      <g>
       <use style="stroke:#000000;stroke-linecap:butt;stroke-width:0.5;" x="257.319951104" xlink:href="#m6f8f3139b3" y="209.835"/>
      </g>
     </g>
     <g id="line2d_55">
      <g>
       <use style="stroke:#000000;stroke-linecap:butt;stroke-width:0.5;" x="257.319951104" xlink:href="#md27378e979" y="28.04"/>
      </g>
     </g>
    </g>
    <g id="xtick_22">
     <g id="line2d_56">
      <g>
       <use style="stroke:#000000;stroke-linecap:butt;stroke-width:0.5;" x="266.235128048" xlink:href="#m6f8f3139b3" y="209.835"/>
      </g>
     </g>
     <g id="line2d_57">
      <g>
       <use style="stroke:#000000;stroke-linecap:butt;stroke-width:0.5;" x="266.235128048" xlink:href="#md27378e979" y="28.04"/>
      </g>
     </g>
    </g>
    <g id="xtick_23">
     <g id="line2d_58">
      <g>
       <use style="stroke:#000000;stroke-linecap:butt;stroke-width:0.5;" x="273.772802751" xlink:href="#m6f8f3139b3" y="209.835"/>
      </g>
     </g>
     <g id="line2d_59">
      <g>
       <use style="stroke:#000000;stroke-linecap:butt;stroke-width:0.5;" x="273.772802751" xlink:href="#md27378e979" y="28.04"/>
      </g>
     </g>
    </g>
    <g id="xtick_24">
     <g id="line2d_60">
      <g>
       <use style="stroke:#000000;stroke-linecap:butt;stroke-width:0.5;" x="280.302233575" xlink:href="#m6f8f3139b3" y="209.835"/>
      </g>
     </g>
     <g id="line2d_61">
      <g>
       <use style="stroke:#000000;stroke-linecap:butt;stroke-width:0.5;" x="280.302233575" xlink:href="#md27378e979" y="28.04"/>
      </g>
     </g>
    </g>
    <g id="xtick_25">
     <g id="line2d_62">
      <g>
       <use style="stroke:#000000;stroke-linecap:butt;stroke-width:0.5;" x="286.061599732" xlink:href="#m6f8f3139b3" y="209.835"/>
      </g>
     </g>
     <g id="line2d_63">
      <g>
       <use style="stroke:#000000;stroke-linecap:butt;stroke-width:0.5;" x="286.061599732" xlink:href="#md27378e979" y="28.04"/>
      </g>
     </g>
    </g>
    <g id="text_7">
     <!-- Stimulation frequency (Hz) -->
     <defs>
      <path d="
M0.59375 44.7344
L21.4375 44.7344
L21.4375 42.9219
L20.4062 42.9219
Q18.2188 42.9219 17.1094 41.9688
Q16.0156 41.0156 16.0156 39.5938
Q16.0156 37.7031 17.625 34.3281
L28.5156 11.7656
L38.5312 36.4688
Q39.3594 38.4844 39.3594 40.4375
Q39.3594 41.3125 39.0156 41.75
Q38.625 42.2812 37.7969 42.5938
Q36.9688 42.9219 34.8594 42.9219
L34.8594 44.7344
L49.4219 44.7344
L49.4219 42.9219
Q47.6094 42.7188 46.625 42.125
Q45.6562 41.5469 44.4844 39.9375
Q44.0469 39.2656 42.8281 36.1875
L24.6094 -8.45312
Q21.9688 -14.9375 17.6875 -18.25
Q13.4219 -21.5781 9.46875 -21.5781
Q6.59375 -21.5781 4.73438 -19.9219
Q2.875 -18.2656 2.875 -16.1094
Q2.875 -14.0625 4.21875 -12.8125
Q5.5625 -11.5781 7.90625 -11.5781
Q9.51562 -11.5781 12.3125 -12.6406
Q14.2656 -13.375 14.75 -13.375
Q16.2188 -13.375 17.9375 -11.8594
Q19.6719 -10.3594 21.4375 -6
L24.6094 1.76562
L8.54688 35.5
Q7.8125 37.0156 6.20312 39.2656
Q4.98438 40.9688 4.20312 41.5469
Q3.07812 42.3281 0.59375 42.9219
z
" id="TimesNewRomanPSMT-79"/>
      <path d="
M31.0625 -19.5781
L31.0625 -21.3906
Q23.6875 -17.6719 18.75 -12.7031
Q11.7188 -5.60938 7.90625 4
Q4.10938 13.625 4.10938 23.9688
Q4.10938 39.1094 11.5781 51.5781
Q19.0469 64.0625 31.0625 69.4375
L31.0625 67.3906
Q25.0469 64.0625 21.1875 58.2969
Q17.3281 52.5469 15.4219 43.7031
Q13.5312 34.8594 13.5312 25.25
Q13.5312 14.7969 15.1406 6.25
Q16.4062 -0.484375 18.2031 -4.5625
Q20.0156 -8.64062 23.0625 -12.3906
Q26.125 -16.1562 31.0625 -19.5781" id="TimesNewRomanPSMT-28"/>
      <path id="TimesNewRomanPSMT-20"/>
      <path d="
M42 13.7188
L41.4531 0
L2 0
L2 1.76562
L31.6875 41.3125
L17.0469 41.3125
Q12.3125 41.3125 10.8438 40.7031
Q9.375 40.0938 8.45312 38.375
Q7.125 35.9375 6.9375 32.3281
L4.98438 32.3281
L5.28125 44.7344
L42.7812 44.7344
L42.7812 42.9219
L12.7969 3.26562
L29.1094 3.26562
Q34.2344 3.26562 36.0625 4.125
Q37.8906 4.98438 39.0156 7.125
Q39.7969 8.6875 40.3281 13.7188
z
" id="TimesNewRomanPSMT-7a"/>
      <path d="
M25 46.0469
Q35.1562 46.0469 41.3125 38.3281
Q46.5312 31.7344 46.5312 23.1875
Q46.5312 17.1875 43.6406 11.0312
Q40.7656 4.89062 35.7188 1.75
Q30.6719 -1.375 24.4688 -1.375
Q14.3594 -1.375 8.40625 6.6875
Q3.375 13.4844 3.375 21.9219
Q3.375 28.0781 6.42188 34.1562
Q9.46875 40.2344 14.4531 43.1406
Q19.4375 46.0469 25 46.0469
M23.4844 42.875
Q20.9062 42.875 18.2812 41.3281
Q15.6719 39.7969 14.0625 35.9375
Q12.4531 32.0781 12.4531 26.0312
Q12.4531 16.2656 16.3281 9.17188
Q20.2188 2.09375 26.5625 2.09375
Q31.2969 2.09375 34.375 6
Q37.4531 9.90625 37.4531 19.4375
Q37.4531 31.3438 32.3281 38.1875
Q28.8594 42.875 23.4844 42.875" id="TimesNewRomanPSMT-6f"/>
      <path d="
M10.6406 27.875
Q10.5938 17.9219 15.4844 12.25
Q20.3594 6.59375 26.9531 6.59375
Q31.3438 6.59375 34.5938 9
Q37.8438 11.4219 40.0469 17.2812
L41.5469 16.3125
Q40.5312 9.625 35.5938 4.125
Q30.6719 -1.375 23.25 -1.375
Q15.1875 -1.375 9.45312 4.90625
Q3.71875 11.1875 3.71875 21.7812
Q3.71875 33.25 9.59375 39.6719
Q15.4844 46.0938 24.3594 46.0938
Q31.8906 46.0938 36.7188 41.1406
Q41.5469 36.1875 41.5469 27.875
z

M10.6406 30.7188
L31.3438 30.7188
Q31.1094 35.0156 30.3281 36.7656
Q29.1094 39.5 26.6875 41.0625
Q24.2656 42.625 21.625 42.625
Q17.5781 42.625 14.375 39.4688
Q11.1875 36.3281 10.6406 30.7188" id="TimesNewRomanPSMT-65"/>
      <path d="
M16.4062 36.5312
Q21.2969 41.4062 22.1719 42.1406
Q24.3594 44 26.8906 45.0156
Q29.4375 46.0469 31.9375 46.0469
Q36.1406 46.0469 39.1562 43.5938
Q42.1875 41.1562 43.2188 36.5312
Q48.25 42.3906 51.7031 44.2188
Q55.1719 46.0469 58.8438 46.0469
Q62.4062 46.0469 65.1562 44.2188
Q67.9219 42.3906 69.5312 38.2344
Q70.6094 35.4062 70.6094 29.3438
L70.6094 10.1094
Q70.6094 5.90625 71.2344 4.34375
Q71.7344 3.26562 73.0469 2.51562
Q74.3594 1.76562 77.3438 1.76562
L77.3438 0
L55.2812 0
L55.2812 1.76562
L56.2031 1.76562
Q59.0781 1.76562 60.6875 2.875
Q61.8125 3.65625 62.3125 5.375
Q62.5 6.20312 62.5 10.1094
L62.5 29.3438
Q62.5 34.8125 61.1875 37.0625
Q59.2812 40.1875 55.0781 40.1875
Q52.4844 40.1875 49.875 38.8906
Q47.2656 37.5938 43.5625 34.0781
L43.4531 33.5469
L43.5625 31.4531
L43.5625 10.1094
Q43.5625 5.51562 44.0625 4.39062
Q44.5781 3.26562 45.9844 2.51562
Q47.4062 1.76562 50.8281 1.76562
L50.8281 0
L28.2188 0
L28.2188 1.76562
Q31.9375 1.76562 33.3281 2.64062
Q34.7188 3.51562 35.25 5.28125
Q35.5 6.10938 35.5 10.1094
L35.5 29.3438
Q35.5 34.8125 33.8906 37.2031
Q31.7344 40.3281 27.875 40.3281
Q25.25 40.3281 22.6562 38.9219
Q18.6094 36.7656 16.4062 34.0781
L16.4062 10.1094
Q16.4062 5.71875 17.0156 4.39062
Q17.625 3.07812 18.8125 2.42188
Q20.0156 1.76562 23.6875 1.76562
L23.6875 0
L1.5625 0
L1.5625 1.76562
Q4.64062 1.76562 5.85938 2.42188
Q7.07812 3.07812 7.70312 4.51562
Q8.34375 5.95312 8.34375 10.1094
L8.34375 27.2031
Q8.34375 34.5781 7.90625 36.7188
Q7.5625 38.3281 6.82812 38.9375
Q6.10938 39.5469 4.82812 39.5469
Q3.46875 39.5469 1.5625 38.8125
L0.828125 40.5781
L14.3125 46.0469
L16.4062 46.0469
z
" id="TimesNewRomanPSMT-6d"/>
      <path d="
M16.1562 36.5781
Q24.0312 46.0469 31.1562 46.0469
Q34.8125 46.0469 37.4531 44.2188
Q40.0938 42.3906 41.6562 38.1875
Q42.7188 35.25 42.7188 29.2031
L42.7188 10.1094
Q42.7188 5.85938 43.4062 4.34375
Q43.9531 3.125 45.1406 2.4375
Q46.3438 1.76562 49.5625 1.76562
L49.5625 0
L27.4375 0
L27.4375 1.76562
L28.375 1.76562
Q31.5 1.76562 32.7344 2.70312
Q33.9844 3.65625 34.4688 5.51562
Q34.6719 6.25 34.6719 10.1094
L34.6719 28.4219
Q34.6719 34.5156 33.0781 37.2812
Q31.5 40.0469 27.7344 40.0469
Q21.9219 40.0469 16.1562 33.6875
L16.1562 10.1094
Q16.1562 5.5625 16.7031 4.5
Q17.3906 3.07812 18.5781 2.42188
Q19.7812 1.76562 23.4375 1.76562
L23.4375 0
L1.3125 0
L1.3125 1.76562
L2.29688 1.76562
Q5.71875 1.76562 6.90625 3.48438
Q8.10938 5.21875 8.10938 10.1094
L8.10938 26.7031
Q8.10938 34.7656 7.73438 36.5156
Q7.375 38.2812 6.60938 38.9062
Q5.85938 39.5469 4.59375 39.5469
Q3.21875 39.5469 1.3125 38.8125
L0.59375 40.5781
L14.0625 46.0469
L16.1562 46.0469
z
" id="TimesNewRomanPSMT-6e"/>
      <path d="
M18.5 69.4375
L18.5 10.1094
Q18.5 5.90625 19.1094 4.53125
Q19.7344 3.17188 21 2.46875
Q22.2656 1.76562 25.7344 1.76562
L25.7344 0
L3.8125 0
L3.8125 1.76562
Q6.89062 1.76562 8 2.39062
Q9.125 3.03125 9.76562 4.48438
Q10.4062 5.95312 10.4062 10.1094
L10.4062 50.7344
Q10.4062 58.2969 10.0625 60.0312
Q9.71875 61.7656 8.95312 62.3906
Q8.20312 63.0312 7.03125 63.0312
Q5.76562 63.0312 3.8125 62.25
L2.98438 63.9688
L16.3125 69.4375
z
" id="TimesNewRomanPSMT-6c"/>
      <path d="
M41.1094 17
Q39.3125 8.15625 34.0312 3.39062
Q28.7656 -1.375 22.3594 -1.375
Q14.75 -1.375 9.07812 5.01562
Q3.42188 11.4219 3.42188 22.3125
Q3.42188 32.8594 9.6875 39.4531
Q15.9688 46.0469 24.75 46.0469
Q31.3438 46.0469 35.5938 42.5469
Q39.8438 39.0625 39.8438 35.2969
Q39.8438 33.4531 38.6406 32.2969
Q37.4531 31.1562 35.2969 31.1562
Q32.4219 31.1562 30.9531 33.0156
Q30.125 34.0312 29.8594 36.9062
Q29.5938 39.7969 27.875 41.3125
Q26.1719 42.7812 23.1406 42.7812
Q18.2656 42.7812 15.2812 39.1562
Q11.3281 34.375 11.3281 26.5156
Q11.3281 18.5 15.25 12.375
Q19.1875 6.25 25.875 6.25
Q30.6719 6.25 34.4688 9.51562
Q37.1562 11.7656 39.7031 17.6719
z
" id="TimesNewRomanPSMT-63"/>
      <path d="
M45.8438 67.7188
L45.8438 44.8281
L44.0469 44.8281
Q43.1719 51.4219 40.8906 55.3281
Q38.625 59.2344 34.4219 61.5156
Q30.2188 63.8125 25.7344 63.8125
Q20.6562 63.8125 17.3281 60.7188
Q14.0156 57.625 14.0156 53.6562
Q14.0156 50.6406 16.1094 48.1406
Q19.1406 44.4844 30.5156 38.375
Q39.7969 33.4062 43.1875 30.7344
Q46.5781 28.0781 48.4062 24.4531
Q50.25 20.8438 50.25 16.8906
Q50.25 9.375 44.4062 3.92188
Q38.5781 -1.51562 29.3906 -1.51562
Q26.5156 -1.51562 23.9688 -1.07812
Q22.4688 -0.828125 17.7031 0.703125
Q12.9375 2.25 11.6719 2.25
Q10.4531 2.25 9.73438 1.51562
Q9.03125 0.78125 8.6875 -1.51562
L6.89062 -1.51562
L6.89062 21.1875
L8.6875 21.1875
Q9.96875 14.0625 12.1094 10.5156
Q14.2656 6.98438 18.6719 4.64062
Q23.0938 2.29688 28.375 2.29688
Q34.4688 2.29688 38 5.51562
Q41.5469 8.73438 41.5469 13.1406
Q41.5469 15.5781 40.2031 18.0625
Q38.875 20.5625 36.0312 22.7031
Q34.125 24.1719 25.625 28.9219
Q17.1406 33.6875 13.5469 36.5156
Q9.96875 39.3594 8.10938 42.7656
Q6.25 46.1875 6.25 50.2969
Q6.25 57.4219 11.7188 62.5625
Q17.1875 67.7188 25.6406 67.7188
Q30.9062 67.7188 36.8125 65.1406
Q39.5469 63.9219 40.6719 63.9219
Q41.9375 63.9219 42.75 64.6719
Q43.5625 65.4375 44.0469 67.7188
z
" id="TimesNewRomanPSMT-53"/>
      <path d="
M42.7188 46.0469
L42.7188 -11.4688
Q42.7188 -15.7656 43.2969 -16.9844
Q43.8906 -18.2188 45.1406 -18.8906
Q46.3906 -19.5781 50 -19.5781
L50 -21.3906
L27.4375 -21.3906
L27.4375 -19.5781
L28.375 -19.5781
Q31.1094 -19.5781 32.5156 -18.7969
Q33.5 -18.2656 34.0781 -16.875
Q34.6719 -15.4844 34.6719 -11.4688
L34.6719 7.76562
Q30.2188 2.48438 26.8906 0.546875
Q23.5781 -1.375 20.0156 -1.375
Q13.5312 -1.375 8.42188 4.53125
Q3.32812 10.4531 3.32812 20.3594
Q3.32812 31.7344 10.0625 38.8906
Q16.7969 46.0469 26.3125 46.0469
Q29.1094 46.0469 31.4531 45.2656
Q33.7969 44.4844 35.6406 42.9219
Q38.4844 44.2812 41.0625 46.0469
z

M34.6719 10.8438
L34.6719 31.8438
Q34.6719 35.5 33.7188 37.5938
Q32.7656 39.7031 30.3125 41.1562
Q27.875 42.625 24.8125 42.625
Q19.3438 42.625 15.4375 37.9844
Q11.5312 33.3438 11.5312 23.9219
Q11.5312 14.8906 15.5 10.2031
Q19.4844 5.51562 25.0938 5.51562
Q27.9844 5.51562 30.2188 6.76562
Q32.4688 8.01562 34.6719 10.8438" id="TimesNewRomanPSMT-71"/>
      <path d="
M2.25 67.3906
L2.25 69.4375
Q9.67188 65.7656 14.5938 60.7969
Q21.5781 53.6562 25.3906 44.0625
Q29.2031 34.4688 29.2031 24.0781
Q29.2031 8.9375 21.75 -3.53125
Q14.3125 -16.0156 2.25 -21.3906
L2.25 -19.5781
Q8.25 -16.2188 12.125 -10.4688
Q16.0156 -4.73438 17.8906 4.125
Q19.7812 12.9844 19.7812 22.6094
Q19.7812 33.0156 18.1719 41.6094
Q16.9375 48.3438 15.1094 52.3906
Q13.2812 56.4531 10.25 60.2031
Q7.23438 63.9688 2.25 67.3906" id="TimesNewRomanPSMT-29"/>
      <path d="
M20.5625 35.5
L51.3125 35.5
L51.3125 54.4375
Q51.3125 59.5156 50.6875 61.1406
Q50.2031 62.3594 48.6406 63.2344
Q46.5312 64.4062 44.1875 64.4062
L41.8438 64.4062
L41.8438 66.2188
L70.1719 66.2188
L70.1719 64.4062
L67.8281 64.4062
Q65.4844 64.4062 63.375 63.2812
Q61.8125 62.5 61.25 60.9062
Q60.6875 59.3281 60.6875 54.4375
L60.6875 11.7188
Q60.6875 6.6875 61.3281 5.07812
Q61.8125 3.85938 63.3281 2.98438
Q65.4844 1.8125 67.8281 1.8125
L70.1719 1.8125
L70.1719 0
L41.8438 0
L41.8438 1.8125
L44.1875 1.8125
Q48.25 1.8125 50.0938 4.20312
Q51.3125 5.76562 51.3125 11.7188
L51.3125 31.8906
L20.5625 31.8906
L20.5625 11.7188
Q20.5625 6.6875 21.1875 5.07812
Q21.6875 3.85938 23.25 2.98438
Q25.3438 1.8125 27.6875 1.8125
L30.0781 1.8125
L30.0781 0
L1.70312 0
L1.70312 1.8125
L4.04688 1.8125
Q8.15625 1.8125 10.0156 4.20312
Q11.1875 5.76562 11.1875 11.7188
L11.1875 54.4375
Q11.1875 59.5156 10.5469 61.1406
Q10.0625 62.3594 8.54688 63.2344
Q6.39062 64.4062 4.04688 64.4062
L1.70312 64.4062
L1.70312 66.2188
L30.0781 66.2188
L30.0781 64.4062
L27.6875 64.4062
Q25.3438 64.4062 23.25 63.2812
Q21.7344 62.5 21.1406 60.9062
Q20.5625 59.3281 20.5625 54.4375
z
" id="TimesNewRomanPSMT-48"/>
      <path d="
M14.5 69.4375
Q16.5469 69.4375 17.9844 67.9844
Q19.4375 66.5469 19.4375 64.5
Q19.4375 62.4531 17.9844 60.9844
Q16.5469 59.5156 14.5 59.5156
Q12.4531 59.5156 10.9844 60.9844
Q9.51562 62.4531 9.51562 64.5
Q9.51562 66.5469 10.9531 67.9844
Q12.4062 69.4375 14.5 69.4375
M18.5625 46.0469
L18.5625 10.1094
Q18.5625 5.90625 19.1719 4.51562
Q19.7812 3.125 20.9688 2.4375
Q22.1719 1.76562 25.3438 1.76562
L25.3438 0
L3.60938 0
L3.60938 1.76562
Q6.89062 1.76562 8 2.39062
Q9.125 3.03125 9.78125 4.48438
Q10.4531 5.95312 10.4531 10.1094
L10.4531 27.3438
Q10.4531 34.625 10.0156 36.7656
Q9.67188 38.3281 8.9375 38.9375
Q8.20312 39.5469 6.9375 39.5469
Q5.5625 39.5469 3.60938 38.8125
L2.9375 40.5781
L16.4062 46.0469
z
" id="TimesNewRomanPSMT-69"/>
      <path d="
M20.6094 41.2188
L20.6094 11.8125
Q20.6094 5.5625 21.9688 3.90625
Q23.7812 1.76562 26.8125 1.76562
L30.8594 1.76562
L30.8594 0
L4.15625 0
L4.15625 1.76562
L6.15625 1.76562
Q8.10938 1.76562 9.71875 2.73438
Q11.3281 3.71875 11.9375 5.375
Q12.5469 7.03125 12.5469 11.8125
L12.5469 41.2188
L3.85938 41.2188
L3.85938 44.7344
L12.5469 44.7344
L12.5469 47.6562
Q12.5469 54.3438 14.6875 58.9844
Q16.8438 63.625 21.2656 66.4844
Q25.6875 69.3438 31.2031 69.3438
Q36.3281 69.3438 40.625 66.0156
Q43.4531 63.8125 43.4531 61.0781
Q43.4531 59.625 42.1875 58.3281
Q40.9219 57.0312 39.4531 57.0312
Q38.3281 57.0312 37.0781 57.8281
Q35.8438 58.6406 34.0312 61.2969
Q32.2344 63.9688 30.7188 64.8906
Q29.2031 65.8281 27.3438 65.8281
Q25.0938 65.8281 23.5312 64.625
Q21.9688 63.4219 21.2812 60.9062
Q20.6094 58.4062 20.6094 47.9531
L20.6094 44.7344
L32.125 44.7344
L32.125 41.2188
z
" id="TimesNewRomanPSMT-66"/>
      <path d="
M16.2188 46.0469
L16.2188 35.9844
Q21.8281 46.0469 27.7344 46.0469
Q30.4219 46.0469 32.1719 44.4062
Q33.9375 42.7812 33.9375 40.625
Q33.9375 38.7188 32.6562 37.3906
Q31.3906 36.0781 29.6406 36.0781
Q27.9375 36.0781 25.8125 37.7656
Q23.6875 39.4531 22.6562 39.4531
Q21.7812 39.4531 20.75 38.4844
Q18.5625 36.4688 16.2188 31.8906
L16.2188 10.4531
Q16.2188 6.73438 17.1406 4.82812
Q17.7812 3.51562 19.3906 2.64062
Q21 1.76562 24.0312 1.76562
L24.0312 0
L1.125 0
L1.125 1.76562
Q4.54688 1.76562 6.20312 2.82812
Q7.42188 3.60938 7.90625 5.32812
Q8.15625 6.15625 8.15625 10.0625
L8.15625 27.3906
Q8.15625 35.2031 7.82812 36.6875
Q7.51562 38.1875 6.65625 38.8594
Q5.8125 39.5469 4.54688 39.5469
Q3.03125 39.5469 1.125 38.8125
L0.640625 40.5781
L14.1562 46.0469
z
" id="TimesNewRomanPSMT-72"/>
      <path d="
M42.3281 44.7344
L42.3281 17.625
Q42.3281 9.85938 42.6875 8.125
Q43.0625 6.39062 43.8594 5.70312
Q44.6719 5.03125 45.75 5.03125
Q47.2656 5.03125 49.1719 5.85938
L49.8594 4.15625
L36.4688 -1.375
L34.2812 -1.375
L34.2812 8.10938
Q28.5156 1.85938 25.4844 0.234375
Q22.4688 -1.375 19.0938 -1.375
Q15.3281 -1.375 12.5625 0.796875
Q9.8125 2.98438 8.73438 6.39062
Q7.67188 9.8125 7.67188 16.0625
L7.67188 36.0312
Q7.67188 39.2031 6.98438 40.4219
Q6.29688 41.6562 4.95312 42.3125
Q3.60938 42.9688 0.09375 42.9219
L0.09375 44.7344
L15.7656 44.7344
L15.7656 14.7969
Q15.7656 8.54688 17.9375 6.59375
Q20.125 4.64062 23.1875 4.64062
Q25.2969 4.64062 27.9531 5.95312
Q30.6094 7.28125 34.2812 10.9844
L34.2812 36.3281
Q34.2812 40.1406 32.8906 41.4844
Q31.5 42.8281 27.0938 42.9219
L27.0938 44.7344
z
" id="TimesNewRomanPSMT-75"/>
      <path d="
M16.1094 59.4219
L16.1094 44.7344
L26.5625 44.7344
L26.5625 41.3125
L16.1094 41.3125
L16.1094 12.3125
Q16.1094 7.95312 17.3594 6.4375
Q18.6094 4.9375 20.5625 4.9375
Q22.1719 4.9375 23.6875 5.9375
Q25.2031 6.9375 26.0312 8.89062
L27.9375 8.89062
Q26.2188 4.10938 23.0938 1.6875
Q19.9688 -0.734375 16.6562 -0.734375
Q14.4062 -0.734375 12.25 0.515625
Q10.1094 1.76562 9.07812 4.07812
Q8.0625 6.39062 8.0625 11.2344
L8.0625 41.3125
L0.984375 41.3125
L0.984375 42.9219
Q3.65625 44 6.46875 46.5625
Q9.28125 49.125 11.4688 52.6406
Q12.5938 54.5 14.5938 59.4219
z
" id="TimesNewRomanPSMT-74"/>
      <path d="
M28.4688 6.45312
Q21.5781 1.125 19.8281 0.296875
Q17.1875 -0.921875 14.2031 -0.921875
Q9.57812 -0.921875 6.5625 2.25
Q3.5625 5.42188 3.5625 10.5938
Q3.5625 13.875 5.03125 16.2656
Q7.03125 19.5781 11.9844 22.5
Q16.9375 25.4375 28.4688 29.6406
L28.4688 31.3906
Q28.4688 38.0938 26.3438 40.5781
Q24.2188 43.0625 20.1719 43.0625
Q17.0938 43.0625 15.2812 41.4062
Q13.4219 39.75 13.4219 37.5938
L13.5312 34.7656
Q13.5312 32.5156 12.375 31.2969
Q11.2344 30.0781 9.375 30.0781
Q7.5625 30.0781 6.42188 31.3438
Q5.28125 32.625 5.28125 34.8125
Q5.28125 39.0156 9.57812 42.5312
Q13.875 46.0469 21.625 46.0469
Q27.5938 46.0469 31.3906 44.0469
Q34.2812 42.5312 35.6406 39.3125
Q36.5312 37.2031 36.5312 30.7188
L36.5312 15.5312
Q36.5312 9.125 36.7656 7.6875
Q37.0156 6.25 37.5781 5.76562
Q38.1406 5.28125 38.875 5.28125
Q39.6562 5.28125 40.2344 5.60938
Q41.2656 6.25 44.1875 9.1875
L44.1875 6.45312
Q38.7188 -0.875 33.7344 -0.875
Q31.3438 -0.875 29.9219 0.78125
Q28.5156 2.4375 28.4688 6.45312
M28.4688 9.625
L28.4688 26.6562
Q21.0938 23.7344 18.9531 22.5156
Q15.0938 20.3594 13.4219 18.0156
Q11.7656 15.6719 11.7656 12.8906
Q11.7656 9.375 13.8594 7.04688
Q15.9688 4.73438 18.7031 4.73438
Q22.4062 4.73438 28.4688 9.625" id="TimesNewRomanPSMT-61"/>
     </defs>
     <g transform="translate(114.080625 235.4175)scale(0.12 -0.12)">
      <use xlink:href="#TimesNewRomanPSMT-53"/>
      <use x="55.615234375" xlink:href="#TimesNewRomanPSMT-74"/>
      <use x="83.3984375" xlink:href="#TimesNewRomanPSMT-69"/>
      <use x="111.181640625" xlink:href="#TimesNewRomanPSMT-6d"/>
      <use x="188.96484375" xlink:href="#TimesNewRomanPSMT-75"/>
      <use x="238.96484375" xlink:href="#TimesNewRomanPSMT-6c"/>
      <use x="266.748046875" xlink:href="#TimesNewRomanPSMT-61"/>
      <use x="311.1328125" xlink:href="#TimesNewRomanPSMT-74"/>
      <use x="338.916015625" xlink:href="#TimesNewRomanPSMT-69"/>
      <use x="366.69921875" xlink:href="#TimesNewRomanPSMT-6f"/>
      <use x="416.69921875" xlink:href="#TimesNewRomanPSMT-6e"/>
      <use x="466.69921875" xlink:href="#TimesNewRomanPSMT-20"/>
      <use x="491.69921875" xlink:href="#TimesNewRomanPSMT-66"/>
      <use x="525.0" xlink:href="#TimesNewRomanPSMT-72"/>
      <use x="558.30078125" xlink:href="#TimesNewRomanPSMT-65"/>
      <use x="602.685546875" xlink:href="#TimesNewRomanPSMT-71"/>
      <use x="652.685546875" xlink:href="#TimesNewRomanPSMT-75"/>
      <use x="702.685546875" xlink:href="#TimesNewRomanPSMT-65"/>
      <use x="747.0703125" xlink:href="#TimesNewRomanPSMT-6e"/>
      <use x="797.0703125" xlink:href="#TimesNewRomanPSMT-63"/>
      <use x="841.455078125" xlink:href="#TimesNewRomanPSMT-79"/>
      <use x="891.455078125" xlink:href="#TimesNewRomanPSMT-20"/>
      <use x="916.455078125" xlink:href="#TimesNewRomanPSMT-28"/>
      <use x="949.755859375" xlink:href="#TimesNewRomanPSMT-48"/>
      <use x="1021.97265625" xlink:href="#TimesNewRomanPSMT-7a"/>
      <use x="1066.35742188" xlink:href="#TimesNewRomanPSMT-29"/>
     </g>
    </g>
   </g>
   <g id="matplotlib.axis_2">
    <g id="ytick_1">
     <g id="line2d_64">
      <defs>
       <path d="
M0 0
L4 0" id="mc8fcea1516" style="stroke:#000000;stroke-linecap:butt;stroke-width:0.5;"/>
      </defs>
      <g>
       <use style="stroke:#000000;stroke-linecap:butt;stroke-width:0.5;" x="48.58875" xlink:href="#mc8fcea1516" y="202.099042553"/>
      </g>
     </g>
     <g id="line2d_65">
      <defs>
       <path d="
M0 0
L-4 0" id="m0d5b0a6425" style="stroke:#000000;stroke-linecap:butt;stroke-width:0.5;"/>
      </defs>
      <g>
       <use style="stroke:#000000;stroke-linecap:butt;stroke-width:0.5;" x="311.04" xlink:href="#m0d5b0a6425" y="202.099042553"/>
      </g>
     </g>
     <g id="text_8">
      <!-- -20 -->
      <defs>
       <path d="
M4.04688 26.125
L29.2969 26.125
L29.2969 18.75
L4.04688 18.75
z
" id="TimesNewRomanPSMT-2d"/>
      </defs>
      <g transform="translate(29.50625 206.083417553)scale(0.12 -0.12)">
       <use xlink:href="#TimesNewRomanPSMT-2d"/>
       <use x="33.30078125" xlink:href="#TimesNewRomanPSMT-32"/>
       <use x="83.30078125" xlink:href="#TimesNewRomanPSMT-30"/>
      </g>
     </g>
    </g>
    <g id="ytick_2">
     <g id="line2d_66">
      <g>
       <use style="stroke:#000000;stroke-linecap:butt;stroke-width:0.5;" x="48.58875" xlink:href="#mc8fcea1516" y="163.419255319"/>
      </g>
     </g>
     <g id="line2d_67">
      <g>
       <use style="stroke:#000000;stroke-linecap:butt;stroke-width:0.5;" x="311.04" xlink:href="#m0d5b0a6425" y="163.419255319"/>
      </g>
     </g>
     <g id="text_9">
      <!-- -10 -->
      <g transform="translate(29.50625 167.403630319)scale(0.12 -0.12)">
       <use xlink:href="#TimesNewRomanPSMT-2d"/>
       <use x="33.30078125" xlink:href="#TimesNewRomanPSMT-31"/>
       <use x="83.30078125" xlink:href="#TimesNewRomanPSMT-30"/>
      </g>
     </g>
    </g>
    <g id="ytick_3">
     <g id="line2d_68">
      <g>
       <use style="stroke:#000000;stroke-linecap:butt;stroke-width:0.5;" x="48.58875" xlink:href="#mc8fcea1516" y="124.739468085"/>
      </g>
     </g>
     <g id="line2d_69">
      <g>
       <use style="stroke:#000000;stroke-linecap:butt;stroke-width:0.5;" x="311.04" xlink:href="#m0d5b0a6425" y="124.739468085"/>
      </g>
     </g>
     <g id="text_10">
      <!-- 0 -->
      <g transform="translate(39.449375 128.723843085)scale(0.12 -0.12)">
       <use xlink:href="#TimesNewRomanPSMT-30"/>
      </g>
     </g>
    </g>
    <g id="ytick_4">
     <g id="line2d_70">
      <g>
       <use style="stroke:#000000;stroke-linecap:butt;stroke-width:0.5;" x="48.58875" xlink:href="#mc8fcea1516" y="86.0596808511"/>
      </g>
     </g>
     <g id="line2d_71">
      <g>
       <use style="stroke:#000000;stroke-linecap:butt;stroke-width:0.5;" x="311.04" xlink:href="#m0d5b0a6425" y="86.0596808511"/>
      </g>
     </g>
     <g id="text_11">
      <!-- 10 -->
      <g transform="translate(34.4225 90.0440558511)scale(0.12 -0.12)">
       <use xlink:href="#TimesNewRomanPSMT-31"/>
       <use x="50.0" xlink:href="#TimesNewRomanPSMT-30"/>
      </g>
     </g>
    </g>
    <g id="ytick_5">
     <g id="line2d_72">
      <g>
       <use style="stroke:#000000;stroke-linecap:butt;stroke-width:0.5;" x="48.58875" xlink:href="#mc8fcea1516" y="47.379893617"/>
      </g>
     </g>
     <g id="line2d_73">
      <g>
       <use style="stroke:#000000;stroke-linecap:butt;stroke-width:0.5;" x="311.04" xlink:href="#m0d5b0a6425" y="47.379893617"/>
      </g>
     </g>
     <g id="text_12">
      <!-- 20 -->
      <g transform="translate(33.275 51.364268617)scale(0.12 -0.12)">
       <use xlink:href="#TimesNewRomanPSMT-32"/>
       <use x="50.0" xlink:href="#TimesNewRomanPSMT-30"/>
      </g>
     </g>
    </g>
    <g id="text_13">
     <!-- Change in connection weight (%) -->
     <defs>
      <path d="
M15.0938 16.3125
Q10.9844 18.3125 8.78125 21.8906
Q6.59375 25.4844 6.59375 29.8281
Q6.59375 36.4688 11.5938 41.25
Q16.6094 46.0469 24.4219 46.0469
Q30.8125 46.0469 35.5 42.9219
L44.9688 42.9219
Q47.0781 42.9219 47.4062 42.7969
Q47.75 42.6719 47.9062 42.3906
Q48.1875 41.9375 48.1875 40.8281
Q48.1875 39.5469 47.9531 39.0625
Q47.7969 38.8125 47.4375 38.6719
Q47.0781 38.5312 44.9688 38.5312
L39.1562 38.5312
Q41.8906 35.0156 41.8906 29.5469
Q41.8906 23.2969 37.1094 18.8438
Q32.3281 14.4062 24.2656 14.4062
Q20.9531 14.4062 17.4844 15.375
Q15.3281 13.5312 14.5625 12.1406
Q13.8125 10.75 13.8125 9.76562
Q13.8125 8.9375 14.625 8.15625
Q15.4375 7.375 17.7812 7.03125
Q19.1406 6.84375 24.6094 6.6875
Q34.6719 6.45312 37.6406 6
Q42.1875 5.375 44.8906 2.64062
Q47.6094 -0.09375 47.6094 -4.10938
Q47.6094 -9.625 42.4375 -14.4531
Q34.8125 -21.5781 22.5625 -21.5781
Q13.1406 -21.5781 6.64062 -17.3281
Q2.98438 -14.8906 2.98438 -12.25
Q2.98438 -11.0781 3.51562 -9.90625
Q4.34375 -8.10938 6.9375 -4.89062
Q7.28125 -4.4375 11.9219 0.390625
Q9.375 1.90625 8.32812 3.09375
Q7.28125 4.29688 7.28125 5.8125
Q7.28125 7.51562 8.67188 9.8125
Q10.0625 12.1094 15.0938 16.3125
M23.5781 43.7031
Q19.9688 43.7031 17.5312 40.8125
Q15.0938 37.9375 15.0938 31.9844
Q15.0938 24.2656 18.4062 20.0156
Q20.9531 16.7969 24.8594 16.7969
Q28.5625 16.7969 30.9531 19.5781
Q33.3438 22.3594 33.3438 28.3281
Q33.3438 36.0781 29.9844 40.4844
Q27.4844 43.7031 23.5781 43.7031
M14.5938 0
Q12.3125 -2.48438 11.1406 -4.625
Q9.96875 -6.78125 9.96875 -8.59375
Q9.96875 -10.9375 12.7969 -12.7031
Q17.6719 -15.7188 26.9062 -15.7188
Q35.6875 -15.7188 39.8594 -12.6094
Q44.0469 -9.51562 44.0469 -6
Q44.0469 -3.46875 41.5469 -2.39062
Q39.0156 -1.3125 31.5 -1.125
Q20.5156 -0.828125 14.5938 0" id="TimesNewRomanPSMT-67"/>
      <path d="
M60.2031 67.7188
L61.7188 45.2188
L60.2031 45.2188
Q57.1719 55.3281 51.5625 59.7656
Q45.9531 64.2031 38.0938 64.2031
Q31.5 64.2031 26.1719 60.8594
Q20.8438 57.5156 17.7969 50.1875
Q14.75 42.875 14.75 31.9844
Q14.75 23 17.625 16.4062
Q20.5156 9.8125 26.2969 6.29688
Q32.0781 2.78125 39.5 2.78125
Q45.9531 2.78125 50.875 5.53125
Q55.8125 8.29688 61.7188 16.5
L63.2344 15.5312
Q58.25 6.6875 51.6094 2.57812
Q44.9688 -1.51562 35.8438 -1.51562
Q19.3906 -1.51562 10.3594 10.6875
Q3.60938 19.7812 3.60938 32.0781
Q3.60938 42 8.04688 50.2969
Q12.5 58.5938 20.2812 63.1562
Q28.0781 67.7188 37.3125 67.7188
Q44.4844 67.7188 51.4688 64.2031
Q53.5156 63.1406 54.3906 63.1406
Q55.7188 63.1406 56.6875 64.0625
Q57.9531 65.375 58.5 67.7188
z
" id="TimesNewRomanPSMT-43"/>
      <path d="
M0.640625 44.7344
L19.3906 44.7344
L19.3906 42.9219
Q16.7969 42.7188 15.9844 41.9844
Q15.1875 41.2656 15.1875 39.8906
Q15.1875 38.375 16.0156 36.2344
L25.5938 10.5
L35.2031 31.4531
L32.6719 38.0312
Q31.5 40.9688 29.5938 42.0938
Q28.5156 42.7812 25.5938 42.9219
L25.5938 44.7344
L46.875 44.7344
L46.875 42.9219
Q43.3594 42.7812 41.8906 41.6562
Q40.9219 40.875 40.9219 39.1562
Q40.9219 38.1875 41.3125 37.1562
L51.4688 11.4688
L60.8906 36.2344
Q61.8594 38.875 61.8594 40.4375
Q61.8594 41.3594 60.9062 42.0938
Q59.9688 42.8281 57.1719 42.9219
L57.1719 44.7344
L71.2969 44.7344
L71.2969 42.9219
Q67.0469 42.2812 65.0469 37.1562
L50.0938 -1.375
L48.0938 -1.375
L36.9219 27.2031
L23.875 -1.375
L22.0781 -1.375
L7.71875 36.2344
Q6.29688 39.7969 4.92188 41.0312
Q3.5625 42.2812 0.640625 42.9219
z
" id="TimesNewRomanPSMT-77"/>
      <path d="
M16.2656 69.4375
L16.2656 36.7188
Q21.6875 42.6719 24.8594 44.3594
Q28.0312 46.0469 31.2031 46.0469
Q35.0156 46.0469 37.75 43.9375
Q40.4844 41.8438 41.7969 37.3594
Q42.7188 34.2344 42.7188 25.9219
L42.7188 10.1094
Q42.7188 5.85938 43.4062 4.29688
Q43.8906 3.125 45.0625 2.4375
Q46.2344 1.76562 49.3594 1.76562
L49.3594 0
L27.3906 0
L27.3906 1.76562
L28.4219 1.76562
Q31.5469 1.76562 32.7656 2.70312
Q33.9844 3.65625 34.4688 5.51562
Q34.625 6.29688 34.625 10.1094
L34.625 25.9219
Q34.625 33.25 33.8594 35.5469
Q33.1094 37.8438 31.4375 38.9844
Q29.7812 40.1406 27.4375 40.1406
Q25.0469 40.1406 22.4531 38.8594
Q19.875 37.5938 16.2656 33.7344
L16.2656 10.1094
Q16.2656 5.51562 16.7656 4.39062
Q17.2812 3.26562 18.6719 2.51562
Q20.0625 1.76562 23.4844 1.76562
L23.4844 0
L1.3125 0
L1.3125 1.76562
Q4.29688 1.76562 6 2.6875
Q6.98438 3.17188 7.5625 4.53125
Q8.15625 5.90625 8.15625 10.1094
L8.15625 50.5938
Q8.15625 58.25 7.78125 60
Q7.42188 61.7656 6.65625 62.3906
Q5.90625 63.0312 4.64062 63.0312
Q3.60938 63.0312 1.3125 62.25
L0.640625 63.9688
L14.0156 69.4375
z
" id="TimesNewRomanPSMT-68"/>
      <path d="
M67.9688 67.7188
L19.7344 -2.73438
L15.375 -2.73438
L63.625 67.7188
z

M17.7812 67.7188
Q24.3594 67.7188 28 62.25
Q31.6406 56.7812 31.6406 49.7031
Q31.6406 41.2188 27.5312 36.5781
Q23.4375 31.9375 17.6719 31.9375
Q13.8125 31.9375 10.5938 34.0625
Q7.375 36.1875 5.4375 40.375
Q3.51562 44.5781 3.51562 49.7031
Q3.51562 54.8281 5.46875 59.1562
Q7.42188 63.4844 10.8125 65.5938
Q14.2031 67.7188 17.7812 67.7188
M17.625 64.9844
Q15.1406 64.9844 13.2031 62.0469
Q11.2812 59.125 11.2812 49.75
Q11.2812 42.9688 12.3594 39.4062
Q13.1875 36.7188 14.9375 35.25
Q15.9688 34.375 17.4844 34.375
Q19.8281 34.375 21.4844 36.9219
Q23.9219 40.6719 23.9219 49.4688
Q23.9219 58.7344 21.5312 62.5
Q19.9688 64.9844 17.625 64.9844
M65.7188 32.8594
Q69.1875 32.8594 72.625 30.6562
Q76.0781 28.4688 77.9531 24.2656
Q79.8281 20.0625 79.8281 15.0469
Q79.8281 6.39062 75.6719 1.82812
Q71.5312 -2.73438 65.875 -2.73438
Q62.3125 -2.73438 58.9531 -0.53125
Q55.6094 1.65625 53.6875 5.73438
Q51.7656 9.8125 51.7656 15.0469
Q51.7656 20.1719 53.6875 24.4062
Q55.6094 28.6562 58.9531 30.75
Q62.3125 32.8594 65.7188 32.8594
M65.7656 30.2812
Q63.4219 30.2812 61.7188 27.6406
Q59.5156 24.2188 59.5156 14.7031
Q59.5156 5.95312 61.7656 2.48438
Q63.4219 0 65.7656 0
Q68.0156 0 69.7812 2.6875
Q72.125 6.25 72.125 14.9375
Q72.125 24.125 69.7812 27.7812
Q68.1719 30.2812 65.7656 30.2812" id="TimesNewRomanPSMT-25"/>
     </defs>
     <g transform="translate(24.50625 196.74625)rotate(-90.0)scale(0.12 -0.12)">
      <use xlink:href="#TimesNewRomanPSMT-43"/>
      <use x="66.69921875" xlink:href="#TimesNewRomanPSMT-68"/>
      <use x="116.69921875" xlink:href="#TimesNewRomanPSMT-61"/>
      <use x="161.083984375" xlink:href="#TimesNewRomanPSMT-6e"/>
      <use x="211.083984375" xlink:href="#TimesNewRomanPSMT-67"/>
      <use x="261.083984375" xlink:href="#TimesNewRomanPSMT-65"/>
      <use x="305.46875" xlink:href="#TimesNewRomanPSMT-20"/>
      <use x="330.46875" xlink:href="#TimesNewRomanPSMT-69"/>
      <use x="358.251953125" xlink:href="#TimesNewRomanPSMT-6e"/>
      <use x="408.251953125" xlink:href="#TimesNewRomanPSMT-20"/>
      <use x="433.251953125" xlink:href="#TimesNewRomanPSMT-63"/>
      <use x="477.63671875" xlink:href="#TimesNewRomanPSMT-6f"/>
      <use x="527.63671875" xlink:href="#TimesNewRomanPSMT-6e"/>
      <use x="577.63671875" xlink:href="#TimesNewRomanPSMT-6e"/>
      <use x="627.63671875" xlink:href="#TimesNewRomanPSMT-65"/>
      <use x="672.021484375" xlink:href="#TimesNewRomanPSMT-63"/>
      <use x="716.40625" xlink:href="#TimesNewRomanPSMT-74"/>
      <use x="744.189453125" xlink:href="#TimesNewRomanPSMT-69"/>
      <use x="771.97265625" xlink:href="#TimesNewRomanPSMT-6f"/>
      <use x="821.97265625" xlink:href="#TimesNewRomanPSMT-6e"/>
      <use x="871.97265625" xlink:href="#TimesNewRomanPSMT-20"/>
      <use x="896.97265625" xlink:href="#TimesNewRomanPSMT-77"/>
      <use x="969.189453125" xlink:href="#TimesNewRomanPSMT-65"/>
      <use x="1013.57421875" xlink:href="#TimesNewRomanPSMT-69"/>
      <use x="1041.35742188" xlink:href="#TimesNewRomanPSMT-67"/>
      <use x="1091.35742188" xlink:href="#TimesNewRomanPSMT-68"/>
      <use x="1141.35742188" xlink:href="#TimesNewRomanPSMT-74"/>
      <use x="1169.140625" xlink:href="#TimesNewRomanPSMT-20"/>
      <use x="1194.140625" xlink:href="#TimesNewRomanPSMT-28"/>
      <use x="1227.44140625" xlink:href="#TimesNewRomanPSMT-25"/>
      <use x="1310.7421875" xlink:href="#TimesNewRomanPSMT-29"/>
     </g>
    </g>
   </g>
   <g id="patch_3">
    <path d="
M48.5888 28.04
L311.04 28.04" style="fill:none;stroke:#000000;"/>
   </g>
   <g id="patch_4">
    <path d="
M311.04 209.835
L311.04 28.04" style="fill:none;stroke:#000000;"/>
   </g>
   <g id="patch_5">
    <path d="
M48.5888 209.835
L311.04 209.835" style="fill:none;stroke:#000000;"/>
   </g>
   <g id="patch_6">
    <path d="
M48.5888 209.835
L48.5888 28.04" style="fill:none;stroke:#000000;"/>
   </g>
   <g id="text_14">
    <!-- Frequency dependence of STDP -->
    <defs>
     <path d="
M20.5156 31
L20.5156 11.7188
Q20.5156 5.46875 21.875 3.95312
Q23.7344 1.8125 27.4844 1.8125
L30.0312 1.8125
L30.0312 0
L1.65625 0
L1.65625 1.8125
L4.15625 1.8125
Q8.34375 1.8125 10.1562 4.54688
Q11.1406 6.0625 11.1406 11.7188
L11.1406 54.5
Q11.1406 60.75 9.8125 62.25
Q7.90625 64.4062 4.15625 64.4062
L1.65625 64.4062
L1.65625 66.2188
L25.9219 66.2188
Q34.8125 66.2188 39.9375 64.375
Q45.0625 62.5469 48.5781 58.2031
Q52.0938 53.8594 52.0938 47.9062
Q52.0938 39.7969 46.75 34.7188
Q41.4062 29.6406 31.6406 29.6406
Q29.25 29.6406 26.4688 29.9844
Q23.6875 30.3281 20.5156 31
M20.5156 33.7969
Q23.0938 33.2969 25.0938 33.0469
Q27.0938 32.8125 28.5156 32.8125
Q33.5938 32.8125 37.2812 36.7344
Q40.9688 40.6719 40.9688 46.9219
Q40.9688 51.2188 39.2031 54.9062
Q37.4531 58.5938 34.2188 60.4219
Q31 62.25 26.9062 62.25
Q24.4219 62.25 20.5156 61.3281
z
" id="TimesNewRomanPSMT-50"/>
     <path d="
M1.70312 0
L1.70312 1.8125
L4.20312 1.8125
Q8.40625 1.8125 10.1562 4.5
Q11.2344 6.10938 11.2344 11.7188
L11.2344 54.5
Q11.2344 60.6875 9.85938 62.25
Q7.95312 64.4062 4.20312 64.4062
L1.70312 64.4062
L1.70312 66.2188
L28.6562 66.2188
Q43.5 66.2188 51.2344 62.8438
Q58.9844 59.4688 63.6875 51.6094
Q68.4062 43.75 68.4062 33.4531
Q68.4062 19.625 60.0156 10.3594
Q50.5938 0 31.2969 0
z

M20.6094 4.78125
Q26.8125 3.42188 31 3.42188
Q42.3281 3.42188 49.7969 11.375
Q57.2812 19.3438 57.2812 32.9531
Q57.2812 46.6875 49.7969 54.5938
Q42.3281 62.5 30.6094 62.5
Q26.2188 62.5 20.6094 61.0781
z
" id="TimesNewRomanPSMT-44"/>
     <path d="
M20.4531 62.5938
L20.4531 36.5781
L32.5156 36.5781
Q36.6719 36.5781 38.5938 38.4062
Q40.5312 40.2344 41.1562 45.6562
L42.9688 45.6562
L42.9688 23.25
L41.1562 23.25
Q41.1094 27.0938 40.1562 28.9062
Q39.2031 30.7188 37.5156 31.6094
Q35.8438 32.5156 32.5156 32.5156
L20.4531 32.5156
L20.4531 11.7188
Q20.4531 6.6875 21.0938 5.07812
Q21.5781 3.85938 23.1406 2.98438
Q25.2969 1.8125 27.6406 1.8125
L30.0312 1.8125
L30.0312 0
L1.60938 0
L1.60938 1.8125
L3.95312 1.8125
Q8.0625 1.8125 9.90625 4.20312
Q11.0781 5.76562 11.0781 11.7188
L11.0781 54.5
Q11.0781 59.5156 10.4531 61.1406
Q9.96875 62.3594 8.45312 63.2344
Q6.34375 64.4062 3.95312 64.4062
L1.60938 64.4062
L1.60938 66.2188
L50.875 66.2188
L51.5156 51.6562
L49.8125 51.6562
Q48.5312 56.2969 46.8438 58.4688
Q45.1719 60.6406 42.7031 61.6094
Q40.2344 62.5938 35.0625 62.5938
z
" id="TimesNewRomanPSMT-46"/>
     <path d="
M57.8594 66.2188
L58.5938 50.6875
L56.7344 50.6875
Q56.2031 54.7812 55.2812 56.5469
Q53.7656 59.375 51.25 60.7188
Q48.7344 62.0625 44.625 62.0625
L35.2969 62.0625
L35.2969 11.4688
Q35.2969 5.375 36.625 3.85938
Q38.4844 1.8125 42.3281 1.8125
L44.625 1.8125
L44.625 0
L16.5469 0
L16.5469 1.8125
L18.8906 1.8125
Q23.0938 1.8125 24.8594 4.34375
Q25.9219 5.90625 25.9219 11.4688
L25.9219 62.0625
L17.9688 62.0625
Q13.3281 62.0625 11.375 61.375
Q8.84375 60.4531 7.03125 57.8125
Q5.21875 55.1719 4.89062 50.6875
L3.03125 50.6875
L3.8125 66.2188
z
" id="TimesNewRomanPSMT-54"/>
     <path d="
M-0.09375 40.2812
L13.6719 45.8438
L15.5312 45.8438
L15.5312 35.4062
Q19 41.3125 22.4844 43.6719
Q25.9844 46.0469 29.8281 46.0469
Q36.5781 46.0469 41.0625 40.7656
Q46.5781 34.3281 46.5781 23.9688
Q46.5781 12.4062 39.9375 4.82812
Q34.4688 -1.375 26.1719 -1.375
Q22.5625 -1.375 19.9219 -0.34375
Q17.9688 0.390625 15.5312 2.59375
L15.5312 -11.0312
Q15.5312 -15.625 16.0938 -16.8594
Q16.6562 -18.1094 18.0469 -18.8438
Q19.4375 -19.5781 23.0938 -19.5781
L23.0938 -21.3906
L-0.34375 -21.3906
L-0.34375 -19.5781
L0.875 -19.5781
Q3.5625 -19.625 5.46875 -18.5625
Q6.39062 -18.0156 6.90625 -16.8125
Q7.42188 -15.625 7.42188 -10.75
L7.42188 31.5469
Q7.42188 35.8906 7.03125 37.0625
Q6.64062 38.2344 5.78125 38.8125
Q4.9375 39.4062 3.46875 39.4062
Q2.29688 39.4062 0.484375 38.7188
z

M15.5312 32.5156
L15.5312 15.8281
Q15.5312 10.4062 15.9688 8.6875
Q16.6562 5.85938 19.3125 3.70312
Q21.9688 1.5625 26.0312 1.5625
Q30.9062 1.5625 33.9375 5.375
Q37.8906 10.3594 37.8906 19.3906
Q37.8906 29.6406 33.4062 35.1562
Q30.2812 38.9688 25.9844 38.9688
Q23.6406 38.9688 21.3438 37.7969
Q19.5781 36.9219 15.5312 32.5156" id="TimesNewRomanPSMT-70"/>
     <path d="
M34.7188 5.03125
Q31.4531 1.60938 28.3281 0.109375
Q25.2031 -1.375 21.5781 -1.375
Q14.2656 -1.375 8.79688 4.75
Q3.32812 10.8906 3.32812 20.5156
Q3.32812 30.125 9.375 38.1094
Q15.4375 46.0938 24.9531 46.0938
Q30.8594 46.0938 34.7188 42.3281
L34.7188 50.5938
Q34.7188 58.25 34.3438 60
Q33.9844 61.7656 33.2031 62.3906
Q32.4219 63.0312 31.25 63.0312
Q29.9844 63.0312 27.875 62.25
L27.25 63.9688
L40.5781 69.4375
L42.7812 69.4375
L42.7812 17.7188
Q42.7812 9.85938 43.1406 8.125
Q43.5 6.39062 44.3125 5.70312
Q45.125 5.03125 46.1875 5.03125
Q47.5156 5.03125 49.7031 5.85938
L50.25 4.15625
L36.9688 -1.375
L34.7188 -1.375
z

M34.7188 8.45312
L34.7188 31.5
Q34.4219 34.8125 32.9531 37.5469
Q31.5 40.2812 29.0781 41.6719
Q26.6562 43.0625 24.3594 43.0625
Q20.0625 43.0625 16.7031 39.2031
Q12.25 34.125 12.25 24.3594
Q12.25 14.5 16.5469 9.25
Q20.8438 4 26.125 4
Q30.5625 4 34.7188 8.45312" id="TimesNewRomanPSMT-64"/>
    </defs>
    <g transform="translate(86.69475 23.04)scale(0.144 -0.144)">
     <use xlink:href="#TimesNewRomanPSMT-46"/>
     <use x="55.615234375" xlink:href="#TimesNewRomanPSMT-72"/>
     <use x="88.916015625" xlink:href="#TimesNewRomanPSMT-65"/>
     <use x="133.30078125" xlink:href="#TimesNewRomanPSMT-71"/>
     <use x="183.30078125" xlink:href="#TimesNewRomanPSMT-75"/>
     <use x="233.30078125" xlink:href="#TimesNewRomanPSMT-65"/>
     <use x="277.685546875" xlink:href="#TimesNewRomanPSMT-6e"/>
     <use x="327.685546875" xlink:href="#TimesNewRomanPSMT-63"/>
     <use x="372.0703125" xlink:href="#TimesNewRomanPSMT-79"/>
     <use x="422.0703125" xlink:href="#TimesNewRomanPSMT-20"/>
     <use x="447.0703125" xlink:href="#TimesNewRomanPSMT-64"/>
     <use x="497.0703125" xlink:href="#TimesNewRomanPSMT-65"/>
     <use x="541.455078125" xlink:href="#TimesNewRomanPSMT-70"/>
     <use x="591.455078125" xlink:href="#TimesNewRomanPSMT-65"/>
     <use x="635.83984375" xlink:href="#TimesNewRomanPSMT-6e"/>
     <use x="685.83984375" xlink:href="#TimesNewRomanPSMT-64"/>
     <use x="735.83984375" xlink:href="#TimesNewRomanPSMT-65"/>
     <use x="780.224609375" xlink:href="#TimesNewRomanPSMT-6e"/>
     <use x="830.224609375" xlink:href="#TimesNewRomanPSMT-63"/>
     <use x="874.609375" xlink:href="#TimesNewRomanPSMT-65"/>
     <use x="918.994140625" xlink:href="#TimesNewRomanPSMT-20"/>
     <use x="943.994140625" xlink:href="#TimesNewRomanPSMT-6f"/>
     <use x="993.994140625" xlink:href="#TimesNewRomanPSMT-66"/>
     <use x="1027.29492188" xlink:href="#TimesNewRomanPSMT-20"/>
     <use x="1052.29492188" xlink:href="#TimesNewRomanPSMT-53"/>
     <use x="1107.91015625" xlink:href="#TimesNewRomanPSMT-54"/>
     <use x="1168.99414062" xlink:href="#TimesNewRomanPSMT-44"/>
     <use x="1241.2109375" xlink:href="#TimesNewRomanPSMT-50"/>
    </g>
   </g>
   <g id="legend_1">
    <g id="patch_7">
     <path d="
M149.096 204.335
L305.54 204.335
L305.54 138.741
L149.096 138.741
L149.096 204.335
z
" style="fill:#ffffff;stroke:#000000;"/>
    </g>
    <g id="LineCollection_5">
     <defs>
      <path d="
M156.796 -99.5094
L156.796 -110.509" id="C4_0_6df077b673"/>
      <path d="
M172.196 -99.5094
L172.196 -110.509" id="C4_1_e864cd0030"/>
     </defs>
     <use style="fill:none;stroke:#999999;stroke-linecap:butt;stroke-width:1.5;" x="0" xlink:href="#C4_0_6df077b673" y="252.0"/>
     <use style="fill:none;stroke:#999999;stroke-linecap:butt;stroke-width:1.5;" x="0" xlink:href="#C4_1_e864cd0030" y="252.0"/>
    </g>
    <g id="line2d_74">
     <g>
      <use style="fill:#999999;stroke:#999999;stroke-linecap:butt;stroke-width:0.5;" x="156.7959375" xlink:href="#m80ec3c0ca7" y="152.490625"/>
      <use style="fill:#999999;stroke:#999999;stroke-linecap:butt;stroke-width:0.5;" x="172.1959375" xlink:href="#m80ec3c0ca7" y="152.490625"/>
     </g>
    </g>
    <g id="line2d_75">
     <g>
      <use style="fill:#999999;stroke:#999999;stroke-linecap:butt;stroke-width:0.5;" x="156.7959375" xlink:href="#m80ec3c0ca7" y="141.490625"/>
      <use style="fill:#999999;stroke:#999999;stroke-linecap:butt;stroke-width:0.5;" x="172.1959375" xlink:href="#m80ec3c0ca7" y="141.490625"/>
     </g>
    </g>
    <g id="line2d_76">
     <path d="
M156.796 146.991
L172.196 146.991" style="fill:none;stroke:#999999;stroke-width:1.5;"/>
    </g>
    <g id="line2d_77">
     <g>
      <use style="fill:#999999;stroke:#000000;stroke-linecap:butt;stroke-width:0.5;" x="156.7959375" xlink:href="#mbd6121ecc1" y="146.990625"/>
      <use style="fill:#999999;stroke:#000000;stroke-linecap:butt;stroke-width:0.5;" x="172.1959375" xlink:href="#mbd6121ecc1" y="146.990625"/>
     </g>
    </g>
    <g id="text_15">
     <!-- Low activity (simulation) -->
     <defs>
      <path d="
M32.0312 46.0469
L32.0312 30.8125
L30.4219 30.8125
Q28.5625 37.9844 25.6562 40.5781
Q22.75 43.1719 18.2656 43.1719
Q14.8438 43.1719 12.7344 41.3594
Q10.6406 39.5469 10.6406 37.3594
Q10.6406 34.625 12.2031 32.6719
Q13.7188 30.6719 18.3594 28.4219
L25.4844 24.9531
Q35.4062 20.125 35.4062 12.2031
Q35.4062 6.10938 30.7812 2.35938
Q26.1719 -1.375 20.4531 -1.375
Q16.3594 -1.375 11.0781 0.09375
Q9.46875 0.59375 8.45312 0.59375
Q7.32812 0.59375 6.6875 -0.6875
L5.07812 -0.6875
L5.07812 15.2812
L6.6875 15.2812
Q8.0625 8.45312 11.9062 4.98438
Q15.7656 1.51562 20.5625 1.51562
Q23.9219 1.51562 26.0469 3.48438
Q28.1719 5.46875 28.1719 8.25
Q28.1719 11.625 25.7969 13.9219
Q23.4375 16.2188 16.3594 19.7344
Q9.28125 23.25 7.07812 26.0781
Q4.89062 28.8594 4.89062 33.1094
Q4.89062 38.625 8.67188 42.3281
Q12.4531 46.0469 18.4531 46.0469
Q21.0938 46.0469 24.8594 44.9219
Q27.3438 44.1875 28.1719 44.1875
Q28.9531 44.1875 29.3906 44.5312
Q29.8281 44.875 30.4219 46.0469
z
" id="TimesNewRomanPSMT-73"/>
      <path d="
M57.3281 18.3125
L58.9375 17.9688
L53.2656 0
L2 0
L2 1.8125
L4.5 1.8125
Q8.6875 1.8125 10.5 4.54688
Q11.5312 6.10938 11.5312 11.7656
L11.5312 54.5
Q11.5312 60.6875 10.1562 62.25
Q8.25 64.4062 4.5 64.4062
L2 64.4062
L2 66.2188
L31.9844 66.2188
L31.9844 64.4062
Q26.7031 64.4531 24.5781 63.4219
Q22.4688 62.4062 21.6875 60.8438
Q20.9062 59.2812 20.9062 53.375
L20.9062 11.7656
Q20.9062 7.71875 21.6875 6.20312
Q22.2656 5.17188 23.4844 4.6875
Q24.7031 4.20312 31.1094 4.20312
L35.9375 4.20312
Q43.5625 4.20312 46.625 5.32812
Q49.7031 6.45312 52.2344 9.29688
Q54.7812 12.1562 57.3281 18.3125" id="TimesNewRomanPSMT-4c"/>
      <path d="
M0.828125 44.7344
L21.875 44.7344
L21.875 42.9219
L20.5156 42.9219
Q18.6094 42.9219 17.6094 41.9844
Q16.6094 41.0625 16.6094 39.5
Q16.6094 37.7969 17.625 35.4531
L28.0312 10.75
L38.4844 36.375
Q39.5938 39.1094 39.5938 40.5312
Q39.5938 41.2188 39.2031 41.6562
Q38.6719 42.3906 37.8438 42.6562
Q37.0156 42.9219 34.4688 42.9219
L34.4688 44.7344
L49.0781 44.7344
L49.0781 42.9219
Q46.5312 42.7188 45.5625 41.8906
Q43.8438 40.4375 42.4844 37.0156
L26.6094 -1.375
L24.6094 -1.375
L8.64062 36.375
Q7.5625 39.0156 6.57812 40.1562
Q5.60938 41.3125 4.10938 42.0938
Q3.26562 42.5312 0.828125 42.9219
z
" id="TimesNewRomanPSMT-76"/>
     </defs>
     <g transform="translate(184.2959375 150.840625)scale(0.11 -0.11)">
      <use xlink:href="#TimesNewRomanPSMT-4c"/>
      <use x="61.083984375" xlink:href="#TimesNewRomanPSMT-6f"/>
      <use x="111.083984375" xlink:href="#TimesNewRomanPSMT-77"/>
      <use x="183.30078125" xlink:href="#TimesNewRomanPSMT-20"/>
      <use x="208.30078125" xlink:href="#TimesNewRomanPSMT-61"/>
      <use x="252.685546875" xlink:href="#TimesNewRomanPSMT-63"/>
      <use x="297.0703125" xlink:href="#TimesNewRomanPSMT-74"/>
      <use x="324.853515625" xlink:href="#TimesNewRomanPSMT-69"/>
      <use x="352.63671875" xlink:href="#TimesNewRomanPSMT-76"/>
      <use x="402.63671875" xlink:href="#TimesNewRomanPSMT-69"/>
      <use x="430.419921875" xlink:href="#TimesNewRomanPSMT-74"/>
      <use x="458.203125" xlink:href="#TimesNewRomanPSMT-79"/>
      <use x="508.203125" xlink:href="#TimesNewRomanPSMT-20"/>
      <use x="533.203125" xlink:href="#TimesNewRomanPSMT-28"/>
      <use x="566.50390625" xlink:href="#TimesNewRomanPSMT-73"/>
      <use x="605.419921875" xlink:href="#TimesNewRomanPSMT-69"/>
      <use x="633.203125" xlink:href="#TimesNewRomanPSMT-6d"/>
      <use x="710.986328125" xlink:href="#TimesNewRomanPSMT-75"/>
      <use x="760.986328125" xlink:href="#TimesNewRomanPSMT-6c"/>
      <use x="788.76953125" xlink:href="#TimesNewRomanPSMT-61"/>
      <use x="833.154296875" xlink:href="#TimesNewRomanPSMT-74"/>
      <use x="860.9375" xlink:href="#TimesNewRomanPSMT-69"/>
      <use x="888.720703125" xlink:href="#TimesNewRomanPSMT-6f"/>
      <use x="938.720703125" xlink:href="#TimesNewRomanPSMT-6e"/>
      <use x="988.720703125" xlink:href="#TimesNewRomanPSMT-29"/>
     </g>
    </g>
    <g id="LineCollection_6">
     <defs>
      <path d="
M156.796 -83.9358
L156.796 -94.9358" id="C5_0_4a448b4661"/>
      <path d="
M172.196 -83.9358
L172.196 -94.9358" id="C5_1_4613ef5e57"/>
     </defs>
     <use style="fill:none;stroke:#999999;stroke-linecap:butt;stroke-width:1.5;" x="0" xlink:href="#C5_0_4a448b4661" y="252.0"/>
     <use style="fill:none;stroke:#999999;stroke-linecap:butt;stroke-width:1.5;" x="0" xlink:href="#C5_1_4613ef5e57" y="252.0"/>
    </g>
    <g id="line2d_78">
     <g>
      <use style="fill:#999999;stroke:#999999;stroke-linecap:butt;stroke-width:0.5;" x="156.7959375" xlink:href="#m80ec3c0ca7" y="168.06421875"/>
      <use style="fill:#999999;stroke:#999999;stroke-linecap:butt;stroke-width:0.5;" x="172.1959375" xlink:href="#m80ec3c0ca7" y="168.06421875"/>
     </g>
    </g>
    <g id="line2d_79">
     <g>
      <use style="fill:#999999;stroke:#999999;stroke-linecap:butt;stroke-width:0.5;" x="156.7959375" xlink:href="#m80ec3c0ca7" y="157.06421875"/>
      <use style="fill:#999999;stroke:#999999;stroke-linecap:butt;stroke-width:0.5;" x="172.1959375" xlink:href="#m80ec3c0ca7" y="157.06421875"/>
     </g>
    </g>
    <g id="line2d_80">
     <path d="
M156.796 162.564
L172.196 162.564" style="fill:none;stroke:#999999;stroke-dasharray:6.000000,6.000000;stroke-dashoffset:0.0;stroke-linecap:butt;stroke-width:1.5;"/>
    </g>
    <g id="line2d_81">
     <g>
      <use style="fill:#ffffff;stroke:#000000;stroke-linecap:butt;stroke-width:0.5;" x="156.7959375" xlink:href="#mff3b5aa225" y="162.56421875"/>
      <use style="fill:#ffffff;stroke:#000000;stroke-linecap:butt;stroke-width:0.5;" x="172.1959375" xlink:href="#mff3b5aa225" y="162.56421875"/>
     </g>
    </g>
    <g id="text_16">
     <!-- Low activity (experiment) -->
     <defs>
      <path d="
M1.3125 44.7344
L22.3594 44.7344
L22.3594 42.9219
Q20.3594 42.9219 19.5469 42.2344
Q18.75 41.5469 18.75 40.4375
Q18.75 39.2656 20.4531 36.8125
Q21 36.0312 22.0781 34.375
L25.25 29.2969
L28.9062 34.375
Q32.4219 39.2031 32.4219 40.4844
Q32.4219 41.5 31.5938 42.2031
Q30.7656 42.9219 28.9062 42.9219
L28.9062 44.7344
L44.0469 44.7344
L44.0469 42.9219
Q41.6562 42.7812 39.8906 41.6094
Q37.5 39.9375 33.3438 34.375
L27.25 26.2188
L38.375 10.2031
Q42.4844 4.29688 44.2344 3.09375
Q46 1.90625 48.7812 1.76562
L48.7812 0
L27.6875 0
L27.6875 1.76562
Q29.8906 1.76562 31.1094 2.73438
Q32.0312 3.42188 32.0312 4.54688
Q32.0312 5.67188 28.9062 10.2031
L22.3594 19.7812
L15.1875 10.2031
Q11.8594 5.76562 11.8594 4.9375
Q11.8594 3.76562 12.9531 2.8125
Q14.0625 1.85938 16.2656 1.76562
L16.2656 0
L1.65625 0
L1.65625 1.76562
Q3.42188 2 4.73438 2.98438
Q6.59375 4.39062 10.9844 10.2031
L20.3594 22.6562
L11.8594 34.9688
Q8.25 40.2344 6.26562 41.5781
Q4.29688 42.9219 1.3125 42.9219
z
" id="TimesNewRomanPSMT-78"/>
     </defs>
     <g transform="translate(184.2959375 166.41421875)scale(0.11 -0.11)">
      <use xlink:href="#TimesNewRomanPSMT-4c"/>
      <use x="61.083984375" xlink:href="#TimesNewRomanPSMT-6f"/>
      <use x="111.083984375" xlink:href="#TimesNewRomanPSMT-77"/>
      <use x="183.30078125" xlink:href="#TimesNewRomanPSMT-20"/>
      <use x="208.30078125" xlink:href="#TimesNewRomanPSMT-61"/>
      <use x="252.685546875" xlink:href="#TimesNewRomanPSMT-63"/>
      <use x="297.0703125" xlink:href="#TimesNewRomanPSMT-74"/>
      <use x="324.853515625" xlink:href="#TimesNewRomanPSMT-69"/>
      <use x="352.63671875" xlink:href="#TimesNewRomanPSMT-76"/>
      <use x="402.63671875" xlink:href="#TimesNewRomanPSMT-69"/>
      <use x="430.419921875" xlink:href="#TimesNewRomanPSMT-74"/>
      <use x="458.203125" xlink:href="#TimesNewRomanPSMT-79"/>
      <use x="508.203125" xlink:href="#TimesNewRomanPSMT-20"/>
      <use x="533.203125" xlink:href="#TimesNewRomanPSMT-28"/>
      <use x="566.50390625" xlink:href="#TimesNewRomanPSMT-65"/>
      <use x="610.888671875" xlink:href="#TimesNewRomanPSMT-78"/>
      <use x="660.888671875" xlink:href="#TimesNewRomanPSMT-70"/>
      <use x="710.888671875" xlink:href="#TimesNewRomanPSMT-65"/>
      <use x="755.2734375" xlink:href="#TimesNewRomanPSMT-72"/>
      <use x="788.57421875" xlink:href="#TimesNewRomanPSMT-69"/>
      <use x="816.357421875" xlink:href="#TimesNewRomanPSMT-6d"/>
      <use x="894.140625" xlink:href="#TimesNewRomanPSMT-65"/>
      <use x="938.525390625" xlink:href="#TimesNewRomanPSMT-6e"/>
      <use x="988.525390625" xlink:href="#TimesNewRomanPSMT-74"/>
      <use x="1016.30859375" xlink:href="#TimesNewRomanPSMT-29"/>
     </g>
    </g>
    <g id="LineCollection_7">
     <defs>
      <path d="
M156.796 -68.3622
L156.796 -79.3622" id="C6_0_3ebe456920"/>
      <path d="
M172.196 -68.3622
L172.196 -79.3622" id="C6_1_f26a0ef40e"/>
     </defs>
     <use style="fill:none;stroke:#000000;stroke-linecap:butt;stroke-width:1.5;" x="0" xlink:href="#C6_0_3ebe456920" y="252.0"/>
     <use style="fill:none;stroke:#000000;stroke-linecap:butt;stroke-width:1.5;" x="0" xlink:href="#C6_1_f26a0ef40e" y="252.0"/>
    </g>
    <g id="line2d_82">
     <g>
      <use style="stroke:#000000;stroke-linecap:butt;stroke-width:0.5;" x="156.7959375" xlink:href="#m057d09ee0a" y="183.6378125"/>
      <use style="stroke:#000000;stroke-linecap:butt;stroke-width:0.5;" x="172.1959375" xlink:href="#m057d09ee0a" y="183.6378125"/>
     </g>
    </g>
    <g id="line2d_83">
     <g>
      <use style="stroke:#000000;stroke-linecap:butt;stroke-width:0.5;" x="156.7959375" xlink:href="#m057d09ee0a" y="172.6378125"/>
      <use style="stroke:#000000;stroke-linecap:butt;stroke-width:0.5;" x="172.1959375" xlink:href="#m057d09ee0a" y="172.6378125"/>
     </g>
    </g>
    <g id="line2d_84">
     <path d="
M156.796 178.138
L172.196 178.138" style="fill:none;stroke:#000000;stroke-width:1.5;"/>
    </g>
    <g id="line2d_85">
     <g>
      <use style="stroke:#000000;stroke-linecap:butt;stroke-width:0.5;" x="156.7959375" xlink:href="#m5e07fe0cb8" y="178.1378125"/>
      <use style="stroke:#000000;stroke-linecap:butt;stroke-width:0.5;" x="172.1959375" xlink:href="#m5e07fe0cb8" y="178.1378125"/>
     </g>
    </g>
    <g id="text_17">
     <!-- High activity (simulation) -->
     <g transform="translate(184.2959375 181.9878125)scale(0.11 -0.11)">
      <use xlink:href="#TimesNewRomanPSMT-48"/>
      <use x="72.216796875" xlink:href="#TimesNewRomanPSMT-69"/>
      <use x="100.0" xlink:href="#TimesNewRomanPSMT-67"/>
      <use x="150.0" xlink:href="#TimesNewRomanPSMT-68"/>
      <use x="200.0" xlink:href="#TimesNewRomanPSMT-20"/>
      <use x="225.0" xlink:href="#TimesNewRomanPSMT-61"/>
      <use x="269.384765625" xlink:href="#TimesNewRomanPSMT-63"/>
      <use x="313.76953125" xlink:href="#TimesNewRomanPSMT-74"/>
      <use x="341.552734375" xlink:href="#TimesNewRomanPSMT-69"/>
      <use x="369.3359375" xlink:href="#TimesNewRomanPSMT-76"/>
      <use x="419.3359375" xlink:href="#TimesNewRomanPSMT-69"/>
      <use x="447.119140625" xlink:href="#TimesNewRomanPSMT-74"/>
      <use x="474.90234375" xlink:href="#TimesNewRomanPSMT-79"/>
      <use x="524.90234375" xlink:href="#TimesNewRomanPSMT-20"/>
      <use x="549.90234375" xlink:href="#TimesNewRomanPSMT-28"/>
      <use x="583.203125" xlink:href="#TimesNewRomanPSMT-73"/>
      <use x="622.119140625" xlink:href="#TimesNewRomanPSMT-69"/>
      <use x="649.90234375" xlink:href="#TimesNewRomanPSMT-6d"/>
      <use x="727.685546875" xlink:href="#TimesNewRomanPSMT-75"/>
      <use x="777.685546875" xlink:href="#TimesNewRomanPSMT-6c"/>
      <use x="805.46875" xlink:href="#TimesNewRomanPSMT-61"/>
      <use x="849.853515625" xlink:href="#TimesNewRomanPSMT-74"/>
      <use x="877.63671875" xlink:href="#TimesNewRomanPSMT-69"/>
      <use x="905.419921875" xlink:href="#TimesNewRomanPSMT-6f"/>
      <use x="955.419921875" xlink:href="#TimesNewRomanPSMT-6e"/>
      <use x="1005.41992188" xlink:href="#TimesNewRomanPSMT-29"/>
     </g>
    </g>
    <g id="LineCollection_8">
     <defs>
      <path d="
M156.796 -52.7886
L156.796 -63.7886" id="C7_0_4c9ea0931d"/>
      <path d="
M172.196 -52.7886
L172.196 -63.7886" id="C7_1_71ae20f738"/>
     </defs>
     <use style="fill:none;stroke:#000000;stroke-linecap:butt;stroke-width:1.5;" x="0" xlink:href="#C7_0_4c9ea0931d" y="252.0"/>
     <use style="fill:none;stroke:#000000;stroke-linecap:butt;stroke-width:1.5;" x="0" xlink:href="#C7_1_71ae20f738" y="252.0"/>
    </g>
    <g id="line2d_86">
     <g>
      <use style="stroke:#000000;stroke-linecap:butt;stroke-width:0.5;" x="156.7959375" xlink:href="#m057d09ee0a" y="199.21140625"/>
      <use style="stroke:#000000;stroke-linecap:butt;stroke-width:0.5;" x="172.1959375" xlink:href="#m057d09ee0a" y="199.21140625"/>
     </g>
    </g>
    <g id="line2d_87">
     <g>
      <use style="stroke:#000000;stroke-linecap:butt;stroke-width:0.5;" x="156.7959375" xlink:href="#m057d09ee0a" y="188.21140625"/>
      <use style="stroke:#000000;stroke-linecap:butt;stroke-width:0.5;" x="172.1959375" xlink:href="#m057d09ee0a" y="188.21140625"/>
     </g>
    </g>
    <g id="line2d_88">
     <path d="
M156.796 193.711
L172.196 193.711" style="fill:none;stroke:#000000;stroke-dasharray:6.000000,6.000000;stroke-dashoffset:0.0;stroke-linecap:butt;stroke-width:1.5;"/>
    </g>
    <g id="line2d_89">
     <g>
      <use style="fill:#ffffff;stroke:#000000;stroke-linecap:butt;stroke-width:0.5;" x="156.7959375" xlink:href="#mff3b5aa225" y="193.71140625"/>
      <use style="fill:#ffffff;stroke:#000000;stroke-linecap:butt;stroke-width:0.5;" x="172.1959375" xlink:href="#mff3b5aa225" y="193.71140625"/>
     </g>
    </g>
    <g id="text_18">
     <!-- High activity (experiment) -->
     <g transform="translate(184.2959375 197.56140625)scale(0.11 -0.11)">
      <use xlink:href="#TimesNewRomanPSMT-48"/>
      <use x="72.216796875" xlink:href="#TimesNewRomanPSMT-69"/>
      <use x="100.0" xlink:href="#TimesNewRomanPSMT-67"/>
      <use x="150.0" xlink:href="#TimesNewRomanPSMT-68"/>
      <use x="200.0" xlink:href="#TimesNewRomanPSMT-20"/>
      <use x="225.0" xlink:href="#TimesNewRomanPSMT-61"/>
      <use x="269.384765625" xlink:href="#TimesNewRomanPSMT-63"/>
      <use x="313.76953125" xlink:href="#TimesNewRomanPSMT-74"/>
      <use x="341.552734375" xlink:href="#TimesNewRomanPSMT-69"/>
      <use x="369.3359375" xlink:href="#TimesNewRomanPSMT-76"/>
      <use x="419.3359375" xlink:href="#TimesNewRomanPSMT-69"/>
      <use x="447.119140625" xlink:href="#TimesNewRomanPSMT-74"/>
      <use x="474.90234375" xlink:href="#TimesNewRomanPSMT-79"/>
      <use x="524.90234375" xlink:href="#TimesNewRomanPSMT-20"/>
      <use x="549.90234375" xlink:href="#TimesNewRomanPSMT-28"/>
      <use x="583.203125" xlink:href="#TimesNewRomanPSMT-65"/>
      <use x="627.587890625" xlink:href="#TimesNewRomanPSMT-78"/>
      <use x="677.587890625" xlink:href="#TimesNewRomanPSMT-70"/>
      <use x="727.587890625" xlink:href="#TimesNewRomanPSMT-65"/>
      <use x="771.97265625" xlink:href="#TimesNewRomanPSMT-72"/>
      <use x="805.2734375" xlink:href="#TimesNewRomanPSMT-69"/>
      <use x="833.056640625" xlink:href="#TimesNewRomanPSMT-6d"/>
      <use x="910.83984375" xlink:href="#TimesNewRomanPSMT-65"/>
      <use x="955.224609375" xlink:href="#TimesNewRomanPSMT-6e"/>
      <use x="1005.22460938" xlink:href="#TimesNewRomanPSMT-74"/>
      <use x="1033.0078125" xlink:href="#TimesNewRomanPSMT-29"/>
     </g>
    </g>
   </g>
  </g>
 </g>
 <defs>
  <clipPath id="p9c04236569">
   <rect height="181.795" width="262.45125" x="48.58875" y="28.04"/>
  </clipPath>
 </defs>
</svg>
