<?xml version="1.0" encoding="utf-8" standalone="no"?>
<!DOCTYPE svg PUBLIC "-//W3C//DTD SVG 1.1//EN"
  "http://www.w3.org/Graphics/SVG/1.1/DTD/svg11.dtd">
<!-- Created with matplotlib (http://matplotlib.org/) -->
<svg height="432pt" version="1.1" viewBox="0 0 576 432" width="576pt" xmlns="http://www.w3.org/2000/svg" xmlns:xlink="http://www.w3.org/1999/xlink">
 <defs>
  <style type="text/css">
*{stroke-linecap:square;stroke-linejoin:round;}
  </style>
 </defs>
 <g id="figure_1">
  <g id="patch_1">
   <path d="
M0 432
L576 432
L576 0
L0 0
z
" style="fill:none;opacity:0.0;"/>
  </g>
  <g id="axes_1">
   <g id="patch_2">
    <path d="
M62.4713 373.972
L548.415 373.972
L548.415 39.56
L62.4713 39.56
z
" style="fill:none;opacity:0.0;"/>
   </g>
   <g id="PolyCollection_1">
    <defs>
     <path d="
M62.4713 -295.848
L62.4713 -380.781
L86.7684 -367.155
L111.066 -293.854
L135.363 -265.526
L159.66 -272.517
L183.957 -258.897
L208.254 -198.357
L232.552 -204.498
L256.849 -207.667
L281.146 -194.912
L305.443 -167.325
L329.74 -172.403
L354.037 -166.965
L378.335 -162.054
L402.632 -140.884
L426.929 -151.888
L451.226 -140.466
L475.523 -158.356
L499.821 -144.687
L524.118 -144.011
L548.415 -124.64
L548.415 -85.8813
L548.415 -85.8813
L524.118 -86.7044
L499.821 -105.146
L475.523 -111.827
L451.226 -92.6486
L426.929 -105.753
L402.632 -112.695
L378.335 -124.838
L354.037 -103.44
L329.74 -122.152
L305.443 -125.016
L281.146 -147.417
L256.849 -139.953
L232.552 -149.002
L208.254 -161.387
L183.957 -208.441
L159.66 -197.663
L135.363 -222.451
L111.066 -231.292
L86.7684 -287.682
L62.4713 -295.848
z
" id="C0_0_2d00453b0b"/>
    </defs>
    <g clip-path="url(#p02063259a8)">
     <use style="fill:#0000ff;opacity:0.3;stroke:#0000ff;stroke-linecap:butt;" x="0" xlink:href="#C0_0_2d00453b0b" y="432.0"/>
    </g>
   </g>
   <g id="PolyCollection_2">
    <defs>
     <path d="
M62.4713 -281.774
L62.4713 -350.77
L86.7684 -319.785
L111.066 -282.001
L135.363 -247.196
L159.66 -213.477
L183.957 -215.712
L208.254 -214.522
L232.552 -181.421
L256.849 -159.055
L281.146 -166.173
L305.443 -178.61
L329.74 -158.879
L354.037 -119.887
L378.335 -115.902
L402.632 -144.228
L426.929 -134.965
L451.226 -103.828
L475.523 -111.62
L499.821 -128.781
L524.118 -104.901
L548.415 -96.983
L548.415 -57.7887
L548.415 -57.7887
L524.118 -66.7546
L499.821 -77.6143
L475.523 -67.5766
L451.226 -62.723
L426.929 -87.8423
L402.632 -93.862
L378.335 -74.0219
L354.037 -75.838
L329.74 -110.081
L305.443 -100.467
L281.146 -108.845
L256.849 -111.387
L232.552 -138.534
L208.254 -139.036
L183.957 -155.262
L159.66 -159.853
L135.363 -206.99
L111.066 -212.764
L86.7684 -248.037
L62.4713 -281.774
z
" id="C1_0_daa65137c3"/>
    </defs>
    <g clip-path="url(#p02063259a8)">
     <use style="fill:#008000;opacity:0.3;stroke:#008000;stroke-linecap:butt;" x="0" xlink:href="#C1_0_daa65137c3" y="432.0"/>
    </g>
   </g>
   <g id="line2d_1">
    <path clip-path="url(#p02063259a8)" d="
M62.4713 326.199
L548.415 326.199" style="fill:none;stroke:#4c4c4c;"/>
   </g>
   <g id="line2d_2">
    <path clip-path="url(#p02063259a8)" d="
M62.4713 93.9621
L86.7684 106.436
L111.066 170.166
L135.363 188.068
L159.66 197.709
L183.957 199.273
L208.254 252.352
L232.552 255.935
L256.849 259.976
L281.146 261.577
L305.443 285.776
L329.74 285.287
L354.037 297.949
L378.335 288.22
L402.632 305.201
L426.929 303.859
L451.226 316.807
L475.523 294.99
L499.821 306.749
L524.118 317.462
L548.415 327.621" style="fill:none;stroke:#0000ff;"/>
   </g>
   <g id="line2d_3">
    <path clip-path="url(#p02063259a8)" d="
M62.4713 326.199
L548.415 326.199" style="fill:none;stroke:#4c4c4c;"/>
   </g>
   <g id="line2d_4">
    <path clip-path="url(#p02063259a8)" d="
M62.4713 115.923
L86.7684 146.972
L111.066 184.262
L135.363 205.409
L159.66 245.451
L183.957 246.442
L208.254 255.667
L232.552 271.478
L256.849 296.785
L281.146 294.748
L305.443 293.565
L329.74 297.978
L354.037 333.893
L378.335 335.52
L402.632 314.151
L426.929 321.423
L451.226 349.524
L475.523 341.098
L499.821 329.447
L524.118 346.566
L548.415 355.09" style="fill:none;stroke:#008000;"/>
   </g>
   <g id="matplotlib.axis_1">
    <g id="xtick_1">
     <g id="line2d_5">
      <defs>
       <path d="
M0 0
L0 -4" id="mcb557df647" style="stroke:#000000;stroke-linecap:butt;stroke-width:0.5;"/>
      </defs>
      <g>
       <use style="stroke:#000000;stroke-linecap:butt;stroke-width:0.5;" x="62.47125" xlink:href="#mcb557df647" y="373.9725"/>
      </g>
     </g>
     <g id="text_1">
      <text style="font-family:Times New Roman;font-size:18.0px;font-style:normal;" transform="translate(58.61671875 390.12875)">0</text>
     </g>
    </g>
    <g id="xtick_2">
     <g id="line2d_6">
      <g>
       <use style="stroke:#000000;stroke-linecap:butt;stroke-width:0.5;" x="123.21421875" xlink:href="#mcb557df647" y="373.9725"/>
      </g>
     </g>
     <g id="text_2">
      <text style="font-family:Times New Roman;font-size:18.0px;font-style:normal;" transform="translate(115.58953125 390.12875)">10</text>
     </g>
    </g>
    <g id="xtick_3">
     <g id="line2d_7">
      <g>
       <use style="stroke:#000000;stroke-linecap:butt;stroke-width:0.5;" x="183.9571875" xlink:href="#mcb557df647" y="373.9725"/>
      </g>
     </g>
     <g id="text_3">
      <text style="font-family:Times New Roman;font-size:18.0px;font-style:normal;" transform="translate(175.471875 390.12875)">20</text>
     </g>
    </g>
    <g id="xtick_4">
     <g id="line2d_8">
      <g>
       <use style="stroke:#000000;stroke-linecap:butt;stroke-width:0.5;" x="244.70015625" xlink:href="#mcb557df647" y="373.9725"/>
      </g>
     </g>
     <g id="text_4">
      <text style="font-family:Times New Roman;font-size:18.0px;font-style:normal;" transform="translate(236.385 390.12875)">30</text>
     </g>
    </g>
    <g id="xtick_5">
     <g id="line2d_9">
      <g>
       <use style="stroke:#000000;stroke-linecap:butt;stroke-width:0.5;" x="305.443125" xlink:href="#mcb557df647" y="373.9725"/>
      </g>
     </g>
     <g id="text_5">
      <text style="font-family:Times New Roman;font-size:18.0px;font-style:normal;" transform="translate(296.904375 390.12875)">40</text>
     </g>
    </g>
    <g id="xtick_6">
     <g id="line2d_10">
      <g>
       <use style="stroke:#000000;stroke-linecap:butt;stroke-width:0.5;" x="366.18609375" xlink:href="#mcb557df647" y="373.9725"/>
      </g>
     </g>
     <g id="text_6">
      <text style="font-family:Times New Roman;font-size:18.0px;font-style:normal;" transform="translate(357.93703125 390.12875)">50</text>
     </g>
    </g>
    <g id="xtick_7">
     <g id="line2d_11">
      <g>
       <use style="stroke:#000000;stroke-linecap:butt;stroke-width:0.5;" x="426.9290625" xlink:href="#mcb557df647" y="373.9725"/>
      </g>
     </g>
     <g id="text_7">
      <text style="font-family:Times New Roman;font-size:18.0px;font-style:normal;" transform="translate(418.63640625 390.12875)">60</text>
     </g>
    </g>
    <g id="xtick_8">
     <g id="line2d_12">
      <g>
       <use style="stroke:#000000;stroke-linecap:butt;stroke-width:0.5;" x="487.67203125" xlink:href="#mcb557df647" y="373.9725"/>
      </g>
     </g>
     <g id="text_8">
      <text style="font-family:Times New Roman;font-size:18.0px;font-style:normal;" transform="translate(479.32734375 390.1340625)">70</text>
     </g>
    </g>
    <g id="xtick_9">
     <g id="line2d_13">
      <g>
       <use style="stroke:#000000;stroke-linecap:butt;stroke-width:0.5;" x="548.415" xlink:href="#mcb557df647" y="373.9725"/>
      </g>
     </g>
     <g id="text_9">
      <text style="font-family:Times New Roman;font-size:18.0px;font-style:normal;" transform="translate(540.28125 390.12875)">80</text>
     </g>
    </g>
    <g id="text_10">
     <text style="font-family:Times New Roman;font-size:18.0px;font-style:normal;" transform="translate(218.34140625 407.87625)">Learning time (seconds)</text>
    </g>
   </g>
   <g id="matplotlib.axis_2">
    <g id="ytick_1">
     <g id="line2d_14">
      <defs>
       <path d="
M0 0
L4 0" id="mc8fcea1516" style="stroke:#000000;stroke-linecap:butt;stroke-width:0.5;"/>
      </defs>
      <g>
       <use style="stroke:#000000;stroke-linecap:butt;stroke-width:0.5;" x="62.47125" xlink:href="#mc8fcea1516" y="373.9725"/>
      </g>
     </g>
     <g id="text_11">
      <text style="font-family:Times New Roman;font-size:18.0px;font-style:normal;" transform="translate(37.394375 379.92828125)">0.9</text>
     </g>
    </g>
    <g id="ytick_2">
     <g id="line2d_15">
      <g>
       <use style="stroke:#000000;stroke-linecap:butt;stroke-width:0.5;" x="62.47125" xlink:href="#mc8fcea1516" y="326.199285714"/>
      </g>
     </g>
     <g id="text_12">
      <text style="font-family:Times New Roman;font-size:18.0px;font-style:normal;" transform="translate(38.721875 332.155066964)">1.0</text>
     </g>
    </g>
    <g id="ytick_3">
     <g id="line2d_16">
      <g>
       <use style="stroke:#000000;stroke-linecap:butt;stroke-width:0.5;" x="62.47125" xlink:href="#mc8fcea1516" y="278.426071429"/>
      </g>
     </g>
     <g id="text_13">
      <text style="font-family:Times New Roman;font-size:18.0px;font-style:normal;" transform="translate(40.2771875 284.381852679)">1.1</text>
     </g>
    </g>
    <g id="ytick_4">
     <g id="line2d_17">
      <g>
       <use style="stroke:#000000;stroke-linecap:butt;stroke-width:0.5;" x="62.47125" xlink:href="#mc8fcea1516" y="230.652857143"/>
      </g>
     </g>
     <g id="text_14">
      <text style="font-family:Times New Roman;font-size:18.0px;font-style:normal;" transform="translate(38.82875 236.608638393)">1.2</text>
     </g>
    </g>
    <g id="ytick_5">
     <g id="line2d_18">
      <g>
       <use style="stroke:#000000;stroke-linecap:butt;stroke-width:0.5;" x="62.47125" xlink:href="#mc8fcea1516" y="182.879642857"/>
      </g>
     </g>
     <g id="text_15">
      <text style="font-family:Times New Roman;font-size:18.0px;font-style:normal;" transform="translate(39.5740625 188.835424107)">1.3</text>
     </g>
    </g>
    <g id="ytick_6">
     <g id="line2d_19">
      <g>
       <use style="stroke:#000000;stroke-linecap:butt;stroke-width:0.5;" x="62.47125" xlink:href="#mc8fcea1516" y="135.106428571"/>
      </g>
     </g>
     <g id="text_16">
      <text style="font-family:Times New Roman;font-size:18.0px;font-style:normal;" transform="translate(38.705 141.062209821)">1.4</text>
     </g>
    </g>
    <g id="ytick_7">
     <g id="line2d_20">
      <g>
       <use style="stroke:#000000;stroke-linecap:butt;stroke-width:0.5;" x="62.47125" xlink:href="#mc8fcea1516" y="87.3332142857"/>
      </g>
     </g>
     <g id="text_17">
      <text style="font-family:Times New Roman;font-size:18.0px;font-style:normal;" transform="translate(39.2675 93.2889955357)">1.5</text>
     </g>
    </g>
    <g id="ytick_8">
     <g id="line2d_21">
      <g>
       <use style="stroke:#000000;stroke-linecap:butt;stroke-width:0.5;" x="62.47125" xlink:href="#mc8fcea1516" y="39.56"/>
      </g>
     </g>
     <g id="text_18">
      <text style="font-family:Times New Roman;font-size:18.0px;font-style:normal;" transform="translate(38.7753125 45.51578125)">1.6</text>
     </g>
    </g>
    <g id="text_19">
     <text style="font-family:Times New Roman;font-size:18.0px;font-style:normal;" transform="translate(32.394375 313.430625)rotate(-90.0)">Error relative to control mean</text>
    </g>
   </g>
   <g id="patch_3">
    <path d="
M62.4713 373.972
L548.415 373.972" style="fill:none;stroke:#000000;"/>
   </g>
   <g id="patch_4">
    <path d="
M62.4713 373.973
L62.4713 39.56" style="fill:none;stroke:#000000;"/>
   </g>
   <g id="text_20">
    <text style="font-family:Times New Roman;font-size:21.6px;font-style:normal;" transform="translate(230.956875 34.470875)">Learning binding</text>
   </g>
   <g id="legend_1">
    <g id="line2d_22">
     <path d="
M372.415 59.72
L394.815 59.72" style="fill:none;stroke:#0000ff;"/>
    </g>
    <g id="line2d_23"/>
    <g id="text_21">
     <!-- Supervised, $S$=1 -->
     <g transform="translate(412.415 68.84)">
      <text>
       <tspan style="font-family:Times New Roman;font-size:16.0px;font-style:regular;" x="0.0 8.8984375 16.8984375 24.8984375 32.0 37.328125 45.328125 49.7734375 56.0 63.1015625 71.1015625 75.1015625 88.90625 97.9296875" y="-4.71875">Supervised, =1</tspan>
       <tspan style="font-family:cmmi10;font-size:16.0px;font-style:regular;" x="79.1015625" y="-4.71875">S</tspan>
      </text>
     </g>
    </g>
    <g id="line2d_24">
     <path d="
M372.415 82.6
L394.815 82.6" style="fill:none;stroke:#008000;"/>
    </g>
    <g id="line2d_25"/>
    <g id="text_22">
     <!-- Combined, $S$=0.73 -->
     <g transform="translate(412.415 90.92)">
      <text>
       <tspan style="font-family:Times New Roman;font-size:16.0px;font-style:regular;" x="0.0 10.671875 18.671875 31.1171875 39.1171875 43.5625 51.5625 58.6640625 66.6640625 70.6640625 84.46875 93.4921875 101.4921875 105.4921875 113.4921875" y="-3.71875">Combined, =0.73</tspan>
       <tspan style="font-family:cmmi10;font-size:16.0px;font-style:regular;" x="74.6640625" y="-3.71875">S</tspan>
      </text>
     </g>
    </g>
   </g>
  </g>
 </g>
 <defs>
  <clipPath id="p02063259a8">
   <rect height="334.4125" width="485.94375" x="62.47125" y="39.56"/>
  </clipPath>
 </defs>
</svg>
