<?xml version="1.0" encoding="utf-8" standalone="no"?>
<!DOCTYPE svg PUBLIC "-//W3C//DTD SVG 1.1//EN"
  "http://www.w3.org/Graphics/SVG/1.1/DTD/svg11.dtd">
<!-- Created with matplotlib (http://matplotlib.org/) -->
<svg height="288pt" version="1.1" viewBox="0 0 432 288" width="432pt" xmlns="http://www.w3.org/2000/svg" xmlns:xlink="http://www.w3.org/1999/xlink">
 <defs>
  <style type="text/css">
*{stroke-linecap:square;stroke-linejoin:round;}
  </style>
 </defs>
 <g id="figure_1">
  <g id="patch_1">
   <path d="
M0 288
L432 288
L432 0
L0 0
z
" style="fill:#ffffff;"/>
  </g>
  <g id="axes_1">
   <g id="patch_2">
    <path d="
M224.744 245.835
L404.859 245.835
L404.859 28.04
L224.744 28.04
z
" style="fill:#ffffff;"/>
   </g>
   <g id="PolyCollection_1">
    <defs>
     <path d="
M224.744 -174.987
L224.744 -186.807
L227.746 -216.167
L230.748 -177.891
L233.749 -146.837
L236.751 -136.945
L239.753 -116.988
L242.755 -118.053
L245.757 -112.264
L248.759 -106.19
L251.761 -102.337
L254.763 -96.9415
L257.765 -89.5056
L260.767 -99.5139
L263.769 -84.1719
L266.771 -88.5111
L269.772 -85.4359
L272.774 -84.8553
L275.776 -82.9383
L278.778 -81.0689
L281.78 -78.5708
L284.782 -87.5437
L287.784 -75.1617
L290.786 -79.3034
L293.788 -77.8705
L296.79 -77.6435
L299.792 -78.1792
L302.794 -74.8394
L305.795 -73.4374
L308.797 -81.0249
L311.799 -72.2856
L314.801 -76.5835
L317.803 -73.8574
L320.805 -72.4699
L323.807 -74.8205
L326.809 -73.0336
L329.811 -71.4451
L332.813 -77.4971
L335.815 -72.4437
L338.817 -75.2187
L341.818 -72.6071
L344.82 -70.8032
L347.822 -76.4391
L350.824 -69.9158
L353.826 -70.8265
L356.828 -75.1698
L359.83 -72.3449
L362.832 -74.6316
L365.834 -72.6368
L368.836 -70.7605
L371.838 -76.3506
L374.84 -69.3784
L377.841 -71.2632
L380.843 -72.0758
L383.845 -71.009
L386.847 -73.885
L389.849 -72.0105
L392.851 -68.8562
L395.853 -75.013
L398.855 -67.7561
L401.857 -71.0439
L404.859 -71.8375
L404.859 -68.7378
L404.859 -68.7378
L401.857 -65.3711
L398.855 -64.1192
L395.853 -69.2223
L392.851 -63.6875
L389.849 -66.581
L386.847 -67.9091
L383.845 -65.5029
L380.843 -68.3552
L377.841 -66.2082
L374.84 -64.6507
L371.838 -69.8664
L368.836 -64.5864
L365.834 -68.1334
L362.832 -68.3939
L359.83 -65.602
L356.828 -69.6851
L353.826 -66.516
L350.824 -65.1757
L347.822 -69.6362
L344.82 -65.2027
L341.818 -68.7494
L338.817 -69.7175
L335.815 -66.4235
L332.813 -70.6555
L329.811 -67.0577
L326.809 -66.5587
L323.807 -69.7431
L320.805 -66.8152
L317.803 -69.7113
L314.801 -70.4721
L311.799 -67.3589
L308.797 -71.5713
L305.795 -67.7827
L302.794 -67.8609
L299.792 -71.3588
L296.79 -70.2901
L293.788 -71.6482
L290.786 -72.0406
L287.784 -68.9963
L284.782 -75.2196
L281.78 -70.8246
L278.778 -71.0354
L275.776 -73.9927
L272.774 -76.2561
L269.772 -76.9786
L266.771 -77.7803
L263.769 -74.0961
L260.767 -82.4232
L257.765 -78.6505
L254.763 -82.5559
L251.761 -85.7643
L248.759 -92.1043
L245.757 -99.9443
L242.755 -101.86
L239.753 -98.2385
L236.751 -117.175
L233.749 -124.9
L230.748 -152.091
L227.746 -194.465
L224.744 -174.987
z
" id="C0_0_e7abf1d51d"/>
    </defs>
    <g clip-path="url(#pe9e1523a67)">
     <use style="fill:#0000ff;opacity:0.3;stroke:#0000ff;stroke-linecap:butt;" x="0" xlink:href="#C0_0_e7abf1d51d" y="288.0"/>
    </g>
   </g>
   <g id="PolyCollection_2">
    <defs>
     <path d="
M224.744 -175.573
L224.744 -193.967
L227.746 -242.422
L230.748 -182.464
L233.749 -149.345
L236.751 -138.46
L239.753 -129.327
L242.755 -116.333
L245.757 -108.307
L248.759 -101.673
L251.761 -104.317
L254.763 -91.8346
L257.765 -87.7622
L260.767 -94.6602
L263.769 -92.1315
L266.771 -83.8889
L269.772 -86.9939
L272.774 -81.6721
L275.776 -83.521
L278.778 -79.3255
L281.78 -77.838
L284.782 -84.5822
L287.784 -80.04
L290.786 -78.2999
L293.788 -78.9247
L296.79 -75.3091
L299.792 -78.6123
L302.794 -75.5827
L305.795 -73.8829
L308.797 -81.3273
L311.799 -74.9981
L314.801 -75.8583
L317.803 -75.8021
L320.805 -73.9455
L323.807 -75.7413
L326.809 -75.1112
L329.811 -71.6238
L332.813 -77.8926
L335.815 -73.276
L338.817 -72.5315
L341.818 -74.5338
L344.82 -71.8779
L347.822 -73.9325
L350.824 -73.965
L353.826 -70.622
L356.828 -76.2029
L359.83 -71.919
L362.832 -72.1839
L365.834 -73.3857
L368.836 -70.768
L371.838 -73.6487
L374.84 -72.2796
L377.841 -69.3396
L380.843 -74.4823
L383.845 -70.6782
L386.847 -71.7455
L389.849 -71.2917
L392.851 -70.2244
L395.853 -71.5705
L398.855 -71.9412
L401.857 -68.3603
L404.859 -74.6595
L404.859 -67.3647
L404.859 -67.3647
L401.857 -65.0518
L398.855 -66.3975
L395.853 -67.4559
L392.851 -65.5523
L389.849 -67.3486
L386.847 -67.3703
L383.845 -66.6276
L380.843 -67.6856
L377.841 -65.7843
L374.84 -67.6363
L371.838 -68.5727
L368.836 -66.5369
L365.834 -68.7195
L362.832 -67.666
L359.83 -67.7888
L356.828 -68.7918
L353.826 -66.2143
L350.824 -68.1129
L347.822 -69.4933
L344.82 -67.1585
L341.818 -68.6718
L338.817 -68.3883
L335.815 -68.5257
L332.813 -70.0387
L329.811 -67.606
L326.809 -69.1042
L323.807 -70.1966
L320.805 -68.8942
L317.803 -70.359
L314.801 -70.7978
L311.799 -70.4118
L308.797 -72.8971
L305.795 -68.8225
L302.794 -70.4449
L299.792 -71.5173
L296.79 -69.7185
L293.788 -72.8397
L290.786 -72.407
L287.784 -73.317
L284.782 -76.8636
L281.78 -71.6759
L278.778 -73.2064
L275.776 -75.2288
L272.774 -72.5375
L269.772 -76.7031
L266.771 -77.6089
L263.769 -78.8532
L260.767 -82.5241
L257.765 -80.5193
L254.763 -82.6831
L251.761 -85.6876
L248.759 -87.2788
L245.757 -89.0588
L242.755 -99.1653
L239.753 -100.946
L236.751 -118.938
L233.749 -121.95
L230.748 -148.868
L227.746 -202.378
L224.744 -175.573
z
" id="C1_0_dd26e7828a"/>
    </defs>
    <g clip-path="url(#pe9e1523a67)">
     <use style="fill:#008000;opacity:0.3;stroke:#008000;stroke-linecap:butt;" x="0" xlink:href="#C1_0_dd26e7828a" y="288.0"/>
    </g>
   </g>
   <g id="line2d_1">
    <path clip-path="url(#pe9e1523a67)" d="
M224.744 224.055
L404.859 224.055" style="fill:none;stroke:#4c4c4c;"/>
   </g>
   <g id="line2d_2">
    <path clip-path="url(#pe9e1523a67)" d="
M224.744 107.348
L227.746 83.1116
L230.748 123.092
L233.749 152.047
L236.751 160.749
L239.753 180.717
L242.755 178.335
L245.757 182.119
L248.759 189.066
L251.761 194.241
L254.763 198.66
L257.765 204.178
L260.767 197.641
L263.769 209.407
L266.771 205.062
L269.772 206.814
L272.774 207.506
L275.776 209.633
L278.778 212.27
L281.78 213.537
L284.782 206.776
L287.784 216.003
L290.786 212.449
L293.788 213.414
L296.79 214.129
L299.792 213.261
L302.794 216.718
L305.795 217.445
L308.797 211.767
L311.799 218.282
L314.801 214.645
L317.803 216.278
L320.805 218.478
L323.807 215.523
L326.809 218.353
L329.811 218.73
L332.813 214.107
L335.815 218.684
L338.817 215.65
L341.818 217.307
L344.82 220.032
L347.822 214.974
L350.824 220.449
L353.826 219.379
L356.828 215.917
L359.83 219.25
L362.832 216.598
L365.834 217.554
L368.836 220.359
L371.838 214.927
L374.84 221.067
L377.841 219.417
L380.843 217.906
L383.845 220.099
L386.847 217.242
L389.849 218.747
L392.851 221.832
L395.853 215.91
L398.855 222.043
L401.857 219.973
L404.859 217.705" style="fill:none;stroke:#0000ff;"/>
   </g>
   <g id="line2d_3">
    <path clip-path="url(#pe9e1523a67)" d="
M224.744 224.055
L404.859 224.055" style="fill:none;stroke:#4c4c4c;"/>
   </g>
   <g id="line2d_4">
    <path clip-path="url(#pe9e1523a67)" d="
M224.744 103.23
L227.746 65.1494
L230.748 122.812
L233.749 154.193
L236.751 160.1
L239.753 173.982
L242.755 180.565
L245.757 190.027
L248.759 193.971
L251.761 193.914
L254.763 200.636
L257.765 204.103
L260.767 199.896
L263.769 202.889
L266.771 207.379
L269.772 206.524
L272.774 211.108
L275.776 209.224
L278.778 211.69
L281.78 213.39
L284.782 207.413
L287.784 211.368
L290.786 212.952
L293.788 212.184
L296.79 215.657
L299.792 213.201
L302.794 214.916
L305.795 216.687
L308.797 211.047
L311.799 215.251
L314.801 214.849
L317.803 215.035
L320.805 216.868
L323.807 215.223
L326.809 215.884
L329.811 218.379
L332.813 214.16
L335.815 217.159
L338.817 217.548
L341.818 216.482
L344.82 218.676
L347.822 216.27
L350.824 216.882
L353.826 219.802
L356.828 215.517
L359.83 218.215
L362.832 218.081
L365.834 216.942
L368.836 219.442
L371.838 216.883
L374.84 218.089
L377.841 220.502
L380.843 216.904
L383.845 219.346
L386.847 218.432
L389.849 218.674
L392.851 220.282
L395.853 218.459
L398.855 218.921
L401.857 221.289
L404.859 217.031" style="fill:none;stroke:#008000;"/>
   </g>
   <g id="matplotlib.axis_1">
    <g id="xtick_1">
     <g id="line2d_5">
      <defs>
       <path d="
M0 0
L0 -4" id="mcb557df647" style="stroke:#000000;stroke-linecap:butt;stroke-width:0.5;"/>
      </defs>
      <g>
       <use style="stroke:#000000;stroke-linecap:butt;stroke-width:0.5;" x="224.74375" xlink:href="#mcb557df647" y="245.835"/>
      </g>
     </g>
     <g id="line2d_6">
      <defs>
       <path d="
M0 0
L0 4" id="mdad270ee8e" style="stroke:#000000;stroke-linecap:butt;stroke-width:0.5;"/>
      </defs>
      <g>
       <use style="stroke:#000000;stroke-linecap:butt;stroke-width:0.5;" x="224.74375" xlink:href="#mdad270ee8e" y="28.04"/>
      </g>
     </g>
     <g id="text_1">
      <!-- 0 -->
      <defs>
       <path d="
M3.60938 32.7188
Q3.60938 44.0469 7.03125 52.2188
Q10.4531 60.4062 16.1094 64.4062
Q20.5156 67.5781 25.2031 67.5781
Q32.8125 67.5781 38.875 59.8125
Q46.4375 50.2031 46.4375 33.7344
Q46.4375 22.2188 43.1094 14.1562
Q39.7969 6.10938 34.6406 2.46875
Q29.5 -1.17188 24.7031 -1.17188
Q15.2344 -1.17188 8.9375 10.0156
Q3.60938 19.4375 3.60938 32.7188
M13.1875 31.5
Q13.1875 17.8281 16.5469 9.1875
Q19.3438 1.90625 24.8594 1.90625
Q27.4844 1.90625 30.3125 4.26562
Q33.1562 6.64062 34.625 12.2031
Q36.8594 20.6094 36.8594 35.8906
Q36.8594 47.2188 34.5156 54.7812
Q32.7656 60.4062 29.9844 62.75
Q27.9844 64.3594 25.1406 64.3594
Q21.8281 64.3594 19.2344 61.375
Q15.7188 57.3281 14.4531 48.625
Q13.1875 39.9375 13.1875 31.5" id="TimesNewRomanPSMT-30"/>
      </defs>
      <g transform="translate(222.1740625 257.944375)scale(0.12 -0.12)">
       <use xlink:href="#TimesNewRomanPSMT-30"/>
      </g>
     </g>
    </g>
    <g id="xtick_2">
     <g id="line2d_7">
      <g>
       <use style="stroke:#000000;stroke-linecap:butt;stroke-width:0.5;" x="254.762916667" xlink:href="#mcb557df647" y="245.835"/>
      </g>
     </g>
     <g id="line2d_8">
      <g>
       <use style="stroke:#000000;stroke-linecap:butt;stroke-width:0.5;" x="254.762916667" xlink:href="#mdad270ee8e" y="28.04"/>
      </g>
     </g>
     <g id="text_2">
      <!-- 5 -->
      <defs>
       <path d="
M43.4062 66.2188
L39.5938 57.9062
L19.6719 57.9062
L15.3281 49.0312
Q28.2656 47.125 35.8438 39.4062
Q42.3281 32.7656 42.3281 23.7812
Q42.3281 18.5625 40.2031 14.1094
Q38.0938 9.67188 34.8594 6.54688
Q31.6406 3.42188 27.6875 1.51562
Q22.0781 -1.17188 16.1562 -1.17188
Q10.2031 -1.17188 7.48438 0.84375
Q4.78125 2.875 4.78125 5.32812
Q4.78125 6.6875 5.90625 7.73438
Q7.03125 8.79688 8.73438 8.79688
Q10.0156 8.79688 10.9688 8.40625
Q11.9219 8.01562 14.2031 6.39062
Q17.875 3.85938 21.625 3.85938
Q27.3438 3.85938 31.6562 8.17188
Q35.9844 12.5 35.9844 18.7031
Q35.9844 24.7031 32.125 29.9062
Q28.2656 35.1094 21.4844 37.9375
Q16.1562 40.1406 6.98438 40.4844
L19.6719 66.2188
z
" id="TimesNewRomanPSMT-35"/>
      </defs>
      <g transform="translate(252.445416667 257.78125)scale(0.12 -0.12)">
       <use xlink:href="#TimesNewRomanPSMT-35"/>
      </g>
     </g>
    </g>
    <g id="xtick_3">
     <g id="line2d_9">
      <g>
       <use style="stroke:#000000;stroke-linecap:butt;stroke-width:0.5;" x="284.782083333" xlink:href="#mcb557df647" y="245.835"/>
      </g>
     </g>
     <g id="line2d_10">
      <g>
       <use style="stroke:#000000;stroke-linecap:butt;stroke-width:0.5;" x="284.782083333" xlink:href="#mdad270ee8e" y="28.04"/>
      </g>
     </g>
     <g id="text_3">
      <!-- 10 -->
      <defs>
       <path d="
M11.7188 59.7188
L27.8281 67.5781
L29.4375 67.5781
L29.4375 11.6719
Q29.4375 6.10938 29.9062 4.73438
Q30.375 3.375 31.8281 2.64062
Q33.2969 1.90625 37.7969 1.8125
L37.7969 0
L12.8906 0
L12.8906 1.8125
Q17.5781 1.90625 18.9375 2.60938
Q20.3125 3.32812 20.8438 4.51562
Q21.3906 5.71875 21.3906 11.6719
L21.3906 47.4062
Q21.3906 54.6406 20.9062 56.6875
Q20.5625 58.25 19.6562 58.9844
Q18.75 59.7188 17.4844 59.7188
Q15.6719 59.7188 12.4531 58.2031
z
" id="TimesNewRomanPSMT-31"/>
      </defs>
      <g transform="translate(279.698958333 257.944375)scale(0.12 -0.12)">
       <use xlink:href="#TimesNewRomanPSMT-31"/>
       <use x="50.0" xlink:href="#TimesNewRomanPSMT-30"/>
      </g>
     </g>
    </g>
    <g id="xtick_4">
     <g id="line2d_11">
      <g>
       <use style="stroke:#000000;stroke-linecap:butt;stroke-width:0.5;" x="314.80125" xlink:href="#mcb557df647" y="245.835"/>
      </g>
     </g>
     <g id="line2d_12">
      <g>
       <use style="stroke:#000000;stroke-linecap:butt;stroke-width:0.5;" x="314.80125" xlink:href="#mdad270ee8e" y="28.04"/>
      </g>
     </g>
     <g id="text_4">
      <!-- 15 -->
      <g transform="translate(309.9 257.944375)scale(0.12 -0.12)">
       <use xlink:href="#TimesNewRomanPSMT-31"/>
       <use x="50.0" xlink:href="#TimesNewRomanPSMT-35"/>
      </g>
     </g>
    </g>
    <g id="xtick_5">
     <g id="line2d_13">
      <g>
       <use style="stroke:#000000;stroke-linecap:butt;stroke-width:0.5;" x="344.820416667" xlink:href="#mcb557df647" y="245.835"/>
      </g>
     </g>
     <g id="line2d_14">
      <g>
       <use style="stroke:#000000;stroke-linecap:butt;stroke-width:0.5;" x="344.820416667" xlink:href="#mdad270ee8e" y="28.04"/>
      </g>
     </g>
     <g id="text_5">
      <!-- 20 -->
      <defs>
       <path d="
M45.8438 12.75
L41.2188 0
L2.15625 0
L2.15625 1.8125
Q19.3906 17.5312 26.4219 27.4844
Q33.4531 37.4531 33.4531 45.7031
Q33.4531 52 29.5938 56.0469
Q25.7344 60.1094 20.3594 60.1094
Q15.4844 60.1094 11.5938 57.25
Q7.71875 54.3906 5.85938 48.875
L4.04688 48.875
Q5.28125 57.9062 10.3281 62.7344
Q15.375 67.5781 22.9531 67.5781
Q31 67.5781 36.3906 62.4062
Q41.7969 57.2344 41.7969 50.2031
Q41.7969 45.1719 39.4531 40.1406
Q35.8438 32.2344 27.7344 23.3906
Q15.5781 10.1094 12.5469 7.375
L29.8281 7.375
Q35.1094 7.375 37.2344 7.76562
Q39.3594 8.15625 41.0625 9.34375
Q42.7812 10.5469 44.0469 12.75
z
" id="TimesNewRomanPSMT-32"/>
      </defs>
      <g transform="translate(339.163541667 257.944375)scale(0.12 -0.12)">
       <use xlink:href="#TimesNewRomanPSMT-32"/>
       <use x="50.0" xlink:href="#TimesNewRomanPSMT-30"/>
      </g>
     </g>
    </g>
    <g id="xtick_6">
     <g id="line2d_15">
      <g>
       <use style="stroke:#000000;stroke-linecap:butt;stroke-width:0.5;" x="374.839583333" xlink:href="#mcb557df647" y="245.835"/>
      </g>
     </g>
     <g id="line2d_16">
      <g>
       <use style="stroke:#000000;stroke-linecap:butt;stroke-width:0.5;" x="374.839583333" xlink:href="#mdad270ee8e" y="28.04"/>
      </g>
     </g>
     <g id="text_6">
      <!-- 25 -->
      <g transform="translate(369.364583333 257.944375)scale(0.12 -0.12)">
       <use xlink:href="#TimesNewRomanPSMT-32"/>
       <use x="50.0" xlink:href="#TimesNewRomanPSMT-35"/>
      </g>
     </g>
    </g>
    <g id="xtick_7">
     <g id="line2d_17">
      <g>
       <use style="stroke:#000000;stroke-linecap:butt;stroke-width:0.5;" x="404.85875" xlink:href="#mcb557df647" y="245.835"/>
      </g>
     </g>
     <g id="line2d_18">
      <g>
       <use style="stroke:#000000;stroke-linecap:butt;stroke-width:0.5;" x="404.85875" xlink:href="#mdad270ee8e" y="28.04"/>
      </g>
     </g>
     <g id="text_7">
      <!-- 30 -->
      <defs>
       <path d="
M5.07812 53.6094
Q7.90625 60.2969 12.2188 63.9375
Q16.5469 67.5781 23 67.5781
Q30.9531 67.5781 35.2031 62.4062
Q38.4219 58.5469 38.4219 54.1562
Q38.4219 46.9219 29.3438 39.2031
Q35.4531 36.8125 38.5781 32.375
Q41.7031 27.9375 41.7031 21.9219
Q41.7031 13.3281 36.2344 7.03125
Q29.1094 -1.17188 15.5781 -1.17188
Q8.89062 -1.17188 6.46875 0.484375
Q4.04688 2.15625 4.04688 4.04688
Q4.04688 5.46875 5.1875 6.54688
Q6.34375 7.625 7.95312 7.625
Q9.1875 7.625 10.4531 7.23438
Q11.2812 6.98438 14.2031 5.4375
Q17.1406 3.90625 18.2656 3.60938
Q20.0625 3.07812 22.125 3.07812
Q27.0938 3.07812 30.7812 6.9375
Q34.4688 10.7969 34.4688 16.0625
Q34.4688 19.9219 32.7656 23.5781
Q31.5 26.3125 29.9844 27.7344
Q27.875 29.6875 24.2188 31.2656
Q20.5625 32.8594 16.75 32.8594
L15.1875 32.8594
L15.1875 34.3281
Q19.0469 34.8125 22.9219 37.1094
Q26.8125 39.4062 28.5625 42.625
Q30.3281 45.8438 30.3281 49.7031
Q30.3281 54.7344 27.1719 57.8281
Q24.0312 60.9375 19.3438 60.9375
Q11.7656 60.9375 6.6875 52.8281
z
" id="TimesNewRomanPSMT-33"/>
      </defs>
      <g transform="translate(399.3153125 257.944375)scale(0.12 -0.12)">
       <use xlink:href="#TimesNewRomanPSMT-33"/>
       <use x="50.0" xlink:href="#TimesNewRomanPSMT-30"/>
      </g>
     </g>
    </g>
    <g id="text_8">
     <!-- Learning time (seconds) -->
     <defs>
      <path d="
M31.0625 -19.5781
L31.0625 -21.3906
Q23.6875 -17.6719 18.75 -12.7031
Q11.7188 -5.60938 7.90625 4
Q4.10938 13.625 4.10938 23.9688
Q4.10938 39.1094 11.5781 51.5781
Q19.0469 64.0625 31.0625 69.4375
L31.0625 67.3906
Q25.0469 64.0625 21.1875 58.2969
Q17.3281 52.5469 15.4219 43.7031
Q13.5312 34.8594 13.5312 25.25
Q13.5312 14.7969 15.1406 6.25
Q16.4062 -0.484375 18.2031 -4.5625
Q20.0156 -8.64062 23.0625 -12.3906
Q26.125 -16.1562 31.0625 -19.5781" id="TimesNewRomanPSMT-28"/>
      <path d="
M57.3281 18.3125
L58.9375 17.9688
L53.2656 0
L2 0
L2 1.8125
L4.5 1.8125
Q8.6875 1.8125 10.5 4.54688
Q11.5312 6.10938 11.5312 11.7656
L11.5312 54.5
Q11.5312 60.6875 10.1562 62.25
Q8.25 64.4062 4.5 64.4062
L2 64.4062
L2 66.2188
L31.9844 66.2188
L31.9844 64.4062
Q26.7031 64.4531 24.5781 63.4219
Q22.4688 62.4062 21.6875 60.8438
Q20.9062 59.2812 20.9062 53.375
L20.9062 11.7656
Q20.9062 7.71875 21.6875 6.20312
Q22.2656 5.17188 23.4844 4.6875
Q24.7031 4.20312 31.1094 4.20312
L35.9375 4.20312
Q43.5625 4.20312 46.625 5.32812
Q49.7031 6.45312 52.2344 9.29688
Q54.7812 12.1562 57.3281 18.3125" id="TimesNewRomanPSMT-4c"/>
      <path d="
M25 46.0469
Q35.1562 46.0469 41.3125 38.3281
Q46.5312 31.7344 46.5312 23.1875
Q46.5312 17.1875 43.6406 11.0312
Q40.7656 4.89062 35.7188 1.75
Q30.6719 -1.375 24.4688 -1.375
Q14.3594 -1.375 8.40625 6.6875
Q3.375 13.4844 3.375 21.9219
Q3.375 28.0781 6.42188 34.1562
Q9.46875 40.2344 14.4531 43.1406
Q19.4375 46.0469 25 46.0469
M23.4844 42.875
Q20.9062 42.875 18.2812 41.3281
Q15.6719 39.7969 14.0625 35.9375
Q12.4531 32.0781 12.4531 26.0312
Q12.4531 16.2656 16.3281 9.17188
Q20.2188 2.09375 26.5625 2.09375
Q31.2969 2.09375 34.375 6
Q37.4531 9.90625 37.4531 19.4375
Q37.4531 31.3438 32.3281 38.1875
Q28.8594 42.875 23.4844 42.875" id="TimesNewRomanPSMT-6f"/>
      <path id="TimesNewRomanPSMT-20"/>
      <path d="
M16.1562 36.5781
Q24.0312 46.0469 31.1562 46.0469
Q34.8125 46.0469 37.4531 44.2188
Q40.0938 42.3906 41.6562 38.1875
Q42.7188 35.25 42.7188 29.2031
L42.7188 10.1094
Q42.7188 5.85938 43.4062 4.34375
Q43.9531 3.125 45.1406 2.4375
Q46.3438 1.76562 49.5625 1.76562
L49.5625 0
L27.4375 0
L27.4375 1.76562
L28.375 1.76562
Q31.5 1.76562 32.7344 2.70312
Q33.9844 3.65625 34.4688 5.51562
Q34.6719 6.25 34.6719 10.1094
L34.6719 28.4219
Q34.6719 34.5156 33.0781 37.2812
Q31.5 40.0469 27.7344 40.0469
Q21.9219 40.0469 16.1562 33.6875
L16.1562 10.1094
Q16.1562 5.5625 16.7031 4.5
Q17.3906 3.07812 18.5781 2.42188
Q19.7812 1.76562 23.4375 1.76562
L23.4375 0
L1.3125 0
L1.3125 1.76562
L2.29688 1.76562
Q5.71875 1.76562 6.90625 3.48438
Q8.10938 5.21875 8.10938 10.1094
L8.10938 26.7031
Q8.10938 34.7656 7.73438 36.5156
Q7.375 38.2812 6.60938 38.9062
Q5.85938 39.5469 4.59375 39.5469
Q3.21875 39.5469 1.3125 38.8125
L0.59375 40.5781
L14.0625 46.0469
L16.1562 46.0469
z
" id="TimesNewRomanPSMT-6e"/>
      <path d="
M16.4062 36.5312
Q21.2969 41.4062 22.1719 42.1406
Q24.3594 44 26.8906 45.0156
Q29.4375 46.0469 31.9375 46.0469
Q36.1406 46.0469 39.1562 43.5938
Q42.1875 41.1562 43.2188 36.5312
Q48.25 42.3906 51.7031 44.2188
Q55.1719 46.0469 58.8438 46.0469
Q62.4062 46.0469 65.1562 44.2188
Q67.9219 42.3906 69.5312 38.2344
Q70.6094 35.4062 70.6094 29.3438
L70.6094 10.1094
Q70.6094 5.90625 71.2344 4.34375
Q71.7344 3.26562 73.0469 2.51562
Q74.3594 1.76562 77.3438 1.76562
L77.3438 0
L55.2812 0
L55.2812 1.76562
L56.2031 1.76562
Q59.0781 1.76562 60.6875 2.875
Q61.8125 3.65625 62.3125 5.375
Q62.5 6.20312 62.5 10.1094
L62.5 29.3438
Q62.5 34.8125 61.1875 37.0625
Q59.2812 40.1875 55.0781 40.1875
Q52.4844 40.1875 49.875 38.8906
Q47.2656 37.5938 43.5625 34.0781
L43.4531 33.5469
L43.5625 31.4531
L43.5625 10.1094
Q43.5625 5.51562 44.0625 4.39062
Q44.5781 3.26562 45.9844 2.51562
Q47.4062 1.76562 50.8281 1.76562
L50.8281 0
L28.2188 0
L28.2188 1.76562
Q31.9375 1.76562 33.3281 2.64062
Q34.7188 3.51562 35.25 5.28125
Q35.5 6.10938 35.5 10.1094
L35.5 29.3438
Q35.5 34.8125 33.8906 37.2031
Q31.7344 40.3281 27.875 40.3281
Q25.25 40.3281 22.6562 38.9219
Q18.6094 36.7656 16.4062 34.0781
L16.4062 10.1094
Q16.4062 5.71875 17.0156 4.39062
Q17.625 3.07812 18.8125 2.42188
Q20.0156 1.76562 23.6875 1.76562
L23.6875 0
L1.5625 0
L1.5625 1.76562
Q4.64062 1.76562 5.85938 2.42188
Q7.07812 3.07812 7.70312 4.51562
Q8.34375 5.95312 8.34375 10.1094
L8.34375 27.2031
Q8.34375 34.5781 7.90625 36.7188
Q7.5625 38.3281 6.82812 38.9375
Q6.10938 39.5469 4.82812 39.5469
Q3.46875 39.5469 1.5625 38.8125
L0.828125 40.5781
L14.3125 46.0469
L16.4062 46.0469
z
" id="TimesNewRomanPSMT-6d"/>
      <path d="
M41.1094 17
Q39.3125 8.15625 34.0312 3.39062
Q28.7656 -1.375 22.3594 -1.375
Q14.75 -1.375 9.07812 5.01562
Q3.42188 11.4219 3.42188 22.3125
Q3.42188 32.8594 9.6875 39.4531
Q15.9688 46.0469 24.75 46.0469
Q31.3438 46.0469 35.5938 42.5469
Q39.8438 39.0625 39.8438 35.2969
Q39.8438 33.4531 38.6406 32.2969
Q37.4531 31.1562 35.2969 31.1562
Q32.4219 31.1562 30.9531 33.0156
Q30.125 34.0312 29.8594 36.9062
Q29.5938 39.7969 27.875 41.3125
Q26.1719 42.7812 23.1406 42.7812
Q18.2656 42.7812 15.2812 39.1562
Q11.3281 34.375 11.3281 26.5156
Q11.3281 18.5 15.25 12.375
Q19.1875 6.25 25.875 6.25
Q30.6719 6.25 34.4688 9.51562
Q37.1562 11.7656 39.7031 17.6719
z
" id="TimesNewRomanPSMT-63"/>
      <path d="
M2.25 67.3906
L2.25 69.4375
Q9.67188 65.7656 14.5938 60.7969
Q21.5781 53.6562 25.3906 44.0625
Q29.2031 34.4688 29.2031 24.0781
Q29.2031 8.9375 21.75 -3.53125
Q14.3125 -16.0156 2.25 -21.3906
L2.25 -19.5781
Q8.25 -16.2188 12.125 -10.4688
Q16.0156 -4.73438 17.8906 4.125
Q19.7812 12.9844 19.7812 22.6094
Q19.7812 33.0156 18.1719 41.6094
Q16.9375 48.3438 15.1094 52.3906
Q13.2812 56.4531 10.25 60.2031
Q7.23438 63.9688 2.25 67.3906" id="TimesNewRomanPSMT-29"/>
      <path d="
M34.7188 5.03125
Q31.4531 1.60938 28.3281 0.109375
Q25.2031 -1.375 21.5781 -1.375
Q14.2656 -1.375 8.79688 4.75
Q3.32812 10.8906 3.32812 20.5156
Q3.32812 30.125 9.375 38.1094
Q15.4375 46.0938 24.9531 46.0938
Q30.8594 46.0938 34.7188 42.3281
L34.7188 50.5938
Q34.7188 58.25 34.3438 60
Q33.9844 61.7656 33.2031 62.3906
Q32.4219 63.0312 31.25 63.0312
Q29.9844 63.0312 27.875 62.25
L27.25 63.9688
L40.5781 69.4375
L42.7812 69.4375
L42.7812 17.7188
Q42.7812 9.85938 43.1406 8.125
Q43.5 6.39062 44.3125 5.70312
Q45.125 5.03125 46.1875 5.03125
Q47.5156 5.03125 49.7031 5.85938
L50.25 4.15625
L36.9688 -1.375
L34.7188 -1.375
z

M34.7188 8.45312
L34.7188 31.5
Q34.4219 34.8125 32.9531 37.5469
Q31.5 40.2812 29.0781 41.6719
Q26.6562 43.0625 24.3594 43.0625
Q20.0625 43.0625 16.7031 39.2031
Q12.25 34.125 12.25 24.3594
Q12.25 14.5 16.5469 9.25
Q20.8438 4 26.125 4
Q30.5625 4 34.7188 8.45312" id="TimesNewRomanPSMT-64"/>
      <path d="
M16.2188 46.0469
L16.2188 35.9844
Q21.8281 46.0469 27.7344 46.0469
Q30.4219 46.0469 32.1719 44.4062
Q33.9375 42.7812 33.9375 40.625
Q33.9375 38.7188 32.6562 37.3906
Q31.3906 36.0781 29.6406 36.0781
Q27.9375 36.0781 25.8125 37.7656
Q23.6875 39.4531 22.6562 39.4531
Q21.7812 39.4531 20.75 38.4844
Q18.5625 36.4688 16.2188 31.8906
L16.2188 10.4531
Q16.2188 6.73438 17.1406 4.82812
Q17.7812 3.51562 19.3906 2.64062
Q21 1.76562 24.0312 1.76562
L24.0312 0
L1.125 0
L1.125 1.76562
Q4.54688 1.76562 6.20312 2.82812
Q7.42188 3.60938 7.90625 5.32812
Q8.15625 6.15625 8.15625 10.0625
L8.15625 27.3906
Q8.15625 35.2031 7.82812 36.6875
Q7.51562 38.1875 6.65625 38.8594
Q5.8125 39.5469 4.54688 39.5469
Q3.03125 39.5469 1.125 38.8125
L0.640625 40.5781
L14.1562 46.0469
z
" id="TimesNewRomanPSMT-72"/>
      <path d="
M14.5 69.4375
Q16.5469 69.4375 17.9844 67.9844
Q19.4375 66.5469 19.4375 64.5
Q19.4375 62.4531 17.9844 60.9844
Q16.5469 59.5156 14.5 59.5156
Q12.4531 59.5156 10.9844 60.9844
Q9.51562 62.4531 9.51562 64.5
Q9.51562 66.5469 10.9531 67.9844
Q12.4062 69.4375 14.5 69.4375
M18.5625 46.0469
L18.5625 10.1094
Q18.5625 5.90625 19.1719 4.51562
Q19.7812 3.125 20.9688 2.4375
Q22.1719 1.76562 25.3438 1.76562
L25.3438 0
L3.60938 0
L3.60938 1.76562
Q6.89062 1.76562 8 2.39062
Q9.125 3.03125 9.78125 4.48438
Q10.4531 5.95312 10.4531 10.1094
L10.4531 27.3438
Q10.4531 34.625 10.0156 36.7656
Q9.67188 38.3281 8.9375 38.9375
Q8.20312 39.5469 6.9375 39.5469
Q5.5625 39.5469 3.60938 38.8125
L2.9375 40.5781
L16.4062 46.0469
z
" id="TimesNewRomanPSMT-69"/>
      <path d="
M15.0938 16.3125
Q10.9844 18.3125 8.78125 21.8906
Q6.59375 25.4844 6.59375 29.8281
Q6.59375 36.4688 11.5938 41.25
Q16.6094 46.0469 24.4219 46.0469
Q30.8125 46.0469 35.5 42.9219
L44.9688 42.9219
Q47.0781 42.9219 47.4062 42.7969
Q47.75 42.6719 47.9062 42.3906
Q48.1875 41.9375 48.1875 40.8281
Q48.1875 39.5469 47.9531 39.0625
Q47.7969 38.8125 47.4375 38.6719
Q47.0781 38.5312 44.9688 38.5312
L39.1562 38.5312
Q41.8906 35.0156 41.8906 29.5469
Q41.8906 23.2969 37.1094 18.8438
Q32.3281 14.4062 24.2656 14.4062
Q20.9531 14.4062 17.4844 15.375
Q15.3281 13.5312 14.5625 12.1406
Q13.8125 10.75 13.8125 9.76562
Q13.8125 8.9375 14.625 8.15625
Q15.4375 7.375 17.7812 7.03125
Q19.1406 6.84375 24.6094 6.6875
Q34.6719 6.45312 37.6406 6
Q42.1875 5.375 44.8906 2.64062
Q47.6094 -0.09375 47.6094 -4.10938
Q47.6094 -9.625 42.4375 -14.4531
Q34.8125 -21.5781 22.5625 -21.5781
Q13.1406 -21.5781 6.64062 -17.3281
Q2.98438 -14.8906 2.98438 -12.25
Q2.98438 -11.0781 3.51562 -9.90625
Q4.34375 -8.10938 6.9375 -4.89062
Q7.28125 -4.4375 11.9219 0.390625
Q9.375 1.90625 8.32812 3.09375
Q7.28125 4.29688 7.28125 5.8125
Q7.28125 7.51562 8.67188 9.8125
Q10.0625 12.1094 15.0938 16.3125
M23.5781 43.7031
Q19.9688 43.7031 17.5312 40.8125
Q15.0938 37.9375 15.0938 31.9844
Q15.0938 24.2656 18.4062 20.0156
Q20.9531 16.7969 24.8594 16.7969
Q28.5625 16.7969 30.9531 19.5781
Q33.3438 22.3594 33.3438 28.3281
Q33.3438 36.0781 29.9844 40.4844
Q27.4844 43.7031 23.5781 43.7031
M14.5938 0
Q12.3125 -2.48438 11.1406 -4.625
Q9.96875 -6.78125 9.96875 -8.59375
Q9.96875 -10.9375 12.7969 -12.7031
Q17.6719 -15.7188 26.9062 -15.7188
Q35.6875 -15.7188 39.8594 -12.6094
Q44.0469 -9.51562 44.0469 -6
Q44.0469 -3.46875 41.5469 -2.39062
Q39.0156 -1.3125 31.5 -1.125
Q20.5156 -0.828125 14.5938 0" id="TimesNewRomanPSMT-67"/>
      <path d="
M32.0312 46.0469
L32.0312 30.8125
L30.4219 30.8125
Q28.5625 37.9844 25.6562 40.5781
Q22.75 43.1719 18.2656 43.1719
Q14.8438 43.1719 12.7344 41.3594
Q10.6406 39.5469 10.6406 37.3594
Q10.6406 34.625 12.2031 32.6719
Q13.7188 30.6719 18.3594 28.4219
L25.4844 24.9531
Q35.4062 20.125 35.4062 12.2031
Q35.4062 6.10938 30.7812 2.35938
Q26.1719 -1.375 20.4531 -1.375
Q16.3594 -1.375 11.0781 0.09375
Q9.46875 0.59375 8.45312 0.59375
Q7.32812 0.59375 6.6875 -0.6875
L5.07812 -0.6875
L5.07812 15.2812
L6.6875 15.2812
Q8.0625 8.45312 11.9062 4.98438
Q15.7656 1.51562 20.5625 1.51562
Q23.9219 1.51562 26.0469 3.48438
Q28.1719 5.46875 28.1719 8.25
Q28.1719 11.625 25.7969 13.9219
Q23.4375 16.2188 16.3594 19.7344
Q9.28125 23.25 7.07812 26.0781
Q4.89062 28.8594 4.89062 33.1094
Q4.89062 38.625 8.67188 42.3281
Q12.4531 46.0469 18.4531 46.0469
Q21.0938 46.0469 24.8594 44.9219
Q27.3438 44.1875 28.1719 44.1875
Q28.9531 44.1875 29.3906 44.5312
Q29.8281 44.875 30.4219 46.0469
z
" id="TimesNewRomanPSMT-73"/>
      <path d="
M10.6406 27.875
Q10.5938 17.9219 15.4844 12.25
Q20.3594 6.59375 26.9531 6.59375
Q31.3438 6.59375 34.5938 9
Q37.8438 11.4219 40.0469 17.2812
L41.5469 16.3125
Q40.5312 9.625 35.5938 4.125
Q30.6719 -1.375 23.25 -1.375
Q15.1875 -1.375 9.45312 4.90625
Q3.71875 11.1875 3.71875 21.7812
Q3.71875 33.25 9.59375 39.6719
Q15.4844 46.0938 24.3594 46.0938
Q31.8906 46.0938 36.7188 41.1406
Q41.5469 36.1875 41.5469 27.875
z

M10.6406 30.7188
L31.3438 30.7188
Q31.1094 35.0156 30.3281 36.7656
Q29.1094 39.5 26.6875 41.0625
Q24.2656 42.625 21.625 42.625
Q17.5781 42.625 14.375 39.4688
Q11.1875 36.3281 10.6406 30.7188" id="TimesNewRomanPSMT-65"/>
      <path d="
M16.1094 59.4219
L16.1094 44.7344
L26.5625 44.7344
L26.5625 41.3125
L16.1094 41.3125
L16.1094 12.3125
Q16.1094 7.95312 17.3594 6.4375
Q18.6094 4.9375 20.5625 4.9375
Q22.1719 4.9375 23.6875 5.9375
Q25.2031 6.9375 26.0312 8.89062
L27.9375 8.89062
Q26.2188 4.10938 23.0938 1.6875
Q19.9688 -0.734375 16.6562 -0.734375
Q14.4062 -0.734375 12.25 0.515625
Q10.1094 1.76562 9.07812 4.07812
Q8.0625 6.39062 8.0625 11.2344
L8.0625 41.3125
L0.984375 41.3125
L0.984375 42.9219
Q3.65625 44 6.46875 46.5625
Q9.28125 49.125 11.4688 52.6406
Q12.5938 54.5 14.5938 59.4219
z
" id="TimesNewRomanPSMT-74"/>
      <path d="
M28.4688 6.45312
Q21.5781 1.125 19.8281 0.296875
Q17.1875 -0.921875 14.2031 -0.921875
Q9.57812 -0.921875 6.5625 2.25
Q3.5625 5.42188 3.5625 10.5938
Q3.5625 13.875 5.03125 16.2656
Q7.03125 19.5781 11.9844 22.5
Q16.9375 25.4375 28.4688 29.6406
L28.4688 31.3906
Q28.4688 38.0938 26.3438 40.5781
Q24.2188 43.0625 20.1719 43.0625
Q17.0938 43.0625 15.2812 41.4062
Q13.4219 39.75 13.4219 37.5938
L13.5312 34.7656
Q13.5312 32.5156 12.375 31.2969
Q11.2344 30.0781 9.375 30.0781
Q7.5625 30.0781 6.42188 31.3438
Q5.28125 32.625 5.28125 34.8125
Q5.28125 39.0156 9.57812 42.5312
Q13.875 46.0469 21.625 46.0469
Q27.5938 46.0469 31.3906 44.0469
Q34.2812 42.5312 35.6406 39.3125
Q36.5312 37.2031 36.5312 30.7188
L36.5312 15.5312
Q36.5312 9.125 36.7656 7.6875
Q37.0156 6.25 37.5781 5.76562
Q38.1406 5.28125 38.875 5.28125
Q39.6562 5.28125 40.2344 5.60938
Q41.2656 6.25 44.1875 9.1875
L44.1875 6.45312
Q38.7188 -0.875 33.7344 -0.875
Q31.3438 -0.875 29.9219 0.78125
Q28.5156 2.4375 28.4688 6.45312
M28.4688 9.625
L28.4688 26.6562
Q21.0938 23.7344 18.9531 22.5156
Q15.0938 20.3594 13.4219 18.0156
Q11.7656 15.6719 11.7656 12.8906
Q11.7656 9.375 13.8594 7.04688
Q15.9688 4.73438 18.7031 4.73438
Q22.4062 4.73438 28.4688 9.625" id="TimesNewRomanPSMT-61"/>
     </defs>
     <g transform="translate(256.7334375 271.4175)scale(0.12 -0.12)">
      <use xlink:href="#TimesNewRomanPSMT-4c"/>
      <use x="61.083984375" xlink:href="#TimesNewRomanPSMT-65"/>
      <use x="105.46875" xlink:href="#TimesNewRomanPSMT-61"/>
      <use x="149.853515625" xlink:href="#TimesNewRomanPSMT-72"/>
      <use x="183.154296875" xlink:href="#TimesNewRomanPSMT-6e"/>
      <use x="233.154296875" xlink:href="#TimesNewRomanPSMT-69"/>
      <use x="260.9375" xlink:href="#TimesNewRomanPSMT-6e"/>
      <use x="310.9375" xlink:href="#TimesNewRomanPSMT-67"/>
      <use x="360.9375" xlink:href="#TimesNewRomanPSMT-20"/>
      <use x="385.9375" xlink:href="#TimesNewRomanPSMT-74"/>
      <use x="413.720703125" xlink:href="#TimesNewRomanPSMT-69"/>
      <use x="441.50390625" xlink:href="#TimesNewRomanPSMT-6d"/>
      <use x="519.287109375" xlink:href="#TimesNewRomanPSMT-65"/>
      <use x="563.671875" xlink:href="#TimesNewRomanPSMT-20"/>
      <use x="588.671875" xlink:href="#TimesNewRomanPSMT-28"/>
      <use x="621.97265625" xlink:href="#TimesNewRomanPSMT-73"/>
      <use x="660.888671875" xlink:href="#TimesNewRomanPSMT-65"/>
      <use x="705.2734375" xlink:href="#TimesNewRomanPSMT-63"/>
      <use x="749.658203125" xlink:href="#TimesNewRomanPSMT-6f"/>
      <use x="799.658203125" xlink:href="#TimesNewRomanPSMT-6e"/>
      <use x="849.658203125" xlink:href="#TimesNewRomanPSMT-64"/>
      <use x="899.658203125" xlink:href="#TimesNewRomanPSMT-73"/>
      <use x="938.57421875" xlink:href="#TimesNewRomanPSMT-29"/>
     </g>
    </g>
   </g>
   <g id="matplotlib.axis_2">
    <g id="ytick_1">
     <g id="line2d_19">
      <defs>
       <path d="
M0 0
L-4 0" id="m0d5b0a6425" style="stroke:#000000;stroke-linecap:butt;stroke-width:0.5;"/>
      </defs>
      <g>
       <use style="stroke:#000000;stroke-linecap:butt;stroke-width:0.5;" x="404.85875" xlink:href="#m0d5b0a6425" y="245.835"/>
      </g>
     </g>
     <g id="text_9">
      <!-- 0 -->
      <g transform="translate(408.85875 249.819375)scale(0.12 -0.12)">
       <use xlink:href="#TimesNewRomanPSMT-30"/>
      </g>
     </g>
    </g>
    <g id="ytick_2">
     <g id="line2d_20">
      <g>
       <use style="stroke:#000000;stroke-linecap:butt;stroke-width:0.5;" x="404.85875" xlink:href="#m0d5b0a6425" y="202.276"/>
      </g>
     </g>
     <g id="text_10">
      <!-- 2 -->
      <g transform="translate(408.85875 206.3306875)scale(0.12 -0.12)">
       <use xlink:href="#TimesNewRomanPSMT-32"/>
      </g>
     </g>
    </g>
    <g id="ytick_3">
     <g id="line2d_21">
      <g>
       <use style="stroke:#000000;stroke-linecap:butt;stroke-width:0.5;" x="404.85875" xlink:href="#m0d5b0a6425" y="158.717"/>
      </g>
     </g>
     <g id="text_11">
      <!-- 4 -->
      <defs>
       <path d="
M46.5312 24.4219
L46.5312 17.4844
L37.6406 17.4844
L37.6406 0
L29.5938 0
L29.5938 17.4844
L1.5625 17.4844
L1.5625 23.7344
L32.2812 67.5781
L37.6406 67.5781
L37.6406 24.4219
z

M29.5938 24.4219
L29.5938 57.2812
L6.34375 24.4219
z
" id="TimesNewRomanPSMT-34"/>
      </defs>
      <g transform="translate(408.85875 162.7716875)scale(0.12 -0.12)">
       <use xlink:href="#TimesNewRomanPSMT-34"/>
      </g>
     </g>
    </g>
    <g id="ytick_4">
     <g id="line2d_22">
      <g>
       <use style="stroke:#000000;stroke-linecap:butt;stroke-width:0.5;" x="404.85875" xlink:href="#m0d5b0a6425" y="115.158"/>
      </g>
     </g>
     <g id="text_12">
      <!-- 6 -->
      <defs>
       <path d="
M44.8281 67.5781
L44.8281 65.7656
Q38.375 65.1406 34.2969 63.2031
Q30.2188 61.2812 26.2344 57.3281
Q22.2656 53.375 19.6562 48.5156
Q17.0469 43.6562 15.2812 36.9688
Q22.3125 41.7969 29.3906 41.7969
Q36.1875 41.7969 41.1562 36.3281
Q46.1406 30.8594 46.1406 22.2656
Q46.1406 13.9688 41.1094 7.125
Q35.0625 -1.17188 25.0938 -1.17188
Q18.3125 -1.17188 13.5781 3.32812
Q4.29688 12.0625 4.29688 25.9844
Q4.29688 34.8594 7.85938 42.8594
Q11.4219 50.875 18.0312 57.0781
Q24.6562 63.2812 30.7031 65.4219
Q36.7656 67.5781 42 67.5781
z

M14.4531 33.4062
Q13.5781 26.8125 13.5781 22.75
Q13.5781 18.0625 15.3125 12.5625
Q17.0469 7.07812 20.4531 3.85938
Q22.9531 1.5625 26.5156 1.5625
Q30.7656 1.5625 34.1094 5.5625
Q37.4531 9.57812 37.4531 17
Q37.4531 25.3438 34.125 31.4375
Q30.8125 37.5469 24.7031 37.5469
Q22.8594 37.5469 20.7344 36.7656
Q18.6094 35.9844 14.4531 33.4062" id="TimesNewRomanPSMT-36"/>
      </defs>
      <g transform="translate(408.85875 119.142375)scale(0.12 -0.12)">
       <use xlink:href="#TimesNewRomanPSMT-36"/>
      </g>
     </g>
    </g>
    <g id="ytick_5">
     <g id="line2d_23">
      <g>
       <use style="stroke:#000000;stroke-linecap:butt;stroke-width:0.5;" x="404.85875" xlink:href="#m0d5b0a6425" y="71.599"/>
      </g>
     </g>
     <g id="text_13">
      <!-- 8 -->
      <defs>
       <path d="
M19.1875 33.3438
Q11.3281 39.7969 9.04688 43.7031
Q6.78125 47.6094 6.78125 51.8125
Q6.78125 58.25 11.7656 62.9062
Q16.75 67.5781 25 67.5781
Q33.0156 67.5781 37.8906 63.2344
Q42.7812 58.8906 42.7812 53.3281
Q42.7812 49.6094 40.1406 45.75
Q37.5 41.8906 29.1562 36.6719
Q37.75 30.0312 40.5312 26.2188
Q44.2344 21.2344 44.2344 15.7188
Q44.2344 8.73438 38.9062 3.78125
Q33.5938 -1.17188 24.9531 -1.17188
Q15.5312 -1.17188 10.25 4.73438
Q6.0625 9.46875 6.0625 15.0938
Q6.0625 19.4844 9.01562 23.7969
Q11.9688 28.125 19.1875 33.3438
M26.8594 38.5781
Q32.7188 43.8438 34.2812 46.8906
Q35.8438 49.9531 35.8438 53.8125
Q35.8438 58.9375 32.9531 61.8438
Q30.0781 64.75 25.0938 64.75
Q20.125 64.75 17 61.8594
Q13.875 58.9844 13.875 55.125
Q13.875 52.5938 15.1562 50.0469
Q16.4531 47.5156 18.8438 45.2188
z

M21.4844 31.5
Q17.4375 28.0781 15.4844 24.0469
Q13.5312 20.0156 13.5312 15.3281
Q13.5312 9.03125 16.9688 5.25
Q20.4062 1.46875 25.7344 1.46875
Q31 1.46875 34.1719 4.4375
Q37.3594 7.42188 37.3594 11.6719
Q37.3594 15.1875 35.5 17.9688
Q32.0312 23.1406 21.4844 31.5" id="TimesNewRomanPSMT-38"/>
      </defs>
      <g transform="translate(408.85875 75.583375)scale(0.12 -0.12)">
       <use xlink:href="#TimesNewRomanPSMT-38"/>
      </g>
     </g>
    </g>
    <g id="ytick_6">
     <g id="line2d_24">
      <g>
       <use style="stroke:#000000;stroke-linecap:butt;stroke-width:0.5;" x="404.85875" xlink:href="#m0d5b0a6425" y="28.04"/>
      </g>
     </g>
     <g id="text_14">
      <!-- 10 -->
      <g transform="translate(408.85875 32.024375)scale(0.12 -0.12)">
       <use xlink:href="#TimesNewRomanPSMT-31"/>
       <use x="50.0" xlink:href="#TimesNewRomanPSMT-30"/>
      </g>
     </g>
    </g>
   </g>
   <g id="patch_3">
    <path d="
M224.744 28.04
L404.859 28.04" style="fill:none;stroke:#000000;"/>
   </g>
   <g id="patch_4">
    <path d="
M404.859 245.835
L404.859 28.04" style="fill:none;stroke:#000000;"/>
   </g>
   <g id="patch_5">
    <path d="
M224.744 245.835
L404.859 245.835" style="fill:none;stroke:#000000;"/>
   </g>
   <g id="patch_6">
    <path d="
M224.744 245.835
L224.744 28.04" style="fill:none;stroke:#000000;"/>
   </g>
   <g id="text_15">
    <!-- Learning transmission -->
    <g transform="translate(250.643625 23.04)scale(0.144 -0.144)">
     <use xlink:href="#TimesNewRomanPSMT-4c"/>
     <use x="61.083984375" xlink:href="#TimesNewRomanPSMT-65"/>
     <use x="105.46875" xlink:href="#TimesNewRomanPSMT-61"/>
     <use x="149.853515625" xlink:href="#TimesNewRomanPSMT-72"/>
     <use x="183.154296875" xlink:href="#TimesNewRomanPSMT-6e"/>
     <use x="233.154296875" xlink:href="#TimesNewRomanPSMT-69"/>
     <use x="260.9375" xlink:href="#TimesNewRomanPSMT-6e"/>
     <use x="310.9375" xlink:href="#TimesNewRomanPSMT-67"/>
     <use x="360.9375" xlink:href="#TimesNewRomanPSMT-20"/>
     <use x="385.9375" xlink:href="#TimesNewRomanPSMT-74"/>
     <use x="413.720703125" xlink:href="#TimesNewRomanPSMT-72"/>
     <use x="447.021484375" xlink:href="#TimesNewRomanPSMT-61"/>
     <use x="491.40625" xlink:href="#TimesNewRomanPSMT-6e"/>
     <use x="541.40625" xlink:href="#TimesNewRomanPSMT-73"/>
     <use x="580.322265625" xlink:href="#TimesNewRomanPSMT-6d"/>
     <use x="658.10546875" xlink:href="#TimesNewRomanPSMT-69"/>
     <use x="685.888671875" xlink:href="#TimesNewRomanPSMT-73"/>
     <use x="724.8046875" xlink:href="#TimesNewRomanPSMT-73"/>
     <use x="763.720703125" xlink:href="#TimesNewRomanPSMT-69"/>
     <use x="791.50390625" xlink:href="#TimesNewRomanPSMT-6f"/>
     <use x="841.50390625" xlink:href="#TimesNewRomanPSMT-6e"/>
    </g>
   </g>
   <g id="legend_1">
    <g id="patch_7">
     <path d="
M329.703 69.1888
L398.859 69.1888
L398.859 34.04
L329.703 34.04
L329.703 69.1888
z
" style="fill:#ffffff;stroke:#000000;"/>
    </g>
    <g id="line2d_25">
     <path d="
M338.103 43.04
L354.903 43.04" style="fill:none;stroke:#0000ff;"/>
    </g>
    <g id="line2d_26"/>
    <g id="text_16">
     <!-- hPES -->
     <defs>
      <path d="
M45.8438 67.7188
L45.8438 44.8281
L44.0469 44.8281
Q43.1719 51.4219 40.8906 55.3281
Q38.625 59.2344 34.4219 61.5156
Q30.2188 63.8125 25.7344 63.8125
Q20.6562 63.8125 17.3281 60.7188
Q14.0156 57.625 14.0156 53.6562
Q14.0156 50.6406 16.1094 48.1406
Q19.1406 44.4844 30.5156 38.375
Q39.7969 33.4062 43.1875 30.7344
Q46.5781 28.0781 48.4062 24.4531
Q50.25 20.8438 50.25 16.8906
Q50.25 9.375 44.4062 3.92188
Q38.5781 -1.51562 29.3906 -1.51562
Q26.5156 -1.51562 23.9688 -1.07812
Q22.4688 -0.828125 17.7031 0.703125
Q12.9375 2.25 11.6719 2.25
Q10.4531 2.25 9.73438 1.51562
Q9.03125 0.78125 8.6875 -1.51562
L6.89062 -1.51562
L6.89062 21.1875
L8.6875 21.1875
Q9.96875 14.0625 12.1094 10.5156
Q14.2656 6.98438 18.6719 4.64062
Q23.0938 2.29688 28.375 2.29688
Q34.4688 2.29688 38 5.51562
Q41.5469 8.73438 41.5469 13.1406
Q41.5469 15.5781 40.2031 18.0625
Q38.875 20.5625 36.0312 22.7031
Q34.125 24.1719 25.625 28.9219
Q17.1406 33.6875 13.5469 36.5156
Q9.96875 39.3594 8.10938 42.7656
Q6.25 46.1875 6.25 50.2969
Q6.25 57.4219 11.7188 62.5625
Q17.1875 67.7188 25.6406 67.7188
Q30.9062 67.7188 36.8125 65.1406
Q39.5469 63.9219 40.6719 63.9219
Q41.9375 63.9219 42.75 64.6719
Q43.5625 65.4375 44.0469 67.7188
z
" id="TimesNewRomanPSMT-53"/>
      <path d="
M20.5156 31
L20.5156 11.7188
Q20.5156 5.46875 21.875 3.95312
Q23.7344 1.8125 27.4844 1.8125
L30.0312 1.8125
L30.0312 0
L1.65625 0
L1.65625 1.8125
L4.15625 1.8125
Q8.34375 1.8125 10.1562 4.54688
Q11.1406 6.0625 11.1406 11.7188
L11.1406 54.5
Q11.1406 60.75 9.8125 62.25
Q7.90625 64.4062 4.15625 64.4062
L1.65625 64.4062
L1.65625 66.2188
L25.9219 66.2188
Q34.8125 66.2188 39.9375 64.375
Q45.0625 62.5469 48.5781 58.2031
Q52.0938 53.8594 52.0938 47.9062
Q52.0938 39.7969 46.75 34.7188
Q41.4062 29.6406 31.6406 29.6406
Q29.25 29.6406 26.4688 29.9844
Q23.6875 30.3281 20.5156 31
M20.5156 33.7969
Q23.0938 33.2969 25.0938 33.0469
Q27.0938 32.8125 28.5156 32.8125
Q33.5938 32.8125 37.2812 36.7344
Q40.9688 40.6719 40.9688 46.9219
Q40.9688 51.2188 39.2031 54.9062
Q37.4531 58.5938 34.2188 60.4219
Q31 62.25 26.9062 62.25
Q24.4219 62.25 20.5156 61.3281
z
" id="TimesNewRomanPSMT-50"/>
      <path d="
M20.9062 62.5938
L20.9062 36.4219
L35.4531 36.4219
Q41.1094 36.4219 43.0156 38.1406
Q45.5625 40.375 45.8438 46.0469
L47.6562 46.0469
L47.6562 23
L45.8438 23
Q45.1719 27.8281 44.4844 29.2031
Q43.6094 30.9062 41.5938 31.875
Q39.5938 32.8594 35.4531 32.8594
L20.9062 32.8594
L20.9062 11.0312
Q20.9062 6.64062 21.2969 5.6875
Q21.6875 4.73438 22.6562 4.17188
Q23.6406 3.60938 26.375 3.60938
L37.5938 3.60938
Q43.2188 3.60938 45.75 4.39062
Q48.2969 5.17188 50.6406 7.46875
Q53.6562 10.5 56.8438 16.6094
L58.7969 16.6094
L53.0781 0
L2.04688 0
L2.04688 1.8125
L4.39062 1.8125
Q6.73438 1.8125 8.84375 2.9375
Q10.4062 3.71875 10.9688 5.28125
Q11.5312 6.84375 11.5312 11.6719
L11.5312 54.6875
Q11.5312 60.9844 10.25 62.4531
Q8.5 64.4062 4.39062 64.4062
L2.04688 64.4062
L2.04688 66.2188
L53.0781 66.2188
L53.8125 51.7031
L51.9062 51.7031
Q50.875 56.9375 49.625 58.8906
Q48.3906 60.8438 45.9531 61.8594
Q44 62.5938 39.0625 62.5938
z
" id="TimesNewRomanPSMT-45"/>
      <path d="
M16.2656 69.4375
L16.2656 36.7188
Q21.6875 42.6719 24.8594 44.3594
Q28.0312 46.0469 31.2031 46.0469
Q35.0156 46.0469 37.75 43.9375
Q40.4844 41.8438 41.7969 37.3594
Q42.7188 34.2344 42.7188 25.9219
L42.7188 10.1094
Q42.7188 5.85938 43.4062 4.29688
Q43.8906 3.125 45.0625 2.4375
Q46.2344 1.76562 49.3594 1.76562
L49.3594 0
L27.3906 0
L27.3906 1.76562
L28.4219 1.76562
Q31.5469 1.76562 32.7656 2.70312
Q33.9844 3.65625 34.4688 5.51562
Q34.625 6.29688 34.625 10.1094
L34.625 25.9219
Q34.625 33.25 33.8594 35.5469
Q33.1094 37.8438 31.4375 38.9844
Q29.7812 40.1406 27.4375 40.1406
Q25.0469 40.1406 22.4531 38.8594
Q19.875 37.5938 16.2656 33.7344
L16.2656 10.1094
Q16.2656 5.51562 16.7656 4.39062
Q17.2812 3.26562 18.6719 2.51562
Q20.0625 1.76562 23.4844 1.76562
L23.4844 0
L1.3125 0
L1.3125 1.76562
Q4.29688 1.76562 6 2.6875
Q6.98438 3.17188 7.5625 4.53125
Q8.15625 5.90625 8.15625 10.1094
L8.15625 50.5938
Q8.15625 58.25 7.78125 60
Q7.42188 61.7656 6.65625 62.3906
Q5.90625 63.0312 4.64062 63.0312
Q3.60938 63.0312 1.3125 62.25
L0.640625 63.9688
L14.0156 69.4375
z
" id="TimesNewRomanPSMT-68"/>
     </defs>
     <g transform="translate(368.103125 47.24)scale(0.12 -0.12)">
      <use xlink:href="#TimesNewRomanPSMT-68"/>
      <use x="50.0" xlink:href="#TimesNewRomanPSMT-50"/>
      <use x="105.615234375" xlink:href="#TimesNewRomanPSMT-45"/>
      <use x="166.69921875" xlink:href="#TimesNewRomanPSMT-53"/>
     </g>
    </g>
    <g id="line2d_27">
     <path d="
M338.103 60.0069
L354.903 60.0069" style="fill:none;stroke:#008000;"/>
    </g>
    <g id="line2d_28"/>
    <g id="text_17">
     <!-- PES -->
     <g transform="translate(368.103125 64.206875)scale(0.12 -0.12)">
      <use xlink:href="#TimesNewRomanPSMT-50"/>
      <use x="55.615234375" xlink:href="#TimesNewRomanPSMT-45"/>
      <use x="116.69921875" xlink:href="#TimesNewRomanPSMT-53"/>
     </g>
    </g>
   </g>
  </g>
  <g id="axes_2">
   <g id="patch_8">
    <path d="
M44.6288 245.835
L224.744 245.835
L224.744 28.04
L44.6288 28.04
z
" style="fill:#ffffff;"/>
   </g>
   <g id="PolyCollection_3">
    <defs>
     <path d="
M44.6288 -196.39
L44.6288 -236.179
L53.6345 -218.612
L62.6403 -197.162
L71.646 -177.081
L80.6517 -158.536
L89.6575 -159.201
L98.6632 -158.253
L107.669 -139.823
L116.675 -127.124
L125.68 -130.978
L134.686 -138.267
L143.692 -127.058
L152.698 -104.982
L161.703 -102.508
L170.709 -118.193
L179.715 -113.498
L188.721 -95.3968
L197.726 -100.176
L206.732 -109.673
L215.738 -96.163
L224.744 -91.3622
L224.744 -69.1721
L224.744 -69.1721
L215.738 -74.3221
L206.732 -80.5456
L197.726 -74.8983
L188.721 -71.816
L179.715 -86.4089
L170.709 -89.8959
L161.703 -78.7581
L152.698 -79.2867
L143.692 -98.9827
L134.686 -93.9577
L125.68 -98.7814
L116.675 -99.4618
L107.669 -115.421
L98.6632 -115.931
L89.6575 -124.875
L80.6517 -127.244
L71.646 -154.367
L62.6403 -157.83
L53.6345 -177.416
L44.6288 -196.39
z
" id="C2_0_a4e53c35df"/>
    </defs>
    <g clip-path="url(#p7bfa9ac01c)">
     <use style="fill:#0000ff;opacity:0.3;stroke:#0000ff;stroke-linecap:butt;" x="0" xlink:href="#C2_0_a4e53c35df" y="288.0"/>
    </g>
   </g>
   <g id="PolyCollection_4">
    <defs>
     <path d="
M44.6288 -204.666
L44.6288 -254.475
L53.6345 -245.233
L62.6403 -202.922
L71.646 -188.215
L80.6517 -191.149
L89.6575 -183.767
L98.6632 -148.977
L107.669 -153.013
L116.675 -154.306
L125.68 -147.591
L134.686 -131.849
L143.692 -134.939
L152.698 -131.089
L161.703 -128.539
L170.709 -116.703
L179.715 -123.431
L188.721 -116.166
L197.726 -126.323
L206.732 -118.754
L215.738 -118.389
L224.744 -107.238
L224.744 -84.8805
L224.744 -84.8805
L215.738 -85.2832
L206.732 -96.3601
L197.726 -100.211
L188.721 -88.902
L179.715 -96.9834
L170.709 -100.56
L161.703 -107.413
L152.698 -95.5791
L143.692 -105.866
L134.686 -107.852
L125.68 -120.319
L116.675 -115.948
L107.669 -120.987
L98.6632 -128.53
L89.6575 -155.24
L80.6517 -149.173
L71.646 -162.58
L62.6403 -168.49
L53.6345 -200.279
L44.6288 -204.666
z
" id="C3_0_999bd881a9"/>
    </defs>
    <g clip-path="url(#p7bfa9ac01c)">
     <use style="fill:#008000;opacity:0.3;stroke:#008000;stroke-linecap:butt;" x="0" xlink:href="#C3_0_999bd881a9" y="288.0"/>
    </g>
   </g>
   <g id="line2d_29">
    <path clip-path="url(#p7bfa9ac01c)" d="
M44.6288 191.386
L224.744 191.386" style="fill:none;stroke:#4c4c4c;"/>
   </g>
   <g id="line2d_30">
    <path clip-path="url(#p7bfa9ac01c)" d="
M44.6288 71.557
L53.6345 89.2503
L62.6403 110.501
L71.646 122.552
L80.6517 145.37
L89.6575 145.935
L98.6632 151.192
L107.669 160.202
L116.675 174.624
L125.68 173.463
L134.686 172.789
L143.692 175.304
L152.698 195.77
L161.703 196.698
L170.709 184.52
L179.715 188.665
L188.721 204.678
L197.726 199.877
L206.732 193.237
L215.738 202.993
L224.744 207.85" style="fill:none;stroke:#0000ff;"/>
   </g>
   <g id="line2d_31">
    <path clip-path="url(#p7bfa9ac01c)" d="
M44.6288 191.386
L224.744 191.386" style="fill:none;stroke:#4c4c4c;"/>
   </g>
   <g id="line2d_32">
    <path clip-path="url(#p7bfa9ac01c)" d="
M44.6288 59.0419
L53.6345 66.1501
L62.6403 102.468
L71.646 112.67
L80.6517 118.164
L89.6575 119.055
L98.6632 149.303
L107.669 151.345
L116.675 153.648
L125.68 154.56
L134.686 168.351
L143.692 168.072
L152.698 175.287
L161.703 169.743
L170.709 179.42
L179.715 178.655
L188.721 186.034
L197.726 173.601
L206.732 180.302
L215.738 186.407
L224.744 192.196" style="fill:none;stroke:#008000;"/>
   </g>
   <g id="matplotlib.axis_3">
    <g id="xtick_8">
     <g id="line2d_33">
      <g>
       <use style="stroke:#000000;stroke-linecap:butt;stroke-width:0.5;" x="44.62875" xlink:href="#mcb557df647" y="245.835"/>
      </g>
     </g>
     <g id="line2d_34">
      <g>
       <use style="stroke:#000000;stroke-linecap:butt;stroke-width:0.5;" x="44.62875" xlink:href="#mdad270ee8e" y="28.04"/>
      </g>
     </g>
     <g id="text_18">
      <!-- 0 -->
      <g transform="translate(42.0590625 257.944375)scale(0.12 -0.12)">
       <use xlink:href="#TimesNewRomanPSMT-30"/>
      </g>
     </g>
    </g>
    <g id="xtick_9">
     <g id="line2d_35">
      <g>
       <use style="stroke:#000000;stroke-linecap:butt;stroke-width:0.5;" x="89.6575" xlink:href="#mcb557df647" y="245.835"/>
      </g>
     </g>
     <g id="line2d_36">
      <g>
       <use style="stroke:#000000;stroke-linecap:butt;stroke-width:0.5;" x="89.6575" xlink:href="#mdad270ee8e" y="28.04"/>
      </g>
     </g>
     <g id="text_19">
      <!-- 20 -->
      <g transform="translate(84.000625 257.944375)scale(0.12 -0.12)">
       <use xlink:href="#TimesNewRomanPSMT-32"/>
       <use x="50.0" xlink:href="#TimesNewRomanPSMT-30"/>
      </g>
     </g>
    </g>
    <g id="xtick_10">
     <g id="line2d_37">
      <g>
       <use style="stroke:#000000;stroke-linecap:butt;stroke-width:0.5;" x="134.68625" xlink:href="#mcb557df647" y="245.835"/>
      </g>
     </g>
     <g id="line2d_38">
      <g>
       <use style="stroke:#000000;stroke-linecap:butt;stroke-width:0.5;" x="134.68625" xlink:href="#mdad270ee8e" y="28.04"/>
      </g>
     </g>
     <g id="text_20">
      <!-- 40 -->
      <g transform="translate(128.99375 257.944375)scale(0.12 -0.12)">
       <use xlink:href="#TimesNewRomanPSMT-34"/>
       <use x="50.0" xlink:href="#TimesNewRomanPSMT-30"/>
      </g>
     </g>
    </g>
    <g id="xtick_11">
     <g id="line2d_39">
      <g>
       <use style="stroke:#000000;stroke-linecap:butt;stroke-width:0.5;" x="179.715" xlink:href="#mcb557df647" y="245.835"/>
      </g>
     </g>
     <g id="line2d_40">
      <g>
       <use style="stroke:#000000;stroke-linecap:butt;stroke-width:0.5;" x="179.715" xlink:href="#mdad270ee8e" y="28.04"/>
      </g>
     </g>
     <g id="text_21">
      <!-- 60 -->
      <g transform="translate(174.1865625 257.944375)scale(0.12 -0.12)">
       <use xlink:href="#TimesNewRomanPSMT-36"/>
       <use x="50.0" xlink:href="#TimesNewRomanPSMT-30"/>
      </g>
     </g>
    </g>
    <g id="text_22">
     <!-- Learning time (seconds) -->
     <g transform="translate(76.6184375 271.4175)scale(0.12 -0.12)">
      <use xlink:href="#TimesNewRomanPSMT-4c"/>
      <use x="61.083984375" xlink:href="#TimesNewRomanPSMT-65"/>
      <use x="105.46875" xlink:href="#TimesNewRomanPSMT-61"/>
      <use x="149.853515625" xlink:href="#TimesNewRomanPSMT-72"/>
      <use x="183.154296875" xlink:href="#TimesNewRomanPSMT-6e"/>
      <use x="233.154296875" xlink:href="#TimesNewRomanPSMT-69"/>
      <use x="260.9375" xlink:href="#TimesNewRomanPSMT-6e"/>
      <use x="310.9375" xlink:href="#TimesNewRomanPSMT-67"/>
      <use x="360.9375" xlink:href="#TimesNewRomanPSMT-20"/>
      <use x="385.9375" xlink:href="#TimesNewRomanPSMT-74"/>
      <use x="413.720703125" xlink:href="#TimesNewRomanPSMT-69"/>
      <use x="441.50390625" xlink:href="#TimesNewRomanPSMT-6d"/>
      <use x="519.287109375" xlink:href="#TimesNewRomanPSMT-65"/>
      <use x="563.671875" xlink:href="#TimesNewRomanPSMT-20"/>
      <use x="588.671875" xlink:href="#TimesNewRomanPSMT-28"/>
      <use x="621.97265625" xlink:href="#TimesNewRomanPSMT-73"/>
      <use x="660.888671875" xlink:href="#TimesNewRomanPSMT-65"/>
      <use x="705.2734375" xlink:href="#TimesNewRomanPSMT-63"/>
      <use x="749.658203125" xlink:href="#TimesNewRomanPSMT-6f"/>
      <use x="799.658203125" xlink:href="#TimesNewRomanPSMT-6e"/>
      <use x="849.658203125" xlink:href="#TimesNewRomanPSMT-64"/>
      <use x="899.658203125" xlink:href="#TimesNewRomanPSMT-73"/>
      <use x="938.57421875" xlink:href="#TimesNewRomanPSMT-29"/>
     </g>
    </g>
   </g>
   <g id="matplotlib.axis_4">
    <g id="ytick_7">
     <g id="line2d_41">
      <defs>
       <path d="
M0 0
L4 0" id="mc8fcea1516" style="stroke:#000000;stroke-linecap:butt;stroke-width:0.5;"/>
      </defs>
      <g>
       <use style="stroke:#000000;stroke-linecap:butt;stroke-width:0.5;" x="44.62875" xlink:href="#mc8fcea1516" y="245.835"/>
      </g>
     </g>
     <g id="line2d_42">
      <g>
       <use style="stroke:#000000;stroke-linecap:butt;stroke-width:0.5;" x="224.74375" xlink:href="#m0d5b0a6425" y="245.835"/>
      </g>
     </g>
     <g id="text_23">
      <!-- 0.8 -->
      <defs>
       <path d="
M12.5 9.46875
Q14.7969 9.46875 16.3594 7.875
Q17.9219 6.29688 17.9219 4.04688
Q17.9219 1.8125 16.3281 0.21875
Q14.75 -1.375 12.5 -1.375
Q10.25 -1.375 8.65625 0.21875
Q7.07812 1.8125 7.07812 4.04688
Q7.07812 6.34375 8.65625 7.90625
Q10.25 9.46875 12.5 9.46875" id="TimesNewRomanPSMT-2e"/>
      </defs>
      <g transform="translate(26.75375 249.8071875)scale(0.12 -0.12)">
       <use xlink:href="#TimesNewRomanPSMT-30"/>
       <use x="50.0" xlink:href="#TimesNewRomanPSMT-2e"/>
       <use x="75.0" xlink:href="#TimesNewRomanPSMT-38"/>
      </g>
     </g>
    </g>
    <g id="ytick_8">
     <g id="line2d_43">
      <g>
       <use style="stroke:#000000;stroke-linecap:butt;stroke-width:0.5;" x="44.62875" xlink:href="#mc8fcea1516" y="218.610625"/>
      </g>
     </g>
     <g id="line2d_44">
      <g>
       <use style="stroke:#000000;stroke-linecap:butt;stroke-width:0.5;" x="224.74375" xlink:href="#m0d5b0a6425" y="218.610625"/>
      </g>
     </g>
     <g id="text_24">
      <!-- 0.9 -->
      <defs>
       <path d="
M5.28125 -1.375
L5.28125 0.4375
Q11.625 0.53125 17.0938 3.39062
Q22.5625 6.25 27.6562 13.375
Q32.7656 20.5156 34.7656 29.0469
Q27.0938 24.125 20.9062 24.125
Q13.9219 24.125 8.9375 29.5156
Q3.95312 34.9062 3.95312 43.8438
Q3.95312 52.5469 8.9375 59.3281
Q14.9375 67.5781 24.6094 67.5781
Q32.7656 67.5781 38.5781 60.8438
Q45.7031 52.4844 45.7031 40.2344
Q45.7031 29.2031 40.2812 19.6562
Q34.8594 10.1094 25.2031 3.8125
Q17.3281 -1.375 8.0625 -1.375
z

M35.5469 32.6719
Q36.4219 39.0156 36.4219 42.8281
Q36.4219 47.5625 34.8125 53.0469
Q33.2031 58.5469 30.25 61.4688
Q27.2969 64.4062 23.5312 64.4062
Q19.1875 64.4062 15.9062 60.5
Q12.6406 56.5938 12.6406 48.875
Q12.6406 38.5781 17 32.7656
Q20.1719 28.5625 24.8125 28.5625
Q27.0469 28.5625 30.125 29.6406
Q33.2031 30.7188 35.5469 32.6719" id="TimesNewRomanPSMT-39"/>
      </defs>
      <g transform="translate(26.5775 222.5828125)scale(0.12 -0.12)">
       <use xlink:href="#TimesNewRomanPSMT-30"/>
       <use x="50.0" xlink:href="#TimesNewRomanPSMT-2e"/>
       <use x="75.0" xlink:href="#TimesNewRomanPSMT-39"/>
      </g>
     </g>
    </g>
    <g id="ytick_9">
     <g id="line2d_45">
      <g>
       <use style="stroke:#000000;stroke-linecap:butt;stroke-width:0.5;" x="44.62875" xlink:href="#mc8fcea1516" y="191.38625"/>
      </g>
     </g>
     <g id="line2d_46">
      <g>
       <use style="stroke:#000000;stroke-linecap:butt;stroke-width:0.5;" x="224.74375" xlink:href="#m0d5b0a6425" y="191.38625"/>
      </g>
     </g>
     <g id="text_25">
      <!-- 1.0 -->
      <g transform="translate(27.4625 195.3584375)scale(0.12 -0.12)">
       <use xlink:href="#TimesNewRomanPSMT-31"/>
       <use x="50.0" xlink:href="#TimesNewRomanPSMT-2e"/>
       <use x="75.0" xlink:href="#TimesNewRomanPSMT-30"/>
      </g>
     </g>
    </g>
    <g id="ytick_10">
     <g id="line2d_47">
      <g>
       <use style="stroke:#000000;stroke-linecap:butt;stroke-width:0.5;" x="44.62875" xlink:href="#mc8fcea1516" y="164.161875"/>
      </g>
     </g>
     <g id="line2d_48">
      <g>
       <use style="stroke:#000000;stroke-linecap:butt;stroke-width:0.5;" x="224.74375" xlink:href="#m0d5b0a6425" y="164.161875"/>
      </g>
     </g>
     <g id="text_26">
      <!-- 1.1 -->
      <g transform="translate(28.499375 168.1340625)scale(0.12 -0.12)">
       <use xlink:href="#TimesNewRomanPSMT-31"/>
       <use x="50.0" xlink:href="#TimesNewRomanPSMT-2e"/>
       <use x="75.0" xlink:href="#TimesNewRomanPSMT-31"/>
      </g>
     </g>
    </g>
    <g id="ytick_11">
     <g id="line2d_49">
      <g>
       <use style="stroke:#000000;stroke-linecap:butt;stroke-width:0.5;" x="44.62875" xlink:href="#mc8fcea1516" y="136.9375"/>
      </g>
     </g>
     <g id="line2d_50">
      <g>
       <use style="stroke:#000000;stroke-linecap:butt;stroke-width:0.5;" x="224.74375" xlink:href="#m0d5b0a6425" y="136.9375"/>
      </g>
     </g>
     <g id="text_27">
      <!-- 1.2 -->
      <g transform="translate(27.53375 140.9096875)scale(0.12 -0.12)">
       <use xlink:href="#TimesNewRomanPSMT-31"/>
       <use x="50.0" xlink:href="#TimesNewRomanPSMT-2e"/>
       <use x="75.0" xlink:href="#TimesNewRomanPSMT-32"/>
      </g>
     </g>
    </g>
    <g id="ytick_12">
     <g id="line2d_51">
      <g>
       <use style="stroke:#000000;stroke-linecap:butt;stroke-width:0.5;" x="44.62875" xlink:href="#mc8fcea1516" y="109.713125"/>
      </g>
     </g>
     <g id="line2d_52">
      <g>
       <use style="stroke:#000000;stroke-linecap:butt;stroke-width:0.5;" x="224.74375" xlink:href="#m0d5b0a6425" y="109.713125"/>
      </g>
     </g>
     <g id="text_28">
      <!-- 1.3 -->
      <g transform="translate(28.030625 113.6853125)scale(0.12 -0.12)">
       <use xlink:href="#TimesNewRomanPSMT-31"/>
       <use x="50.0" xlink:href="#TimesNewRomanPSMT-2e"/>
       <use x="75.0" xlink:href="#TimesNewRomanPSMT-33"/>
      </g>
     </g>
    </g>
    <g id="ytick_13">
     <g id="line2d_53">
      <g>
       <use style="stroke:#000000;stroke-linecap:butt;stroke-width:0.5;" x="44.62875" xlink:href="#mc8fcea1516" y="82.48875"/>
      </g>
     </g>
     <g id="line2d_54">
      <g>
       <use style="stroke:#000000;stroke-linecap:butt;stroke-width:0.5;" x="224.74375" xlink:href="#m0d5b0a6425" y="82.48875"/>
      </g>
     </g>
     <g id="text_29">
      <!-- 1.4 -->
      <g transform="translate(27.45125 86.4609375)scale(0.12 -0.12)">
       <use xlink:href="#TimesNewRomanPSMT-31"/>
       <use x="50.0" xlink:href="#TimesNewRomanPSMT-2e"/>
       <use x="75.0" xlink:href="#TimesNewRomanPSMT-34"/>
      </g>
     </g>
    </g>
    <g id="ytick_14">
     <g id="line2d_55">
      <g>
       <use style="stroke:#000000;stroke-linecap:butt;stroke-width:0.5;" x="44.62875" xlink:href="#mc8fcea1516" y="55.264375"/>
      </g>
     </g>
     <g id="line2d_56">
      <g>
       <use style="stroke:#000000;stroke-linecap:butt;stroke-width:0.5;" x="224.74375" xlink:href="#m0d5b0a6425" y="55.264375"/>
      </g>
     </g>
     <g id="text_30">
      <!-- 1.5 -->
      <g transform="translate(27.82625 59.2365625)scale(0.12 -0.12)">
       <use xlink:href="#TimesNewRomanPSMT-31"/>
       <use x="50.0" xlink:href="#TimesNewRomanPSMT-2e"/>
       <use x="75.0" xlink:href="#TimesNewRomanPSMT-35"/>
      </g>
     </g>
    </g>
    <g id="ytick_15">
     <g id="line2d_57">
      <g>
       <use style="stroke:#000000;stroke-linecap:butt;stroke-width:0.5;" x="44.62875" xlink:href="#mc8fcea1516" y="28.04"/>
      </g>
     </g>
     <g id="line2d_58">
      <g>
       <use style="stroke:#000000;stroke-linecap:butt;stroke-width:0.5;" x="224.74375" xlink:href="#m0d5b0a6425" y="28.04"/>
      </g>
     </g>
     <g id="text_31">
      <!-- 1.6 -->
      <g transform="translate(27.498125 32.0121875)scale(0.12 -0.12)">
       <use xlink:href="#TimesNewRomanPSMT-31"/>
       <use x="50.0" xlink:href="#TimesNewRomanPSMT-2e"/>
       <use x="75.0" xlink:href="#TimesNewRomanPSMT-36"/>
      </g>
     </g>
    </g>
    <g id="text_32">
     <!-- Error relative to control mean -->
     <defs>
      <path d="
M18.5 69.4375
L18.5 10.1094
Q18.5 5.90625 19.1094 4.53125
Q19.7344 3.17188 21 2.46875
Q22.2656 1.76562 25.7344 1.76562
L25.7344 0
L3.8125 0
L3.8125 1.76562
Q6.89062 1.76562 8 2.39062
Q9.125 3.03125 9.76562 4.48438
Q10.4062 5.95312 10.4062 10.1094
L10.4062 50.7344
Q10.4062 58.2969 10.0625 60.0312
Q9.71875 61.7656 8.95312 62.3906
Q8.20312 63.0312 7.03125 63.0312
Q5.76562 63.0312 3.8125 62.25
L2.98438 63.9688
L16.3125 69.4375
z
" id="TimesNewRomanPSMT-6c"/>
      <path d="
M0.828125 44.7344
L21.875 44.7344
L21.875 42.9219
L20.5156 42.9219
Q18.6094 42.9219 17.6094 41.9844
Q16.6094 41.0625 16.6094 39.5
Q16.6094 37.7969 17.625 35.4531
L28.0312 10.75
L38.4844 36.375
Q39.5938 39.1094 39.5938 40.5312
Q39.5938 41.2188 39.2031 41.6562
Q38.6719 42.3906 37.8438 42.6562
Q37.0156 42.9219 34.4688 42.9219
L34.4688 44.7344
L49.0781 44.7344
L49.0781 42.9219
Q46.5312 42.7188 45.5625 41.8906
Q43.8438 40.4375 42.4844 37.0156
L26.6094 -1.375
L24.6094 -1.375
L8.64062 36.375
Q7.5625 39.0156 6.57812 40.1562
Q5.60938 41.3125 4.10938 42.0938
Q3.26562 42.5312 0.828125 42.9219
z
" id="TimesNewRomanPSMT-76"/>
     </defs>
     <g transform="translate(21.5775 208.04875)rotate(-90.0)scale(0.12 -0.12)">
      <use xlink:href="#TimesNewRomanPSMT-45"/>
      <use x="61.083984375" xlink:href="#TimesNewRomanPSMT-72"/>
      <use x="94.384765625" xlink:href="#TimesNewRomanPSMT-72"/>
      <use x="127.685546875" xlink:href="#TimesNewRomanPSMT-6f"/>
      <use x="177.685546875" xlink:href="#TimesNewRomanPSMT-72"/>
      <use x="210.986328125" xlink:href="#TimesNewRomanPSMT-20"/>
      <use x="235.986328125" xlink:href="#TimesNewRomanPSMT-72"/>
      <use x="269.287109375" xlink:href="#TimesNewRomanPSMT-65"/>
      <use x="313.671875" xlink:href="#TimesNewRomanPSMT-6c"/>
      <use x="341.455078125" xlink:href="#TimesNewRomanPSMT-61"/>
      <use x="385.83984375" xlink:href="#TimesNewRomanPSMT-74"/>
      <use x="413.623046875" xlink:href="#TimesNewRomanPSMT-69"/>
      <use x="441.40625" xlink:href="#TimesNewRomanPSMT-76"/>
      <use x="491.40625" xlink:href="#TimesNewRomanPSMT-65"/>
      <use x="535.791015625" xlink:href="#TimesNewRomanPSMT-20"/>
      <use x="560.791015625" xlink:href="#TimesNewRomanPSMT-74"/>
      <use x="588.57421875" xlink:href="#TimesNewRomanPSMT-6f"/>
      <use x="638.57421875" xlink:href="#TimesNewRomanPSMT-20"/>
      <use x="663.57421875" xlink:href="#TimesNewRomanPSMT-63"/>
      <use x="707.958984375" xlink:href="#TimesNewRomanPSMT-6f"/>
      <use x="757.958984375" xlink:href="#TimesNewRomanPSMT-6e"/>
      <use x="807.958984375" xlink:href="#TimesNewRomanPSMT-74"/>
      <use x="835.7421875" xlink:href="#TimesNewRomanPSMT-72"/>
      <use x="869.04296875" xlink:href="#TimesNewRomanPSMT-6f"/>
      <use x="919.04296875" xlink:href="#TimesNewRomanPSMT-6c"/>
      <use x="946.826171875" xlink:href="#TimesNewRomanPSMT-20"/>
      <use x="971.826171875" xlink:href="#TimesNewRomanPSMT-6d"/>
      <use x="1049.609375" xlink:href="#TimesNewRomanPSMT-65"/>
      <use x="1093.99414062" xlink:href="#TimesNewRomanPSMT-61"/>
      <use x="1138.37890625" xlink:href="#TimesNewRomanPSMT-6e"/>
     </g>
    </g>
   </g>
   <g id="patch_9">
    <path d="
M44.6288 28.04
L224.744 28.04" style="fill:none;stroke:#000000;"/>
   </g>
   <g id="patch_10">
    <path d="
M224.744 245.835
L224.744 28.04" style="fill:none;stroke:#000000;"/>
   </g>
   <g id="patch_11">
    <path d="
M44.6288 245.835
L224.744 245.835" style="fill:none;stroke:#000000;"/>
   </g>
   <g id="patch_12">
    <path d="
M44.6288 245.835
L44.6288 28.04" style="fill:none;stroke:#000000;"/>
   </g>
   <g id="text_33">
    <!-- Learning binding -->
    <defs>
     <path d="
M15.375 37.0156
Q21.875 46.0469 29.3906 46.0469
Q36.2812 46.0469 41.4062 40.1562
Q46.5312 34.2812 46.5312 24.0781
Q46.5312 12.1562 38.625 4.89062
Q31.8438 -1.375 23.4844 -1.375
Q19.5781 -1.375 15.5469 0.046875
Q11.5312 1.46875 7.32812 4.29688
L7.32812 50.6406
Q7.32812 58.25 6.95312 60
Q6.59375 61.7656 5.8125 62.3906
Q5.03125 63.0312 3.85938 63.0312
Q2.48438 63.0312 0.4375 62.25
L-0.25 63.9688
L13.1875 69.4375
L15.375 69.4375
z

M15.375 33.8906
L15.375 7.125
Q17.875 4.6875 20.5312 3.4375
Q23.1875 2.20312 25.9844 2.20312
Q30.4219 2.20312 34.25 7.07812
Q38.0938 11.9688 38.0938 21.2969
Q38.0938 29.8906 34.25 34.5
Q30.4219 39.1094 25.5312 39.1094
Q22.9531 39.1094 20.3594 37.7969
Q18.4062 36.8125 15.375 33.8906" id="TimesNewRomanPSMT-62"/>
    </defs>
    <g transform="translate(85.02875 23.04)scale(0.144 -0.144)">
     <use xlink:href="#TimesNewRomanPSMT-4c"/>
     <use x="61.083984375" xlink:href="#TimesNewRomanPSMT-65"/>
     <use x="105.46875" xlink:href="#TimesNewRomanPSMT-61"/>
     <use x="149.853515625" xlink:href="#TimesNewRomanPSMT-72"/>
     <use x="183.154296875" xlink:href="#TimesNewRomanPSMT-6e"/>
     <use x="233.154296875" xlink:href="#TimesNewRomanPSMT-69"/>
     <use x="260.9375" xlink:href="#TimesNewRomanPSMT-6e"/>
     <use x="310.9375" xlink:href="#TimesNewRomanPSMT-67"/>
     <use x="360.9375" xlink:href="#TimesNewRomanPSMT-20"/>
     <use x="385.9375" xlink:href="#TimesNewRomanPSMT-62"/>
     <use x="435.9375" xlink:href="#TimesNewRomanPSMT-69"/>
     <use x="463.720703125" xlink:href="#TimesNewRomanPSMT-6e"/>
     <use x="513.720703125" xlink:href="#TimesNewRomanPSMT-64"/>
     <use x="563.720703125" xlink:href="#TimesNewRomanPSMT-69"/>
     <use x="591.50390625" xlink:href="#TimesNewRomanPSMT-6e"/>
     <use x="641.50390625" xlink:href="#TimesNewRomanPSMT-67"/>
    </g>
   </g>
   <g id="legend_2">
    <g id="patch_13">
     <path d="
M149.588 69.1888
L218.744 69.1888
L218.744 34.04
L149.588 34.04
L149.588 69.1888
z
" style="fill:#ffffff;stroke:#000000;"/>
    </g>
    <g id="line2d_59">
     <path d="
M157.988 43.04
L174.788 43.04" style="fill:none;stroke:#0000ff;"/>
    </g>
    <g id="line2d_60"/>
    <g id="text_34">
     <!-- hPES -->
     <g transform="translate(187.988125 47.24)scale(0.12 -0.12)">
      <use xlink:href="#TimesNewRomanPSMT-68"/>
      <use x="50.0" xlink:href="#TimesNewRomanPSMT-50"/>
      <use x="105.615234375" xlink:href="#TimesNewRomanPSMT-45"/>
      <use x="166.69921875" xlink:href="#TimesNewRomanPSMT-53"/>
     </g>
    </g>
    <g id="line2d_61">
     <path d="
M157.988 60.0069
L174.788 60.0069" style="fill:none;stroke:#008000;"/>
    </g>
    <g id="line2d_62"/>
    <g id="text_35">
     <!-- PES -->
     <g transform="translate(187.988125 64.206875)scale(0.12 -0.12)">
      <use xlink:href="#TimesNewRomanPSMT-50"/>
      <use x="55.615234375" xlink:href="#TimesNewRomanPSMT-45"/>
      <use x="116.69921875" xlink:href="#TimesNewRomanPSMT-53"/>
     </g>
    </g>
   </g>
  </g>
 </g>
 <defs>
  <clipPath id="p7bfa9ac01c">
   <rect height="217.795" width="180.115" x="44.62875" y="28.04"/>
  </clipPath>
  <clipPath id="pe9e1523a67">
   <rect height="217.795" width="180.115" x="224.74375" y="28.04"/>
  </clipPath>
 </defs>
</svg>
