<?xml version="1.0" encoding="utf-8" standalone="no"?>
<!DOCTYPE svg PUBLIC "-//W3C//DTD SVG 1.1//EN"
  "http://www.w3.org/Graphics/SVG/1.1/DTD/svg11.dtd">
<!-- Created with matplotlib (http://matplotlib.sourceforge.net/) -->
<svg height="432pt" version="1.1" viewBox="0 0 576 432" width="576pt" xmlns="http://www.w3.org/2000/svg" xmlns:xlink="http://www.w3.org/1999/xlink">
 <defs>
  <style type="text/css">
*{stroke-linecap:square;stroke-linejoin:round;}
  </style>
 </defs>
 <g id="figure_1">
  <g id="patch_1">
   <path d="
M0 432
L576 432
L576 0
L0 0
z
" style="fill:none;opacity:0.0;"/>
  </g>
  <g id="axes_1">
   <g id="patch_2">
    <path d="
M72.0383 206.918
L547.46 206.918
L547.46 35.672
L72.0383 35.672
z
" style="fill:none;opacity:0.0;"/>
   </g>
   <g id="PolyCollection_1">
    <defs>
     <path d="
M72.0383 -225.082
L72.0383 -225.082
L72.6333 -393.452
L73.2283 -393.767
L73.8233 -393.514
L74.4183 -393.13
L75.0134 -393.296
L75.6084 -393.552
L76.2034 -392.635
L76.7984 -392.677
L77.3934 -393.468
L77.9885 -393.188
L78.5835 -393.254
L79.1785 -392.335
L79.7735 -393.444
L80.3685 -393.011
L80.9636 -392.999
L81.5586 -392.502
L82.1536 -392.957
L82.7486 -393.249
L83.3436 -392.409
L83.9387 -392.908
L84.5337 -392.206
L85.1287 -392.963
L85.7237 -391.55
L86.3187 -392.722
L86.9138 -392.303
L87.5088 -392.601
L88.1038 -391.831
L88.6988 -392.088
L89.2939 -392.306
L89.8889 -392.676
L90.4839 -392.096
L91.0789 -391.735
L91.6739 -392.137
L92.269 -392.617
L92.864 -392.03
L93.459 -391.311
L94.054 -391.983
L94.649 -391.949
L95.2441 -391.513
L95.8391 -391.134
L96.4341 -391.376
L97.0291 -392.243
L97.6241 -391.41
L98.2192 -391.542
L98.8142 -391.108
L99.4092 -392.268
L100.004 -392.041
L100.599 -391.154
L101.194 -390.363
L101.789 -391.758
L102.384 -391.499
L102.979 -390.831
L103.574 -391.371
L104.169 -392.414
L104.764 -390.951
L105.359 -390.94
L105.954 -390.672
L106.549 -391.91
L107.144 -391.228
L107.739 -390.232
L108.335 -391.272
L108.93 -391.928
L109.525 -391.428
L110.12 -390.737
L110.715 -390.341
L111.31 -392.003
L111.905 -391.312
L112.5 -390.271
L113.095 -390.565
L113.69 -391.454
L114.285 -391.19
L114.88 -390.228
L115.475 -390.901
L116.07 -391.285
L116.665 -391.515
L117.26 -389.692
L117.855 -390.659
L118.45 -391.437
L119.045 -391.294
L119.64 -389.869
L120.235 -390.06
L120.83 -391.625
L121.425 -390.567
L122.02 -389.138
L122.615 -389.372
L123.21 -391.612
L123.805 -391.071
L124.4 -390.869
L124.995 -389.651
L125.59 -390.972
L126.185 -391.06
L126.78 -389.28
L127.375 -389.564
L127.97 -390.565
L128.565 -389.801
L129.16 -389.395
L129.755 -389.623
L130.35 -391.15
L130.945 -390.075
L131.54 -389.735
L132.135 -390.873
L132.73 -391.307
L133.325 -390.315
L133.92 -390.047
L134.515 -389.569
L135.11 -390.787
L135.705 -389.86
L136.3 -389.44
L136.896 -389.386
L137.491 -391.06
L138.086 -390.189
L138.681 -390.204
L139.276 -389.904
L139.871 -390.238
L140.466 -388.902
L141.061 -389.159
L141.656 -388.566
L142.251 -390.72
L142.846 -389.706
L143.441 -389.285
L144.036 -388.889
L144.631 -390.32
L145.226 -389.567
L145.821 -389.203
L146.416 -388.243
L147.011 -390.828
L147.606 -389.114
L148.201 -389.589
L148.796 -389.192
L149.391 -390.915
L149.986 -389.171
L150.581 -387.833
L151.176 -388.751
L151.771 -390.661
L152.366 -389.63
L152.961 -389.487
L153.556 -388.394
L154.151 -389.89
L154.746 -388.442
L155.341 -389.121
L155.936 -388.001
L156.531 -389.424
L157.126 -387.984
L157.721 -387.874
L158.316 -387.197
L158.911 -389.876
L159.506 -388.083
L160.101 -389.166
L160.696 -387.638
L161.291 -390.119
L161.886 -387.915
L162.481 -386.584
L163.076 -386.614
L163.671 -388.729
L164.266 -387.758
L164.861 -387.297
L165.457 -386.459
L166.052 -388.842
L166.647 -387.521
L167.242 -387.505
L167.837 -386.428
L168.432 -388.984
L169.027 -386.2
L169.622 -386.77
L170.217 -386.751
L170.812 -387.322
L171.407 -385.226
L172.002 -386.402
L172.597 -386.279
L173.192 -387.596
L173.787 -386.697
L174.382 -385.819
L174.977 -385.401
L175.572 -386.757
L176.167 -385.331
L176.762 -386.366
L177.357 -385.091
L177.952 -387.632
L178.547 -385.181
L179.142 -385.05
L179.737 -383.541
L180.332 -387.728
L180.927 -385.004
L181.522 -385.002
L182.117 -384.202
L182.712 -386.577
L183.307 -384.4
L183.902 -385.881
L184.497 -383.066
L185.092 -385.402
L185.687 -383.169
L186.282 -383.315
L186.877 -381.932
L187.472 -385.399
L188.067 -383.044
L188.662 -383.63
L189.257 -381.404
L189.852 -386.594
L190.447 -383.442
L191.042 -381.743
L191.637 -382.177
L192.232 -384.548
L192.827 -383.2
L193.422 -381.578
L194.018 -379.715
L194.613 -384.91
L195.208 -381.89
L195.803 -381.88
L196.398 -380.384
L196.993 -384.411
L197.588 -381.538
L198.183 -383.077
L198.778 -379.421
L199.373 -384.506
L199.968 -380.153
L200.563 -380.633
L201.158 -379.56
L201.753 -382.403
L202.348 -382.05
L202.943 -379.895
L203.538 -379.828
L204.133 -383.451
L204.728 -380.637
L205.323 -379.488
L205.918 -378.603
L206.513 -383.745
L207.108 -379.94
L207.703 -379.295
L208.298 -378.477
L208.893 -382.526
L209.488 -380.061
L210.083 -379.411
L210.678 -378.468
L211.273 -384.008
L211.868 -376.289
L212.463 -380.191
L213.058 -375.603
L213.653 -381.677
L214.248 -377.789
L214.843 -377.932
L215.438 -374.101
L216.033 -382.05
L216.628 -378.37
L217.223 -376.959
L217.818 -375.738
L218.413 -381.79
L219.008 -376.24
L219.603 -377.464
L220.198 -375.311
L220.793 -381.321
L221.388 -376.871
L221.983 -375.872
L222.579 -373.438
L223.174 -380.904
L223.769 -376.893
L224.364 -374.213
L224.959 -372.356
L225.554 -380.258
L226.149 -373.333
L226.744 -374.102
L227.339 -374.69
L227.934 -379.013
L228.529 -374.194
L229.124 -372.219
L229.719 -371.712
L230.314 -377.138
L230.909 -373.447
L231.504 -371.486
L232.099 -371.659
L232.694 -377.148
L233.289 -373.205
L233.884 -371.983
L234.479 -369.153
L235.074 -375.326
L235.669 -373.434
L236.264 -370.603
L236.859 -370.674
L237.454 -375.203
L238.049 -372.221
L238.644 -371.759
L239.239 -369.215
L239.834 -375.537
L240.429 -371.188
L241.024 -369.211
L241.619 -370.316
L242.214 -375.963
L242.809 -371.724
L243.404 -368.845
L243.999 -366.14
L244.594 -373.549
L245.189 -369.319
L245.784 -368.91
L246.379 -366.663
L246.974 -375.329
L247.569 -368.679
L248.164 -368.977
L248.759 -367.75
L249.354 -371.427
L249.949 -368.9
L250.544 -367.555
L251.14 -365.08
L251.735 -372.288
L252.33 -369.838
L252.925 -367.322
L253.52 -364.488
L254.115 -372.658
L254.71 -370.568
L255.305 -367.97
L255.9 -361.853
L256.495 -373.589
L257.09 -368.777
L257.685 -365.079
L258.28 -362.917
L258.875 -371.662
L259.47 -369.293
L260.065 -365.969
L260.66 -363.257
L261.255 -370.712
L261.85 -364.985
L262.445 -367.284
L263.04 -363.4
L263.635 -372.741
L264.23 -367.578
L264.825 -365.696
L265.42 -360.429
L266.015 -373.059
L266.61 -368.652
L267.205 -366.242
L267.8 -359.009
L268.395 -371.194
L268.99 -365.994
L269.585 -364.717
L270.18 -360.909
L270.775 -372.068
L271.37 -363.796
L271.965 -364.768
L272.56 -358.614
L273.155 -369.833
L273.75 -365.839
L274.345 -365.103
L274.94 -356.321
L275.535 -367.258
L276.13 -365.565
L276.725 -364.731
L277.32 -358.412
L277.915 -369.596
L278.51 -365.635
L279.105 -363.973
L279.701 -357.652
L280.296 -367.981
L280.891 -362.295
L281.486 -362.035
L282.081 -357.649
L282.676 -368.708
L283.271 -362.041
L283.866 -365.179
L284.461 -355.111
L285.056 -368.788
L285.651 -360.09
L286.246 -360.296
L286.841 -356.938
L287.436 -368.382
L288.031 -361.676
L288.626 -361.696
L289.221 -358.447
L289.816 -370.438
L290.411 -361.708
L291.006 -362.166
L291.601 -358.133
L292.196 -368.74
L292.791 -361.047
L293.386 -361.918
L293.981 -357.412
L294.576 -366.548
L295.171 -361.817
L295.766 -362.73
L296.361 -355.171
L296.956 -367.777
L297.551 -360.701
L298.146 -362.322
L298.741 -354.999
L299.336 -367.636
L299.931 -360.568
L300.526 -360.033
L301.121 -349.702
L301.716 -365.881
L302.311 -359.061
L302.906 -360.718
L303.501 -353.283
L304.096 -365.246
L304.691 -361.284
L305.286 -360.367
L305.881 -352.069
L306.476 -364.479
L307.071 -359.85
L307.666 -358.684
L308.262 -351.035
L308.857 -366.189
L309.452 -359.606
L310.047 -358.937
L310.642 -352.287
L311.237 -364.538
L311.832 -362.74
L312.427 -360.181
L313.022 -351.845
L313.617 -364.025
L314.212 -358.36
L314.807 -359.811
L315.402 -348.556
L315.997 -366.385
L316.592 -359.657
L317.187 -353.604
L317.782 -349.883
L318.377 -363.348
L318.972 -356.225
L319.567 -357.659
L320.162 -349.979
L320.757 -363.845
L321.352 -356.385
L321.947 -356.972
L322.542 -350.714
L323.137 -363.536
L323.732 -358.329
L324.327 -355.657
L324.922 -352.925
L325.517 -363.219
L326.112 -360.432
L326.707 -355.204
L327.302 -347.72
L327.897 -363.411
L328.492 -356.671
L329.087 -355.075
L329.682 -350.646
L330.277 -362.508
L330.872 -359.443
L331.467 -352.464
L332.062 -351.031
L332.657 -362.113
L333.252 -359.185
L333.847 -353.21
L334.442 -347.952
L335.037 -361.658
L335.632 -358.482
L336.227 -354.282
L336.823 -352.252
L337.418 -362.852
L338.013 -357.544
L338.608 -353.136
L339.203 -350.616
L339.798 -364.837
L340.393 -356.086
L340.988 -355.335
L341.583 -349.482
L342.178 -363.058
L342.773 -357.672
L343.368 -354.358
L343.963 -350.263
L344.558 -363.465
L345.153 -355.127
L345.748 -354.863
L346.343 -349.442
L346.938 -361.237
L347.533 -357.135
L348.128 -351.738
L348.723 -347.781
L349.318 -362.415
L349.913 -355.523
L350.508 -353.541
L351.103 -345.593
L351.698 -360.718
L352.293 -355.886
L352.888 -350.267
L353.483 -349.852
L354.078 -364.046
L354.673 -356.867
L355.268 -351.849
L355.863 -346.862
L356.458 -363.278
L357.053 -356.771
L357.648 -351.05
L358.243 -348.105
L358.838 -362.463
L359.433 -354.3
L360.028 -350.875
L360.623 -347.472
L361.218 -358.791
L361.813 -353.608
L362.408 -351.279
L363.003 -347.888
L363.598 -361.087
L364.193 -356.927
L364.788 -351.372
L365.384 -349.742
L365.979 -359.72
L366.574 -359.193
L367.169 -348.686
L367.764 -347.673
L368.359 -359.229
L368.954 -356.369
L369.549 -352.059
L370.144 -348.328
L370.739 -361.064
L371.334 -354.963
L371.929 -348.786
L372.524 -351.551
L373.119 -362.49
L373.714 -355.676
L374.309 -348.89
L374.904 -349.268
L375.499 -360.54
L376.094 -356.449
L376.689 -349.625
L377.284 -346.048
L377.879 -362.513
L378.474 -358.048
L379.069 -350.091
L379.664 -344.645
L380.259 -361.856
L380.854 -353.653
L381.449 -351.554
L382.044 -346.724
L382.639 -361.334
L383.234 -354.696
L383.829 -350.496
L384.424 -343.003
L385.019 -360.286
L385.614 -356.653
L386.209 -346.998
L386.804 -345.672
L387.399 -361.353
L387.994 -356.713
L388.589 -344.584
L389.184 -349.319
L389.779 -360.78
L390.374 -355.864
L390.969 -348.725
L391.564 -347.796
L392.159 -359.779
L392.754 -353.487
L393.349 -348.121
L393.945 -345.243
L394.54 -360.468
L395.135 -352.435
L395.73 -346.242
L396.325 -341.035
L396.92 -359.702
L397.515 -353.794
L398.11 -348.1
L398.705 -342.979
L399.3 -357.913
L399.895 -353.323
L400.49 -348.77
L401.085 -343.386
L401.68 -358.075
L402.275 -353.416
L402.87 -351.642
L403.465 -345.286
L404.06 -358.082
L404.655 -350.151
L405.25 -349.51
L405.845 -347.067
L406.44 -358.216
L407.035 -357.115
L407.63 -351.06
L408.225 -345.368
L408.82 -359.544
L409.415 -352.534
L410.01 -348.487
L410.605 -341.349
L411.2 -356.014
L411.795 -356.102
L412.39 -346.277
L412.985 -343.968
L413.58 -357.229
L414.175 -355.188
L414.77 -348.122
L415.365 -342.188
L415.96 -358.372
L416.555 -355.657
L417.15 -346.713
L417.745 -344.76
L418.34 -357.543
L418.935 -352.207
L419.53 -344.328
L420.125 -347.62
L420.72 -356.558
L421.315 -350.558
L421.91 -346.227
L422.506 -347.039
L423.101 -356.378
L423.696 -352.058
L424.291 -347.503
L424.886 -343.819
L425.481 -356.404
L426.076 -352.401
L426.671 -346.794
L427.266 -342.115
L427.861 -357.286
L428.456 -353.29
L429.051 -347.497
L429.646 -341.009
L430.241 -358.921
L430.836 -351.89
L431.431 -348.149
L432.026 -342.223
L432.621 -356.568
L433.216 -351.559
L433.811 -348.445
L434.406 -342.492
L435.001 -358.002
L435.596 -350.29
L436.191 -346.367
L436.786 -345.679
L437.381 -360.21
L437.976 -351.68
L438.571 -346.561
L439.166 -345.878
L439.761 -357.628
L440.356 -349.321
L440.951 -347.706
L441.546 -341.97
L442.141 -356.473
L442.736 -351.967
L443.331 -347.529
L443.926 -344.287
L444.521 -358.262
L445.116 -351.97
L445.711 -349.509
L446.306 -339.864
L446.901 -357.516
L447.496 -355.4
L448.091 -344.657
L448.686 -342.553
L449.281 -354.951
L449.876 -353.292
L450.471 -343.812
L451.067 -339.879
L451.662 -358.13
L452.257 -348.025
L452.852 -347.442
L453.447 -340.796
L454.042 -356.001
L454.637 -347.359
L455.232 -346.157
L455.827 -342.971
L456.422 -360.325
L457.017 -352.527
L457.612 -344.759
L458.207 -342.636
L458.802 -355.117
L459.397 -349.88
L459.992 -343.828
L460.587 -343.375
L461.182 -356.597
L461.777 -352.017
L462.372 -344.962
L462.967 -341.051
L463.562 -356.296
L464.157 -349.348
L464.752 -346.841
L465.347 -343.844
L465.942 -358.641
L466.537 -350.522
L467.132 -342.103
L467.727 -340.418
L468.322 -357.267
L468.917 -349.004
L469.512 -344.3
L470.107 -342.492
L470.702 -354.54
L471.297 -350.757
L471.892 -347.216
L472.487 -341.368
L473.082 -357.718
L473.677 -348.81
L474.272 -345.352
L474.867 -341.809
L475.462 -354.805
L476.057 -350.994
L476.652 -343.231
L477.247 -339.897
L477.842 -354.987
L478.437 -349.671
L479.032 -343.33
L479.628 -341.222
L480.223 -353.546
L480.818 -349.336
L481.413 -344.25
L482.008 -338.392
L482.603 -354.23
L483.198 -348.284
L483.793 -344.58
L484.388 -339.806
L484.983 -355.089
L485.578 -350.501
L486.173 -342.798
L486.768 -335.376
L487.363 -354.607
L487.958 -347.372
L488.553 -344.877
L489.148 -338.978
L489.743 -351.246
L490.338 -347.142
L490.933 -343.876
L491.528 -339.998
L492.123 -352.421
L492.718 -345.989
L493.313 -343.692
L493.908 -338.537
L494.503 -354.659
L495.098 -347.231
L495.693 -340.982
L496.288 -340.914
L496.883 -351.323
L497.478 -348.745
L498.073 -342.708
L498.668 -341.412
L499.263 -354.003
L499.858 -346.859
L500.453 -344.057
L501.048 -340.824
L501.643 -355.1
L502.238 -342.424
L502.833 -343.533
L503.428 -339.261
L504.023 -353.783
L504.618 -347.161
L505.213 -338.574
L505.808 -338.652
L506.403 -352.3
L506.998 -344.225
L507.593 -343.409
L508.189 -337.782
L508.784 -353.336
L509.379 -346.355
L509.974 -342.478
L510.569 -338.428
L511.164 -351.971
L511.759 -344.614
L512.354 -342.652
L512.949 -338.769
L513.544 -353.764
L514.139 -344.268
L514.734 -345.443
L515.329 -340.703
L515.924 -353.974
L516.519 -345.713
L517.114 -343.527
L517.709 -339.72
L518.304 -352.897
L518.899 -343.798
L519.494 -343.672
L520.089 -339.148
L520.684 -352.41
L521.279 -345.955
L521.874 -344.14
L522.469 -339.451
L523.064 -353.477
L523.659 -346.504
L524.254 -344.651
L524.849 -339.421
L525.444 -351.577
L526.039 -348.292
L526.634 -342.206
L527.229 -337.045
L527.824 -353.374
L528.419 -347.461
L529.014 -340.509
L529.609 -337.23
L530.204 -353.795
L530.799 -347.774
L531.394 -341.697
L531.989 -337.184
L532.584 -352.705
L533.179 -347.092
L533.774 -343.339
L534.369 -337.481
L534.964 -354.174
L535.559 -343.273
L536.154 -342.541
L536.75 -335.24
L537.345 -352.949
L537.94 -346.865
L538.535 -340.042
L539.13 -338.358
L539.725 -356.511
L540.32 -345.635
L540.915 -343.877
L541.51 -336.687
L542.105 -356.101
L542.7 -346.062
L543.295 -343.276
L543.89 -335.32
L544.485 -355.173
L545.08 -348.547
L545.675 -341.186
L546.27 -332.555
L546.865 -353.071
L547.46 -345.755
L547.46 -322.526
L547.46 -322.526
L546.865 -332.09
L546.27 -303.762
L545.675 -312.966
L545.08 -329.088
L544.485 -338.244
L543.89 -308.588
L543.295 -319.011
L542.7 -325.427
L542.105 -337.443
L541.51 -310.519
L540.915 -319.664
L540.32 -323.805
L539.725 -336.332
L539.13 -312.629
L538.535 -312.824
L537.94 -319.279
L537.345 -334.227
L536.75 -306.257
L536.154 -317.36
L535.559 -319.479
L534.964 -332.973
L534.369 -310.504
L533.774 -318.052
L533.179 -324.227
L532.584 -330.884
L531.989 -312.388
L531.394 -312.59
L530.799 -327.092
L530.204 -334.641
L529.609 -306.884
L529.014 -312.397
L528.419 -324.28
L527.824 -333.412
L527.229 -309.641
L526.634 -314.19
L526.039 -327.3
L525.444 -331.192
L524.849 -311.946
L524.254 -317.209
L523.659 -323.449
L523.064 -332.076
L522.469 -315.291
L521.874 -316.733
L521.279 -322.744
L520.684 -332.509
L520.089 -314.978
L519.494 -318.135
L518.899 -319.874
L518.304 -332.331
L517.709 -313.83
L517.114 -318.592
L516.519 -322.552
L515.924 -335.472
L515.329 -314.917
L514.734 -321.2
L514.139 -321.475
L513.544 -334.697
L512.949 -312.641
L512.354 -316.5
L511.759 -321.117
L511.164 -331.672
L510.569 -311.814
L509.974 -316.528
L509.379 -322.116
L508.784 -333.292
L508.189 -314.469
L507.593 -315.264
L506.998 -320.255
L506.403 -333.801
L505.808 -309.953
L505.213 -313.568
L504.618 -324.497
L504.023 -333.843
L503.428 -315.119
L502.833 -317.961
L502.238 -319.305
L501.643 -337.777
L501.048 -315.05
L500.453 -316.275
L499.858 -326.066
L499.263 -333.756
L498.668 -315.31
L498.073 -316.167
L497.478 -326.247
L496.883 -332.473
L496.288 -317.573
L495.693 -313.811
L495.098 -326.806
L494.503 -335.13
L493.908 -313.5
L493.313 -314.65
L492.718 -325.021
L492.123 -331.666
L491.528 -316.042
L490.933 -317.888
L490.338 -325.385
L489.743 -331.54
L489.148 -314.366
L488.553 -319.073
L487.958 -326.268
L487.363 -332.83
L486.768 -306.081
L486.173 -316.118
L485.578 -331.327
L484.983 -334.335
L484.388 -314.463
L483.793 -317.931
L483.198 -328.795
L482.603 -334.113
L482.008 -313.355
L481.413 -319.66
L480.818 -326.602
L480.223 -334.645
L479.628 -315.365
L479.032 -317.812
L478.437 -327.901
L477.842 -334.047
L477.247 -315.186
L476.652 -318.476
L476.057 -331.6
L475.462 -335.359
L474.867 -319.286
L474.272 -320.188
L473.677 -330.504
L473.082 -338.498
L472.487 -318.105
L471.892 -320.26
L471.297 -329.564
L470.702 -332.189
L470.107 -319.351
L469.512 -318.318
L468.917 -328.2
L468.322 -338.441
L467.727 -317.793
L467.132 -313.119
L466.537 -330.532
L465.942 -338.898
L465.347 -322.054
L464.752 -321.618
L464.157 -329.01
L463.562 -336.496
L462.967 -317.514
L462.372 -319.78
L461.777 -334.158
L461.182 -339.1
L460.587 -321.774
L459.992 -316.866
L459.397 -331.177
L458.802 -334.557
L458.207 -318.242
L457.612 -317.687
L457.017 -336.46
L456.422 -342.798
L455.827 -319.594
L455.232 -315.769
L454.637 -327.828
L454.042 -337.755
L453.447 -316.735
L452.852 -324.617
L452.257 -330.575
L451.662 -341.071
L451.067 -315.415
L450.471 -317.139
L449.876 -335.738
L449.281 -336.578
L448.686 -315.877
L448.091 -320.916
L447.496 -337.248
L446.901 -341.135
L446.306 -314.157
L445.711 -325.323
L445.116 -334.941
L444.521 -341.426
L443.926 -315.864
L443.331 -323.222
L442.736 -331.711
L442.141 -337.937
L441.546 -316.227
L440.951 -324.974
L440.356 -330.678
L439.761 -339.091
L439.166 -321.95
L438.571 -321.878
L437.976 -332.607
L437.381 -343.358
L436.786 -320.253
L436.191 -320.834
L435.596 -331.778
L435.001 -340.032
L434.406 -318.205
L433.811 -325.846
L433.216 -331.881
L432.621 -337.464
L432.026 -316.043
L431.431 -322.619
L430.836 -332.923
L430.241 -340.876
L429.646 -313.077
L429.051 -323.131
L428.456 -335.936
L427.861 -338.292
L427.266 -319.475
L426.671 -323.635
L426.076 -334.572
L425.481 -339.203
L424.886 -318.721
L424.291 -325.584
L423.696 -333.479
L423.101 -338.46
L422.506 -321.449
L421.91 -322.832
L421.315 -331.389
L420.72 -338.671
L420.125 -322.076
L419.53 -319.072
L418.935 -333.331
L418.34 -339.993
L417.745 -318.736
L417.15 -323.824
L416.555 -339.998
L415.96 -339.245
L415.365 -316.616
L414.77 -324.773
L414.175 -338.001
L413.58 -337.545
L412.985 -315.503
L412.39 -320.765
L411.795 -341.461
L411.2 -337.603
L410.605 -314.48
L410.01 -325.888
L409.415 -334.655
L408.82 -341.517
L408.225 -315.987
L407.63 -330.012
L407.035 -339.604
L406.44 -341.104
L405.845 -319.743
L405.25 -327.621
L404.655 -332.146
L404.06 -340.778
L403.465 -318.375
L402.87 -332.31
L402.275 -334.173
L401.68 -341.662
L401.085 -314.563
L400.49 -327.843
L399.895 -336.036
L399.3 -342.588
L398.705 -316.566
L398.11 -326.187
L397.515 -337.874
L396.92 -342.667
L396.325 -315.261
L395.73 -325.431
L395.135 -333.909
L394.54 -344.576
L393.945 -317.499
L393.349 -328.315
L392.754 -335.998
L392.159 -343.977
L391.564 -321.328
L390.969 -328.09
L390.374 -338.332
L389.779 -343.158
L389.184 -321.257
L388.589 -321.691
L387.994 -339.12
L387.399 -343.933
L386.804 -322.067
L386.209 -325.659
L385.614 -340.187
L385.019 -343.449
L384.424 -314.732
L383.829 -332.173
L383.234 -339.045
L382.639 -344.214
L382.044 -319.659
L381.449 -331.259
L380.854 -336.379
L380.259 -345.272
L379.664 -320.05
L379.069 -330.201
L378.474 -342.062
L377.879 -347.133
L377.284 -320.549
L376.689 -329.078
L376.094 -338.918
L375.499 -344.85
L374.904 -323.386
L374.309 -327.702
L373.714 -338.824
L373.119 -346.902
L372.524 -327.07
L371.929 -325.904
L371.334 -336.95
L370.739 -344.32
L370.144 -324.511
L369.549 -332.024
L368.954 -340.118
L368.359 -342.614
L367.764 -323.131
L367.169 -327.666
L366.574 -342.118
L365.979 -342.143
L365.384 -325.5
L364.788 -332.595
L364.193 -341.146
L363.598 -343.454
L363.003 -325.373
L362.408 -332.92
L361.813 -335.159
L361.218 -340.417
L360.623 -320.883
L360.028 -331.634
L359.433 -336.452
L358.838 -343.556
L358.243 -324.505
L357.648 -331.074
L357.053 -339.128
L356.458 -346.792
L355.863 -322.95
L355.268 -331.965
L354.673 -338.265
L354.078 -348.289
L353.483 -323.693
L352.888 -330.659
L352.293 -335.335
L351.698 -342.804
L351.103 -319.262
L350.508 -333.168
L349.913 -335.93
L349.318 -344.452
L348.723 -322.405
L348.128 -333.779
L347.533 -338.869
L346.938 -345.114
L346.343 -324.545
L345.748 -335.181
L345.153 -338.2
L344.558 -347.332
L343.963 -327.843
L343.368 -337.47
L342.773 -340.586
L342.178 -346.84
L341.583 -327.696
L340.988 -335.326
L340.393 -338.223
L339.798 -348.772
L339.203 -326.945
L338.608 -334.478
L338.013 -340.235
L337.418 -345.141
L336.823 -330.356
L336.227 -335.266
L335.632 -340.049
L335.037 -346.701
L334.442 -325.741
L333.847 -333.882
L333.252 -343.075
L332.657 -343.904
L332.062 -330.025
L331.467 -335.188
L330.872 -342.415
L330.277 -347.631
L329.682 -330.442
L329.087 -336.967
L328.492 -338.622
L327.897 -346.155
L327.302 -325.343
L326.707 -336.523
L326.112 -342.03
L325.517 -347.865
L324.922 -330.386
L324.327 -336.83
L323.732 -342.346
L323.137 -345.657
L322.542 -327.921
L321.947 -340.144
L321.352 -337.51
L320.757 -348.336
L320.162 -328.889
L319.567 -338.338
L318.972 -338.818
L318.377 -347.566
L317.782 -329.254
L317.187 -335.964
L316.592 -342.453
L315.997 -350.02
L315.402 -325.784
L314.807 -342.318
L314.212 -342.195
L313.617 -348.058
L313.022 -331.251
L312.427 -345.787
L311.832 -346.246
L311.237 -346.916
L310.642 -331.663
L310.047 -341.004
L309.452 -342.59
L308.857 -347.49
L308.262 -330.472
L307.666 -342.155
L307.071 -343.509
L306.476 -347.033
L305.881 -328.504
L305.286 -344.092
L304.691 -344.855
L304.096 -346.357
L303.501 -332.323
L302.906 -345.216
L302.311 -343.664
L301.716 -349.352
L301.121 -327.53
L300.526 -343.452
L299.931 -343.307
L299.336 -351.327
L298.741 -334.412
L298.146 -347.654
L297.551 -344.933
L296.956 -352.145
L296.361 -334.094
L295.766 -346.471
L295.171 -345.883
L294.576 -348.989
L293.981 -337.119
L293.386 -345.352
L292.791 -346.414
L292.196 -351.854
L291.601 -340.524
L291.006 -345.067
L290.411 -345.617
L289.816 -354.488
L289.221 -338.509
L288.626 -344.952
L288.031 -344.525
L287.436 -353.691
L286.841 -336.616
L286.246 -343.517
L285.651 -343.812
L285.056 -351.389
L284.461 -335.017
L283.866 -350.736
L283.271 -345.317
L282.676 -353.204
L282.081 -339.286
L281.486 -345.235
L280.891 -344.731
L280.296 -352.237
L279.701 -337.949
L279.105 -348.369
L278.51 -350.77
L277.915 -353.502
L277.32 -338.351
L276.725 -347.535
L276.13 -350.138
L275.535 -350.677
L274.94 -337.555
L274.345 -348.148
L273.75 -350.375
L273.155 -353.87
L272.56 -339.999
L271.965 -349.225
L271.37 -347.554
L270.775 -355.763
L270.18 -342.087
L269.585 -348.909
L268.99 -349.341
L268.395 -356.698
L267.8 -340.424
L267.205 -350.625
L266.61 -355.434
L266.015 -357.827
L265.42 -342.311
L264.825 -352.685
L264.23 -352.442
L263.635 -357.273
L263.04 -345.21
L262.445 -353.834
L261.85 -349.419
L261.255 -355.168
L260.66 -345.461
L260.065 -351.726
L259.47 -354.081
L258.875 -357.202
L258.28 -346.823
L257.685 -348.698
L257.09 -354.026
L256.495 -359.793
L255.9 -345.672
L255.305 -353.428
L254.71 -355.217
L254.115 -358.867
L253.52 -345.91
L252.925 -352.765
L252.33 -354.17
L251.735 -358.123
L251.14 -347.697
L250.544 -352.961
L249.949 -353.765
L249.354 -356.804
L248.759 -352.711
L248.164 -355.972
L247.569 -354.816
L246.974 -363.051
L246.379 -350.964
L245.784 -354.278
L245.189 -355.463
L244.594 -359.662
L243.999 -350.176
L243.404 -354.615
L242.809 -358.845
L242.214 -362.905
L241.619 -355.367
L241.024 -355.324
L240.429 -358.081
L239.834 -361.321
L239.239 -355.13
L238.644 -359.11
L238.049 -360.114
L237.454 -362.321
L236.859 -357.675
L236.264 -357.474
L235.669 -361.277
L235.074 -361.723
L234.479 -355.212
L233.884 -359.14
L233.289 -359.88
L232.694 -366.293
L232.099 -356.887
L231.504 -358.058
L230.909 -361.197
L230.314 -364.591
L229.719 -358.841
L229.124 -360.456
L228.529 -362.391
L227.934 -368.942
L227.339 -361.964
L226.744 -361.274
L226.149 -361.233
L225.554 -369.448
L224.959 -359.645
L224.364 -363.568
L223.769 -366.592
L223.174 -369.922
L222.579 -360.005
L221.983 -364.85
L221.388 -365.145
L220.793 -371.921
L220.198 -363.192
L219.603 -366.281
L219.008 -364.696
L218.413 -371.342
L217.818 -363.329
L217.223 -366.026
L216.628 -369.099
L216.033 -371.921
L215.438 -361.97
L214.843 -368.106
L214.248 -368.793
L213.653 -372.161
L213.058 -364.058
L212.463 -371.049
L211.868 -365.269
L211.273 -372.462
L210.678 -369.836
L210.083 -368.724
L209.488 -370.716
L208.893 -374.324
L208.298 -367.92
L207.703 -368.422
L207.108 -370.327
L206.513 -375.357
L205.918 -369.958
L205.323 -369.689
L204.728 -373.394
L204.133 -373.241
L203.538 -371.67
L202.943 -369.456
L202.348 -373.814
L201.753 -370.903
L201.158 -370.349
L200.563 -371.461
L199.968 -372.336
L199.373 -375.647
L198.778 -370.286
L198.183 -374.74
L197.588 -374.369
L196.993 -373.854
L196.398 -371.341
L195.803 -373.777
L195.208 -373.513
L194.613 -374.937
L194.018 -370.913
L193.422 -372.726
L192.827 -374.775
L192.232 -375.349
L191.637 -373.879
L191.042 -374.33
L190.447 -375.688
L189.852 -377.202
L189.257 -373.159
L188.662 -375.977
L188.067 -375.737
L187.472 -376.344
L186.877 -374.153
L186.282 -376.978
L185.687 -374.417
L185.092 -376.639
L184.497 -375.285
L183.902 -379.103
L183.307 -376.903
L182.712 -377.495
L182.117 -377.159
L181.522 -377.767
L180.927 -376.463
L180.332 -378.195
L179.737 -376.227
L179.142 -378.298
L178.547 -377.003
L177.952 -379.185
L177.357 -378.198
L176.762 -381.019
L176.167 -377.272
L175.572 -379.541
L174.977 -378.702
L174.382 -379.997
L173.787 -378.261
L173.192 -380.676
L172.597 -379.963
L172.002 -380.666
L171.407 -378.297
L170.812 -380.15
L170.217 -380.636
L169.622 -381.176
L169.027 -378.598
L168.432 -382.495
L167.837 -379.896
L167.242 -382.611
L166.647 -380.622
L166.052 -382.157
L165.457 -380.44
L164.861 -382.224
L164.266 -381.476
L163.671 -382.516
L163.076 -380.578
L162.481 -381.906
L161.886 -381.981
L161.291 -383.533
L160.696 -381.35
L160.101 -384.688
L159.506 -382.7
L158.911 -383.638
L158.316 -381.511
L157.721 -382.967
L157.126 -382.349
L156.531 -383.118
L155.936 -381.862
L155.341 -384.761
L154.746 -383.905
L154.151 -384.217
L153.556 -381.89
L152.961 -384.594
L152.366 -385.411
L151.771 -385.861
L151.176 -383.015
L150.581 -382.32
L149.986 -385.047
L149.391 -385.783
L148.796 -384.613
L148.201 -384.902
L147.606 -385.216
L147.011 -385.679
L146.416 -381.853
L145.821 -384.51
L145.226 -385.53
L144.631 -384.843
L144.036 -384.175
L143.441 -385.432
L142.846 -385.954
L142.251 -386.054
L141.656 -382.938
L141.061 -384.572
L140.466 -385.075
L139.871 -385.25
L139.276 -384.805
L138.681 -385.97
L138.086 -386.619
L137.491 -386.272
L136.896 -383.911
L136.3 -385.561
L135.705 -387.018
L135.11 -386.437
L134.515 -384.547
L133.92 -386.217
L133.325 -387.46
L132.73 -387.406
L132.135 -386.085
L131.54 -385.594
L130.945 -387.591
L130.35 -387.819
L129.755 -383.704
L129.16 -384.388
L128.565 -386.74
L127.97 -386.787
L127.375 -384.773
L126.78 -384.958
L126.185 -388.459
L125.59 -388.013
L124.995 -384.029
L124.4 -387.66
L123.805 -388.409
L123.21 -388.589
L122.615 -383.523
L122.02 -384.947
L121.425 -387.569
L120.83 -388.037
L120.235 -383.881
L119.64 -386.083
L119.045 -388.99
L118.45 -388.879
L117.855 -386.252
L117.26 -385.98
L116.665 -389.35
L116.07 -388.337
L115.475 -385.872
L114.88 -385.238
L114.285 -388.663
L113.69 -388.438
L113.095 -387.141
L112.5 -386.686
L111.905 -388.777
L111.31 -389.449
L110.715 -386.156
L110.12 -386.291
L109.525 -389.032
L108.93 -389.307
L108.335 -385.686
L107.739 -385.472
L107.144 -388.188
L106.549 -388.649
L105.954 -386.769
L105.359 -387.221
L104.764 -388.464
L104.169 -389.571
L103.574 -388.037
L102.979 -386.773
L102.384 -388.914
L101.789 -389.405
L101.194 -386.115
L100.599 -387.718
L100.004 -389.115
L99.4092 -389.897
L98.8142 -387.9
L98.2192 -387.039
L97.6241 -388.472
L97.0291 -390.098
L96.4341 -388.373
L95.8391 -387.085
L95.2441 -389.038
L94.649 -389.541
L94.054 -388.925
L93.459 -388.353
L92.864 -389.82
L92.269 -390.394
L91.6739 -389.641
L91.0789 -387.964
L90.4839 -389.418
L89.8889 -390.602
L89.2939 -389.942
L88.6988 -389.51
L88.1038 -389.778
L87.5088 -390.549
L86.9138 -389.289
L86.3187 -390.273
L85.7237 -389.38
L85.1287 -390.972
L84.5337 -389.64
L83.9387 -389.526
L83.3436 -390.379
L82.7486 -391.677
L82.1536 -390.482
L81.5586 -389.712
L80.9636 -391.048
L80.3685 -391.165
L79.7735 -391.782
L79.1785 -388.941
L78.5835 -391.396
L77.9885 -391.318
L77.3934 -391.997
L76.7984 -390.45
L76.2034 -390.536
L75.6084 -392.02
L75.0134 -390.844
L74.4183 -390.347
L73.8233 -391.934
L73.2283 -392.448
L72.6333 -391.541
L72.0383 -225.082
z
" id="C0_0_99823673ce"/>
    </defs>
    <g clip-path="url(#pa838098189)">
     <use style="fill:#b3b3b3;stroke:#b3b3b3;stroke-linecap:butt;" x="0" xlink:href="#C0_0_99823673ce" y="432.0"/>
    </g>
   </g>
   <g id="line2d_1">
    <path clip-path="url(#pa838098189)" d="
M72.0383 206.918
L72.6333 39.4374
L73.2283 38.8655
L73.8233 39.2384
L74.4183 40.1757
L75.0134 39.7909
L75.6084 39.1895
L76.2034 40.3468
L76.7984 40.3617
L77.3934 39.2317
L77.9885 39.7097
L78.5835 39.6541
L79.1785 41.1876
L79.7735 39.3288
L80.3685 39.8905
L80.9636 39.9297
L81.5586 40.802
L82.7486 39.502
L83.3436 40.5744
L83.9387 40.507
L84.5337 40.9834
L85.1287 39.9862
L85.7237 41.5108
L86.3187 40.4298
L86.9138 41.0431
L87.5088 40.3745
L88.1038 41.1566
L88.6988 41.1271
L89.2939 40.8076
L89.8889 40.3055
L91.0789 41.9417
L91.6739 40.9778
L92.269 40.4195
L92.864 41.027
L93.459 41.9878
L94.054 41.4233
L94.649 41.1433
L95.2441 41.6901
L95.8391 42.6542
L96.4341 42.0265
L97.0291 40.7849
L97.6241 41.9864
L98.2192 42.4602
L98.8142 42.4279
L99.4092 40.8642
L100.004 41.3249
L101.194 43.5928
L101.789 41.3712
L102.384 41.7366
L102.979 42.9873
L103.574 42.2112
L104.169 40.8891
L104.764 42.2545
L105.359 42.7614
L105.954 43.1066
L106.549 41.6077
L107.144 42.1947
L107.739 43.9281
L108.335 43.1605
L108.93 41.3018
L109.525 41.7291
L110.12 43.1577
L110.715 43.613
L111.31 41.1889
L111.905 41.8952
L112.5 43.3547
L113.095 43.0543
L113.69 41.9695
L114.285 42.008
L114.88 43.9792
L115.475 43.3538
L116.07 42.1077
L116.665 41.519
L117.26 44.0523
L117.855 43.4006
L118.45 41.773
L119.045 41.8357
L119.64 43.8818
L120.235 44.7081
L120.83 42.0427
L121.425 42.8581
L122.02 44.7533
L122.615 45.311
L123.21 41.8192
L124.4 42.6239
L124.995 44.9459
L125.59 42.4173
L126.185 42.2049
L126.78 44.765
L127.375 44.6599
L127.97 43.1881
L128.565 43.6906
L129.16 44.8317
L129.755 45.1648
L130.35 42.4285
L130.945 43.1372
L131.54 44.1266
L132.73 42.4735
L133.92 43.7247
L134.515 44.7686
L135.11 43.1454
L135.705 43.5042
L136.896 45.1654
L137.491 43.0152
L138.086 43.5107
L138.681 43.7401
L139.276 44.4813
L139.871 43.931
L140.466 44.929
L141.061 44.9666
L141.656 46.1233
L142.251 43.3922
L142.846 44.0729
L143.441 44.5258
L144.036 45.3109
L144.631 44.04
L145.226 44.3366
L145.821 44.9434
L146.416 46.6877
L147.011 43.4326
L147.606 44.74
L148.201 44.5917
L148.796 44.9317
L149.391 43.3168
L149.986 44.7782
L150.581 46.7476
L151.176 45.8629
L151.771 43.4869
L152.366 44.3552
L152.961 44.7655
L153.556 46.6037
L154.151 44.6223
L154.746 45.7012
L155.341 44.8901
L155.936 46.8048
L156.531 45.3144
L157.126 46.599
L157.721 46.3651
L158.316 47.4717
L158.911 44.8835
L159.506 46.4297
L160.101 44.9763
L160.696 47.3201
L161.291 44.6696
L161.886 46.8927
L162.481 47.6815
L163.076 48.2174
L163.671 46.031
L164.266 47.1662
L164.861 47.0634
L165.457 48.3976
L166.052 46.1247
L166.647 47.664
L167.242 46.7947
L167.837 48.7015
L168.432 45.8933
L169.027 49.2655
L169.622 47.8581
L170.217 48.1204
L170.812 47.8749
L171.407 49.9809
L172.002 48.2885
L172.597 48.7259
L173.192 47.5567
L173.787 49.1788
L174.382 48.8988
L174.977 49.7612
L175.572 48.5491
L176.167 50.2878
L176.762 48.2045
L177.357 50.2434
L177.952 48.1041
L178.547 50.4663
L179.142 50.1534
L179.737 51.9798
L180.332 48.4685
L180.927 50.8748
L181.522 50.3562
L182.117 51.1421
L182.712 49.504
L183.307 51.0388
L183.902 49.2144
L184.497 52.6502
L185.092 50.6113
L185.687 52.9113
L186.282 51.7161
L186.877 53.8722
L187.472 50.7902
L188.067 52.3959
L188.662 51.9465
L189.257 54.6382
L189.852 49.6146
L190.447 52.2729
L191.042 53.7952
L191.637 53.8095
L192.232 51.6906
L192.827 52.8034
L194.018 56.6186
L194.613 51.7285
L195.208 54.066
L195.803 53.9632
L196.398 56.091
L196.993 52.4218
L197.588 53.9783
L198.183 52.8939
L198.778 57.0272
L199.373 51.5094
L199.968 55.6468
L200.563 55.7286
L201.158 56.9494
L201.753 54.8741
L202.348 53.8334
L202.943 57.067
L203.538 56.2022
L204.133 53.3076
L204.728 54.8689
L205.323 57.204
L205.918 57.7374
L206.513 52.209
L207.108 56.689
L207.703 57.8059
L208.298 58.5834
L208.893 53.2936
L209.488 56.4201
L210.083 57.7739
L210.678 57.7646
L211.273 53.161
L211.868 60.9009
L212.463 56.1472
L213.058 62.1003
L213.653 54.804
L214.248 58.5274
L214.843 58.6641
L215.438 63.8783
L216.033 54.7105
L216.628 58.1176
L217.818 62.2029
L218.413 55.0823
L219.008 61.248
L219.603 59.893
L220.198 62.6391
L220.793 55.1129
L221.388 60.6963
L221.983 61.4344
L222.579 65.177
L223.174 56.2976
L223.769 60.0616
L224.959 65.8977
L225.554 56.7944
L226.149 64.3885
L227.339 63.6369
L227.934 57.7868
L228.529 63.5213
L229.124 65.543
L229.719 66.5706
L230.314 60.7078
L230.909 64.4031
L231.504 66.9762
L232.099 67.4554
L232.694 59.9523
L233.289 65.1783
L233.884 66.301
L234.479 69.6348
L235.074 63.0683
L235.669 64.4145
L236.264 67.6261
L236.859 67.7322
L237.454 62.8305
L238.049 65.6324
L238.644 66.2767
L239.239 69.6574
L239.834 63.1204
L240.429 67.1258
L241.024 69.4966
L241.619 68.9057
L242.214 62.1077
L243.404 70.1262
L243.999 73.5219
L244.594 64.9763
L245.189 69.345
L245.784 70.1214
L246.379 72.87
L246.974 62.5115
L247.569 70.0271
L248.164 69.4562
L248.759 71.5052
L249.354 67.4095
L249.949 70.276
L250.544 71.5848
L251.14 75.3329
L251.735 66.124
L252.33 69.7119
L252.925 71.7351
L253.52 76.4829
L254.115 65.8369
L255.305 71.1042
L255.9 77.74
L256.495 64.8041
L257.09 70.4387
L257.685 74.8551
L258.28 76.8967
L258.875 67.1419
L260.065 73.0318
L260.66 77.4391
L261.255 68.4414
L261.85 74.4993
L262.445 71.3762
L263.04 77.4417
L263.635 66.4751
L264.23 71.7242
L264.825 72.616
L265.42 80.3684
L266.015 66.0187
L267.205 73.3088
L267.8 81.9663
L268.395 67.5822
L268.99 73.9299
L269.585 74.8774
L270.18 79.885
L270.775 67.3792
L271.37 75.8869
L271.965 74.8337
L272.56 82.2211
L273.155 69.4436
L273.75 73.5635
L274.345 75.0642
L274.94 84.6967
L275.535 72.4989
L276.13 73.7914
L276.725 75.6363
L277.32 83.1682
L277.915 69.8875
L278.51 73.4332
L279.105 75.6683
L279.701 83.7248
L280.296 71.4996
L280.891 78.109
L281.486 78.2327
L282.081 83.0971
L282.676 70.6382
L283.271 78.0186
L283.866 74.0016
L284.461 86.5836
L285.056 71.4773
L285.651 79.8397
L286.246 79.9774
L286.841 84.6382
L287.436 70.5588
L288.031 78.5258
L288.626 78.5752
L289.221 82.9705
L289.816 69.0472
L290.411 78.0512
L291.006 78.11
L291.601 82.0776
L292.196 71.1004
L292.791 78.1639
L293.386 78.1159
L293.981 84.344
L294.576 73.6703
L295.171 77.944
L295.766 77.3776
L296.361 86.9552
L296.956 71.7067
L297.551 79.0032
L298.146 76.909
L298.741 86.6969
L299.336 72.1772
L299.931 79.6872
L300.526 80.0446
L301.121 93.0412
L301.716 74.0793
L302.311 80.3535
L302.906 78.6971
L303.501 88.8634
L304.096 75.7265
L304.691 78.598
L305.286 79.4748
L305.881 91.3613
L306.476 75.7292
L307.071 80.0472
L307.666 81.3703
L308.262 91.1362
L308.857 74.6019
L309.452 80.7001
L310.047 81.7196
L310.642 89.562
L311.237 75.831
L312.427 78.944
L313.022 89.9627
L313.617 75.8165
L314.212 81.4477
L314.807 80.7359
L315.402 94.3369
L315.997 73.5159
L317.187 86.9304
L317.782 92.0693
L318.377 76.3672
L318.972 84.2419
L319.567 83.7426
L320.162 92.2175
L320.757 75.6226
L321.352 84.6495
L321.947 83.246
L322.542 92.2288
L323.137 77.2922
L324.922 89.7603
L325.517 76.3026
L326.112 80.3986
L326.707 86.0802
L327.302 95.2092
L327.897 76.8789
L328.492 84.1249
L329.087 85.7723
L329.682 91.1998
L330.277 76.7336
L330.872 80.9715
L331.467 87.9529
L332.062 90.9348
L332.657 78.7872
L333.252 80.7613
L334.442 94.8302
L335.037 77.7205
L336.227 86.746
L336.823 90.2581
L337.418 77.5481
L339.203 92.7605
L339.798 74.9156
L340.393 84.5704
L340.988 86.3575
L341.583 93.1266
L342.178 76.8088
L342.773 82.6898
L343.368 85.8987
L343.963 92.2595
L344.558 76.3503
L345.153 85.0357
L345.748 86.6887
L346.343 94.3178
L346.938 78.729
L348.128 88.857
L348.723 96.2054
L349.318 78.0904
L349.913 85.9172
L350.508 88.136
L351.103 99.1113
L351.698 79.9219
L352.888 91.2849
L353.483 94.4163
L354.078 75.6021
L354.673 84.0122
L355.268 89.676
L355.863 96.7215
L356.458 76.7359
L357.648 90.6933
L358.243 94.9989
L358.838 78.496
L359.433 86.4327
L360.028 90.4894
L360.623 96.8946
L361.218 82.2208
L361.813 87.4727
L362.408 89.7099
L363.003 94.8754
L363.598 79.2915
L364.193 82.808
L364.788 89.8064
L365.384 93.722
L365.979 80.8275
L366.574 81.1204
L367.169 93.4113
L367.764 95.7517
L368.359 80.9145
L368.954 83.5402
L370.144 95.0349
L370.739 79.0452
L371.334 85.8803
L371.929 94.1039
L372.524 91.9219
L373.119 77.123
L374.309 93.1417
L374.904 94.8532
L375.499 79.1321
L376.094 84.0943
L376.689 92.3416
L377.284 97.9407
L377.879 76.9156
L378.474 81.7417
L379.069 91.5995
L379.664 98.9788
L380.259 78.1319
L380.854 86.7106
L381.449 90.2004
L382.044 97.737
L382.639 78.9367
L383.829 90.4208
L384.424 101.821
L385.019 79.9163
L385.614 83.5399
L386.209 95.3207
L386.804 97.2807
L387.399 79.0477
L387.994 83.8435
L388.589 98.4227
L389.184 95.3087
L389.779 79.3951
L390.374 84.7545
L390.969 93.3638
L391.564 96.2036
L392.159 79.8618
L393.349 93.5369
L393.945 99.444
L394.54 79.3348
L395.135 88.6136
L396.325 103.107
L396.92 80.6356
L397.515 85.9048
L398.11 94.6307
L398.705 101.299
L399.3 81.4494
L400.49 93.5632
L401.085 102.198
L401.68 81.9004
L402.275 87.8911
L402.87 89.7386
L403.465 99.332
L404.06 82.275
L404.655 90.6675
L405.25 93.0613
L405.845 97.4627
L406.44 82.1239
L407.035 83.2189
L408.225 100.281
L408.82 81.1086
L410.605 103.061
L411.2 84.7748
L411.795 83.0892
L412.39 98.0238
L412.985 101.283
L413.58 84.1463
L414.175 85.0671
L414.77 95.2325
L415.365 101.538
L415.96 82.6733
L416.555 84.0521
L417.15 96.5007
L417.745 99.5799
L418.34 83.1485
L418.935 88.954
L419.53 99.9281
L420.125 96.3892
L420.72 84.005
L421.91 97.2391
L422.506 96.868
L423.101 84.1809
L423.696 88.9756
L424.291 95.3127
L424.886 99.9983
L425.481 83.8929
L426.076 88.2655
L426.671 96.4906
L427.266 100.879
L427.861 83.7392
L428.456 87.1249
L429.646 104.319
L430.241 81.775
L431.431 96.1675
L432.026 102.342
L432.621 84.6266
L434.406 101.334
L435.001 82.445
L436.191 97.9798
L436.786 98.3428
L437.381 80.0084
L438.571 97.3758
L439.166 97.5871
L439.761 83.282
L440.356 91.7295
L440.951 95.2854
L441.546 102.127
L442.141 84.4026
L442.736 89.7606
L443.331 96.3255
L443.926 101.105
L444.521 82.0388
L445.711 93.9611
L446.306 104.298
L446.901 82.3397
L447.496 85.2557
L448.091 98.7441
L448.686 102.072
L449.281 85.8234
L449.876 87.3625
L450.471 101.106
L451.067 103.896
L451.662 82.2855
L452.257 92.3991
L452.852 95.7148
L453.447 102.579
L454.042 84.9086
L454.637 94.2509
L455.232 100.422
L455.827 100.312
L456.422 80.2902
L457.017 87.4869
L457.612 100.331
L458.207 101.088
L458.802 86.7696
L459.397 91.2382
L459.992 101.146
L460.587 99.1426
L461.182 83.9439
L461.777 88.5876
L462.372 99.2815
L462.967 102.423
L463.562 85.3483
L464.157 92.6439
L464.752 97.48
L465.347 98.631
L465.942 83.0254
L466.537 91.2568
L467.132 103.864
L467.727 102.551
L468.322 83.9671
L468.917 93.1386
L469.512 100.467
L470.107 100.885
L470.702 88.2388
L471.297 91.4431
L471.892 97.7819
L472.487 101.851
L473.082 83.5716
L473.677 92.1587
L474.272 98.8787
L474.867 101.241
L475.462 86.7507
L476.057 90.5171
L476.652 100.869
L477.247 104.243
L477.842 87.16
L478.437 92.8597
L479.032 100.946
L479.628 103.289
L480.223 87.6116
L482.008 105.809
L482.603 87.5409
L483.198 93.205
L483.793 100.381
L484.388 104.572
L484.983 86.8489
L485.578 90.9136
L486.173 101.945
L486.768 110.831
L487.363 87.8384
L487.958 94.8483
L489.148 105.053
L489.743 90.2855
L490.933 100.866
L491.528 103.699
L492.123 89.5326
L493.313 102.461
L493.908 105.701
L494.503 86.9198
L495.098 94.7614
L495.693 104.119
L496.288 102.656
L496.883 90.0527
L497.478 94.3285
L498.073 102.183
L498.668 103.228
L499.263 87.8674
L500.453 101.523
L501.048 103.676
L501.643 85.5285
L502.238 100.892
L502.833 100.975
L503.428 104.695
L504.023 87.9556
L504.618 96.0105
L505.213 105.8
L505.808 107.223
L506.403 88.7534
L506.998 99.5358
L507.593 102.13
L508.189 105.597
L508.784 88.5012
L509.379 97.4763
L510.569 106.603
L511.164 89.649
L511.759 98.7465
L512.949 105.707
L513.544 87.6327
L514.139 98.9113
L514.734 98.5253
L515.329 103.759
L515.924 87.1061
L516.519 97.6597
L517.114 100.811
L517.709 104.806
L518.304 89.2223
L518.899 99.9971
L519.494 100.878
L520.089 104.643
L520.684 89.4522
L521.279 97.3297
L521.874 101.32
L522.469 104.299
L523.064 88.8466
L523.659 96.6575
L524.849 105.696
L525.444 90.3998
L526.039 93.7946
L526.634 103.536
L527.229 107.959
L527.824 88.2461
L528.419 95.8195
L529.014 105.159
L529.609 109.389
L530.204 87.5783
L530.799 94.3454
L531.394 104.5
L531.989 106.926
L532.584 89.7924
L534.369 107.509
L534.964 88.2022
L535.559 100.307
L536.154 101.791
L536.75 110.625
L537.345 88.222
L537.94 98.1853
L538.535 105.075
L539.13 105.845
L539.725 85.1043
L540.32 97.0885
L540.915 100.14
L541.51 108.056
L542.105 84.9207
L542.7 96.0732
L543.295 100.745
L543.89 109.688
L544.485 85.129
L545.08 92.9702
L545.675 104.656
L546.27 113.458
L546.865 88.9458
L547.46 97.4152
L547.46 97.4152" style="fill:none;stroke:#000000;"/>
   </g>
   <g id="matplotlib.axis_1"/>
   <g id="matplotlib.axis_2">
    <g id="ytick_1">
     <g id="line2d_2">
      <defs>
       <path d="
M0 0
L4 0" id="me8a85f7bf6" style="stroke:#000000;stroke-linecap:butt;stroke-width:0.5;"/>
      </defs>
      <g>
       <use style="stroke:#000000;stroke-linecap:butt;stroke-width:0.5;" x="72.03825" xlink:href="#me8a85f7bf6" y="206.918125"/>
      </g>
     </g>
     <g id="text_1">
      <text style="font-family:Times New Roman;font-size:18.0px;font-style:normal;" transform="translate(46.8291875 212.87390625)">0.0</text>
     </g>
    </g>
    <g id="ytick_2">
     <g id="line2d_3">
      <g>
       <use style="stroke:#000000;stroke-linecap:butt;stroke-width:0.5;" x="72.03825" xlink:href="#me8a85f7bf6" y="172.6689"/>
      </g>
     </g>
     <g id="text_2">
      <text style="font-family:Times New Roman;font-size:18.0px;font-style:normal;" transform="translate(46.9360625 178.62468125)">0.2</text>
     </g>
    </g>
    <g id="ytick_3">
     <g id="line2d_4">
      <g>
       <use style="stroke:#000000;stroke-linecap:butt;stroke-width:0.5;" x="72.03825" xlink:href="#me8a85f7bf6" y="138.419675"/>
      </g>
     </g>
     <g id="text_3">
      <text style="font-family:Times New Roman;font-size:18.0px;font-style:normal;" transform="translate(46.8123125 144.37545625)">0.4</text>
     </g>
    </g>
    <g id="ytick_4">
     <g id="line2d_5">
      <g>
       <use style="stroke:#000000;stroke-linecap:butt;stroke-width:0.5;" x="72.03825" xlink:href="#me8a85f7bf6" y="104.17045"/>
      </g>
     </g>
     <g id="text_4">
      <text style="font-family:Times New Roman;font-size:18.0px;font-style:normal;" transform="translate(46.882625 110.12623125)">0.6</text>
     </g>
    </g>
    <g id="ytick_5">
     <g id="line2d_6">
      <g>
       <use style="stroke:#000000;stroke-linecap:butt;stroke-width:0.5;" x="72.03825" xlink:href="#me8a85f7bf6" y="69.921225"/>
      </g>
     </g>
     <g id="text_5">
      <text style="font-family:Times New Roman;font-size:18.0px;font-style:normal;" transform="translate(47.22575 75.87700625)">0.8</text>
     </g>
    </g>
    <g id="ytick_6">
     <g id="line2d_7">
      <g>
       <use style="stroke:#000000;stroke-linecap:butt;stroke-width:0.5;" x="72.03825" xlink:href="#me8a85f7bf6" y="35.672"/>
      </g>
     </g>
     <g id="text_6">
      <text style="font-family:Times New Roman;font-size:18.0px;font-style:normal;" transform="translate(48.288875 41.62778125)">1.0</text>
     </g>
    </g>
    <g id="text_7">
     <text style="font-family:Times New Roman;font-size:18.0px;font-style:normal;" transform="translate(41.8123125 199.75865625)rotate(-90.0)">Transmission accuracy</text>
    </g>
   </g>
   <g id="patch_3">
    <path d="
M72.0383 206.918
L547.46 206.918" style="fill:none;stroke:#000000;"/>
   </g>
   <g id="patch_4">
    <path d="
M72.0383 206.918
L72.0383 35.672" style="fill:none;stroke:#000000;"/>
   </g>
   <g id="text_8">
    <text style="font-family:Times New Roman;font-size:21.6px;font-style:normal;" transform="translate(129.7265625 30.582875)">Unsupervised learning in control network</text>
   </g>
  </g>
  <g id="axes_2">
   <g id="patch_5">
    <path d="
M72.0383 378.164
L547.46 378.164
L547.46 206.918
L72.0383 206.918
z
" style="fill:none;opacity:0.0;"/>
   </g>
   <g id="PolyCollection_2">
    <defs>
     <path d="
M72.0383 -81.0771
L72.0383 -71.3124
L72.6325 -74.9666
L73.2268 -75.5755
L73.8211 -75.5852
L74.4154 -75.671
L75.0096 -76.0431
L75.6039 -76.0853
L76.1982 -76.0897
L76.7925 -76.1082
L77.3867 -76.144
L77.981 -76.1584
L78.5753 -76.1602
L79.1696 -76.1893
L79.7639 -76.1933
L80.3581 -76.2048
L80.9524 -76.2039
L81.5467 -76.218
L82.141 -76.221
L82.7352 -76.225
L83.3295 -76.2246
L83.9238 -76.2272
L84.5181 -76.2249
L85.1123 -76.2376
L85.7066 -76.241
L86.3009 -76.2358
L86.8952 -76.2402
L87.4895 -76.2493
L88.0837 -76.2464
L88.678 -76.2426
L89.2723 -76.2476
L89.8666 -76.2546
L90.4608 -76.253
L91.0551 -76.2487
L91.6494 -76.2526
L92.2437 -76.2587
L92.8379 -76.2549
L93.4322 -76.2544
L94.0265 -76.2614
L94.6208 -76.2712
L95.2151 -76.2699
L95.8093 -76.2721
L96.4036 -76.2832
L96.9979 -76.2887
L97.5922 -76.2797
L98.1864 -76.2841
L98.7807 -76.288
L99.375 -76.2961
L99.9693 -76.2949
L100.564 -76.302
L101.158 -76.3123
L101.752 -76.3204
L102.346 -76.3155
L102.941 -76.3175
L103.535 -76.3281
L104.129 -76.3388
L104.723 -76.3342
L105.318 -76.3434
L105.912 -76.3537
L106.506 -76.362
L107.101 -76.3659
L107.695 -76.3741
L108.289 -76.3866
L108.883 -76.392
L109.478 -76.3925
L110.072 -76.4012
L110.666 -76.4074
L111.261 -76.4203
L111.855 -76.4146
L112.449 -76.4304
L113.043 -76.4418
L113.638 -76.4534
L114.232 -76.4494
L114.826 -76.4574
L115.42 -76.4706
L116.015 -76.4839
L116.609 -76.4885
L117.203 -76.5034
L117.798 -76.5158
L118.392 -76.5217
L118.986 -76.5149
L119.58 -76.5268
L120.175 -76.5431
L120.769 -76.5598
L121.363 -76.5662
L121.958 -76.5854
L122.552 -76.6039
L123.146 -76.6189
L123.74 -76.6183
L124.335 -76.6385
L124.929 -76.6553
L125.523 -76.6723
L126.117 -76.6786
L126.712 -76.7019
L127.306 -76.7215
L127.9 -76.7395
L128.495 -76.7455
L129.089 -76.7757
L129.683 -76.7908
L130.277 -76.8025
L130.872 -76.8096
L131.466 -76.8401
L132.06 -76.8621
L132.655 -76.8845
L133.249 -76.9002
L133.843 -76.9305
L134.437 -76.958
L135.032 -76.9768
L135.626 -76.9884
L136.22 -77.0184
L136.814 -77.0427
L137.409 -77.0623
L138.003 -77.0769
L138.597 -77.1172
L139.192 -77.1537
L139.786 -77.18
L140.38 -77.1944
L140.974 -77.2348
L141.569 -77.267
L142.163 -77.2926
L142.757 -77.3164
L143.351 -77.3575
L143.946 -77.3934
L144.54 -77.4151
L145.134 -77.4377
L145.729 -77.4794
L146.323 -77.5076
L146.917 -77.5357
L147.511 -77.5599
L148.106 -77.6094
L148.7 -77.6447
L149.294 -77.679
L149.889 -77.7086
L150.483 -77.7528
L151.077 -77.7975
L151.671 -77.8366
L152.266 -77.8662
L152.86 -77.9212
L153.454 -77.9645
L154.048 -78.0012
L154.643 -78.0401
L155.237 -78.0909
L155.831 -78.1422
L156.426 -78.1924
L157.02 -78.2382
L157.614 -78.3058
L158.208 -78.3546
L158.803 -78.4058
L159.397 -78.4477
L159.991 -78.5165
L160.586 -78.5721
L161.18 -78.6246
L161.774 -78.6801
L162.368 -78.7574
L162.963 -78.8126
L163.557 -78.8697
L164.151 -78.923
L164.745 -78.9928
L165.34 -79.0545
L165.934 -79.1151
L166.528 -79.1919
L167.123 -79.2635
L167.717 -79.3287
L168.311 -79.4043
L168.905 -79.4807
L169.5 -79.5648
L170.094 -79.643
L170.688 -79.7148
L171.283 -79.7969
L171.877 -79.9046
L172.471 -79.9812
L173.065 -80.0704
L173.66 -80.1535
L174.254 -80.2638
L174.848 -80.3482
L175.442 -80.435
L176.037 -80.548
L176.631 -80.6432
L177.225 -80.7332
L177.82 -80.8476
L178.414 -80.9561
L179.008 -81.066
L179.602 -81.154
L180.197 -81.2513
L180.791 -81.3725
L181.385 -81.4866
L181.98 -81.5924
L182.574 -81.7102
L183.168 -81.8425
L183.762 -81.9648
L184.357 -82.0664
L184.951 -82.1996
L185.545 -82.3334
L186.139 -82.456
L186.734 -82.5806
L187.328 -82.7201
L187.922 -82.8652
L188.517 -82.9967
L189.111 -83.1213
L189.705 -83.256
L190.299 -83.3997
L190.894 -83.5451
L191.488 -83.6784
L192.082 -83.8261
L192.676 -83.9889
L193.271 -84.1325
L193.865 -84.2703
L194.459 -84.4363
L195.054 -84.6118
L195.648 -84.777
L196.242 -84.9126
L196.836 -85.088
L197.431 -85.2728
L198.025 -85.4533
L198.619 -85.6029
L199.214 -85.7711
L199.808 -85.9716
L200.402 -86.1483
L200.996 -86.3118
L201.591 -86.4801
L202.185 -86.6839
L202.779 -86.865
L203.373 -87.0116
L203.968 -87.1934
L204.562 -87.4085
L205.156 -87.6053
L205.751 -87.7647
L206.345 -87.9664
L206.939 -88.2
L207.533 -88.4026
L208.128 -88.568
L208.722 -88.7688
L209.316 -89.0046
L209.911 -89.2077
L210.505 -89.3733
L211.099 -89.5869
L211.693 -89.8315
L212.288 -90.0257
L212.882 -90.1911
L213.476 -90.4053
L214.07 -90.6315
L214.665 -90.8362
L215.259 -90.997
L215.853 -91.2166
L216.448 -91.4574
L217.042 -91.6697
L217.636 -91.8402
L218.23 -92.0742
L218.825 -92.3122
L219.419 -92.5417
L220.013 -92.7254
L220.608 -92.9605
L221.202 -93.1856
L221.796 -93.4193
L222.39 -93.611
L222.985 -93.8581
L223.579 -94.1123
L224.173 -94.3508
L224.767 -94.5471
L225.362 -94.7803
L225.956 -95.0514
L226.55 -95.2966
L227.145 -95.5013
L227.739 -95.7385
L228.333 -95.9987
L228.927 -96.257
L229.522 -96.4884
L230.116 -96.7381
L230.71 -97.0059
L231.304 -97.2514
L231.899 -97.4501
L232.493 -97.6971
L233.087 -97.97
L233.682 -98.2146
L234.276 -98.4422
L234.87 -98.7069
L235.464 -98.9975
L236.059 -99.2503
L236.653 -99.4691
L237.247 -99.7262
L237.842 -99.9951
L238.436 -100.267
L239.03 -100.484
L239.624 -100.709
L240.219 -100.974
L240.813 -101.216
L241.407 -101.429
L242.001 -101.693
L242.596 -101.964
L243.19 -102.219
L243.784 -102.428
L244.379 -102.677
L244.973 -102.982
L245.567 -103.227
L246.161 -103.423
L246.756 -103.669
L247.35 -103.952
L247.944 -104.205
L248.539 -104.447
L249.133 -104.716
L249.727 -104.998
L250.321 -105.242
L250.916 -105.466
L251.51 -105.723
L252.104 -106.006
L252.698 -106.283
L253.293 -106.513
L253.887 -106.787
L254.481 -107.075
L255.076 -107.354
L255.67 -107.6
L256.264 -107.881
L256.858 -108.184
L257.453 -108.468
L258.047 -108.712
L258.641 -108.972
L259.236 -109.262
L259.83 -109.519
L260.424 -109.757
L261.018 -110.016
L261.613 -110.291
L262.207 -110.561
L262.801 -110.802
L263.395 -111.041
L263.99 -111.303
L264.584 -111.574
L265.178 -111.788
L265.773 -112.04
L266.367 -112.303
L266.961 -112.559
L267.555 -112.777
L268.15 -113.029
L268.744 -113.294
L269.338 -113.536
L269.933 -113.741
L270.527 -113.964
L271.121 -114.22
L271.715 -114.46
L272.31 -114.677
L272.904 -114.907
L273.498 -115.15
L274.092 -115.391
L274.687 -115.61
L275.281 -115.831
L275.875 -116.08
L276.47 -116.326
L277.064 -116.526
L277.658 -116.748
L278.252 -116.987
L278.847 -117.222
L279.441 -117.42
L280.035 -117.649
L280.629 -117.891
L281.224 -118.145
L281.818 -118.339
L282.412 -118.562
L283.007 -118.791
L283.601 -119.026
L284.195 -119.226
L284.789 -119.449
L285.384 -119.681
L285.978 -119.907
L286.572 -120.107
L287.167 -120.308
L287.761 -120.544
L288.355 -120.764
L288.949 -120.966
L289.544 -121.186
L290.138 -121.413
L290.732 -121.621
L291.326 -121.804
L291.921 -122.005
L292.515 -122.216
L293.109 -122.428
L293.704 -122.626
L294.298 -122.814
L294.892 -123.014
L295.486 -123.222
L296.081 -123.397
L296.675 -123.57
L297.269 -123.769
L297.864 -123.974
L298.458 -124.147
L299.052 -124.338
L299.646 -124.532
L300.241 -124.737
L300.835 -124.924
L301.429 -125.095
L302.023 -125.277
L302.618 -125.479
L303.212 -125.658
L303.806 -125.826
L304.401 -126.015
L304.995 -126.206
L305.589 -126.377
L306.183 -126.55
L306.778 -126.737
L307.372 -126.921
L307.966 -127.085
L308.561 -127.263
L309.155 -127.448
L309.749 -127.631
L310.343 -127.798
L310.938 -127.969
L311.532 -128.155
L312.126 -128.344
L312.72 -128.505
L313.315 -128.678
L313.909 -128.865
L314.503 -129.05
L315.098 -129.228
L315.692 -129.417
L316.286 -129.607
L316.88 -129.799
L317.475 -129.962
L318.069 -130.137
L318.663 -130.307
L319.257 -130.487
L319.852 -130.654
L320.446 -130.847
L321.04 -131.006
L321.635 -131.175
L322.229 -131.328
L322.823 -131.51
L323.417 -131.685
L324.012 -131.869
L324.606 -132.034
L325.2 -132.201
L325.795 -132.362
L326.389 -132.538
L326.983 -132.678
L327.577 -132.856
L328.172 -133.032
L328.766 -133.213
L329.36 -133.364
L329.954 -133.543
L330.549 -133.697
L331.143 -133.863
L331.737 -134.008
L332.332 -134.169
L332.926 -134.311
L333.52 -134.469
L334.114 -134.608
L334.709 -134.767
L335.303 -134.919
L335.897 -135.068
L336.492 -135.208
L337.086 -135.364
L337.68 -135.518
L338.274 -135.678
L338.869 -135.816
L339.463 -135.98
L340.057 -136.128
L340.651 -136.274
L341.246 -136.412
L341.84 -136.555
L342.434 -136.702
L343.029 -136.848
L343.623 -136.977
L344.217 -137.117
L344.811 -137.254
L345.406 -137.389
L346 -137.513
L346.594 -137.659
L347.189 -137.809
L347.783 -137.952
L348.377 -138.077
L348.971 -138.22
L349.566 -138.365
L350.16 -138.49
L350.754 -138.625
L351.348 -138.77
L351.943 -138.906
L352.537 -139.028
L353.131 -139.15
L353.726 -139.295
L354.32 -139.431
L354.914 -139.551
L355.508 -139.685
L356.103 -139.83
L356.697 -139.98
L357.291 -140.11
L357.886 -140.24
L358.48 -140.389
L359.074 -140.54
L359.668 -140.673
L360.263 -140.792
L360.857 -140.925
L361.451 -141.063
L362.045 -141.194
L362.64 -141.307
L363.234 -141.45
L363.828 -141.592
L364.423 -141.718
L365.017 -141.828
L365.611 -141.969
L366.205 -142.089
L366.8 -142.225
L367.394 -142.353
L367.988 -142.476
L368.582 -142.621
L369.177 -142.728
L369.771 -142.85
L370.365 -142.977
L370.96 -143.109
L371.554 -143.232
L372.148 -143.361
L372.742 -143.5
L373.337 -143.65
L373.931 -143.771
L374.525 -143.883
L375.12 -144.006
L375.714 -144.127
L376.308 -144.245
L376.902 -144.36
L377.497 -144.477
L378.091 -144.612
L378.685 -144.725
L379.279 -144.837
L379.874 -144.957
L380.468 -145.069
L381.062 -145.176
L381.657 -145.279
L382.251 -145.385
L382.845 -145.5
L383.439 -145.627
L384.034 -145.742
L384.628 -145.864
L385.222 -145.969
L385.817 -146.094
L386.411 -146.197
L387.005 -146.318
L387.599 -146.413
L388.194 -146.52
L388.788 -146.624
L389.382 -146.729
L389.976 -146.839
L390.571 -146.943
L391.165 -147.042
L391.759 -147.156
L392.354 -147.268
L392.948 -147.392
L393.542 -147.481
L394.136 -147.588
L394.731 -147.704
L395.325 -147.824
L395.919 -147.936
L396.514 -148.043
L397.108 -148.159
L397.702 -148.276
L398.296 -148.395
L398.891 -148.515
L399.485 -148.631
L400.079 -148.752
L400.673 -148.843
L401.268 -148.948
L401.862 -149.063
L402.456 -149.177
L403.051 -149.285
L403.645 -149.377
L404.239 -149.479
L404.833 -149.597
L405.428 -149.706
L406.022 -149.813
L406.616 -149.93
L407.21 -150.031
L407.805 -150.127
L408.399 -150.232
L408.993 -150.343
L409.588 -150.449
L410.182 -150.547
L410.776 -150.648
L411.37 -150.756
L411.965 -150.848
L412.559 -150.941
L413.153 -151.041
L413.748 -151.144
L414.342 -151.253
L414.936 -151.357
L415.53 -151.452
L416.125 -151.557
L416.719 -151.665
L417.313 -151.745
L417.907 -151.825
L418.502 -151.93
L419.096 -152.033
L419.69 -152.116
L420.285 -152.208
L420.879 -152.304
L421.473 -152.406
L422.067 -152.484
L422.662 -152.584
L423.256 -152.689
L423.85 -152.789
L424.445 -152.869
L425.039 -152.958
L425.633 -153.049
L426.227 -153.148
L426.822 -153.238
L427.416 -153.328
L428.01 -153.424
L428.604 -153.518
L429.199 -153.595
L429.793 -153.693
L430.387 -153.77
L430.982 -153.853
L431.576 -153.913
L432.17 -153.985
L432.764 -154.063
L433.359 -154.14
L433.953 -154.213
L434.547 -154.296
L435.142 -154.398
L435.736 -154.485
L436.33 -154.57
L436.924 -154.638
L437.519 -154.73
L438.113 -154.799
L438.707 -154.861
L439.301 -154.924
L439.896 -155.026
L440.49 -155.111
L441.084 -155.192
L441.679 -155.292
L442.273 -155.393
L442.867 -155.498
L443.461 -155.607
L444.056 -155.714
L444.65 -155.843
L445.244 -155.936
L445.839 -156.032
L446.433 -156.139
L447.027 -156.252
L447.621 -156.35
L448.216 -156.447
L448.81 -156.54
L449.404 -156.645
L449.998 -156.734
L450.593 -156.841
L451.187 -156.951
L451.781 -157.059
L452.376 -157.148
L452.97 -157.234
L453.564 -157.326
L454.158 -157.442
L454.753 -157.545
L455.347 -157.64
L455.941 -157.728
L456.535 -157.834
L457.13 -157.929
L457.724 -158.031
L458.318 -158.142
L458.913 -158.241
L459.507 -158.332
L460.101 -158.432
L460.695 -158.532
L461.29 -158.632
L461.884 -158.728
L462.478 -158.812
L463.073 -158.902
L463.667 -158.997
L464.261 -159.081
L464.855 -159.154
L465.45 -159.251
L466.044 -159.326
L466.638 -159.419
L467.232 -159.521
L467.827 -159.606
L468.421 -159.699
L469.015 -159.794
L469.61 -159.901
L470.204 -159.988
L470.798 -160.071
L471.392 -160.177
L471.987 -160.266
L472.581 -160.36
L473.175 -160.452
L473.77 -160.553
L474.364 -160.641
L474.958 -160.722
L475.552 -160.835
L476.147 -160.931
L476.741 -161.032
L477.335 -161.132
L477.929 -161.243
L478.524 -161.35
L479.118 -161.449
L479.712 -161.563
L480.307 -161.689
L480.901 -161.797
L481.495 -161.916
L482.089 -162.036
L482.684 -162.15
L483.278 -162.278
L483.872 -162.404
L484.467 -162.537
L485.061 -162.659
L485.655 -162.771
L486.249 -162.882
L486.844 -162.973
L487.438 -163.111
L488.032 -163.229
L488.626 -163.334
L489.221 -163.448
L489.815 -163.574
L490.409 -163.676
L491.004 -163.788
L491.598 -163.906
L492.192 -164.019
L492.786 -164.14
L493.381 -164.266
L493.975 -164.363
L494.569 -164.47
L495.163 -164.582
L495.758 -164.71
L496.352 -164.819
L496.946 -164.923
L497.541 -165.031
L498.135 -165.12
L498.729 -165.22
L499.323 -165.306
L499.918 -165.391
L500.512 -165.484
L501.106 -165.607
L501.701 -165.69
L502.295 -165.787
L502.889 -165.873
L503.483 -165.969
L504.078 -166.048
L504.672 -166.135
L505.266 -166.23
L505.86 -166.318
L506.455 -166.406
L507.049 -166.496
L507.643 -166.583
L508.238 -166.687
L508.832 -166.794
L509.426 -166.906
L510.02 -166.987
L510.615 -167.073
L511.209 -167.176
L511.803 -167.26
L512.398 -167.337
L512.992 -167.409
L513.586 -167.496
L514.18 -167.565
L514.775 -167.632
L515.369 -167.716
L515.963 -167.801
L516.557 -167.888
L517.152 -167.959
L517.746 -168.039
L518.34 -168.128
L518.935 -168.213
L519.529 -168.291
L520.123 -168.369
L520.717 -168.439
L521.312 -168.516
L521.906 -168.594
L522.5 -168.673
L523.095 -168.747
L523.689 -168.821
L524.283 -168.905
L524.877 -168.981
L525.472 -169.047
L526.066 -169.117
L526.66 -169.186
L527.254 -169.255
L527.849 -169.319
L528.443 -169.386
L529.037 -169.463
L529.632 -169.528
L530.226 -169.584
L530.82 -169.656
L531.414 -169.728
L532.009 -169.784
L532.603 -169.842
L533.197 -169.914
L533.792 -169.971
L534.386 -170.041
L534.98 -170.103
L535.574 -170.176
L536.169 -170.233
L536.763 -170.294
L537.357 -170.357
L537.951 -170.426
L538.546 -170.485
L539.14 -170.555
L539.734 -170.604
L540.329 -170.678
L540.923 -170.745
L541.517 -170.805
L542.111 -170.855
L542.706 -170.924
L543.3 -170.983
L543.894 -171.05
L544.488 -171.1
L545.083 -171.162
L545.677 -171.216
L546.271 -171.27
L546.866 -171.328
L546.866 -192.109
L546.866 -192.109
L546.271 -192.052
L545.677 -191.994
L545.083 -191.95
L544.488 -191.903
L543.894 -191.851
L543.3 -191.791
L542.706 -191.733
L542.111 -191.662
L541.517 -191.609
L540.923 -191.551
L540.329 -191.489
L539.734 -191.424
L539.14 -191.361
L538.546 -191.291
L537.951 -191.238
L537.357 -191.176
L536.763 -191.136
L536.169 -191.092
L535.574 -191.031
L534.98 -190.953
L534.386 -190.912
L533.792 -190.855
L533.197 -190.805
L532.603 -190.735
L532.009 -190.674
L531.414 -190.616
L530.82 -190.529
L530.226 -190.463
L529.632 -190.379
L529.037 -190.289
L528.443 -190.222
L527.849 -190.164
L527.254 -190.094
L526.66 -190.021
L526.066 -189.957
L525.472 -189.877
L524.877 -189.81
L524.283 -189.73
L523.689 -189.651
L523.095 -189.561
L522.5 -189.495
L521.906 -189.421
L521.312 -189.355
L520.717 -189.283
L520.123 -189.218
L519.529 -189.139
L518.935 -189.071
L518.34 -189.001
L517.746 -188.929
L517.152 -188.862
L516.557 -188.793
L515.963 -188.725
L515.369 -188.635
L514.775 -188.551
L514.18 -188.481
L513.586 -188.394
L512.992 -188.323
L512.398 -188.246
L511.803 -188.156
L511.209 -188.064
L510.615 -187.979
L510.02 -187.886
L509.426 -187.798
L508.832 -187.703
L508.238 -187.623
L507.643 -187.54
L507.049 -187.459
L506.455 -187.372
L505.86 -187.277
L505.266 -187.185
L504.672 -187.098
L504.078 -187.028
L503.483 -186.944
L502.889 -186.862
L502.295 -186.774
L501.701 -186.687
L501.106 -186.611
L500.512 -186.531
L499.918 -186.441
L499.323 -186.35
L498.729 -186.257
L498.135 -186.144
L497.541 -186.038
L496.946 -185.956
L496.352 -185.871
L495.758 -185.762
L495.163 -185.657
L494.569 -185.543
L493.975 -185.435
L493.381 -185.334
L492.786 -185.241
L492.192 -185.129
L491.598 -185.011
L491.004 -184.904
L490.409 -184.8
L489.815 -184.704
L489.221 -184.602
L488.626 -184.501
L488.032 -184.405
L487.438 -184.292
L486.844 -184.185
L486.249 -184.065
L485.655 -183.986
L485.061 -183.906
L484.467 -183.788
L483.872 -183.69
L483.278 -183.613
L482.684 -183.508
L482.089 -183.408
L481.495 -183.293
L480.901 -183.168
L480.307 -183.057
L479.712 -182.953
L479.118 -182.863
L478.524 -182.778
L477.929 -182.687
L477.335 -182.587
L476.741 -182.514
L476.147 -182.439
L475.552 -182.35
L474.958 -182.239
L474.364 -182.144
L473.77 -182.05
L473.175 -181.941
L472.581 -181.85
L471.987 -181.733
L471.392 -181.632
L470.798 -181.538
L470.204 -181.442
L469.61 -181.351
L469.015 -181.242
L468.421 -181.159
L467.827 -181.091
L467.232 -180.987
L466.638 -180.893
L466.044 -180.802
L465.45 -180.737
L464.855 -180.639
L464.261 -180.547
L463.667 -180.465
L463.073 -180.388
L462.478 -180.275
L461.884 -180.198
L461.29 -180.078
L460.695 -180
L460.101 -179.923
L459.507 -179.845
L458.913 -179.77
L458.318 -179.696
L457.724 -179.542
L457.13 -179.477
L456.535 -179.422
L455.941 -179.28
L455.347 -179.2
L454.753 -179.069
L454.158 -178.923
L453.564 -178.809
L452.97 -178.742
L452.376 -178.674
L451.781 -178.596
L451.187 -178.533
L450.593 -178.454
L449.998 -178.357
L449.404 -178.273
L448.81 -178.177
L448.216 -178.058
L447.621 -177.97
L447.027 -177.904
L446.433 -177.81
L445.839 -177.704
L445.244 -177.599
L444.65 -177.515
L444.056 -177.429
L443.461 -177.328
L442.867 -177.258
L442.273 -177.186
L441.679 -177.117
L441.084 -177.033
L440.49 -176.966
L439.896 -176.896
L439.301 -176.841
L438.707 -176.776
L438.113 -176.715
L437.519 -176.646
L436.924 -176.575
L436.33 -176.522
L435.736 -176.471
L435.142 -176.419
L434.547 -176.358
L433.953 -176.283
L433.359 -176.224
L432.764 -176.151
L432.17 -176.096
L431.576 -176.032
L430.982 -175.979
L430.387 -175.899
L429.793 -175.82
L429.199 -175.741
L428.604 -175.664
L428.01 -175.579
L427.416 -175.495
L426.822 -175.415
L426.227 -175.334
L425.633 -175.259
L425.039 -175.186
L424.445 -175.12
L423.85 -175.037
L423.256 -174.967
L422.662 -174.894
L422.067 -174.811
L421.473 -174.739
L420.879 -174.664
L420.285 -174.59
L419.69 -174.524
L419.096 -174.447
L418.502 -174.366
L417.907 -174.28
L417.313 -174.204
L416.719 -174.118
L416.125 -174.02
L415.53 -173.93
L414.936 -173.845
L414.342 -173.766
L413.748 -173.688
L413.153 -173.592
L412.559 -173.505
L411.965 -173.431
L411.37 -173.343
L410.776 -173.269
L410.182 -173.174
L409.588 -173.075
L408.993 -172.982
L408.399 -172.89
L407.805 -172.79
L407.21 -172.703
L406.616 -172.63
L406.022 -172.543
L405.428 -172.441
L404.833 -172.366
L404.239 -172.282
L403.645 -172.183
L403.051 -172.087
L402.456 -172.01
L401.862 -171.913
L401.268 -171.808
L400.673 -171.715
L400.079 -171.626
L399.485 -171.534
L398.891 -171.439
L398.296 -171.344
L397.702 -171.264
L397.108 -171.181
L396.514 -171.075
L395.919 -170.975
L395.325 -170.891
L394.731 -170.79
L394.136 -170.683
L393.542 -170.585
L392.948 -170.516
L392.354 -170.441
L391.759 -170.344
L391.165 -170.239
L390.571 -170.15
L389.976 -170.05
L389.382 -169.961
L388.788 -169.85
L388.194 -169.744
L387.599 -169.636
L387.005 -169.53
L386.411 -169.422
L385.817 -169.317
L385.222 -169.219
L384.628 -169.124
L384.034 -169.008
L383.439 -168.924
L382.845 -168.833
L382.251 -168.754
L381.657 -168.654
L381.062 -168.577
L380.468 -168.489
L379.874 -168.398
L379.279 -168.283
L378.685 -168.184
L378.091 -168.099
L377.497 -167.977
L376.902 -167.853
L376.308 -167.751
L375.714 -167.65
L375.12 -167.541
L374.525 -167.424
L373.931 -167.323
L373.337 -167.233
L372.742 -167.083
L372.148 -166.966
L371.554 -166.858
L370.96 -166.764
L370.365 -166.65
L369.771 -166.527
L369.177 -166.431
L368.582 -166.321
L367.988 -166.181
L367.394 -166.066
L366.8 -165.965
L366.205 -165.847
L365.611 -165.732
L365.017 -165.598
L364.423 -165.501
L363.828 -165.402
L363.234 -165.294
L362.64 -165.175
L362.045 -165.072
L361.451 -164.963
L360.857 -164.843
L360.263 -164.709
L359.668 -164.596
L359.074 -164.466
L358.48 -164.345
L357.886 -164.216
L357.291 -164.111
L356.697 -163.991
L356.103 -163.86
L355.508 -163.74
L354.914 -163.635
L354.32 -163.535
L353.726 -163.399
L353.131 -163.283
L352.537 -163.182
L351.943 -163.057
L351.348 -162.931
L350.754 -162.807
L350.16 -162.7
L349.566 -162.586
L348.971 -162.462
L348.377 -162.349
L347.783 -162.235
L347.189 -162.116
L346.594 -161.99
L346 -161.855
L345.406 -161.747
L344.811 -161.63
L344.217 -161.497
L343.623 -161.362
L343.029 -161.242
L342.434 -161.114
L341.84 -160.988
L341.246 -160.857
L340.651 -160.74
L340.057 -160.608
L339.463 -160.477
L338.869 -160.334
L338.274 -160.209
L337.68 -160.073
L337.086 -159.947
L336.492 -159.813
L335.897 -159.682
L335.303 -159.541
L334.709 -159.418
L334.114 -159.271
L333.52 -159.152
L332.926 -159.005
L332.332 -158.876
L331.737 -158.736
L331.143 -158.61
L330.549 -158.463
L329.954 -158.34
L329.36 -158.195
L328.766 -158.063
L328.172 -157.923
L327.577 -157.79
L326.983 -157.643
L326.389 -157.507
L325.795 -157.363
L325.2 -157.223
L324.606 -157.072
L324.012 -156.935
L323.417 -156.777
L322.823 -156.627
L322.229 -156.473
L321.635 -156.327
L321.04 -156.178
L320.446 -156.021
L319.852 -155.857
L319.257 -155.714
L318.663 -155.551
L318.069 -155.413
L317.475 -155.245
L316.88 -155.088
L316.286 -154.918
L315.692 -154.768
L315.098 -154.603
L314.503 -154.454
L313.909 -154.283
L313.315 -154.125
L312.72 -153.98
L312.126 -153.833
L311.532 -153.65
L310.938 -153.487
L310.343 -153.338
L309.749 -153.194
L309.155 -153.03
L308.561 -152.864
L307.966 -152.698
L307.372 -152.551
L306.778 -152.374
L306.183 -152.227
L305.589 -152.073
L304.995 -151.905
L304.401 -151.738
L303.806 -151.569
L303.212 -151.423
L302.618 -151.265
L302.023 -151.078
L301.429 -150.9
L300.835 -150.754
L300.241 -150.619
L299.646 -150.432
L299.052 -150.24
L298.458 -150.072
L297.864 -149.919
L297.269 -149.721
L296.675 -149.532
L296.081 -149.386
L295.486 -149.222
L294.892 -149.044
L294.298 -148.856
L293.704 -148.696
L293.109 -148.529
L292.515 -148.333
L291.921 -148.144
L291.326 -147.971
L290.732 -147.821
L290.138 -147.636
L289.544 -147.439
L288.949 -147.264
L288.355 -147.098
L287.761 -146.889
L287.167 -146.672
L286.572 -146.484
L285.978 -146.305
L285.384 -146.101
L284.789 -145.907
L284.195 -145.723
L283.601 -145.536
L283.007 -145.329
L282.412 -145.134
L281.818 -144.959
L281.224 -144.781
L280.629 -144.568
L280.035 -144.378
L279.441 -144.188
L278.847 -144.022
L278.252 -143.797
L277.658 -143.578
L277.064 -143.369
L276.47 -143.191
L275.875 -142.958
L275.281 -142.754
L274.687 -142.549
L274.092 -142.344
L273.498 -142.135
L272.904 -141.931
L272.31 -141.726
L271.715 -141.546
L271.121 -141.336
L270.527 -141.131
L269.933 -140.926
L269.338 -140.747
L268.744 -140.538
L268.15 -140.316
L267.555 -140.104
L266.961 -139.904
L266.367 -139.69
L265.773 -139.468
L265.178 -139.248
L264.584 -139.058
L263.99 -138.822
L263.395 -138.595
L262.801 -138.379
L262.207 -138.165
L261.613 -137.922
L261.018 -137.688
L260.424 -137.465
L259.83 -137.262
L259.236 -137.027
L258.641 -136.784
L258.047 -136.551
L257.453 -136.339
L256.858 -136.099
L256.264 -135.857
L255.67 -135.631
L255.076 -135.412
L254.481 -135.185
L253.887 -134.95
L253.293 -134.73
L252.698 -134.516
L252.104 -134.279
L251.51 -134.041
L250.916 -133.821
L250.321 -133.629
L249.727 -133.418
L249.133 -133.177
L248.539 -132.934
L247.944 -132.757
L247.35 -132.54
L246.756 -132.301
L246.161 -132.077
L245.567 -131.888
L244.973 -131.66
L244.379 -131.432
L243.784 -131.219
L243.19 -131.024
L242.596 -130.792
L242.001 -130.562
L241.407 -130.349
L240.813 -130.161
L240.219 -129.926
L239.624 -129.689
L239.03 -129.463
L238.436 -129.257
L237.842 -129.021
L237.247 -128.782
L236.653 -128.547
L236.059 -128.336
L235.464 -128.098
L234.87 -127.861
L234.276 -127.632
L233.682 -127.433
L233.087 -127.197
L232.493 -126.937
L231.899 -126.726
L231.304 -126.53
L230.71 -126.289
L230.116 -126.057
L229.522 -125.851
L228.927 -125.686
L228.333 -125.489
L227.739 -125.24
L227.145 -125.036
L226.55 -124.864
L225.956 -124.623
L225.362 -124.414
L224.767 -124.199
L224.173 -124.005
L223.579 -123.78
L222.985 -123.556
L222.39 -123.363
L221.796 -123.199
L221.202 -122.995
L220.608 -122.772
L220.013 -122.549
L219.419 -122.386
L218.825 -122.182
L218.23 -121.965
L217.636 -121.744
L217.042 -121.599
L216.448 -121.415
L215.853 -121.186
L215.259 -120.979
L214.665 -120.838
L214.07 -120.669
L213.476 -120.463
L212.882 -120.27
L212.288 -120.101
L211.693 -119.938
L211.099 -119.749
L210.505 -119.567
L209.911 -119.414
L209.316 -119.245
L208.722 -119.021
L208.128 -118.821
L207.533 -118.66
L206.939 -118.485
L206.345 -118.265
L205.751 -118.085
L205.156 -117.94
L204.562 -117.789
L203.968 -117.607
L203.373 -117.433
L202.779 -117.308
L202.185 -117.127
L201.591 -116.922
L200.996 -116.781
L200.402 -116.647
L199.808 -116.501
L199.214 -116.356
L198.619 -116.216
L198.025 -116.087
L197.431 -115.946
L196.836 -115.804
L196.242 -115.629
L195.648 -115.487
L195.054 -115.332
L194.459 -115.163
L193.865 -115.03
L193.271 -114.925
L192.676 -114.794
L192.082 -114.652
L191.488 -114.536
L190.894 -114.431
L190.299 -114.301
L189.705 -114.171
L189.111 -114.051
L188.517 -113.947
L187.922 -113.824
L187.328 -113.695
L186.734 -113.574
L186.139 -113.477
L185.545 -113.364
L184.951 -113.249
L184.357 -113.125
L183.762 -113.031
L183.168 -112.925
L182.574 -112.804
L181.98 -112.689
L181.385 -112.599
L180.791 -112.499
L180.197 -112.388
L179.602 -112.282
L179.008 -112.2
L178.414 -112.113
L177.82 -112.011
L177.225 -111.922
L176.631 -111.842
L176.037 -111.742
L175.442 -111.64
L174.848 -111.535
L174.254 -111.46
L173.66 -111.389
L173.065 -111.31
L172.471 -111.233
L171.877 -111.18
L171.283 -111.119
L170.688 -111.052
L170.094 -110.982
L169.5 -110.94
L168.905 -110.861
L168.311 -110.794
L167.717 -110.733
L167.123 -110.679
L166.528 -110.597
L165.934 -110.534
L165.34 -110.488
L164.745 -110.44
L164.151 -110.372
L163.557 -110.311
L162.963 -110.251
L162.368 -110.212
L161.774 -110.159
L161.18 -110.116
L160.586 -110.075
L159.991 -110.037
L159.397 -109.987
L158.803 -109.94
L158.208 -109.888
L157.614 -109.851
L157.02 -109.802
L156.426 -109.762
L155.831 -109.724
L155.237 -109.691
L154.643 -109.659
L154.048 -109.634
L153.454 -109.59
L152.86 -109.55
L152.266 -109.507
L151.671 -109.486
L151.077 -109.464
L150.483 -109.439
L149.889 -109.4
L149.294 -109.379
L148.7 -109.357
L148.106 -109.328
L147.511 -109.302
L146.917 -109.287
L146.323 -109.265
L145.729 -109.239
L145.134 -109.215
L144.54 -109.198
L143.946 -109.182
L143.351 -109.159
L142.757 -109.125
L142.163 -109.114
L141.569 -109.09
L140.974 -109.066
L140.38 -109.04
L139.786 -109.034
L139.192 -109.01
L138.597 -108.987
L138.003 -108.954
L137.409 -108.948
L136.814 -108.938
L136.22 -108.915
L135.626 -108.891
L135.032 -108.889
L134.437 -108.872
L133.843 -108.85
L133.249 -108.835
L132.655 -108.831
L132.06 -108.809
L131.466 -108.789
L130.872 -108.768
L130.277 -108.773
L129.683 -108.757
L129.089 -108.739
L128.495 -108.716
L127.9 -108.709
L127.306 -108.689
L126.712 -108.676
L126.117 -108.661
L125.523 -108.661
L124.929 -108.641
L124.335 -108.626
L123.74 -108.604
L123.146 -108.6
L122.552 -108.585
L121.958 -108.569
L121.363 -108.548
L120.769 -108.545
L120.175 -108.539
L119.58 -108.524
L118.986 -108.509
L118.392 -108.52
L117.798 -108.511
L117.203 -108.499
L116.609 -108.486
L116.015 -108.493
L115.42 -108.489
L114.826 -108.478
L114.232 -108.463
L113.638 -108.472
L113.043 -108.469
L112.449 -108.457
L111.855 -108.444
L111.261 -108.451
L110.666 -108.449
L110.072 -108.441
L109.478 -108.429
L108.883 -108.436
L108.289 -108.434
L107.695 -108.424
L107.101 -108.411
L106.506 -108.418
L105.912 -108.413
L105.318 -108.404
L104.723 -108.397
L104.129 -108.405
L103.535 -108.401
L102.941 -108.392
L102.346 -108.385
L101.752 -108.393
L101.158 -108.39
L100.564 -108.38
L99.9693 -108.375
L99.375 -108.384
L98.7807 -108.382
L98.1864 -108.373
L97.5922 -108.367
L96.9979 -108.374
L96.4036 -108.368
L95.8093 -108.356
L95.2151 -108.353
L94.6208 -108.349
L94.0265 -108.344
L93.4322 -108.336
L92.8379 -108.335
L92.2437 -108.329
L91.6494 -108.325
L91.0551 -108.318
L90.4608 -108.315
L89.8666 -108.316
L89.2723 -108.311
L88.678 -108.311
L88.0837 -108.307
L87.4895 -108.311
L86.8952 -108.312
L86.3009 -108.311
L85.7066 -108.311
L85.1123 -108.315
L84.5181 -108.312
L83.9238 -108.303
L83.3295 -108.3
L82.7352 -108.302
L82.141 -108.289
L81.5467 -108.278
L80.9524 -108.272
L80.3581 -108.269
L79.7639 -108.253
L79.1696 -108.256
L78.5753 -108.241
L77.981 -108.219
L77.3867 -108.205
L76.7925 -108.203
L76.1982 -108.173
L75.6039 -108.159
L75.0096 -108.131
L74.4154 -107.741
L73.8211 -107.651
L73.2268 -107.605
L72.6325 -106.875
L72.0383 -81.0771
z
" id="C1_0_a42bc4fc2a"/>
    </defs>
    <g clip-path="url(#p9f2f1507a5)">
     <use style="fill:#b3b3b3;stroke:#b3b3b3;stroke-linecap:butt;" x="0" xlink:href="#C1_0_a42bc4fc2a" y="432.0"/>
    </g>
   </g>
   <g id="line2d_8">
    <path clip-path="url(#p9f2f1507a5)" d="
M72.0383 355.792
L72.6325 343.654
L73.2268 343.013
L74.4154 342.891
L75.0096 342.525
L79.7639 342.392
L91.6494 342.331
L124.335 342.018
L145.729 341.29
L154.643 340.771
L167.717 339.575
L173.66 338.792
L182.574 337.305
L194.459 334.723
L208.128 330.823
L222.985 325.759
L226.55 324.37
L228.333 323.689
L256.264 312.428
L259.83 310.904
L263.395 309.474
L267.555 307.846
L280.629 303.003
L284.789 301.556
L289.544 299.921
L293.704 298.583
L314.503 292.401
L333.52 287.303
L368.582 279.463
L397.702 274.011
L406.022 272.566
L411.965 271.568
L435.736 268.163
L442.273 267.306
L448.216 266.315
L459.507 264.419
L486.844 259.822
L496.352 258.04
L504.078 256.78
L517.152 254.901
L529.632 253.34
L546.866 251.546
L546.866 251.546" style="fill:none;stroke:#000000;"/>
   </g>
   <g id="matplotlib.axis_3">
    <g id="xtick_1">
     <g id="line2d_9">
      <defs>
       <path d="
M0 0
L0 -4" id="m0012dd4eef" style="stroke:#000000;stroke-linecap:butt;stroke-width:0.5;"/>
      </defs>
      <g>
       <use style="stroke:#000000;stroke-linecap:butt;stroke-width:0.5;" x="72.03825" xlink:href="#m0012dd4eef" y="378.16425"/>
      </g>
     </g>
     <g id="text_9">
      <text style="font-family:Times New Roman;font-size:18.0px;font-style:normal;" transform="translate(68.18371875 394.3205)">0</text>
     </g>
    </g>
    <g id="xtick_2">
     <g id="line2d_10">
      <g>
       <use style="stroke:#000000;stroke-linecap:butt;stroke-width:0.5;" x="190.89365625" xlink:href="#m0012dd4eef" y="378.16425"/>
      </g>
     </g>
     <g id="text_10">
      <text style="font-family:Times New Roman;font-size:18.0px;font-style:normal;" transform="translate(182.64459375 394.3205)">50</text>
     </g>
    </g>
    <g id="xtick_3">
     <g id="line2d_11">
      <g>
       <use style="stroke:#000000;stroke-linecap:butt;stroke-width:0.5;" x="309.7490625" xlink:href="#m0012dd4eef" y="378.16425"/>
      </g>
     </g>
     <g id="text_11">
      <text style="font-family:Times New Roman;font-size:18.0px;font-style:normal;" transform="translate(297.624375 394.3205)">100</text>
     </g>
    </g>
    <g id="xtick_4">
     <g id="line2d_12">
      <g>
       <use style="stroke:#000000;stroke-linecap:butt;stroke-width:0.5;" x="428.60446875" xlink:href="#m0012dd4eef" y="378.16425"/>
      </g>
     </g>
     <g id="text_12">
      <text style="font-family:Times New Roman;font-size:18.0px;font-style:normal;" transform="translate(416.47978125 394.3205)">150</text>
     </g>
    </g>
    <g id="xtick_5">
     <g id="line2d_13">
      <g>
       <use style="stroke:#000000;stroke-linecap:butt;stroke-width:0.5;" x="547.459875" xlink:href="#m0012dd4eef" y="378.16425"/>
      </g>
     </g>
     <g id="text_13">
      <text style="font-family:Times New Roman;font-size:18.0px;font-style:normal;" transform="translate(534.4745625 394.3205)">200</text>
     </g>
    </g>
    <g id="text_14">
     <text style="font-family:Times New Roman;font-size:18.0px;font-style:normal;" transform="translate(215.63015625 412.0445625)">Simulation time (seconds)</text>
    </g>
   </g>
   <g id="matplotlib.axis_4">
    <g id="ytick_7">
     <g id="line2d_14">
      <g>
       <use style="stroke:#000000;stroke-linecap:butt;stroke-width:0.5;" x="72.03825" xlink:href="#me8a85f7bf6" y="359.136902778"/>
      </g>
     </g>
     <g id="text_15">
      <text style="font-family:Times New Roman;font-size:18.0px;font-style:normal;" transform="translate(38.3748125 365.092684028)">0.45</text>
     </g>
    </g>
    <g id="ytick_8">
     <g id="line2d_15">
      <g>
       <use style="stroke:#000000;stroke-linecap:butt;stroke-width:0.5;" x="72.03825" xlink:href="#me8a85f7bf6" y="321.082208333"/>
      </g>
     </g>
     <g id="text_16">
      <text style="font-family:Times New Roman;font-size:18.0px;font-style:normal;" transform="translate(37.8291875 327.037989583)">0.50</text>
     </g>
    </g>
    <g id="ytick_9">
     <g id="line2d_16">
      <g>
       <use style="stroke:#000000;stroke-linecap:butt;stroke-width:0.5;" x="72.03825" xlink:href="#me8a85f7bf6" y="283.027513889"/>
      </g>
     </g>
     <g id="text_17">
      <text style="font-family:Times New Roman;font-size:18.0px;font-style:normal;" transform="translate(38.3748125 288.983295139)">0.55</text>
     </g>
    </g>
    <g id="ytick_10">
     <g id="line2d_17">
      <g>
       <use style="stroke:#000000;stroke-linecap:butt;stroke-width:0.5;" x="72.03825" xlink:href="#me8a85f7bf6" y="244.972819444"/>
      </g>
     </g>
     <g id="text_18">
      <text style="font-family:Times New Roman;font-size:18.0px;font-style:normal;" transform="translate(37.8291875 250.928600694)">0.60</text>
     </g>
    </g>
    <g id="text_19">
     <text style="font-family:Times New Roman;font-size:18.0px;font-style:normal;" transform="translate(32.8291875 344.61790625)rotate(-90.0)">Weight sparsity</text>
    </g>
   </g>
   <g id="patch_6">
    <path d="
M72.0383 378.164
L547.46 378.164" style="fill:none;stroke:#000000;"/>
   </g>
   <g id="patch_7">
    <path d="
M72.0383 378.164
L72.0383 206.918" style="fill:none;stroke:#000000;"/>
   </g>
  </g>
 </g>
 <defs>
  <clipPath id="p9f2f1507a5">
   <rect height="171.246125" width="475.421625" x="72.03825" y="206.918125"/>
  </clipPath>
  <clipPath id="pa838098189">
   <rect height="171.246125" width="475.421625" x="72.03825" y="35.672"/>
  </clipPath>
 </defs>
</svg>
