<?xml version="1.0" encoding="utf-8" standalone="no"?>
<!DOCTYPE svg PUBLIC "-//W3C//DTD SVG 1.1//EN"
  "http://www.w3.org/Graphics/SVG/1.1/DTD/svg11.dtd">
<!-- Created with matplotlib (http://matplotlib.sourceforge.net/) -->
<svg height="432pt" version="1.1" viewBox="0 0 576 432" width="576pt" xmlns="http://www.w3.org/2000/svg" xmlns:xlink="http://www.w3.org/1999/xlink">
 <defs>
  <style type="text/css">
*{stroke-linecap:square;stroke-linejoin:round;}
  </style>
 </defs>
 <g id="figure_1">
  <g id="patch_1">
   <path d="
M0 432
L576 432
L576 0
L0 0
z
" style="fill:none;opacity:0.0;"/>
  </g>
  <g id="axes_1">
   <g id="patch_2">
    <path d="
M66.1433 377.861
L548.326 377.861
L548.326 35.672
L66.1433 35.672
z
" style="fill:none;opacity:0.0;"/>
   </g>
   <g id="PathCollection_1">
    <defs>
     <path d="
M0 2.23607
C0.593012 2.23607 1.16182 2.00046 1.58114 1.58114
C2.00046 1.16182 2.23607 0.593012 2.23607 0
C2.23607 -0.593012 2.00046 -1.16182 1.58114 -1.58114
C1.16182 -2.00046 0.593012 -2.23607 0 -2.23607
C-0.593012 -2.23607 -1.16182 -2.00046 -1.58114 -1.58114
C-2.00046 -1.16182 -2.23607 -0.593012 -2.23607 0
C-2.23607 0.593012 -2.00046 1.16182 -1.58114 1.58114
C-1.16182 2.00046 -0.593012 2.23607 0 2.23607
z
" id="C0_0_919e3f95db"/>
    </defs>
    <g clip-path="url(#pd286796ca3)">
     <use style="fill:#999999;stroke:#999999;stroke-linecap:butt;" x="66.14325" xlink:href="#C0_0_919e3f95db" y="232.446223064"/>
    </g>
    <g clip-path="url(#pd286796ca3)">
     <use style="fill:#999999;stroke:#999999;stroke-linecap:butt;" x="71.0137840909" xlink:href="#C0_0_919e3f95db" y="232.454479683"/>
    </g>
    <g clip-path="url(#pd286796ca3)">
     <use style="fill:#999999;stroke:#999999;stroke-linecap:butt;" x="75.8843181818" xlink:href="#C0_0_919e3f95db" y="232.462202524"/>
    </g>
    <g clip-path="url(#pd286796ca3)">
     <use style="fill:#999999;stroke:#999999;stroke-linecap:butt;" x="80.7548522727" xlink:href="#C0_0_919e3f95db" y="232.47126901"/>
    </g>
    <g clip-path="url(#pd286796ca3)">
     <use style="fill:#999999;stroke:#999999;stroke-linecap:butt;" x="85.6253863636" xlink:href="#C0_0_919e3f95db" y="232.482061967"/>
    </g>
    <g clip-path="url(#pd286796ca3)">
     <use style="fill:#999999;stroke:#999999;stroke-linecap:butt;" x="90.4959204545" xlink:href="#C0_0_919e3f95db" y="232.495037067"/>
    </g>
    <g clip-path="url(#pd286796ca3)">
     <use style="fill:#999999;stroke:#999999;stroke-linecap:butt;" x="95.3664545455" xlink:href="#C0_0_919e3f95db" y="232.51074203"/>
    </g>
    <g clip-path="url(#pd286796ca3)">
     <use style="fill:#999999;stroke:#999999;stroke-linecap:butt;" x="100.236988636" xlink:href="#C0_0_919e3f95db" y="232.52983969"/>
    </g>
    <g clip-path="url(#pd286796ca3)">
     <use style="fill:#999999;stroke:#999999;stroke-linecap:butt;" x="105.107522727" xlink:href="#C0_0_919e3f95db" y="232.553135899"/>
    </g>
    <g clip-path="url(#pd286796ca3)">
     <use style="fill:#999999;stroke:#999999;stroke-linecap:butt;" x="109.978056818" xlink:href="#C0_0_919e3f95db" y="232.58161341"/>
    </g>
    <g clip-path="url(#pd286796ca3)">
     <use style="fill:#999999;stroke:#999999;stroke-linecap:butt;" x="114.848590909" xlink:href="#C0_0_919e3f95db" y="232.616473159"/>
    </g>
    <g clip-path="url(#pd286796ca3)">
     <use style="fill:#999999;stroke:#999999;stroke-linecap:butt;" x="119.719125" xlink:href="#C0_0_919e3f95db" y="232.659184645"/>
    </g>
    <g clip-path="url(#pd286796ca3)">
     <use style="fill:#999999;stroke:#999999;stroke-linecap:butt;" x="124.589659091" xlink:href="#C0_0_919e3f95db" y="232.711547475"/>
    </g>
    <g clip-path="url(#pd286796ca3)">
     <use style="fill:#999999;stroke:#999999;stroke-linecap:butt;" x="129.460193182" xlink:href="#C0_0_919e3f95db" y="232.775766587"/>
    </g>
    <g clip-path="url(#pd286796ca3)">
     <use style="fill:#999999;stroke:#999999;stroke-linecap:butt;" x="134.330727273" xlink:href="#C0_0_919e3f95db" y="232.854544186"/>
    </g>
    <g clip-path="url(#pd286796ca3)">
     <use style="fill:#999999;stroke:#999999;stroke-linecap:butt;" x="139.201261364" xlink:href="#C0_0_919e3f95db" y="232.951192075"/>
    </g>
    <g clip-path="url(#pd286796ca3)">
     <use style="fill:#999999;stroke:#999999;stroke-linecap:butt;" x="144.071795455" xlink:href="#C0_0_919e3f95db" y="233.069768812"/>
    </g>
    <g clip-path="url(#pd286796ca3)">
     <use style="fill:#999999;stroke:#999999;stroke-linecap:butt;" x="148.942329545" xlink:href="#C0_0_919e3f95db" y="233.215247029"/>
    </g>
    <g clip-path="url(#pd286796ca3)">
     <use style="fill:#999999;stroke:#999999;stroke-linecap:butt;" x="153.812863636" xlink:href="#C0_0_919e3f95db" y="233.393717255"/>
    </g>
    <g clip-path="url(#pd286796ca3)">
     <use style="fill:#999999;stroke:#999999;stroke-linecap:butt;" x="158.683397727" xlink:href="#C0_0_919e3f95db" y="233.612635803"/>
    </g>
    <g clip-path="url(#pd286796ca3)">
     <use style="fill:#999999;stroke:#999999;stroke-linecap:butt;" x="163.553931818" xlink:href="#C0_0_919e3f95db" y="233.881125595"/>
    </g>
    <g clip-path="url(#pd286796ca3)">
     <use style="fill:#999999;stroke:#999999;stroke-linecap:butt;" x="168.424465909" xlink:href="#C0_0_919e3f95db" y="234.210340186"/>
    </g>
    <g clip-path="url(#pd286796ca3)">
     <use style="fill:#999999;stroke:#999999;stroke-linecap:butt;" x="173.295" xlink:href="#C0_0_919e3f95db" y="234.613902752"/>
    </g>
    <g clip-path="url(#pd286796ca3)">
     <use style="fill:#999999;stroke:#999999;stroke-linecap:butt;" x="178.165534091" xlink:href="#C0_0_919e3f95db" y="235.108433061"/>
    </g>
    <g clip-path="url(#pd286796ca3)">
     <use style="fill:#999999;stroke:#999999;stroke-linecap:butt;" x="183.036068182" xlink:href="#C0_0_919e3f95db" y="235.714176427"/>
    </g>
    <g clip-path="url(#pd286796ca3)">
     <use style="fill:#999999;stroke:#999999;stroke-linecap:butt;" x="187.906602273" xlink:href="#C0_0_919e3f95db" y="236.66573519"/>
    </g>
    <g clip-path="url(#pd286796ca3)">
     <use style="fill:#999999;stroke:#999999;stroke-linecap:butt;" x="192.777136364" xlink:href="#C0_0_919e3f95db" y="237.619793212"/>
    </g>
    <g clip-path="url(#pd286796ca3)">
     <use style="fill:#999999;stroke:#999999;stroke-linecap:butt;" x="197.647670455" xlink:href="#C0_0_919e3f95db" y="238.785793401"/>
    </g>
    <g clip-path="url(#pd286796ca3)">
     <use style="fill:#999999;stroke:#999999;stroke-linecap:butt;" x="202.518204545" xlink:href="#C0_0_919e3f95db" y="240.209299424"/>
    </g>
    <g clip-path="url(#pd286796ca3)">
     <use style="fill:#999999;stroke:#999999;stroke-linecap:butt;" x="207.388738636" xlink:href="#C0_0_919e3f95db" y="241.94487953"/>
    </g>
    <g clip-path="url(#pd286796ca3)">
     <use style="fill:#999999;stroke:#999999;stroke-linecap:butt;" x="212.259272727" xlink:href="#C0_0_919e3f95db" y="244.057461232"/>
    </g>
    <g clip-path="url(#pd286796ca3)">
     <use style="fill:#999999;stroke:#999999;stroke-linecap:butt;" x="217.129806818" xlink:href="#C0_0_919e3f95db" y="246.623641395"/>
    </g>
    <g clip-path="url(#pd286796ca3)">
     <use style="fill:#999999;stroke:#999999;stroke-linecap:butt;" x="222.000340909" xlink:href="#C0_0_919e3f95db" y="249.732762406"/>
    </g>
    <g clip-path="url(#pd286796ca3)">
     <use style="fill:#999999;stroke:#999999;stroke-linecap:butt;" x="226.870875" xlink:href="#C0_0_919e3f95db" y="253.487431127"/>
    </g>
    <g clip-path="url(#pd286796ca3)">
     <use style="fill:#999999;stroke:#999999;stroke-linecap:butt;" x="231.741409091" xlink:href="#C0_0_919e3f95db" y="258.002946686"/>
    </g>
    <g clip-path="url(#pd286796ca3)">
     <use style="fill:#999999;stroke:#999999;stroke-linecap:butt;" x="236.611943182" xlink:href="#C0_0_919e3f95db" y="263.40477507"/>
    </g>
    <g clip-path="url(#pd286796ca3)">
     <use style="fill:#999999;stroke:#999999;stroke-linecap:butt;" x="241.482477273" xlink:href="#C0_0_919e3f95db" y="269.822700867"/>
    </g>
    <g clip-path="url(#pd286796ca3)">
     <use style="fill:#999999;stroke:#999999;stroke-linecap:butt;" x="246.353011364" xlink:href="#C0_0_919e3f95db" y="277.379505396"/>
    </g>
    <g clip-path="url(#pd286796ca3)">
     <use style="fill:#999999;stroke:#999999;stroke-linecap:butt;" x="251.223545455" xlink:href="#C0_0_919e3f95db" y="286.170823423"/>
    </g>
    <g clip-path="url(#pd286796ca3)">
     <use style="fill:#999999;stroke:#999999;stroke-linecap:butt;" x="256.094079545" xlink:href="#C0_0_919e3f95db" y="296.231002151"/>
    </g>
    <g clip-path="url(#pd286796ca3)">
     <use style="fill:#999999;stroke:#999999;stroke-linecap:butt;" x="260.964613636" xlink:href="#C0_0_919e3f95db" y="307.477000448"/>
    </g>
    <g clip-path="url(#pd286796ca3)">
     <use style="fill:#999999;stroke:#999999;stroke-linecap:butt;" x="265.835147727" xlink:href="#C0_0_919e3f95db" y="319.618130847"/>
    </g>
    <g clip-path="url(#pd286796ca3)">
     <use style="fill:#999999;stroke:#999999;stroke-linecap:butt;" x="270.705681818" xlink:href="#C0_0_919e3f95db" y="332.013018023"/>
    </g>
    <g clip-path="url(#pd286796ca3)">
     <use style="fill:#999999;stroke:#999999;stroke-linecap:butt;" x="275.576215909" xlink:href="#C0_0_919e3f95db" y="343.445402207"/>
    </g>
    <g clip-path="url(#pd286796ca3)">
     <use style="fill:#999999;stroke:#999999;stroke-linecap:butt;" x="280.44675" xlink:href="#C0_0_919e3f95db" y="351.775659352"/>
    </g>
    <g clip-path="url(#pd286796ca3)">
     <use style="fill:#999999;stroke:#999999;stroke-linecap:butt;" x="285.317284091" xlink:href="#C0_0_919e3f95db" y="353.402583998"/>
    </g>
    <g clip-path="url(#pd286796ca3)">
     <use style="fill:#999999;stroke:#999999;stroke-linecap:butt;" x="290.187818182" xlink:href="#C0_0_919e3f95db" y="342.436226729"/>
    </g>
    <g clip-path="url(#pd286796ca3)">
     <use style="fill:#999999;stroke:#999999;stroke-linecap:butt;" x="295.058352273" xlink:href="#C0_0_919e3f95db" y="309.431574764"/>
    </g>
    <g clip-path="url(#pd286796ca3)">
     <use style="fill:#999999;stroke:#999999;stroke-linecap:butt;" x="299.928886364" xlink:href="#C0_0_919e3f95db" y="239.455832068"/>
    </g>
    <g clip-path="url(#pd286796ca3)">
     <use style="fill:#999999;stroke:#999999;stroke-linecap:butt;" x="304.799420455" xlink:href="#C0_0_919e3f95db" y="109.145754023"/>
    </g>
    <g clip-path="url(#pd286796ca3)">
     <use style="fill:#999999;stroke:#999999;stroke-linecap:butt;" x="309.669954545" xlink:href="#C0_0_919e3f95db" y="61.3361375"/>
    </g>
    <g clip-path="url(#pd286796ca3)">
     <use style="fill:#999999;stroke:#999999;stroke-linecap:butt;" x="314.540488636" xlink:href="#C0_0_919e3f95db" y="93.0730519217"/>
    </g>
    <g clip-path="url(#pd286796ca3)">
     <use style="fill:#999999;stroke:#999999;stroke-linecap:butt;" x="319.411022727" xlink:href="#C0_0_919e3f95db" y="118.922967162"/>
    </g>
    <g clip-path="url(#pd286796ca3)">
     <use style="fill:#999999;stroke:#999999;stroke-linecap:butt;" x="324.281556818" xlink:href="#C0_0_919e3f95db" y="139.977884794"/>
    </g>
    <g clip-path="url(#pd286796ca3)">
     <use style="fill:#999999;stroke:#999999;stroke-linecap:butt;" x="329.152090909" xlink:href="#C0_0_919e3f95db" y="157.127246932"/>
    </g>
    <g clip-path="url(#pd286796ca3)">
     <use style="fill:#999999;stroke:#999999;stroke-linecap:butt;" x="334.022625" xlink:href="#C0_0_919e3f95db" y="171.095509739"/>
    </g>
    <g clip-path="url(#pd286796ca3)">
     <use style="fill:#999999;stroke:#999999;stroke-linecap:butt;" x="338.893159091" xlink:href="#C0_0_919e3f95db" y="182.472747297"/>
    </g>
    <g clip-path="url(#pd286796ca3)">
     <use style="fill:#999999;stroke:#999999;stroke-linecap:butt;" x="343.763693182" xlink:href="#C0_0_919e3f95db" y="191.73957864"/>
    </g>
    <g clip-path="url(#pd286796ca3)">
     <use style="fill:#999999;stroke:#999999;stroke-linecap:butt;" x="348.634227273" xlink:href="#C0_0_919e3f95db" y="199.287470988"/>
    </g>
    <g clip-path="url(#pd286796ca3)">
     <use style="fill:#999999;stroke:#999999;stroke-linecap:butt;" x="353.504761364" xlink:href="#C0_0_919e3f95db" y="205.435276849"/>
    </g>
    <g clip-path="url(#pd286796ca3)">
     <use style="fill:#999999;stroke:#999999;stroke-linecap:butt;" x="358.375295455" xlink:href="#C0_0_919e3f95db" y="210.4427036"/>
    </g>
    <g clip-path="url(#pd286796ca3)">
     <use style="fill:#999999;stroke:#999999;stroke-linecap:butt;" x="363.245829545" xlink:href="#C0_0_919e3f95db" y="214.521284542"/>
    </g>
    <g clip-path="url(#pd286796ca3)">
     <use style="fill:#999999;stroke:#999999;stroke-linecap:butt;" x="368.116363636" xlink:href="#C0_0_919e3f95db" y="217.843314894"/>
    </g>
    <g clip-path="url(#pd286796ca3)">
     <use style="fill:#999999;stroke:#999999;stroke-linecap:butt;" x="372.986897727" xlink:href="#C0_0_919e3f95db" y="220.549130217"/>
    </g>
    <g clip-path="url(#pd286796ca3)">
     <use style="fill:#999999;stroke:#999999;stroke-linecap:butt;" x="377.857431818" xlink:href="#C0_0_919e3f95db" y="222.75303474"/>
    </g>
    <g clip-path="url(#pd286796ca3)">
     <use style="fill:#999999;stroke:#999999;stroke-linecap:butt;" x="382.727965909" xlink:href="#C0_0_919e3f95db" y="224.548130013"/>
    </g>
    <g clip-path="url(#pd286796ca3)">
     <use style="fill:#999999;stroke:#999999;stroke-linecap:butt;" x="387.5985" xlink:href="#C0_0_919e3f95db" y="226.010247885"/>
    </g>
    <g clip-path="url(#pd286796ca3)">
     <use style="fill:#999999;stroke:#999999;stroke-linecap:butt;" x="392.469034091" xlink:href="#C0_0_919e3f95db" y="227.201153938"/>
    </g>
    <g clip-path="url(#pd286796ca3)">
     <use style="fill:#999999;stroke:#999999;stroke-linecap:butt;" x="397.339568182" xlink:href="#C0_0_919e3f95db" y="228.171156701"/>
    </g>
    <g clip-path="url(#pd286796ca3)">
     <use style="fill:#999999;stroke:#999999;stroke-linecap:butt;" x="402.210102273" xlink:href="#C0_0_919e3f95db" y="228.961232889"/>
    </g>
    <g clip-path="url(#pd286796ca3)">
     <use style="fill:#999999;stroke:#999999;stroke-linecap:butt;" x="407.080636364" xlink:href="#C0_0_919e3f95db" y="229.60475841"/>
    </g>
    <g clip-path="url(#pd286796ca3)">
     <use style="fill:#999999;stroke:#999999;stroke-linecap:butt;" x="411.951170455" xlink:href="#C0_0_919e3f95db" y="230.128918302"/>
    </g>
    <g clip-path="url(#pd286796ca3)">
     <use style="fill:#999999;stroke:#999999;stroke-linecap:butt;" x="416.821704545" xlink:href="#C0_0_919e3f95db" y="230.555855128"/>
    </g>
    <g clip-path="url(#pd286796ca3)">
     <use style="fill:#999999;stroke:#999999;stroke-linecap:butt;" x="421.692238636" xlink:href="#C0_0_919e3f95db" y="230.903604372"/>
    </g>
    <g clip-path="url(#pd286796ca3)">
     <use style="fill:#999999;stroke:#999999;stroke-linecap:butt;" x="426.562772727" xlink:href="#C0_0_919e3f95db" y="231.186856323"/>
    </g>
    <g clip-path="url(#pd286796ca3)">
     <use style="fill:#999999;stroke:#999999;stroke-linecap:butt;" x="431.433306818" xlink:href="#C0_0_919e3f95db" y="231.468233373"/>
    </g>
    <g clip-path="url(#pd286796ca3)">
     <use style="fill:#999999;stroke:#999999;stroke-linecap:butt;" x="436.303840909" xlink:href="#C0_0_919e3f95db" y="231.64677553"/>
    </g>
    <g clip-path="url(#pd286796ca3)">
     <use style="fill:#999999;stroke:#999999;stroke-linecap:butt;" x="441.174375" xlink:href="#C0_0_919e3f95db" y="231.792214851"/>
    </g>
    <g clip-path="url(#pd286796ca3)">
     <use style="fill:#999999;stroke:#999999;stroke-linecap:butt;" x="446.044909091" xlink:href="#C0_0_919e3f95db" y="231.910695261"/>
    </g>
    <g clip-path="url(#pd286796ca3)">
     <use style="fill:#999999;stroke:#999999;stroke-linecap:butt;" x="450.915443182" xlink:href="#C0_0_919e3f95db" y="232.007221838"/>
    </g>
    <g clip-path="url(#pd286796ca3)">
     <use style="fill:#999999;stroke:#999999;stroke-linecap:butt;" x="455.785977273" xlink:href="#C0_0_919e3f95db" y="232.085872242"/>
    </g>
    <g clip-path="url(#pd286796ca3)">
     <use style="fill:#999999;stroke:#999999;stroke-linecap:butt;" x="460.656511364" xlink:href="#C0_0_919e3f95db" y="232.149968973"/>
    </g>
    <g clip-path="url(#pd286796ca3)">
     <use style="fill:#999999;stroke:#999999;stroke-linecap:butt;" x="465.527045455" xlink:href="#C0_0_919e3f95db" y="232.202219727"/>
    </g>
    <g clip-path="url(#pd286796ca3)">
     <use style="fill:#999999;stroke:#999999;stroke-linecap:butt;" x="470.397579545" xlink:href="#C0_0_919e3f95db" y="232.244831782"/>
    </g>
    <g clip-path="url(#pd286796ca3)">
     <use style="fill:#999999;stroke:#999999;stroke-linecap:butt;" x="475.268113636" xlink:href="#C0_0_919e3f95db" y="232.279605237"/>
    </g>
    <g clip-path="url(#pd286796ca3)">
     <use style="fill:#999999;stroke:#999999;stroke-linecap:butt;" x="480.138647727" xlink:href="#C0_0_919e3f95db" y="232.30800906"/>
    </g>
    <g clip-path="url(#pd286796ca3)">
     <use style="fill:#999999;stroke:#999999;stroke-linecap:butt;" x="485.009181818" xlink:href="#C0_0_919e3f95db" y="232.331243137"/>
    </g>
    <g clip-path="url(#pd286796ca3)">
     <use style="fill:#999999;stroke:#999999;stroke-linecap:butt;" x="489.879715909" xlink:href="#C0_0_919e3f95db" y="232.350288968"/>
    </g>
    <g clip-path="url(#pd286796ca3)">
     <use style="fill:#999999;stroke:#999999;stroke-linecap:butt;" x="494.75025" xlink:href="#C0_0_919e3f95db" y="232.365951123"/>
    </g>
    <g clip-path="url(#pd286796ca3)">
     <use style="fill:#999999;stroke:#999999;stroke-linecap:butt;" x="499.620784091" xlink:href="#C0_0_919e3f95db" y="232.378891231"/>
    </g>
    <g clip-path="url(#pd286796ca3)">
     <use style="fill:#999999;stroke:#999999;stroke-linecap:butt;" x="504.491318182" xlink:href="#C0_0_919e3f95db" y="232.389655933"/>
    </g>
    <g clip-path="url(#pd286796ca3)">
     <use style="fill:#999999;stroke:#999999;stroke-linecap:butt;" x="509.361852273" xlink:href="#C0_0_919e3f95db" y="232.398699971"/>
    </g>
    <g clip-path="url(#pd286796ca3)">
     <use style="fill:#999999;stroke:#999999;stroke-linecap:butt;" x="514.232386364" xlink:href="#C0_0_919e3f95db" y="232.406405398"/>
    </g>
    <g clip-path="url(#pd286796ca3)">
     <use style="fill:#999999;stroke:#999999;stroke-linecap:butt;" x="519.102920455" xlink:href="#C0_0_919e3f95db" y="232.41309772"/>
    </g>
    <g clip-path="url(#pd286796ca3)">
     <use style="fill:#999999;stroke:#999999;stroke-linecap:butt;" x="523.973454545" xlink:href="#C0_0_919e3f95db" y="232.419059642"/>
    </g>
    <g clip-path="url(#pd286796ca3)">
     <use style="fill:#999999;stroke:#999999;stroke-linecap:butt;" x="528.843988636" xlink:href="#C0_0_919e3f95db" y="232.424543013"/>
    </g>
    <g clip-path="url(#pd286796ca3)">
     <use style="fill:#999999;stroke:#999999;stroke-linecap:butt;" x="533.714522727" xlink:href="#C0_0_919e3f95db" y="232.429779464"/>
    </g>
    <g clip-path="url(#pd286796ca3)">
     <use style="fill:#999999;stroke:#999999;stroke-linecap:butt;" x="538.585056818" xlink:href="#C0_0_919e3f95db" y="232.434990188"/>
    </g>
    <g clip-path="url(#pd286796ca3)">
     <use style="fill:#999999;stroke:#999999;stroke-linecap:butt;" x="543.455590909" xlink:href="#C0_0_919e3f95db" y="232.440395288"/>
    </g>
    <g clip-path="url(#pd286796ca3)">
     <use style="fill:#999999;stroke:#999999;stroke-linecap:butt;" x="548.326125" xlink:href="#C0_0_919e3f95db" y="232.446223064"/>
    </g>
   </g>
   <g id="PathCollection_2">
    <defs>
     <path d="
M0 2.23607
C0.593012 2.23607 1.16182 2.00046 1.58114 1.58114
C2.00046 1.16182 2.23607 0.593012 2.23607 0
C2.23607 -0.593012 2.00046 -1.16182 1.58114 -1.58114
C1.16182 -2.00046 0.593012 -2.23607 0 -2.23607
C-0.593012 -2.23607 -1.16182 -2.00046 -1.58114 -1.58114
C-2.00046 -1.16182 -2.23607 -0.593012 -2.23607 0
C-2.23607 0.593012 -2.00046 1.16182 -1.58114 1.58114
C-1.16182 2.00046 -0.593012 2.23607 0 2.23607
z
" id="C1_0_919e3f95db"/>
    </defs>
    <g clip-path="url(#pd286796ca3)">
     <use style="fill:#ffffff;stroke:#999999;stroke-linecap:butt;" x="66.625432875" xlink:href="#C1_0_919e3f95db" y="235.390318025"/>
    </g>
    <g clip-path="url(#pd286796ca3)">
     <use style="fill:#ffffff;stroke:#999999;stroke-linecap:butt;" x="120.629914875" xlink:href="#C1_0_919e3f95db" y="257.5470234"/>
    </g>
    <g clip-path="url(#pd286796ca3)">
     <use style="fill:#ffffff;stroke:#999999;stroke-linecap:butt;" x="131.720121" xlink:href="#C1_0_919e3f95db" y="227.280450575"/>
    </g>
    <g clip-path="url(#pd286796ca3)">
     <use style="fill:#ffffff;stroke:#999999;stroke-linecap:butt;" x="149.560887375" xlink:href="#C1_0_919e3f95db" y="231.2669466"/>
    </g>
    <g clip-path="url(#pd286796ca3)">
     <use style="fill:#ffffff;stroke:#999999;stroke-linecap:butt;" x="158.722362" xlink:href="#C1_0_919e3f95db" y="246.1863652"/>
    </g>
    <g clip-path="url(#pd286796ca3)">
     <use style="fill:#ffffff;stroke:#999999;stroke-linecap:butt;" x="159.204544875" xlink:href="#C1_0_919e3f95db" y="233.679375525"/>
    </g>
    <g clip-path="url(#pd286796ca3)">
     <use style="fill:#ffffff;stroke:#999999;stroke-linecap:butt;" x="205.011918" xlink:href="#C1_0_919e3f95db" y="255.990065725"/>
    </g>
    <g clip-path="url(#pd286796ca3)">
     <use style="fill:#ffffff;stroke:#999999;stroke-linecap:butt;" x="250.819291125" xlink:href="#C1_0_919e3f95db" y="248.3079339"/>
    </g>
    <g clip-path="url(#pd286796ca3)">
     <use style="fill:#ffffff;stroke:#999999;stroke-linecap:butt;" x="251.301474" xlink:href="#C1_0_919e3f95db" y="258.26561925"/>
    </g>
    <g clip-path="url(#pd286796ca3)">
     <use style="fill:#ffffff;stroke:#999999;stroke-linecap:butt;" x="262.873863" xlink:href="#C1_0_919e3f95db" y="272.894177625"/>
    </g>
    <g clip-path="url(#pd286796ca3)">
     <use style="fill:#ffffff;stroke:#999999;stroke-linecap:butt;" x="265.76696025" xlink:href="#C1_0_919e3f95db" y="255.990065725"/>
    </g>
    <g clip-path="url(#pd286796ca3)">
     <use style="fill:#ffffff;stroke:#999999;stroke-linecap:butt;" x="273.48188625" xlink:href="#C1_0_919e3f95db" y="240.352051275"/>
    </g>
    <g clip-path="url(#pd286796ca3)">
     <use style="fill:#ffffff;stroke:#999999;stroke-linecap:butt;" x="276.616074937" xlink:href="#C1_0_919e3f95db" y="287.2489852"/>
    </g>
    <g clip-path="url(#pd286796ca3)">
     <use style="fill:#ffffff;stroke:#999999;stroke-linecap:butt;" x="287.465189625" xlink:href="#C1_0_919e3f95db" y="276.2989532"/>
    </g>
    <g clip-path="url(#pd286796ca3)">
     <use style="fill:#ffffff;stroke:#999999;stroke-linecap:butt;" x="294.939024187" xlink:href="#C1_0_919e3f95db" y="293.630800725"/>
    </g>
    <g clip-path="url(#pd286796ca3)">
     <use style="fill:#ffffff;stroke:#999999;stroke-linecap:butt;" x="295.421207062" xlink:href="#C1_0_919e3f95db" y="269.90002825"/>
    </g>
    <g clip-path="url(#pd286796ca3)">
     <use style="fill:#ffffff;stroke:#999999;stroke-linecap:butt;" x="296.385572812" xlink:href="#C1_0_919e3f95db" y="255.134594475"/>
    </g>
    <g clip-path="url(#pd286796ca3)">
     <use style="fill:#ffffff;stroke:#999999;stroke-linecap:butt;" x="296.62666425" xlink:href="#C1_0_919e3f95db" y="307.13013705"/>
    </g>
    <g clip-path="url(#pd286796ca3)">
     <use style="fill:#ffffff;stroke:#999999;stroke-linecap:butt;" x="298.073212875" xlink:href="#C1_0_919e3f95db" y="101.971021875"/>
    </g>
    <g clip-path="url(#pd286796ca3)">
     <use style="fill:#ffffff;stroke:#999999;stroke-linecap:butt;" x="300.725218687" xlink:href="#C1_0_919e3f95db" y="231.968433025"/>
    </g>
    <g clip-path="url(#pd286796ca3)">
     <use style="fill:#ffffff;stroke:#999999;stroke-linecap:butt;" x="300.725218687" xlink:href="#C1_0_919e3f95db" y="259.685701525"/>
    </g>
    <g clip-path="url(#pd286796ca3)">
     <use style="fill:#ffffff;stroke:#999999;stroke-linecap:butt;" x="300.966310125" xlink:href="#C1_0_919e3f95db" y="192.753630925"/>
    </g>
    <g clip-path="url(#pd286796ca3)">
     <use style="fill:#ffffff;stroke:#999999;stroke-linecap:butt;" x="311.574333375" xlink:href="#C1_0_919e3f95db" y="77.24790275"/>
    </g>
    <g clip-path="url(#pd286796ca3)">
     <use style="fill:#ffffff;stroke:#999999;stroke-linecap:butt;" x="317.360527875" xlink:href="#C1_0_919e3f95db" y="180.9652371"/>
    </g>
    <g clip-path="url(#pd286796ca3)">
     <use style="fill:#ffffff;stroke:#999999;stroke-linecap:butt;" x="319.77144225" xlink:href="#C1_0_919e3f95db" y="55.7926838"/>
    </g>
    <g clip-path="url(#pd286796ca3)">
     <use style="fill:#ffffff;stroke:#999999;stroke-linecap:butt;" x="322.423448062" xlink:href="#C1_0_919e3f95db" y="195.8846557"/>
    </g>
    <g clip-path="url(#pd286796ca3)">
     <use style="fill:#ffffff;stroke:#999999;stroke-linecap:butt;" x="324.111088125" xlink:href="#C1_0_919e3f95db" y="175.1480326"/>
    </g>
    <g clip-path="url(#pd286796ca3)">
     <use style="fill:#ffffff;stroke:#999999;stroke-linecap:butt;" x="324.834362437" xlink:href="#C1_0_919e3f95db" y="67.73506245"/>
    </g>
    <g clip-path="url(#pd286796ca3)">
     <use style="fill:#ffffff;stroke:#999999;stroke-linecap:butt;" x="325.075453875" xlink:href="#C1_0_919e3f95db" y="87.3424635"/>
    </g>
    <g clip-path="url(#pd286796ca3)">
     <use style="fill:#ffffff;stroke:#999999;stroke-linecap:butt;" x="326.039819625" xlink:href="#C1_0_919e3f95db" y="148.14935995"/>
    </g>
    <g clip-path="url(#pd286796ca3)">
     <use style="fill:#ffffff;stroke:#999999;stroke-linecap:butt;" x="326.280911062" xlink:href="#C1_0_919e3f95db" y="229.128268475"/>
    </g>
    <g clip-path="url(#pd286796ca3)">
     <use style="fill:#ffffff;stroke:#999999;stroke-linecap:butt;" x="326.5220025" xlink:href="#C1_0_919e3f95db" y="106.94986455"/>
    </g>
    <g clip-path="url(#pd286796ca3)">
     <use style="fill:#ffffff;stroke:#999999;stroke-linecap:butt;" x="326.763093937" xlink:href="#C1_0_919e3f95db" y="199.152555875"/>
    </g>
    <g clip-path="url(#pd286796ca3)">
     <use style="fill:#ffffff;stroke:#999999;stroke-linecap:butt;" x="347.496957562" xlink:href="#C1_0_919e3f95db" y="171.4523968"/>
    </g>
    <g clip-path="url(#pd286796ca3)">
     <use style="fill:#ffffff;stroke:#999999;stroke-linecap:butt;" x="347.738049" xlink:href="#C1_0_919e3f95db" y="157.38844945"/>
    </g>
    <g clip-path="url(#pd286796ca3)">
     <use style="fill:#ffffff;stroke:#999999;stroke-linecap:butt;" x="367.98972975" xlink:href="#C1_0_919e3f95db" y="207.399298725"/>
    </g>
    <g clip-path="url(#pd286796ca3)">
     <use style="fill:#ffffff;stroke:#999999;stroke-linecap:butt;" x="369.91846125" xlink:href="#C1_0_919e3f95db" y="227.999046425"/>
    </g>
    <g clip-path="url(#pd286796ca3)">
     <use style="fill:#ffffff;stroke:#999999;stroke-linecap:butt;" x="391.616690625" xlink:href="#C1_0_919e3f95db" y="201.5649848"/>
    </g>
    <g clip-path="url(#pd286796ca3)">
     <use style="fill:#ffffff;stroke:#999999;stroke-linecap:butt;" x="442.004801062" xlink:href="#C1_0_919e3f95db" y="251.438958675"/>
    </g>
    <g clip-path="url(#pd286796ca3)">
     <use style="fill:#ffffff;stroke:#999999;stroke-linecap:butt;" x="491.669637187" xlink:href="#C1_0_919e3f95db" y="215.663151"/>
    </g>
    <g clip-path="url(#pd286796ca3)">
     <use style="fill:#ffffff;stroke:#999999;stroke-linecap:butt;" x="512.403500812" xlink:href="#C1_0_919e3f95db" y="240.078300475"/>
    </g>
    <g clip-path="url(#pd286796ca3)">
     <use style="fill:#ffffff;stroke:#999999;stroke-linecap:butt;" x="535.066095937" xlink:href="#C1_0_919e3f95db" y="227.5713108"/>
    </g>
   </g>
   <g id="line2d_1">
    <path clip-path="url(#pd286796ca3)" d="
M66.1432 236.86
L85.4306 237.961
L102.307 239.146
L116.772 240.363
L131.238 241.8
L143.293 243.195
L155.347 244.797
L167.402 246.638
L177.045 248.306
L186.689 250.17
L196.333 252.253
L205.976 254.58
L215.62 257.181
L222.853 259.33
L230.085 261.665
L237.318 264.203
L244.551 266.962
L251.784 269.96
L259.016 273.218
L266.249 276.76
L273.482 280.608
L280.715 284.791
L287.947 289.337
L292.769 292.585
L297.591 296.018
L302.413 299.648
L304.824 301.539
M309.646 61.1582
L312.057 77.6992
L314.467 92.6427
L316.878 106.143
L319.289 118.339
L321.7 129.358
L324.111 139.312
L326.522 148.306
L328.933 156.43
L331.344 163.77
L333.755 170.401
L336.166 176.392
L338.577 181.804
L340.987 186.693
L343.398 191.11
L345.809 195.101
L348.22 198.706
L350.631 201.963
L353.042 204.905
L355.453 207.564
L357.864 209.965
L360.275 212.135
L362.686 214.095
L365.097 215.866
L367.508 217.466
L369.918 218.911
L374.74 221.396
L379.562 223.424
L384.384 225.08
L389.206 226.431
L394.028 227.534
L398.849 228.434
L406.082 229.484
L413.315 230.258
L420.548 230.828
L430.191 231.363
L442.246 231.788
L459.122 232.115
L483.231 232.316
L526.628 232.412
L548.326 232.423
L548.326 232.423" style="fill:none;stroke:#000000;stroke-dasharray:6.000000,6.000000;stroke-dashoffset:0.0;stroke-linecap:butt;stroke-width:1.5;"/>
   </g>
   <g id="line2d_2">
    <path clip-path="url(#pd286796ca3)" d="
M66.1432 242.461
L131.238 244.013
L191.511 245.664
L249.373 247.469
L302.413 249.34
L304.824 249.43
M309.646 94.4553
L312.057 103.499
L314.467 111.95
L316.878 119.847
L319.289 127.226
L321.7 134.122
L324.111 140.566
L326.522 146.587
L328.933 152.214
L331.344 157.472
L333.755 162.385
L336.166 166.976
L338.577 171.266
L340.987 175.275
L343.398 179.022
L345.809 182.522
L348.22 185.794
L350.631 188.85
L353.042 191.707
L355.453 194.376
L357.864 196.87
L362.686 201.379
L367.508 205.316
L372.329 208.754
L377.151 211.756
L381.973 214.378
L386.795 216.667
L391.617 218.665
L396.439 220.411
L401.26 221.935
L406.082 223.266
L410.904 224.428
L418.137 225.9
L425.369 227.102
L432.602 228.083
L442.246 229.115
L451.89 229.903
L463.944 230.629
L478.41 231.231
L495.286 231.684
L516.984 232.025
L548.326 232.262
L548.326 232.262" style="fill:none;stroke:#000000;stroke-width:1.5;"/>
   </g>
   <g id="line2d_3">
    <path clip-path="url(#pd286796ca3)" d="
M66.1433 232.43
L548.326 232.43" style="fill:none;stroke:#000000;stroke-dasharray:1.000000,3.000000;stroke-dashoffset:0.0;stroke-linecap:butt;"/>
   </g>
   <g id="line2d_4">
    <path clip-path="url(#pd286796ca3)" d="
M307.235 377.861
L307.235 35.672" style="fill:none;stroke:#000000;stroke-dasharray:1.000000,3.000000;stroke-dashoffset:0.0;stroke-linecap:butt;"/>
   </g>
   <g id="matplotlib.axis_1">
    <g id="xtick_1">
     <g id="line2d_5">
      <defs>
       <path d="
M0 0
L0 -4" id="m0012dd4eef" style="stroke:#000000;stroke-linecap:butt;stroke-width:0.5;"/>
      </defs>
      <g>
       <use style="stroke:#000000;stroke-linecap:butt;stroke-width:0.5;" x="66.14325" xlink:href="#m0012dd4eef" y="377.8605"/>
      </g>
     </g>
     <g id="text_1">
      <text style="font-family:Times New Roman;font-size:18.0px;font-style:normal;" transform="translate(50.331375 394.01675)">-100</text>
     </g>
    </g>
    <g id="xtick_2">
     <g id="line2d_6">
      <g>
       <use style="stroke:#000000;stroke-linecap:butt;stroke-width:0.5;" x="186.68896875" xlink:href="#m0012dd4eef" y="377.8605"/>
      </g>
     </g>
     <g id="text_2">
      <text style="font-family:Times New Roman;font-size:18.0px;font-style:normal;" transform="translate(175.37709375 394.01675)">-50</text>
     </g>
    </g>
    <g id="xtick_3">
     <g id="line2d_7">
      <g>
       <use style="stroke:#000000;stroke-linecap:butt;stroke-width:0.5;" x="307.2346875" xlink:href="#m0012dd4eef" y="377.8605"/>
      </g>
     </g>
     <g id="text_3">
      <text style="font-family:Times New Roman;font-size:18.0px;font-style:normal;" transform="translate(303.38015625 394.01675)">0</text>
     </g>
    </g>
    <g id="xtick_4">
     <g id="line2d_8">
      <g>
       <use style="stroke:#000000;stroke-linecap:butt;stroke-width:0.5;" x="427.78040625" xlink:href="#m0012dd4eef" y="377.8605"/>
      </g>
     </g>
     <g id="text_4">
      <text style="font-family:Times New Roman;font-size:18.0px;font-style:normal;" transform="translate(419.53134375 394.01675)">50</text>
     </g>
    </g>
    <g id="xtick_5">
     <g id="line2d_9">
      <g>
       <use style="stroke:#000000;stroke-linecap:butt;stroke-width:0.5;" x="548.326125" xlink:href="#m0012dd4eef" y="377.8605"/>
      </g>
     </g>
     <g id="text_5">
      <text style="font-family:Times New Roman;font-size:18.0px;font-style:normal;" transform="translate(536.2014375 394.01675)">100</text>
     </g>
    </g>
    <g id="text_6">
     <text style="font-family:Times New Roman;font-size:18.0px;font-style:normal;" transform="translate(242.60484375 411.7276875)">Spike timing (ms)</text>
    </g>
   </g>
   <g id="matplotlib.axis_2">
    <g id="ytick_1">
     <g id="line2d_10">
      <defs>
       <path d="
M0 0
L4 0" id="me8a85f7bf6" style="stroke:#000000;stroke-linecap:butt;stroke-width:0.5;"/>
      </defs>
      <g>
       <use style="stroke:#000000;stroke-linecap:butt;stroke-width:0.5;" x="66.14325" xlink:href="#me8a85f7bf6" y="317.9775125"/>
      </g>
     </g>
     <g id="text_7">
      <text style="font-family:Times New Roman;font-size:18.0px;font-style:normal;" transform="translate(39.5195 323.9462625)">-50</text>
     </g>
    </g>
    <g id="ytick_2">
     <g id="line2d_11">
      <g>
       <use style="stroke:#000000;stroke-linecap:butt;stroke-width:0.5;" x="66.14325" xlink:href="#me8a85f7bf6" y="232.4303875"/>
      </g>
     </g>
     <g id="text_8">
      <text style="font-family:Times New Roman;font-size:18.0px;font-style:normal;" transform="translate(54.4341875 238.3991375)">0</text>
     </g>
    </g>
    <g id="ytick_3">
     <g id="line2d_12">
      <g>
       <use style="stroke:#000000;stroke-linecap:butt;stroke-width:0.5;" x="66.14325" xlink:href="#me8a85f7bf6" y="146.8832625"/>
      </g>
     </g>
     <g id="text_9">
      <text style="font-family:Times New Roman;font-size:18.0px;font-style:normal;" transform="translate(45.645125 152.8520125)">50</text>
     </g>
    </g>
    <g id="ytick_4">
     <g id="line2d_13">
      <g>
       <use style="stroke:#000000;stroke-linecap:butt;stroke-width:0.5;" x="66.14325" xlink:href="#me8a85f7bf6" y="61.3361375"/>
      </g>
     </g>
     <g id="text_10">
      <text style="font-family:Times New Roman;font-size:18.0px;font-style:normal;" transform="translate(37.893875 67.3048875)">100</text>
     </g>
    </g>
    <g id="text_11">
     <text style="font-family:Times New Roman;font-size:18.0px;font-style:normal;" transform="translate(32.893875 323.4728125)rotate(-90.0)">Change in connection weight (%)</text>
    </g>
   </g>
   <g id="patch_3">
    <path d="
M66.1432 377.861
L548.326 377.861" style="fill:none;stroke:#000000;"/>
   </g>
   <g id="patch_4">
    <path d="
M66.1433 377.861
L66.1433 35.672" style="fill:none;stroke:#000000;"/>
   </g>
   <g id="text_12">
    <text style="font-family:Times New Roman;font-size:21.6px;font-style:normal;" transform="translate(205.972875 30.58925)">Replicated STDP curve</text>
   </g>
   <g id="legend_1">
    <g id="PathCollection_3">
     <defs>
      <path d="
M0 2.23607
C0.593012 2.23607 1.16182 2.00046 1.58114 1.58114
C2.00046 1.16182 2.23607 0.593012 2.23607 0
C2.23607 -0.593012 2.00046 -1.16182 1.58114 -1.58114
C1.16182 -2.00046 0.593012 -2.23607 0 -2.23607
C-0.593012 -2.23607 -1.16182 -2.00046 -1.58114 -1.58114
C-2.00046 -1.16182 -2.23607 -0.593012 -2.23607 0
C-2.23607 0.593012 -2.00046 1.16182 -1.58114 1.58114
C-1.16182 2.00046 -0.593012 2.23607 0 2.23607
z
" id="C2_0_919e3f95db"/>
      <path d="
M0 2.23607
C0.593012 2.23607 1.16182 2.00046 1.58114 1.58114
C2.00046 1.16182 2.23607 0.593012 2.23607 0
C2.23607 -0.593012 2.00046 -1.16182 1.58114 -1.58114
C1.16182 -2.00046 0.593012 -2.23607 0 -2.23607
C-0.593012 -2.23607 -1.16182 -2.00046 -1.58114 -1.58114
C-2.00046 -1.16182 -2.23607 -0.593012 -2.23607 0
C-2.23607 0.593012 -2.00046 1.16182 -1.58114 1.58114
C-1.16182 2.00046 -0.593012 2.23607 0 2.23607
z
" id="C2_1_919e3f95db"/>
      <path d="
M0 2.23607
C0.593012 2.23607 1.16182 2.00046 1.58114 1.58114
C2.00046 1.16182 2.23607 0.593012 2.23607 0
C2.23607 -0.593012 2.00046 -1.16182 1.58114 -1.58114
C1.16182 -2.00046 0.593012 -2.23607 0 -2.23607
C-0.593012 -2.23607 -1.16182 -2.00046 -1.58114 -1.58114
C-2.00046 -1.16182 -2.23607 -0.593012 -2.23607 0
C-2.23607 0.593012 -2.00046 1.16182 -1.58114 1.58114
C-1.16182 2.00046 -0.593012 2.23607 0 2.23607
z
" id="C2_2_919e3f95db"/>
     </defs>
     <use style="fill:#999999;stroke:#999999;stroke-linecap:butt;" x="85.34325" xlink:href="#C2_0_919e3f95db" y="57.072"/>
     <use style="fill:#999999;stroke:#999999;stroke-linecap:butt;" x="96.54325" xlink:href="#C2_1_919e3f95db" y="55.672"/>
     <use style="fill:#999999;stroke:#999999;stroke-linecap:butt;" x="107.74325" xlink:href="#C2_2_919e3f95db" y="57.772"/>
    </g>
    <g id="text_13">
     <text style="font-family:Times New Roman;font-size:16.0px;font-style:normal;" transform="translate(125.34325 61.2645)">Simulation</text>
    </g>
    <g id="PathCollection_4">
     <defs>
      <path d="
M0 2.23607
C0.593012 2.23607 1.16182 2.00046 1.58114 1.58114
C2.00046 1.16182 2.23607 0.593012 2.23607 0
C2.23607 -0.593012 2.00046 -1.16182 1.58114 -1.58114
C1.16182 -2.00046 0.593012 -2.23607 0 -2.23607
C-0.593012 -2.23607 -1.16182 -2.00046 -1.58114 -1.58114
C-2.00046 -1.16182 -2.23607 -0.593012 -2.23607 0
C-2.23607 0.593012 -2.00046 1.16182 -1.58114 1.58114
C-1.16182 2.00046 -0.593012 2.23607 0 2.23607
z
" id="C3_0_919e3f95db"/>
      <path d="
M0 2.23607
C0.593012 2.23607 1.16182 2.00046 1.58114 1.58114
C2.00046 1.16182 2.23607 0.593012 2.23607 0
C2.23607 -0.593012 2.00046 -1.16182 1.58114 -1.58114
C1.16182 -2.00046 0.593012 -2.23607 0 -2.23607
C-0.593012 -2.23607 -1.16182 -2.00046 -1.58114 -1.58114
C-2.00046 -1.16182 -2.23607 -0.593012 -2.23607 0
C-2.23607 0.593012 -2.00046 1.16182 -1.58114 1.58114
C-1.16182 2.00046 -0.593012 2.23607 0 2.23607
z
" id="C3_1_919e3f95db"/>
      <path d="
M0 2.23607
C0.593012 2.23607 1.16182 2.00046 1.58114 1.58114
C2.00046 1.16182 2.23607 0.593012 2.23607 0
C2.23607 -0.593012 2.00046 -1.16182 1.58114 -1.58114
C1.16182 -2.00046 0.593012 -2.23607 0 -2.23607
C-0.593012 -2.23607 -1.16182 -2.00046 -1.58114 -1.58114
C-2.00046 -1.16182 -2.23607 -0.593012 -2.23607 0
C-2.23607 0.593012 -2.00046 1.16182 -1.58114 1.58114
C-1.16182 2.00046 -0.593012 2.23607 0 2.23607
z
" id="C3_2_919e3f95db"/>
     </defs>
     <use style="fill:#ffffff;stroke:#999999;stroke-linecap:butt;" x="85.34325" xlink:href="#C3_0_919e3f95db" y="79.6945"/>
     <use style="fill:#ffffff;stroke:#999999;stroke-linecap:butt;" x="96.54325" xlink:href="#C3_1_919e3f95db" y="78.2945"/>
     <use style="fill:#ffffff;stroke:#999999;stroke-linecap:butt;" x="107.74325" xlink:href="#C3_2_919e3f95db" y="80.3945"/>
    </g>
    <g id="text_14">
     <text style="font-family:Times New Roman;font-size:16.0px;font-style:normal;" transform="translate(125.34325 83.895125)">Experiment</text>
    </g>
   </g>
  </g>
 </g>
 <defs>
  <clipPath id="pd286796ca3">
   <rect height="342.1885" width="482.182875" x="66.14325" y="35.672"/>
  </clipPath>
 </defs>
</svg>
